<?xml version="1.0" encoding="UTF-8" standalone="no"?>
<!-- Created with Inkscape (http://www.inkscape.org/) -->
<svg
   xmlns:dc="http://purl.org/dc/elements/1.1/"
   xmlns:cc="http://creativecommons.org/ns#"
   xmlns:rdf="http://www.w3.org/1999/02/22-rdf-syntax-ns#"
   xmlns:svg="http://www.w3.org/2000/svg"
   xmlns="http://www.w3.org/2000/svg"
   xmlns:sodipodi="http://sodipodi.sourceforge.net/DTD/sodipodi-0.dtd"
   xmlns:inkscape="http://www.inkscape.org/namespaces/inkscape"
   width="128"
   height="128"
   id="svg2"
   sodipodi:version="0.32"
   inkscape:version="0.46"
   version="1.0"
   sodipodi:docname="abstract3.svg"
   inkscape:output_extension="org.inkscape.output.svg.inkscape">
  <defs
     id="defs4">
    <inkscape:perspective
       sodipodi:type="inkscape:persp3d"
       inkscape:vp_x="0 : 526.18109 : 1"
       inkscape:vp_y="0 : 1000 : 0"
       inkscape:vp_z="744.09448 : 526.18109 : 1"
       inkscape:persp3d-origin="372.04724 : 350.78739 : 1"
       id="perspective10" />
    <inkscape:perspective
       sodipodi:type="inkscape:persp3d"
       inkscape:vp_x="0 : 526.18109 : 1"
       inkscape:vp_y="0 : 1000 : 0"
       inkscape:vp_z="744.09448 : 526.18109 : 1"
       inkscape:persp3d-origin="372.04724 : 350.78739 : 1"
       id="perspective3411" />
    <inkscape:perspective
       sodipodi:type="inkscape:persp3d"
       inkscape:vp_x="0 : 526.18109 : 1"
       inkscape:vp_y="0 : 1000 : 0"
       inkscape:vp_z="744.09448 : 526.18109 : 1"
       inkscape:persp3d-origin="372.04724 : 350.78739 : 1"
       id="perspective3258" />
    <linearGradient
       id="linearGradient4622">
      <stop
         id="stop4624"
         offset="0"
         style="stop-color:#dabce7;stop-opacity:1;" />
      <stop
         id="stop4626"
         offset="1"
         style="stop-color:#efe8ef;stop-opacity:1;" />
    </linearGradient>
    <inkscape:perspective
       id="perspective11"
       inkscape:persp3d-origin="24 : 16 : 1"
       inkscape:vp_z="48 : 24 : 1"
       inkscape:vp_y="0 : 1000 : 0"
       inkscape:vp_x="0 : 24 : 1"
       sodipodi:type="inkscape:persp3d" />
    <inkscape:perspective
       sodipodi:type="inkscape:persp3d"
       inkscape:vp_x="0 : 526.18109 : 1"
       inkscape:vp_y="0 : 1000 : 0"
       inkscape:vp_z="744.09448 : 526.18109 : 1"
       inkscape:persp3d-origin="372.04724 : 350.78739 : 1"
       id="perspective3385" />
    <inkscape:perspective
       sodipodi:type="inkscape:persp3d"
       inkscape:vp_x="0 : 526.18109 : 1"
       inkscape:vp_y="0 : 1000 : 0"
       inkscape:vp_z="744.09448 : 526.18109 : 1"
       inkscape:persp3d-origin="372.04724 : 350.78739 : 1"
       id="perspective3383" />
    <linearGradient
       id="linearGradient3377">
      <stop
         id="stop3379"
         offset="0"
         style="stop-color:#dabce7;stop-opacity:1;" />
      <stop
         id="stop3381"
         offset="1"
         style="stop-color:#efe8ef;stop-opacity:1;" />
    </linearGradient>
    <inkscape:perspective
       id="perspective3375"
       inkscape:persp3d-origin="24 : 16 : 1"
       inkscape:vp_z="48 : 24 : 1"
       inkscape:vp_y="0 : 1000 : 0"
       inkscape:vp_x="0 : 24 : 1"
       sodipodi:type="inkscape:persp3d" />
    <inkscape:perspective
       sodipodi:type="inkscape:persp3d"
       inkscape:vp_x="0 : 526.18109 : 1"
       inkscape:vp_y="0 : 1000 : 0"
       inkscape:vp_z="744.09448 : 526.18109 : 1"
       inkscape:persp3d-origin="372.04724 : 350.78739 : 1"
       id="perspective3567" />
    <inkscape:perspective
       sodipodi:type="inkscape:persp3d"
       inkscape:vp_x="0 : 526.18109 : 1"
       inkscape:vp_y="0 : 1000 : 0"
       inkscape:vp_z="744.09448 : 526.18109 : 1"
       inkscape:persp3d-origin="372.04724 : 350.78739 : 1"
       id="perspective3565" />
    <linearGradient
       id="linearGradient3559">
      <stop
         id="stop3561"
         offset="0"
         style="stop-color:#dabce7;stop-opacity:1;" />
      <stop
         id="stop3563"
         offset="1"
         style="stop-color:#efe8ef;stop-opacity:1;" />
    </linearGradient>
    <inkscape:perspective
       id="perspective3557"
       inkscape:persp3d-origin="24 : 16 : 1"
       inkscape:vp_z="48 : 24 : 1"
       inkscape:vp_y="0 : 1000 : 0"
       inkscape:vp_x="0 : 24 : 1"
       sodipodi:type="inkscape:persp3d" />
  </defs>
  <sodipodi:namedview
     id="base"
     pagecolor="#ffffff"
     bordercolor="#666666"
     borderopacity="1.0"
     inkscape:pageopacity="0.0"
     inkscape:pageshadow="2"
     inkscape:zoom="4"
     inkscape:cx="83.600842"
     inkscape:cy="50.481382"
     inkscape:document-units="px"
     inkscape:current-layer="layer1"
     showgrid="false"
     width="524.41px"
     borderlayer="false"
     inkscape:showpageshadow="false"
     inkscape:window-width="1440"
     inkscape:window-height="846"
     inkscape:window-x="-4"
     inkscape:window-y="-1" />
  <metadata
     id="metadata7">
    <rdf:RDF>
      <cc:Work
         rdf:about="">
        <dc:format>image/svg+xml</dc:format>
        <dc:type
           rdf:resource="http://purl.org/dc/dcmitype/StillImage" />
      </cc:Work>
    </rdf:RDF>
  </metadata>
  <g
     inkscape:label="Capa 1"
     inkscape:groupmode="layer"
     id="layer1">
    <path
       style="opacity:0.16;fill:#000000;fill-opacity:1;stroke:none;stroke-width:3;stroke-miterlimit:4;stroke-dasharray:none;stroke-opacity:1"
       d="M 63.817971,32.68881 C 47.197264,32.68881 33.708256,46.631358 33.708255,63.808608 C 33.708255,80.98586 47.197268,94.928403 63.817971,94.928406 C 80.438678,94.928406 93.927687,80.985863 93.927687,63.808608 L 93.927687,32.68881 L 63.912457,32.68881 C 63.880694,32.688708 63.849758,32.68881 63.817971,32.68881 z"
       id="path3220" />
    <rect
       style="opacity:0.66000001;fill:#000000;fill-opacity:1;stroke:none;stroke-width:3;stroke-miterlimit:4;stroke-dasharray:none;stroke-opacity:1"
       id="rect3181"
       width="0.98214287"
       height="0"
       x="38.660713"
       y="20.142857"
       rx="5.7008772"
       ry="0" />
    <path
       style="opacity:0.26000001000000000;fill:#000000;fill-opacity:1;stroke:none;stroke-width:3;stroke-miterlimit:4;stroke-dasharray:none;stroke-opacity:1"
       d="M 62.46875 -0.21875 L 62.46875 -0.1875 C 62.320858 -0.18443244 62.178891 -0.16031669 62.03125 -0.15625 C 61.104456 -0.13029931 60.166565 -0.096087374 59.25 -0.03125 C 59.229159 -0.029775916 59.208333 -0.032743972 59.1875 -0.03125 C 58.281022 0.033755517 57.364411 0.11649117 56.46875 0.21875 C 56.004852 0.27167284 55.554592 0.31223935 55.09375 0.375 C 54.56425 0.44713436 54.025304 0.54003588 53.5 0.625 C 53.122707 0.68596857 52.750064 0.7449841 52.375 0.8125 C 51.494626 0.97128548 50.617483 1.1494593 49.75 1.34375 C 48.732259 1.5716947 47.748836 1.8181123 46.75 2.09375 C 45.839431 2.3450297 44.925087 2.6163441 44.03125 2.90625 C 43.766143 2.9920524 43.513585 3.098355 43.25 3.1875 C 42.702058 3.3732164 42.134929 3.5500039 41.59375 3.75 C 40.924362 3.9968269 40.283675 4.2629657 39.625 4.53125 C 39.341411 4.646962 39.062784 4.755366 38.78125 4.875 C 38.326685 5.0678407 37.855371 5.2658047 37.40625 5.46875 C 37.10221 5.6063669 36.80148 5.7328063 36.5 5.875 C 36.352039 5.9446636 36.209848 6.0229919 36.0625 6.09375 C 35.310298 6.4549714 34.579324 6.8294335 33.84375 7.21875 C 33.789637 7.2474295 33.710271 7.2836702 33.65625 7.3125 C 32.932539 7.6981902 32.23809 8.1189962 31.53125 8.53125 C 31.266376 8.6859757 31.012436 8.8416071 30.75 9 C 30.24471 9.3045415 29.714827 9.5883105 29.21875 9.90625 C 28.620809 10.289934 28.052874 10.690996 27.46875 11.09375 C 27.375432 11.157992 27.280455 11.216529 27.1875 11.28125 C 26.515764 11.749682 25.840097 12.22563 25.1875 12.71875 C 24.845875 12.97651 24.523752 13.266871 24.1875 13.53125 C 23.894669 13.761785 23.601181 13.98326 23.3125 14.21875 C 22.825343 14.615754 22.350103 14.995393 21.875 15.40625 C 21.453635 15.770818 21.03664 16.156008 20.625 16.53125 C 20.307202 16.820816 19.999392 17.110441 19.6875 17.40625 C 19.428269 17.652294 19.161339 17.874703 18.90625 18.125 C 18.262683 18.755864 17.616587 19.43647 17 20.09375 C 16.364104 20.771617 15.762455 21.451273 15.15625 22.15625 C 15.039973 22.291686 14.927668 22.426089 14.8125 22.5625 C 14.344824 23.115688 13.85525 23.681019 13.40625 24.25 C 13.086821 24.655118 12.778505 25.055837 12.46875 25.46875 C 12.257836 25.749609 12.05012 26.028098 11.84375 26.3125 C 11.551633 26.715608 11.282864 27.121159 11 27.53125 C 10.52161 28.223787 10.045158 28.944368 9.59375 29.65625 C 9.197713 30.280824 8.8122311 30.892319 8.4375 31.53125 C 8.1598654 32.005239 7.921921 32.487102 7.65625 32.96875 C 7.3011717 33.611368 6.9583586 34.281662 6.625 34.9375 C 6.1708496 35.830979 5.6940176 36.70804 5.28125 37.625 C 5.2734186 37.642442 5.2890609 37.670052 5.28125 37.6875 C 4.8933962 38.551203 4.5375992 39.429056 4.1875 40.3125 C 4.1251842 40.470054 4.0610963 40.62309 4 40.78125 C 3.6667322 41.642411 3.3590518 42.496349 3.0625 43.375 C 2.7336566 44.349324 2.4387422 45.349127 2.15625 46.34375 C 1.8729517 47.34122 1.5791349 48.327147 1.34375 49.34375 C 1.1089899 50.357648 0.9045786 51.405849 0.71875 52.4375 C 0.53361681 53.465259 0.38530475 54.487133 0.25 55.53125 C 0.11532009 56.570518 -0.0096846806 57.633271 -0.09375 58.6875 C -0.097035628 58.729106 -0.090545018 58.770872 -0.09375 58.8125 C -0.17410642 59.845659 -0.21943172 60.891214 -0.25 61.9375 L -0.3125 61.9375 L -0.3125 63.78125 C -0.31251003 63.791825 -0.3125 63.801925 -0.3125 63.8125 L -0.3125 127.8125 L 63.8125 127.8125 L 63.84375 127.8125 L 65.1875 127.8125 L 65.1875 127.78125 C 65.345914 127.77796 65.498117 127.75444 65.65625 127.75 C 66.572462 127.72391 67.500036 127.6891 68.40625 127.625 C 68.416677 127.62426 68.427078 127.62574 68.4375 127.625 C 68.448041 127.62425 68.458208 127.62575 68.46875 127.625 C 69.375227 127.55999 70.291839 127.47726 71.1875 127.375 C 71.64103 127.32326 72.080637 127.2799 72.53125 127.21875 C 73.068884 127.1458 73.622933 127.05493 74.15625 126.96875 C 74.367562 126.93457 74.570638 126.91123 74.78125 126.875 C 74.949059 126.84617 75.113886 126.81138 75.28125 126.78125 C 76.161623 126.62246 77.038767 126.44429 77.90625 126.25 C 78.923994 126.02206 79.907414 125.77564 80.90625 125.5 C 81.816823 125.24872 82.731159 124.97741 83.625 124.6875 C 83.719924 124.65671 83.811521 124.62496 83.90625 124.59375 C 84.06389 124.54191 84.217905 124.49052 84.375 124.4375 C 84.935681 124.24786 85.508897 124.04834 86.0625 123.84375 C 86.731889 123.59692 87.372573 123.33079 88.03125 123.0625 C 88.136277 123.01972 88.239005 122.98081 88.34375 122.9375 C 88.788258 122.75337 89.216853 122.56876 89.65625 122.375 C 90.149718 122.15776 90.669396 121.94796 91.15625 121.71875 C 91.304249 121.64895 91.446377 121.57089 91.59375 121.5 C 92.345956 121.13877 93.076923 120.76432 93.8125 120.375 C 93.833188 120.36405 93.85433 120.35473 93.875 120.34375 C 93.908509 120.32595 93.966534 120.29911 94 120.28125 C 94.723719 119.89556 95.418156 119.47475 96.125 119.0625 C 96.2597 118.98394 96.397182 118.92326 96.53125 118.84375 C 96.661288 118.76652 96.776809 118.67187 96.90625 118.59375 C 97.411546 118.2892 97.941422 118.00544 98.4375 117.6875 C 99.035441 117.30381 99.603378 116.90276 100.1875 116.5 C 100.23777 116.46535 100.29359 116.44104 100.34375 116.40625 C 100.38695 116.37633 100.42564 116.34252 100.46875 116.3125 C 101.1405 115.84407 101.81615 115.36812 102.46875 114.875 C 102.58247 114.78907 102.69937 114.71167 102.8125 114.625 C 103.21834 114.31453 103.60188 113.97609 104 113.65625 C 104.11562 113.56324 104.22878 113.46879 104.34375 113.375 C 104.83091 112.97799 105.30615 112.59836 105.78125 112.1875 C 105.96148 112.03164 106.16529 111.87658 106.34375 111.71875 C 106.71825 111.38745 107.07089 111.05858 107.4375 110.71875 C 107.80604 110.37729 108.17083 110.03742 108.53125 109.6875 C 108.60556 109.61529 108.67603 109.54132 108.75 109.46875 C 109.39356 108.83789 110.03966 108.15728 110.65625 107.5 C 111.29213 106.82214 111.8938 106.14248 112.5 105.4375 C 112.54856 105.38102 112.60787 105.3379 112.65625 105.28125 C 112.72379 105.20203 112.77659 105.1108 112.84375 105.03125 C 113.31141 104.47806 113.801 103.91273 114.25 103.34375 C 114.36516 103.19781 114.47983 103.05321 114.59375 102.90625 C 114.91589 102.49033 115.21922 102.08021 115.53125 101.65625 C 115.81566 101.27025 116.09911 100.89251 116.375 100.5 C 116.47468 100.35796 116.55769 100.20539 116.65625 100.0625 C 117.13464 99.369967 117.61109 98.649382 118.0625 97.9375 C 118.34851 97.486009 118.63133 97.052779 118.90625 96.59375 C 119.01191 96.417501 119.11474 96.239846 119.21875 96.0625 C 119.49638 95.588513 119.73432 95.106648 120 94.625 C 120.35507 93.982384 120.69789 93.312088 121.03125 92.65625 C 121.48539 91.762777 121.96223 90.88571 122.375 89.96875 C 122.37892 89.960017 122.37107 89.946235 122.375 89.9375 C 122.37892 89.928727 122.37107 89.915024 122.375 89.90625 C 122.76285 89.042545 123.11864 88.164694 123.46875 87.28125 C 123.49469 87.215779 123.53676 87.159331 123.5625 87.09375 C 123.59872 87.001264 123.62044 86.905199 123.65625 86.8125 C 123.98951 85.951345 124.29719 85.097401 124.59375 84.21875 C 124.92259 83.244428 125.2175 82.244623 125.5 81.25 C 125.78329 80.252532 126.07711 79.266603 126.3125 78.25 C 126.54726 77.236108 126.75166 76.187901 126.9375 75.15625 C 127.12262 74.128493 127.27095 73.106617 127.40625 72.0625 C 127.54092 71.02323 127.66594 69.960479 127.75 68.90625 C 127.75082 68.895827 127.74917 68.885426 127.75 68.875 C 127.75163 68.854198 127.74838 68.833309 127.75 68.8125 C 127.83167 67.769049 127.87537 66.713099 127.90625 65.65625 L 127.96875 65.65625 L 127.96875 63.8125 L 127.96875 63.78125 L 127.96875 -0.21875 L 63.84375 -0.21875 L 63.8125 -0.21875 L 62.46875 -0.21875 z M 62.21875 19.375 C 62.302736 19.372024 62.384645 19.377511 62.46875 19.375 L 62.46875 19.40625 C 62.500331 19.405335 62.530922 19.407134 62.5625 19.40625 C 62.665027 19.403426 62.772295 19.37713 62.875 19.375 L 63.8125 19.375 L 63.84375 19.375 L 108.34375 19.375 L 108.34375 63.8125 L 108.34375 65.09375 L 108.3125 65.09375 C 108.307 65.282574 108.28833 65.46852 108.28125 65.65625 L 108.3125 65.65625 C 108.30075 65.941751 108.26788 66.247857 108.25 66.53125 C 108.23555 66.790396 108.239 67.053737 108.21875 67.3125 C 108.21763 67.32695 108.21989 67.329302 108.21875 67.34375 C 108.21819 67.350991 108.21933 67.367761 108.21875 67.375 C 108.2052 67.544943 108.17276 67.705438 108.15625 67.875 C 108.10168 68.435915 108.04057 68.977058 107.96875 69.53125 C 107.9468 69.698619 107.92977 69.864192 107.90625 70.03125 C 107.82942 70.587447 107.75508 71.138806 107.65625 71.6875 C 107.62728 71.855319 107.59405 72.053809 107.5625 72.21875 C 107.53868 72.342612 107.52485 72.470258 107.5 72.59375 C 107.41529 73.016672 107.31402 73.425456 107.21875 73.84375 C 107.18322 73.999797 107.1627 74.157009 107.125 74.3125 C 107.09426 74.43869 107.06306 74.561737 107.03125 74.6875 C 106.88853 75.253875 106.72677 75.786232 106.5625 76.34375 C 106.4014 76.890509 106.2153 77.458106 106.03125 78 C 105.98548 78.134713 105.92133 78.273129 105.875 78.40625 C 105.7081 78.885793 105.52248 79.342014 105.34375 79.8125 C 105.31888 79.876868 105.3064 79.935772 105.28125 80 C 105.24536 80.092639 105.22454 80.188723 105.1875 80.28125 C 105.17515 80.312095 105.16865 80.34419 105.15625 80.375 C 105.10135 80.510994 105.0562 80.645922 105 80.78125 C 104.83768 81.172906 104.64807 81.550117 104.46875 81.9375 C 104.46603 81.943569 104.47148 81.962682 104.46875 81.96875 C 104.41556 82.08365 104.36487 82.198529 104.3125 82.3125 C 104.25024 82.44768 104.18857 82.615552 104.125 82.75 C 103.94051 83.128187 103.75296 83.500288 103.5625 83.875 C 103.5057 83.988021 103.46463 84.106155 103.40625 84.21875 C 103.33477 84.356381 103.26035 84.488214 103.1875 84.625 C 103.07864 84.829596 102.95489 85.01795 102.84375 85.21875 C 102.69426 85.488856 102.56236 85.76214 102.40625 86.03125 C 102.36998 86.096454 102.319 86.154286 102.28125 86.21875 C 102.23626 86.290068 102.19963 86.364633 102.15625 86.4375 C 102.12559 86.489565 102.0933 86.542378 102.0625 86.59375 C 101.9999 86.698519 101.90722 86.801412 101.84375 86.90625 C 101.71449 87.112037 101.59951 87.29358 101.46875 87.5 C 101.40371 87.603506 101.34704 87.741699 101.28125 87.84375 C 101.19438 87.978236 101.11952 88.11651 101.03125 88.25 C 100.86109 88.507748 100.67648 88.747335 100.5 89 C 100.43155 89.099224 100.38172 89.213859 100.3125 89.3125 C 100.25199 89.397991 100.18586 89.477169 100.125 89.5625 C 100.02871 89.697309 99.941506 89.835065 99.84375 89.96875 C 99.59308 90.312052 99.327007 90.635174 99.0625 90.96875 C 99.039141 90.998891 99.023679 91.032361 99 91.0625 C 98.95837 91.115088 98.916387 91.166108 98.875 91.21875 C 98.860431 91.237168 98.858241 91.262883 98.84375 91.28125 C 98.752849 91.399027 98.655556 91.509539 98.5625 91.625 C 98.337605 91.898004 98.072902 92.166441 97.84375 92.4375 C 97.797109 92.49274 97.765652 92.538734 97.71875 92.59375 C 97.709098 92.604945 97.697155 92.613807 97.6875 92.625 C 97.659924 92.65204 97.619042 92.689335 97.59375 92.71875 C 97.569161 92.747208 97.555862 92.784028 97.53125 92.8125 C 97.414477 92.947464 97.305862 93.11646 97.1875 93.25 C 96.900831 93.573668 96.607523 93.873677 96.3125 94.1875 C 96.256413 94.247163 96.212829 94.315391 96.15625 94.375 C 96.028274 94.509763 95.910888 94.648092 95.78125 94.78125 C 95.626881 94.93991 95.473153 95.095327 95.3125 95.25 C 95.217666 95.345501 95.126965 95.437423 95.03125 95.53125 C 94.99349 95.567142 94.94395 95.589154 94.90625 95.625 C 94.895037 95.636171 94.886327 95.645243 94.875 95.65625 C 94.810562 95.717562 94.751382 95.782422 94.6875 95.84375 C 94.549511 95.976178 94.420938 96.119341 94.28125 96.25 C 94.231985 96.295721 94.174103 96.329504 94.125 96.375 C 93.870406 96.610988 93.572571 96.863673 93.3125 97.09375 C 93.25705 97.143055 93.212347 97.200945 93.15625 97.25 C 93.09137 97.307371 93.034443 97.349438 92.96875 97.40625 C 92.884428 97.478251 92.804681 97.551853 92.71875 97.625 C 92.471153 97.831555 92.219891 98.014086 91.96875 98.21875 C 91.888909 98.283882 91.799046 98.372913 91.71875 98.4375 C 91.666076 98.479287 91.615189 98.551833 91.5625 98.59375 C 91.405102 98.718921 91.252875 98.845673 91.09375 98.96875 C 91.03267 99.016221 90.968066 99.046461 90.90625 99.09375 C 90.827687 99.153943 90.735219 99.221577 90.65625 99.28125 C 90.402799 99.468193 90.161032 99.659773 89.90625 99.84375 C 89.699985 99.993711 89.459291 100.1353 89.25 100.28125 C 89.220058 100.3021 89.186245 100.32298 89.15625 100.34375 C 89.121421 100.36791 89.097404 100.38218 89.0625 100.40625 C 88.757522 100.61749 88.463681 100.83043 88.15625 101.03125 C 88.050666 101.10171 87.950605 101.18144 87.84375 101.25 C 87.513651 101.45765 87.180332 101.64036 86.84375 101.84375 C 86.831251 101.85125 86.82499 101.86748 86.8125 101.875 C 86.772763 101.89978 86.726315 101.91183 86.6875 101.9375 C 86.638695 101.97162 86.582365 102.0009 86.53125 102.03125 C 86.487463 102.05972 86.451705 102.09826 86.40625 102.125 C 86.356704 102.15042 86.298534 102.15919 86.25 102.1875 C 86.110079 102.26521 85.951272 102.35862 85.8125 102.4375 C 85.459708 102.63813 85.106758 102.80945 84.75 103 C 84.726759 103.01241 84.710764 103.05015 84.6875 103.0625 C 84.673144 103.07014 84.670614 103.08614 84.65625 103.09375 C 84.627263 103.10911 84.591597 103.10968 84.5625 103.125 C 84.362876 103.23009 84.170152 103.33537 83.96875 103.4375 C 83.678977 103.58521 83.386275 103.76578 83.09375 103.90625 C 83.01315 103.9449 82.924448 103.9619 82.84375 104 C 82.830031 104.00671 82.826273 104.02475 82.8125 104.03125 C 82.770069 104.05123 82.729927 104.07393 82.6875 104.09375 C 82.479388 104.19098 82.272352 104.28091 82.0625 104.375 C 81.968999 104.41589 81.843103 104.45902 81.75 104.5 C 81.646572 104.54535 81.54174 104.5803 81.4375 104.625 C 81.236896 104.71166 81.046513 104.79101 80.84375 104.875 C 80.800553 104.89285 80.76182 104.91981 80.71875 104.9375 C 80.688562 104.94938 80.655179 104.95646 80.625 104.96875 C 80.445991 105.04143 80.274829 105.11655 80.09375 105.1875 C 80.072285 105.19617 80.05273 105.2101 80.03125 105.21875 C 79.771877 105.32317 79.513283 105.43417 79.25 105.53125 C 79.095025 105.58852 78.936737 105.63112 78.78125 105.6875 C 78.551026 105.77097 78.326151 105.8589 78.09375 105.9375 C 77.984654 105.97432 77.859469 105.99525 77.75 106.03125 C 77.684215 106.05292 77.628416 106.07237 77.5625 106.09375 C 77.540515 106.10092 77.521819 106.11796 77.5 106.125 C 77.008708 106.28321 76.529836 106.42105 76.03125 106.5625 C 75.9165 106.59417 75.802559 106.6245 75.6875 106.65625 C 75.543013 106.69546 75.395692 106.71238 75.25 106.75 C 74.807925 106.86415 74.380096 106.99126 73.9375 107.09375 C 73.822435 107.1204 73.676896 107.13045 73.5625 107.15625 C 72.960077 107.29117 72.392627 107.42098 71.78125 107.53125 C 71.66502 107.55217 71.522784 107.57372 71.40625 107.59375 C 71.259995 107.61891 71.14674 107.63251 71 107.65625 C 70.62964 107.7161 70.248357 107.79309 69.875 107.84375 C 69.821911 107.85109 69.740609 107.86802 69.6875 107.875 C 69.66692 107.87769 69.645591 107.87232 69.625 107.875 C 69.561752 107.88325 69.500834 107.89825 69.4375 107.90625 C 68.822571 107.98338 68.216203 108.04196 67.59375 108.09375 C 67.541533 108.0981 67.489767 108.08959 67.4375 108.09375 C 67.290745 108.10555 67.146681 108.11404 67 108.125 C 66.968614 108.12722 66.937676 108.12288 66.90625 108.125 C 66.623232 108.14565 66.347939 108.17341 66.0625 108.1875 C 65.776915 108.20008 65.47367 108.21029 65.1875 108.21875 C 65.155761 108.21969 65.125485 108.21785 65.09375 108.21875 C 64.983937 108.22182 64.860009 108.21647 64.75 108.21875 L 64.75 108.25 L 63.84375 108.25 L 63.8125 108.25 L 19.28125 108.25 L 19.28125 63.8125 L 19.28125 62.53125 L 19.3125 62.53125 C 19.318344 62.331236 19.335966 62.136275 19.34375 61.9375 C 19.365502 61.408808 19.395345 60.865628 19.4375 60.34375 C 19.439724 60.314842 19.435216 60.278892 19.4375 60.25 C 19.438338 60.2395 19.43665 60.229251 19.4375 60.21875 C 19.473595 59.787788 19.514211 59.365029 19.5625 58.9375 C 19.596117 58.65281 19.619615 58.376435 19.65625 58.09375 C 19.679459 57.914631 19.725201 57.741191 19.75 57.5625 C 19.826297 57.020596 19.906796 56.48049 20 55.9375 C 20.011298 55.874776 20.0197 55.781499 20.03125 55.71875 C 20.051671 55.603996 20.072078 55.488296 20.09375 55.375 C 20.117806 55.249228 20.131135 55.125393 20.15625 55 C 20.227009 54.648421 20.326154 54.316689 20.40625 53.96875 C 20.408507 53.958784 20.403987 53.947463 20.40625 53.9375 C 20.418106 53.885142 20.426133 53.833517 20.4375 53.78125 C 20.490837 53.550896 20.53594 53.322345 20.59375 53.09375 C 20.680601 52.744026 20.78023 52.407663 20.875 52.0625 C 20.909483 51.938245 20.933545 51.811454 20.96875 51.6875 C 20.986988 51.623284 21.012772 51.564112 21.03125 51.5 C 21.055207 51.417092 21.069283 51.332851 21.09375 51.25 C 21.155229 51.041363 21.21545 50.834435 21.28125 50.625 C 21.382632 50.297492 21.484381 49.949045 21.59375 49.625 C 21.635966 49.499916 21.675456 49.37454 21.71875 49.25 C 21.726269 49.228313 21.773719 49.209138 21.78125 49.1875 C 21.836084 49.029941 21.882258 48.875026 21.9375 48.71875 C 22.047435 48.415133 22.164892 48.113166 22.28125 47.8125 C 22.298806 47.767053 22.32551 47.73259 22.34375 47.6875 C 22.367453 47.625707 22.38208 47.561729 22.40625 47.5 C 22.430509 47.438785 22.444289 47.37343 22.46875 47.3125 C 22.484645 47.272784 22.483996 47.22716 22.5 47.1875 C 22.70697 46.675728 22.956381 46.188377 23.1875 45.6875 C 23.192924 45.675382 23.182062 45.668361 23.1875 45.65625 C 23.206735 45.613522 23.230505 45.573834 23.25 45.53125 C 23.305946 45.407567 23.349205 45.279331 23.40625 45.15625 C 23.532727 44.883876 23.649443 44.581864 23.78125 44.3125 C 23.987982 43.889379 24.186577 43.477975 24.40625 43.0625 C 24.481425 42.9205 24.579584 42.797339 24.65625 42.65625 C 24.703575 42.569056 24.765003 42.493014 24.8125 42.40625 C 24.996996 42.071769 25.150947 41.735412 25.34375 41.40625 C 25.393451 41.321509 25.449385 41.240249 25.5 41.15625 C 25.717846 40.790316 25.962591 40.454414 26.1875 40.09375 C 26.287281 39.93639 26.367925 39.749695 26.46875 39.59375 C 26.677392 39.26774 26.906949 38.944445 27.125 38.625 C 27.253673 38.438453 27.371055 38.248229 27.5 38.0625 C 27.508446 38.05064 27.522794 38.043103 27.53125 38.03125 C 27.583543 37.958044 27.634477 37.885379 27.6875 37.8125 C 27.696021 37.800662 27.71019 37.793064 27.71875 37.78125 C 27.862063 37.583746 28.00978 37.382539 28.15625 37.1875 C 28.285866 37.014715 28.430226 36.858095 28.5625 36.6875 C 28.64106 36.586645 28.702405 36.475162 28.78125 36.375 C 28.790356 36.363419 28.803475 36.355379 28.8125 36.34375 C 28.91062 36.219414 28.99333 36.090376 29.09375 35.96875 C 29.308573 35.702204 29.560041 35.448848 29.78125 35.1875 C 29.861229 35.092769 29.950503 35.000303 30.03125 34.90625 C 30.045996 34.8891 30.047737 34.860877 30.0625 34.84375 C 30.091506 34.810062 30.127143 34.783602 30.15625 34.75 C 30.536189 34.311758 30.91771 33.861671 31.3125 33.4375 C 31.347816 33.399854 31.37081 33.350167 31.40625 33.3125 C 31.447007 33.269302 31.490321 33.230537 31.53125 33.1875 C 31.887175 32.813441 32.252919 32.456256 32.625 32.09375 C 32.742988 31.977976 32.846212 31.860033 32.96875 31.75 C 33.027887 31.693226 33.099385 31.652013 33.15625 31.59375 C 33.233794 31.5143 33.293351 31.420124 33.375 31.34375 C 33.58933 31.143278 33.844238 30.977511 34.0625 30.78125 C 34.273558 30.591414 34.474904 30.405628 34.6875 30.21875 C 34.709707 30.199544 34.727721 30.17531 34.75 30.15625 C 35.060521 29.888678 35.369601 29.633629 35.6875 29.375 C 35.752159 29.322255 35.809102 29.270403 35.875 29.21875 C 35.973266 29.139528 36.057299 29.015903 36.15625 28.9375 C 36.419482 28.72902 36.69601 28.544744 36.96875 28.34375 C 37.230256 28.146148 37.484517 27.942605 37.75 27.75 C 37.944218 27.609758 38.176738 27.482757 38.375 27.34375 C 38.439552 27.298806 38.497699 27.263362 38.5625 27.21875 C 38.875658 27.002828 39.182888 26.773331 39.5 26.5625 C 39.531834 26.541705 39.56188 26.520564 39.59375 26.5 C 39.65639 26.458789 39.718133 26.4155 39.78125 26.375 C 39.922061 26.284752 40.075534 26.210656 40.21875 26.125 C 40.419407 26.002509 40.609232 25.872831 40.8125 25.75 C 40.998432 25.637646 41.190447 25.548431 41.375 25.4375 C 41.50419 25.359849 41.61776 25.262982 41.75 25.1875 C 41.84371 25.134039 41.968367 25.08405 42.0625 25.03125 C 42.333625 24.879115 42.603387 24.742064 42.875 24.59375 C 42.912512 24.573728 42.962423 24.551167 43 24.53125 C 43.107597 24.473163 43.203394 24.400401 43.3125 24.34375 C 43.644863 24.171212 43.975302 24.008099 44.3125 23.84375 C 44.383832 23.80897 44.459273 23.753251 44.53125 23.71875 C 44.633573 23.669612 44.740998 23.610879 44.84375 23.5625 C 45.023081 23.477918 45.193622 23.393132 45.375 23.3125 C 45.405135 23.298791 45.438598 23.29481 45.46875 23.28125 C 45.699243 23.177099 45.955186 23.069777 46.1875 22.96875 C 46.269569 22.933282 46.355074 22.910032 46.4375 22.875 C 46.633012 22.79192 46.803062 22.705356 47 22.625 C 47.061261 22.600047 47.126274 22.58747 47.1875 22.5625 C 47.230947 22.544973 47.269017 22.517381 47.3125 22.5 C 47.508967 22.421633 47.706733 22.355481 47.90625 22.28125 C 48.063735 22.219386 48.215801 22.152453 48.375 22.09375 C 48.468954 22.059029 48.561736 22.033271 48.65625 22 C 48.802818 21.948161 48.945222 21.895724 49.09375 21.84375 C 49.418963 21.729979 49.766026 21.609217 50.09375 21.5 C 50.115978 21.492792 50.134005 21.475881 50.15625 21.46875 C 50.64755 21.310541 51.126414 21.172701 51.625 21.03125 C 51.726878 21.002348 51.83474 20.996766 51.9375 20.96875 C 52.528937 20.805539 53.117959 20.638991 53.71875 20.5 C 53.823738 20.47569 53.958085 20.46111 54.0625 20.4375 C 54.658928 20.302638 55.233548 20.172532 55.84375 20.0625 C 56.11369 20.013824 56.384012 19.984574 56.65625 19.9375 C 57.086707 19.863068 57.535283 19.775615 57.96875 19.71875 C 57.98943 19.716023 58.010569 19.721451 58.03125 19.71875 C 58.094112 19.710597 58.155809 19.695395 58.21875 19.6875 C 58.384916 19.666658 58.551466 19.6714 58.71875 19.65625 C 59.164869 19.605316 59.611425 19.568992 60.0625 19.53125 C 60.209646 19.518996 60.352449 19.47957 60.5 19.46875 C 61.063996 19.426999 61.64912 19.395574 62.21875 19.375 z "
       id="path2402" />
    <rect
       ry="0"
       rx="5.7008772"
       y="18.728643"
       x="-123.26674"
       height="0"
       width="0.98214287"
       id="rect3218"
       style="opacity:0.66000001;fill:#000000;fill-opacity:1;stroke:none;stroke-width:3;stroke-miterlimit:4;stroke-dasharray:none;stroke-opacity:1" />
    <path
       style="opacity:0.66000000999999997;fill:#000000;fill-opacity:1;stroke:none;stroke-width:3;stroke-miterlimit:4;stroke-dasharray:none;stroke-opacity:1"
       d="M 63.676241,32.484502 C 47.154026,32.566685 33.802984,46.651729 33.88148,63.950075 C 33.881573,63.970836 33.881347,63.992193 33.88148,64.012944 L 33.88148,95.132742 L 63.89671,95.132742 C 63.917765,95.132682 63.938636,95.132846 63.959701,95.132742 C 80.481916,95.050558 93.832956,80.965519 93.754462,63.667168 L 78.038197,63.730036 C 77.988793,71.797378 71.619742,78.315477 63.802223,78.315477 C 55.954098,78.315477 49.597744,71.746648 49.597744,63.635734 C 49.597744,55.524824 55.9541,48.924557 63.802223,48.924557 C 63.812617,48.924557 63.82333,48.924534 63.833718,48.924557 L 63.802223,32.484502 C 63.752254,32.484502 63.726209,32.484254 63.676241,32.484502 z"
       id="path3229" />
    <path
       sodipodi:type="arc"
       style="opacity:0.66000000999999997;fill:#000000;fill-opacity:1;stroke:none;stroke-width:3;stroke-miterlimit:4;stroke-dasharray:none;stroke-opacity:1"
       id="path3274"
       sodipodi:cx="64.6875"
       sodipodi:cy="64.4375"
       sodipodi:rx="6.5625"
       sodipodi:ry="6.5625"
       d="M 71.25,64.4375 A 6.5625,6.5625 0 1 1 58.125,64.4375 A 6.5625,6.5625 0 1 1 71.25,64.4375 z"
       transform="matrix(1.0078566,0,0,1.0058925,-1.3777536,-1.0086104)" />
  </g>
</svg>
