<?xml version="1.0" encoding="UTF-8" standalone="no"?>
<!-- Created with Inkscape (http://www.inkscape.org/) -->

<svg
   xmlns:dc="http://purl.org/dc/elements/1.1/"
   xmlns:cc="http://creativecommons.org/ns#"
   xmlns:rdf="http://www.w3.org/1999/02/22-rdf-syntax-ns#"
   xmlns:svg="http://www.w3.org/2000/svg"
   xmlns="http://www.w3.org/2000/svg"
   xmlns:sodipodi="http://sodipodi.sourceforge.net/DTD/sodipodi-0.dtd"
   xmlns:inkscape="http://www.inkscape.org/namespaces/inkscape"
   width="64"
   height="64"
   id="svg2"
   version="1.1"
   inkscape:version="0.47pre2 r22153"
   sodipodi:docname="start-here-alt2.svg">
  <defs
     id="defs4">
    <inkscape:perspective
       sodipodi:type="inkscape:persp3d"
       inkscape:vp_x="0 : 526.18109 : 1"
       inkscape:vp_y="0 : 1000 : 0"
       inkscape:vp_z="744.09448 : 526.18109 : 1"
       inkscape:persp3d-origin="372.04724 : 350.78739 : 1"
       id="perspective10" />
  </defs>
  <sodipodi:namedview
     id="base"
     pagecolor="#ffffff"
     bordercolor="#666666"
     borderopacity="1.0"
     inkscape:pageopacity="0.0"
     inkscape:pageshadow="2"
     inkscape:zoom="8.7946406"
     inkscape:cx="1.0720508"
     inkscape:cy="29.778413"
     inkscape:document-units="px"
     inkscape:current-layer="layer1"
     showgrid="true"
     inkscape:window-width="2048"
     inkscape:window-height="1095"
     inkscape:window-x="-4"
     inkscape:window-y="17"
     inkscape:window-maximized="1">
    <inkscape:grid
       type="xygrid"
       id="grid2816"
       empspacing="4"
       visible="true"
       enabled="true"
       snapvisiblegridlinesonly="true" />
  </sodipodi:namedview>
  <metadata
     id="metadata7">
    <rdf:RDF>
      <cc:Work
         rdf:about="">
        <dc:format>image/svg+xml</dc:format>
        <dc:type
           rdf:resource="http://purl.org/dc/dcmitype/StillImage" />
        <dc:title></dc:title>
      </cc:Work>
    </rdf:RDF>
  </metadata>
  <g
     inkscape:label="Layer 1"
     inkscape:groupmode="layer"
     id="layer1"
     transform="translate(0,-988.36218)">
    <path
       style="opacity:0.66000001;fill:#000000;fill-opacity:1;fill-rule:nonzero;stroke:none"
       d="M 19.96875 3.5 C 19.97431 3.6678634 20 3.8307839 20 4 C 20 6.8117931 19.221064 9.4383636 17.875 11.6875 C 21.991488 15.604139 26.556998 21.163689 30.3125 24.1875 C 30.854491 24.071606 31.423415 24 32 24 C 32.752468 24 33.468592 24.115742 34.15625 24.3125 C 33.636136 25.647288 33.141772 26.978275 32.6875 28.09375 C 33.23024 28.187681 33.743246 28.36709 34.1875 28.65625 C 34.626 27.541507 35.177269 26.252427 35.71875 24.9375 C 36.405976 25.305346 37.042172 25.769943 37.59375 26.3125 C 37.599107 26.31777 37.619657 26.307215 37.625 26.3125 C 42.476121 25.768084 49.422447 23.491768 55.03125 22.40625 C 55.145025 19.51277 56.066459 16.840359 57.59375 14.59375 C 54.805835 12.800971 50.64789 19.111319 36.9375 15.09375 C 23.325946 11.105143 23.195952 3.6094169 19.96875 3.5 z M 12.34375 17.0625 C 10.171762 18.285648 7.6703145 19 5 19 C 4.7147438 19 4.4375766 18.984465 4.15625 18.96875 C 4.6125166 21.913977 11.645943 22.877681 14.875 36.15625 C 18.041534 49.177714 12.539542 53.357851 13.21875 56.1875 C 15.489202 54.805148 18.147467 54 21 54 C 21.179765 54 21.353015 54.024978 21.53125 54.03125 C 22.899556 48.578168 25.358223 42.038876 26.09375 37.375 C 25.223161 36.419681 24.580128 35.257683 24.25 33.96875 C 22.998625 34.162147 21.773783 34.32714 20.625 34.46875 C 23.06979 34.160747 26.018959 33.651451 28.25 33.34375 C 28.099961 32.923422 28 32.471872 28 32 C 28 31.91494 28.026018 31.833741 28.03125 31.75 C 26.832564 31.93009 25.430461 32.117813 24 32.3125 C 23.996059 32.209932 24 32.103579 24 32 C 24 31.308098 24.116119 30.640329 24.28125 30 C 21.433768 26.127691 16.090578 21.338015 12.34375 17.0625 z M 56.6875 29.90625 C 51.223368 31.52306 44.100663 32.721382 39.59375 34.46875 C 39.185774 35.725334 38.486605 36.826313 37.5625 37.71875 C 36.66828 36.609499 35.767895 35.540952 35.03125 34.59375 C 34.689388 34.994235 34.286367 35.321912 33.8125 35.5625 C 35.244557 37.361279 37.079887 39.829922 38.65625 41.75 C 37.88274 40.816263 37.069887 39.814243 36.25 38.75 C 35.599716 39.157744 34.885535 39.477996 34.125 39.6875 C 32.218287 44.041482 30.735461 50.951621 28.9375 56.3125 C 31.38671 57.848988 33.366389 60.045931 34.59375 62.6875 C 36.999271 60.860714 34.206987 54.247024 44.15625 44.75 C 54.128514 35.231021 60.61139 38.355641 62.53125 36 C 60.045314 34.569063 58.012772 32.458254 56.6875 29.90625 z M 18.4375 33.1875 C 18.463998 33.181755 18.504439 33.193222 18.53125 33.1875 C 18.011092 33.298553 17.53886 33.411188 17.15625 33.53125 C 17.524272 33.414003 17.937261 33.295962 18.4375 33.1875 z "
       transform="translate(0,988.36218)"
       id="path3655" />
    <path
       style="opacity:0.66000001;fill:#000000;fill-opacity:1;fill-rule:nonzero;stroke:none"
       d="M 11.25 9.875 C 11.156077 9.8946663 11.066286 9.9367268 11 10 C 9.4673666 11.462968 19.51143 21.036242 25.5 27.34375 C 26.081183 26.533963 26.819383 25.85698 27.65625 25.3125 C 21.894412 19.308614 13.327732 9.439949 11.25 9.875 z M 60.21875 24.25 C 56.559779 24.067834 46.274733 27.005714 39.28125 28.6875 C 39.686237 29.577971 39.947913 30.564679 40 31.59375 C 48.447409 29.516697 62.062742 26.869601 61.5625 24.8125 C 61.475888 24.456331 60.984924 24.288145 60.21875 24.25 z M 28.34375 39.125 C 25.918139 47.479683 21.406647 60.592397 23.4375 61.1875 C 25.468212 61.782562 28.720377 48.311393 31.1875 39.96875 C 30.175321 39.865958 29.208636 39.569442 28.34375 39.125 z "
       transform="translate(0,988.36218)"
       id="path3667" />
    <path
       style="opacity:0.66000001;fill:#000000;fill-opacity:1;fill-rule:nonzero;stroke:none"
       d="M 32 28 C 29.875921 28 28.161893 29.658848 28.03125 31.75 C 28.832075 31.629684 29.536036 31.521958 30.09375 31.40625 C 30.332077 30.640003 31.015565 30.064254 31.84375 30 C 32.083493 29.48944 32.383091 28.841234 32.6875 28.09375 C 32.464322 28.055125 32.234217 28 32 28 z M 34.1875 28.65625 C 33.884702 29.426014 33.642585 30.110621 33.46875 30.65625 C 33.793946 31.011924 34 31.480091 34 32 C 34 32.315717 33.911533 32.609481 33.78125 32.875 C 34.099956 33.355901 34.522977 33.940197 35.03125 34.59375 C 35.627603 33.895133 36 32.990531 36 32 C 36 30.594664 35.283606 29.369693 34.1875 28.65625 z M 30.34375 33.09375 C 29.766159 33.138601 29.083439 33.228804 28.25 33.34375 C 28.802392 34.891249 30.262733 36 32 36 C 32.650781 36 33.269405 35.838236 33.8125 35.5625 C 33.302515 34.921917 32.828384 34.38765 32.4375 33.96875 C 32.298291 33.999422 32.148427 34 32 34 C 31.29997 34 30.701084 33.638353 30.34375 33.09375 z "
       transform="translate(0,988.36218)"
       id="path3675" />
  </g>
</svg>
