<?xml version="1.0" encoding="UTF-8" standalone="no"?>
<!-- Created with Inkscape (http://www.inkscape.org/) -->

<svg
   xmlns:dc="http://purl.org/dc/elements/1.1/"
   xmlns:cc="http://creativecommons.org/ns#"
   xmlns:rdf="http://www.w3.org/1999/02/22-rdf-syntax-ns#"
   xmlns:svg="http://www.w3.org/2000/svg"
   xmlns="http://www.w3.org/2000/svg"
   xmlns:sodipodi="http://sodipodi.sourceforge.net/DTD/sodipodi-0.dtd"
   xmlns:inkscape="http://www.inkscape.org/namespaces/inkscape"
   width="64px"
   height="64px"
   id="svg2816"
   version="1.1"
   inkscape:version="0.47pre2 r22153"
   sodipodi:docname="ark.svgz"
   inkscape:export-filename="/home/rob/.kde4/share/icons/nmfnms/48x48/actions/document-open.png"
   inkscape:export-xdpi="67.5"
   inkscape:export-ydpi="67.5"
   sodipodi:version="0.32"
   inkscape:output_extension="org.inkscape.output.svgz.inkscape">
  <defs
     id="defs2818">
    <inkscape:perspective
       sodipodi:type="inkscape:persp3d"
       inkscape:vp_x="0 : 32 : 1"
       inkscape:vp_y="0 : 1000 : 0"
       inkscape:vp_z="64 : 32 : 1"
       inkscape:persp3d-origin="32 : 21.333333 : 1"
       id="perspective2824" />
  </defs>
  <sodipodi:namedview
     id="base"
     pagecolor="#ffffff"
     bordercolor="#666666"
     borderopacity="1.0"
     inkscape:pageopacity="0.0"
     inkscape:pageshadow="2"
     inkscape:zoom="5.0311945"
     inkscape:cx="-17.094768"
     inkscape:cy="41.953096"
     inkscape:current-layer="layer1"
     showgrid="true"
     inkscape:document-units="px"
     inkscape:grid-bbox="true"
     inkscape:window-width="1446"
     inkscape:window-height="899"
     inkscape:window-x="161"
     inkscape:window-y="102"
     inkscape:window-maximized="0">
    <inkscape:grid
       type="xygrid"
       id="grid2826"
       empspacing="4"
       visible="true"
       enabled="true"
       snapvisiblegridlinesonly="true" />
  </sodipodi:namedview>
  <metadata
     id="metadata2821">
    <rdf:RDF>
      <cc:Work
         rdf:about="">
        <dc:format>image/svg+xml</dc:format>
        <dc:type
           rdf:resource="http://purl.org/dc/dcmitype/StillImage" />
        <dc:title></dc:title>
      </cc:Work>
    </rdf:RDF>
  </metadata>
  <g
     id="layer1"
     inkscape:label="Layer 1"
     inkscape:groupmode="layer"
     style="opacity:1">
    <path
       style="opacity:0.66000001;fill:#000000;fill-opacity:1;fill-rule:nonzero;stroke:none"
       d="M 8 4 C 3.581722 4 -3.006854e-17 7.581722 0 12 C 0 14.956987 1.6143275 17.52159 4 18.90625 L 4 45.09375 C 1.6143275 46.47841 -1.994932e-17 49.043013 0 52 C 0 56.418278 3.581722 60 8 60 C 10.956987 60 13.52159 58.385673 14.90625 56 L 49.09375 56 C 50.47841 58.385673 53.043013 60 56 60 C 60.418278 60 64 56.418278 64 52 C 64 49.043013 62.385673 46.47841 60 45.09375 L 60 18.90625 C 62.385673 17.52159 64 14.956987 64 12 C 64 7.581722 60.418278 4 56 4 C 53.043013 4 50.47841 5.6143275 49.09375 8 L 47.0625 8 C 44.86036 10.326437 38.958968 12 32 12 C 25.041032 12 19.13964 10.326437 16.9375 8 L 14.90625 8 C 13.52159 5.6143275 10.956987 4 8 4 z M 46 12 C 47.104569 12 48 12.895431 48 14 C 48 15.104569 47.104569 16 46 16 C 44.895431 16 44 15.104569 44 14 C 44 12.895431 44.895431 12 46 12 z M 54 12 C 55.104569 12 56 12.895431 56 14 C 56 15.104569 55.104569 16 54 16 C 52.895431 16 52 15.104569 52 14 C 52 12.895431 52.895431 12 54 12 z M 8 20 L 56 20 L 56 44 L 56 52 L 48 52 L 16 52 L 8 52 L 8 44 L 8 20 z "
       id="rect2817" />
    <rect
       style="opacity:0.66000001;fill:#000000;fill-opacity:1;fill-rule:nonzero;stroke:none"
       id="rect2866"
       width="24"
       height="8"
       x="28"
       y="40"
       ry="4" />
    <rect
       style="opacity:0.66000001;fill:#000000;fill-opacity:1;fill-rule:nonzero;stroke:none"
       id="rect2868"
       width="40"
       height="8"
       x="12"
       y="24"
       ry="4" />
  </g>
</svg>
