<?xml version="1.0" encoding="UTF-8" standalone="no"?>
<!-- Created with Inkscape (http://www.inkscape.org/) -->

<svg
   xmlns:svg="http://www.w3.org/2000/svg"
   xmlns="http://www.w3.org/2000/svg"
   version="1.1"
   width="128"
   height="128"
   id="svg2">
  <defs
     id="defs4" />
  <g
     transform="translate(0,-924.36218)"
     id="layer1">
    <path
       d="M 65.46875,0 C 45.985875,-0.43304155 26.56437,8.0079534 13.625,24.53125 -8.1676238,52.35996 -3.29746,92.582376 24.53125,114.375 52.35996,136.16762 92.582376,131.29746 114.375,103.46875 L 64,64 114.1875,24.28125 C 111.0494,20.318459 107.44851,16.741548 103.46875,13.625 92.163337,4.7717466 78.799138,0.29629158 65.46875,0 z M 72,16 c 4.418278,0 8,3.581722 8,8 0,4.418278 -3.581722,8 -8,8 -4.418278,0 -8,-3.581722 -8,-8 0,-4.418278 3.581722,-8 8,-8 z"
       transform="translate(0,924.36218)"
       id="path3708"
       style="opacity:0.65999989;fill:#000000;fill-opacity:1;fill-rule:nonzero;stroke:none" />
    <path
       d="m -52.96875,914.36218 c -4.432,0 -8,3.568 -8,8 l 0,40.00002 c 0,4.432 3.568,8 8,8 l 40,0 c 4.432,0 8,-3.568 8,-8 l 0,-40.00002 c 0,-4.432 -3.568,-8 -8,-8 l -40,0 z m 6,8 c 3.313708,0 6,2.68629 6,6 0,3.31371 -2.686292,6 -6,6 -3.313708,0 -6,-2.68629 -6,-6 0,-3.31371 2.686292,-6 6,-6 z m 28,0 c 3.313708,0 6,2.68629 6,6 0,3.31371 -2.686292,6 -6,6 -3.313708,0 -6,-2.68629 -6,-6 0,-3.31371 2.686292,-6 6,-6 z m -14,14 c 3.313708,0 6,2.68629 6,6 0,3.31371 -2.686292,6 -6,6 -3.313708,0 -6,-2.68629 -6,-6 0,-3.31371 2.686292,-6 6,-6 z m -14,14 c 3.313708,0 6,2.68632 6,6.00002 0,3.3137 -2.686292,6 -6,6 -3.313708,0 -6,-2.6863 -6,-6 0,-3.3137 2.686292,-6.00002 6,-6.00002 z m 27.96875,0 c 3.300713,0 5.96875,2.66802 5.96875,5.96872 0,3.3007 -2.668037,5.9688 -5.96875,5.9688 -3.300713,0 -5.96875,-2.6681 -5.96875,-5.9688 0,-3.3007 2.668037,-5.96872 5.96875,-5.96872 z"
       id="rect3682"
       style="opacity:0.66000001;fill:#000000;fill-opacity:1;fill-rule:nonzero;stroke:none" />
  </g>
</svg>
