<?xml version="1.0" encoding="UTF-8" standalone="no"?>
<!-- Created with Inkscape (http://www.inkscape.org/) -->

<svg
   xmlns:dc="http://purl.org/dc/elements/1.1/"
   xmlns:cc="http://creativecommons.org/ns#"
   xmlns:rdf="http://www.w3.org/1999/02/22-rdf-syntax-ns#"
   xmlns:svg="http://www.w3.org/2000/svg"
   xmlns="http://www.w3.org/2000/svg"
   xmlns:sodipodi="http://sodipodi.sourceforge.net/DTD/sodipodi-0.dtd"
   xmlns:inkscape="http://www.inkscape.org/namespaces/inkscape"
   width="128"
   height="128"
   id="svg2"
   version="1.1"
   inkscape:version="0.47pre2 r22153"
   sodipodi:docname="applications-graphics.svg">
  <defs
     id="defs4">
    <inkscape:perspective
       sodipodi:type="inkscape:persp3d"
       inkscape:vp_x="0 : 526.18109 : 1"
       inkscape:vp_y="0 : 1000 : 0"
       inkscape:vp_z="744.09448 : 526.18109 : 1"
       inkscape:persp3d-origin="372.04724 : 350.78739 : 1"
       id="perspective10" />
  </defs>
  <sodipodi:namedview
     id="base"
     pagecolor="#ffffff"
     bordercolor="#666666"
     borderopacity="1.0"
     inkscape:pageopacity="0.0"
     inkscape:pageshadow="2"
     inkscape:zoom="6.640625"
     inkscape:cx="64"
     inkscape:cy="58.051765"
     inkscape:document-units="px"
     inkscape:current-layer="layer1"
     showgrid="true"
     inkscape:window-width="1282"
     inkscape:window-height="1088"
     inkscape:window-x="118"
     inkscape:window-y="19"
     inkscape:window-maximized="0">
    <inkscape:grid
       type="xygrid"
       id="grid2816"
       empspacing="4"
       visible="true"
       enabled="true"
       snapvisiblegridlinesonly="true" />
  </sodipodi:namedview>
  <metadata
     id="metadata7">
    <rdf:RDF>
      <cc:Work
         rdf:about="">
        <dc:format>image/svg+xml</dc:format>
        <dc:type
           rdf:resource="http://purl.org/dc/dcmitype/StillImage" />
        <dc:title></dc:title>
      </cc:Work>
    </rdf:RDF>
  </metadata>
  <g
     inkscape:label="Layer 1"
     inkscape:groupmode="layer"
     id="layer1"
     transform="translate(0,-924.36218)">
    <path
       id="rect3282"
       style="opacity:1;fill:#000000;fill-opacity:1;fill-rule:nonzero;stroke:none"
       d="m 65.790077,1003.0981 11.777945,6.8 c 0.959556,0.554 1.286051,1.7725 0.732051,2.7321 -0.554,0.9595 -1.772495,1.286 -2.732051,0.732 l -11.777945,-6.8 c -0.959556,-0.554 -1.286051,-1.7725 -0.732051,-2.732 0.554,-0.9596 1.772495,-1.2861 2.732051,-0.7321 z M 123,924.36218 c -2,0 -5,2.00001 -7,4.00001 l -50.968752,74.46871 c 0.257832,0.032 0.510108,0.1428 0.749997,0.2813 l 11.781257,6.7812 c 0.33937,0.196 0.611198,0.4912 0.781249,0.8125 L 80,1008.3622 124.00001,932.36217 c 1.99999,-5.99999 1,-7.99999 -1.00001,-8 z m -59.749999,81.75002 -11.250005,26.25 0.312485,0.1563 c 0.53075,-0.1277 1.041993,-0.2165 1.531251,-0.2813 -0.488806,0.065 -1.000387,0.1536 -1.531251,0.2813 -2.395112,0.5761 -5.193249,1.8105 -8.312501,3.8437 -15.384547,10.0281 -24.078207,-0.04 -24,4 0.08552,4.4174 8.954301,8 20.000003,8 11.045695,0 19.999992,-3.5817 19.999992,-8 0.891196,-1.8422 1.138812,-3.4816 0.812505,-4.8125 l 15.499996,-21.9375 c -0.257823,-0.032 -0.51011,-0.1115 -0.749999,-0.25 l -11.781335,-6.8123 c -0.213233,-0.1231 -0.383241,-0.2589 -0.531246,-0.4375 z m -7.718753,26 c 0.120554,0 0.22672,0.025 0.343749,0.031 0.119043,0.01 0.228399,0.021 0.343756,0.031 -0.113442,-0.011 -0.226719,-0.025 -0.343756,-0.031 -0.352674,-0.018 -0.70918,-0.022 -1.093748,0 0.254909,-0.014 0.508903,-0.035 0.749999,-0.031 z m 2.000004,0.2812 c 0.183972,0.051 0.360973,0.1231 0.531251,0.1875 -0.172535,-0.066 -0.344745,-0.1356 -0.531251,-0.1875 z m 2.562493,1.6563 c 0.08285,0.1094 0.14764,0.2264 0.218752,0.3437 -0.0713,-0.1188 -0.135483,-0.2331 -0.218752,-0.3437 z" />
    <path
       transform="translate(0,924.36218)"
       style="opacity:0.66000001;fill:#000000;fill-opacity:1;fill-rule:nonzero;stroke:none"
       d="m 80,0 8,0 c -8,0 -52,48 -64,64 -4,8 -4,12 12,28 12,12 28,28 24,24 -13.254912,0.50974 -25.736176,6.04819 -40,0 C 20,112 8,96 4,84 1.113743,76.481043 1.0278624,69.162023 8,60 12,52 88,-8 80,0 z"
       id="rect4197"
       sodipodi:nodetypes="ccccccccc" />
  </g>
</svg>
