<?xml version="1.0" encoding="UTF-8" standalone="no"?>
<!-- Created with Inkscape (http://www.inkscape.org/) -->
<svg
   xmlns:dc="http://purl.org/dc/elements/1.1/"
   xmlns:cc="http://creativecommons.org/ns#"
   xmlns:rdf="http://www.w3.org/1999/02/22-rdf-syntax-ns#"
   xmlns:svg="http://www.w3.org/2000/svg"
   xmlns="http://www.w3.org/2000/svg"
   xmlns:sodipodi="http://sodipodi.sourceforge.net/DTD/sodipodi-0.dtd"
   xmlns:inkscape="http://www.inkscape.org/namespaces/inkscape"
   version="1.1"
   width="128"
   height="128"
   id="svg2"
   inkscape:version="0.46+devel"
   sodipodi:docname="applications-system.svg"
   sodipodi:version="0.32"
   inkscape:output_extension="org.inkscape.output.svg.inkscape">
  <metadata
     id="metadata3658">
    <rdf:RDF>
      <cc:Work
         rdf:about="">
        <dc:format>image/svg+xml</dc:format>
        <dc:type
           rdf:resource="http://purl.org/dc/dcmitype/StillImage" />
      </cc:Work>
    </rdf:RDF>
  </metadata>
  <sodipodi:namedview
     pagecolor="#ffffff"
     bordercolor="#666666"
     borderopacity="1"
     objecttolerance="10"
     gridtolerance="10"
     guidetolerance="10"
     inkscape:pageopacity="0"
     inkscape:pageshadow="2"
     inkscape:window-width="1191"
     inkscape:window-height="883"
     id="namedview3656"
     showgrid="false"
     inkscape:zoom="0.67396115"
     inkscape:cx="-325.36154"
     inkscape:cy="64.262295"
     inkscape:window-x="0"
     inkscape:window-y="26"
     inkscape:window-maximized="0"
     inkscape:current-layer="svg2" />
  <defs
     id="defs4">
    <inkscape:perspective
       sodipodi:type="inkscape:persp3d"
       inkscape:vp_x="0 : 64 : 1"
       inkscape:vp_y="0 : 1000 : 0"
       inkscape:vp_z="128 : 64 : 1"
       inkscape:persp3d-origin="64 : 42.666667 : 1"
       id="perspective3660" />
  </defs>
  <g
     transform="translate(-0.1648632,4.0673625e-2)"
     id="layer1"
     style="fill:#000000;fill-opacity:1">
    <path
       d="m 48.505663,0.020956956 c -3.918578,0.008265273 -6.438053,3.3033258 -9.858237,7.26754 0.237839,1.2127983 0.348684,2.46469 0.348684,3.755475 0,9.832731 -7.266256,17.803735 -16.229637,17.803735 -4.855165,0 -9.198028,-2.343986 -12.172228,-6.050488 C 8.0516789,24.490768 6.5368361,27.359368 6.5368361,33.29864 6.5368362,49.087537 14.651655,46.651441 26.823882,46.651441 c 5.337094,0 12.172228,0 12.172228,13.352801 C 39.411731,70.065686 33.280484,69.204041 26.601993,71.06203 11.600312,75.23557 1.69063,70.57643 0.197134,87.474848 -0.7570952,98.271639 3.78587,100.08918 10.467451,102.56629 c 2.420219,-1.57341 5.224351,-2.50365 8.241613,-2.50365 8.963381,0 16.229637,7.97101 16.229637,17.80374 0,1.4938 -0.191293,2.9254 -0.507177,4.31184 3.660307,4.98773 6.947559,7.82453 14.961697,3.82502 14.087317,-7.03036 4.33903,-13.49311 5.832526,-30.391529 0.642015,-7.264193 3.677027,-11.718474 8.114818,-13.352801 7.734436,-2.816607 12.172228,0 17.877959,2.225467 15.256392,5.950612 14.759515,23.555423 28.782246,14.674171 8.4861,-5.374646 7.71737,-10.454951 5.80083,-17.560324 -6.84777,-2.088113 -11.88694,-8.965764 -11.88694,-17.143049 0,-8.177284 5.03917,-15.054935 11.88694,-17.143049 1.91654,-7.105372 2.68527,-12.185678 -5.80083,-17.560324 C 95.978038,20.870548 95.241257,35.54472 81.218524,44.425974 73.29422,49.444808 71.455383,51.102375 63.340565,46.651441 55.225747,37.749574 59.11286,36.823822 59.283156,28.847707 59.620167,13.063139 67.690397,10.34951 55.225747,2.4550613 52.499104,0.7281507 50.350055,0.0170666 48.505663,0.020957 z"
       id="path3794"
       style="opacity:1;fill:#000000;fill-opacity:1;fill-rule:nonzero;stroke:none" />
    <path
       d="m 128.25911,64.455175 c 0,4.916366 -3.63312,8.901868 -8.11482,8.901868 -4.48169,0 -8.11481,-3.985502 -8.11481,-8.901868 0,-4.916365 3.63312,-8.901867 8.11481,-8.901867 4.4817,0 8.11482,3.985502 8.11482,8.901867 z"
       id="path3855"
       style="opacity:1;fill:#000000;fill-opacity:1;fill-rule:nonzero;stroke:none" />
    <path
       d="m 26.823882,117.86638 c 0,4.91637 -3.633128,8.90187 -8.114818,8.90187 -4.481691,0 -8.114819,-3.9855 -8.114819,-8.90187 0,-4.91637 3.633128,-8.90187 8.114819,-8.90187 4.48169,0 8.114818,3.9855 8.114818,8.90187 z"
       id="path3860"
       style="opacity:1;fill:#000000;fill-opacity:1;fill-rule:nonzero;stroke:none" />
    <path
       d="m 30.881291,11.043972 c 0,4.916366 -3.633128,8.901867 -8.114818,8.901867 -4.481691,0 -8.114818,-3.985501 -8.114818,-8.901867 0,-4.9163653 3.633127,-8.901867 8.114818,-8.901867 4.48169,0 8.114818,3.9855017 8.114818,8.901867 z"
       id="path3865"
       style="opacity:1;fill:#000000;fill-opacity:1;fill-rule:nonzero;stroke:none" />
  </g>
</svg>
