<?xml version="1.0" encoding="UTF-8" standalone="no"?>
<!-- Created with Inkscape (http://www.inkscape.org/) -->

<svg
   xmlns:svg="http://www.w3.org/2000/svg"
   xmlns="http://www.w3.org/2000/svg"
   version="1.1"
   width="128"
   height="128"
   id="svg2">
  <defs
     id="defs4" />
  <g
     transform="translate(0,-924.36218)"
     id="layer1">
    <path
       d="m 66.78125,71.1875 -7.59375,43.125 c 12.724381,10.3067 27.38334,11.75225 43.75,5.28125 l 7.625,-43.3125 C 94.046388,83.54475 79.432629,81.97818 66.78125,71.1875 z"
       transform="translate(0,924.36218)"
       id="path3928"
       style="opacity:0.33999987;fill:#000000;fill-opacity:1;fill-rule:nonzero;stroke:none" />
    <path
       d="m 33.9375,55.25 c -5.718748,0.03955 -11.681189,1.432775 -17.90625,4.34375 L 8.375,102.9375 c 16.07431,-6.7056 30.603852,-4.49925 43.75,5.40625 l 7.625,-43.375 C 53.357612,59.95879 46.647732,56.73689 39.5625,55.65625 37.708437,55.373465 35.843749,55.236818 33.9375,55.25 z"
       transform="translate(0,924.36218)"
       id="path3926"
       style="opacity:0.75999989;fill:#000000;fill-opacity:1;fill-rule:nonzero;stroke:none" />
    <path
       d="m 75.84375,19.75 -7.625,43.375 c 13.180469,10.69044 27.721622,12.69632 43.75,5.28125 l 7.625,-43.34375 c -16.13169,7.00807 -30.802427,5.7289 -43.75,-5.3125 z"
       transform="translate(0,924.36218)"
       id="path3924"
       style="opacity:0.59999988;fill:#000000;fill-opacity:1;fill-rule:nonzero;stroke:none" />
    <path
       d="M 42.90625,4.1875 C 37.172972,4.2035898 31.235844,5.5632025 25.0625,8.40625 l -7.65625,43.3125 C 33.708742,44.74007 48.165252,47.10217 61.125,57.125 L 68.8125,13.65625 C 62.355294,8.78889 55.612371,5.67232 48.5625,4.59375 46.69777,4.30846 44.817343,4.1821367 42.90625,4.1875 z"
       transform="translate(0,924.36218)"
       id="rect3891"
       style="opacity:0.91999984;fill:#000000;fill-opacity:1;fill-rule:nonzero;stroke:none" />
  </g>
</svg>
