<?xml version="1.0" encoding="UTF-8" standalone="no"?>
<!-- Created with Inkscape (http://www.inkscape.org/) -->
<svg
   xmlns:dc="http://purl.org/dc/elements/1.1/"
   xmlns:cc="http://creativecommons.org/ns#"
   xmlns:rdf="http://www.w3.org/1999/02/22-rdf-syntax-ns#"
   xmlns:svg="http://www.w3.org/2000/svg"
   xmlns="http://www.w3.org/2000/svg"
   xmlns:sodipodi="http://sodipodi.sourceforge.net/DTD/sodipodi-0.dtd"
   xmlns:inkscape="http://www.inkscape.org/namespaces/inkscape"
   width="64"
   height="64"
   id="svg2"
   version="1.1"
   inkscape:version="0.46"
   sodipodi:docname="applications-utilities.svg"
   sodipodi:version="0.32"
   inkscape:output_extension="org.inkscape.output.svg.inkscape">
  <defs
     id="defs4">
    <inkscape:perspective
       sodipodi:type="inkscape:persp3d"
       inkscape:vp_x="0 : 526.18109 : 1"
       inkscape:vp_y="0 : 1000 : 0"
       inkscape:vp_z="744.09448 : 526.18109 : 1"
       inkscape:persp3d-origin="372.04724 : 350.78739 : 1"
       id="perspective10" />
  </defs>
  <sodipodi:namedview
     id="base"
     pagecolor="#ffffff"
     bordercolor="#666666"
     borderopacity="1.0"
     inkscape:pageopacity="0.0"
     inkscape:pageshadow="2"
     inkscape:zoom="1"
     inkscape:cx="176.62729"
     inkscape:cy="188.34215"
     inkscape:document-units="px"
     inkscape:current-layer="layer1"
     showgrid="true"
     inkscape:window-width="1440"
     inkscape:window-height="851"
     inkscape:window-x="-4"
     inkscape:window-y="-2"
     inkscape:window-maximized="1">
    <inkscape:grid
       type="xygrid"
       id="grid2816"
       empspacing="4"
       visible="true"
       enabled="true"
       snapvisiblegridlinesonly="true" />
  </sodipodi:namedview>
  <metadata
     id="metadata7">
    <rdf:RDF>
      <cc:Work
         rdf:about="">
        <dc:format>image/svg+xml</dc:format>
        <dc:type
           rdf:resource="http://purl.org/dc/dcmitype/StillImage" />
        <dc:title />
      </cc:Work>
    </rdf:RDF>
  </metadata>
  <g
     inkscape:label="Layer 1"
     inkscape:groupmode="layer"
     id="layer1"
     transform="translate(0,-988.36218)">
    <g
       id="g3186">
      <path
         transform="translate(0,988.36218)"
         id="path2385"
         d="M 31.96875 0.09375 C 31.331857 0.095527549 30.687002 3.3888631 19.15625 10.03125 C -3.9052536 23.316024 6.3311542 5.6531438 6.40625 32.09375 C 6.4813458 58.534358 -3.8553504 40.937914 19.28125 54.09375 C 42.417849 67.249585 21.875998 67.284775 44.9375 54 C 67.999004 40.715226 57.762595 58.409358 57.6875 31.96875 C 57.612404 5.5281419 67.949099 23.124584 44.8125 9.96875 C 33.2442 3.3908327 32.605643 0.091972451 31.96875 0.09375 z M 31.96875 4.28125 C 32.52182 4.2797064 33.079222 7.1628125 43.125 12.875 C 63.216555 24.299375 54.247287 9.0080305 54.3125 31.96875 C 54.377712 54.929469 63.276342 39.588655 43.25 51.125 C 23.223656 62.661343 41.060305 62.611875 20.96875 51.1875 C 0.87719461 39.763126 9.8464628 55.05447 9.78125 32.09375 C 9.7160369 9.1330315 0.84865759 24.473845 20.875 12.9375 C 30.888171 7.1693278 31.41568 4.2827936 31.96875 4.28125 z "
         style="opacity:1;fill:#000000;fill-opacity:1;stroke:none;stroke-width:0.2;stroke-miterlimit:4;stroke-dasharray:none;stroke-dashoffset:0;stroke-opacity:1" />
      <path
         id="path2392"
         transform="translate(0,988.36218)"
         d="M 31.96875 6.78125 C 31.465186 6.7827199 30.99189 9.37311 21.875 14.625 C 3.6412196 25.1287 11.721873 11.157 11.78125 32.0625 C 11.840625 52.9681 3.6755946 39.06705 21.96875 49.46875 C 40.261907 59.87055 23.984969 59.90995 42.21875 49.40625 C 60.452532 38.90255 52.371877 52.87425 52.3125 31.96875 C 52.253124 11.0632 60.418157 24.99555 42.125 14.59375 C 32.978419 9.3928995 32.472314 6.77993 31.96875 6.78125 z M 31.96875 11.25 C 32.382852 11.24883 32.822146 13.37935 40.34375 17.65625 C 55.386958 26.21005 48.638673 14.77725 48.6875 31.96875 C 48.736327 49.16015 55.400629 37.64355 40.40625 46.28125 C 25.411873 54.91885 38.793206 54.89765 23.75 46.34375 C 8.7067937 37.790051 15.392576 49.254 15.34375 32.0625 C 15.294921 14.8711 8.6618712 26.35645 23.65625 17.71875 C 31.15344 13.39995 31.554648 11.25118 31.96875 11.25 z M 32 13.4375 C 31.628904 13.4385 31.249821 15.34855 24.53125 19.21875 C 11.559523 26.691242 16.653872 17.421036 17.0625 30.625 L 26.59375 30.5 L 31.03125 20.5625 L 33.59375 21.125 L 33.3125 35.59375 L 35.15625 30.84375 L 35.46875 30 L 36.40625 30 L 47.0625 30 C 47.512446 17.552454 52.31 26.489284 39.46875 19.1875 C 32.7283 15.3548 32.371095 13.4365 32 13.4375 z M 30.8125 27.5625 L 28.65625 32.34375 L 28.3125 33.125 L 27.46875 33.125 L 17.0625 33.28125 C 16.781744 46.807486 11.540014 37.434722 24.625 44.875 C 38.1059 52.540499 26.125355 52.553 39.5625 44.8125 C 52.776924 37.200201 47.260347 46.980775 47.03125 32.65625 L 37.3125 32.65625 L 33.0625 43.5 L 30.5 43 L 30.8125 27.5625 z "
         style="opacity:1;fill:#000000;fill-opacity:1;stroke:none;stroke-width:0.2;stroke-miterlimit:4;stroke-dasharray:none;stroke-dashoffset:0;stroke-opacity:1" />
    </g>
  </g>
</svg>
