<?xml version="1.0" encoding="UTF-8" standalone="no"?>
<!-- Created with Inkscape (http://www.inkscape.org/) -->
<svg
   xmlns:dc="http://purl.org/dc/elements/1.1/"
   xmlns:cc="http://creativecommons.org/ns#"
   xmlns:rdf="http://www.w3.org/1999/02/22-rdf-syntax-ns#"
   xmlns:svg="http://www.w3.org/2000/svg"
   xmlns="http://www.w3.org/2000/svg"
   xmlns:sodipodi="http://sodipodi.sourceforge.net/DTD/sodipodi-0.dtd"
   xmlns:inkscape="http://www.inkscape.org/namespaces/inkscape"
   width="128"
   height="128"
   id="svg2"
   sodipodi:version="0.32"
   inkscape:version="0.46"
   version="1.0"
   sodipodi:docname="applications-internet-alt2.svg"
   inkscape:output_extension="org.inkscape.output.svg.inkscape">
  <defs
     id="defs4">
    <inkscape:perspective
       sodipodi:type="inkscape:persp3d"
       inkscape:vp_x="0 : 526.18109 : 1"
       inkscape:vp_y="0 : 1000 : 0"
       inkscape:vp_z="744.09448 : 526.18109 : 1"
       inkscape:persp3d-origin="372.04724 : 350.78739 : 1"
       id="perspective10" />
    <inkscape:perspective
       id="perspective2571"
       inkscape:persp3d-origin="372.04724 : 350.78739 : 1"
       inkscape:vp_z="744.09448 : 526.18109 : 1"
       inkscape:vp_y="0 : 1000 : 0"
       inkscape:vp_x="0 : 526.18109 : 1"
       sodipodi:type="inkscape:persp3d" />
    <inkscape:perspective
       id="perspective2639"
       inkscape:persp3d-origin="372.04724 : 350.78739 : 1"
       inkscape:vp_z="744.09448 : 526.18109 : 1"
       inkscape:vp_y="0 : 1000 : 0"
       inkscape:vp_x="0 : 526.18109 : 1"
       sodipodi:type="inkscape:persp3d" />
    <inkscape:perspective
       id="perspective3136"
       inkscape:persp3d-origin="372.04724 : 350.78739 : 1"
       inkscape:vp_z="744.09448 : 526.18109 : 1"
       inkscape:vp_y="0 : 1000 : 0"
       inkscape:vp_x="0 : 526.18109 : 1"
       sodipodi:type="inkscape:persp3d" />
    <inkscape:perspective
       id="perspective4037"
       inkscape:persp3d-origin="372.04724 : 350.78739 : 1"
       inkscape:vp_z="744.09448 : 526.18109 : 1"
       inkscape:vp_y="0 : 1000 : 0"
       inkscape:vp_x="0 : 526.18109 : 1"
       sodipodi:type="inkscape:persp3d" />
  </defs>
  <sodipodi:namedview
     id="base"
     pagecolor="#ffffff"
     bordercolor="#666666"
     borderopacity="1.0"
     inkscape:pageopacity="0.0"
     inkscape:pageshadow="2"
     inkscape:zoom="1.3277207"
     inkscape:cx="101.21874"
     inkscape:cy="9.5818329"
     inkscape:document-units="px"
     inkscape:current-layer="layer1"
     showgrid="false"
     borderlayer="true"
     inkscape:window-width="1440"
     inkscape:window-height="846"
     inkscape:window-x="-4"
     inkscape:window-y="-1" />
  <metadata
     id="metadata7">
    <rdf:RDF>
      <cc:Work
         rdf:about="">
        <dc:format>image/svg+xml</dc:format>
        <dc:type
           rdf:resource="http://purl.org/dc/dcmitype/StillImage" />
      </cc:Work>
    </rdf:RDF>
  </metadata>
  <g
     inkscape:label="Capa 1"
     inkscape:groupmode="layer"
     id="layer1">
    <g
       id="g3209">
      <path
         id="path3197"
         d="M 124.64834,71.14549 C 124.21708,71.546937 123.82362,71.973595 123.3227,72.363621 C 121.68358,73.63991 119.67018,74.828616 117.342,75.963875 C 115.01382,77.099133 112.38013,78.165462 109.44992,79.131014 C 106.51972,80.096566 103.3075,80.962521 99.862282,81.729694 C 96.41706,82.496868 92.72975,83.165651 88.856534,83.705774 C 84.983318,84.245895 80.924334,84.666576 76.710136,84.950974 C 72.495938,85.235372 68.137877,85.384086 63.669714,85.384086 C 59.201552,85.384086 54.812662,85.235372 50.598463,84.950974 C 46.384265,84.666576 42.325282,84.245895 38.452064,83.705774 C 34.578848,83.165651 30.891539,82.496868 27.446319,81.729694 C 24.001098,80.962521 20.788887,80.096566 17.858679,79.131014 C 14.928472,78.165463 12.294783,77.099133 9.9666033,75.963875 C 8.0146356,75.012064 6.4141302,74.011726 4.9415706,72.959152 C 6.2532098,100.51879 32.511655,122.55062 64.748708,122.55062 C 97.695527,122.55062 124.44262,99.553062 124.64834,71.14549 z"
         style="opacity:0.66000001;fill:#212121;fill-opacity:1;stroke:#000000;stroke-width:5.95360756;stroke-miterlimit:4;stroke-dasharray:none;stroke-opacity:1" />
      <path
         id="path3184"
         d="M 64.487725,6.8431311 C 31.444092,6.8431311 4.6127424,30.932391 4.6127326,60.588949 C 4.6127326,62.24291 4.7266774,63.864047 4.8899315,65.480044 C 5.5436876,65.870571 6.0606626,66.28419 6.7995249,66.660652 C 9.2378515,67.903011 11.985064,69.08962 15.053897,70.14626 C 18.122729,71.202902 21.486452,72.145795 25.094662,72.985344 C 28.702872,73.824892 32.557372,74.558715 36.613822,75.149794 C 40.670271,75.740871 44.920617,76.187832 49.334177,76.49906 C 53.747748,76.810289 58.360586,76.976926 63.04013,76.976926 C 67.719663,76.976926 72.270913,76.810287 76.684483,76.49906 C 81.098053,76.187833 85.348399,75.74087 89.404839,75.149794 C 93.461288,74.558715 97.346598,73.824892 100.9548,72.985344 C 104.56301,72.145795 107.92675,71.202905 110.99557,70.14626 C 114.06441,69.089617 116.81161,67.903011 119.24994,66.660652 C 121.16985,65.682441 122.69721,64.637555 124.17793,63.568582 C 124.239,62.574848 124.33192,61.596299 124.33192,60.588949 C 124.33192,30.932391 97.531358,6.8431311 64.487725,6.8431311 z"
         style="opacity:0.66000001;fill:#212121;fill-opacity:1;stroke:#000000;stroke-width:6.06410646;stroke-miterlimit:4;stroke-dasharray:none;stroke-opacity:1" />
    </g>
    <path
       sodipodi:type="arc"
       style="opacity:0.66000001;fill:#181818;fill-opacity:1;stroke:#262626;stroke-width:3;stroke-miterlimit:4;stroke-dasharray:none;stroke-opacity:1"
       id="path2399"
       sodipodi:cx="-84.919975"
       sodipodi:cy="30.276131"
       sodipodi:rx="19.770725"
       sodipodi:ry="10.356094"
       d="M -65.14925,30.276131 A 19.770725,10.356094 0 1 1 -104.6907,30.276131 A 19.770725,10.356094 0 1 1 -65.14925,30.276131 z"
       transform="matrix(0.6084993,1.0435638,-1.4169968,0.4481364,191.55346,115.56013)" />
  </g>
</svg>
