<?xml version="1.0" encoding="UTF-8" standalone="no"?>
<!-- Created with Inkscape (http://www.inkscape.org/) -->

<svg
   xmlns:svg="http://www.w3.org/2000/svg"
   xmlns="http://www.w3.org/2000/svg"
   version="1.1"
   width="128"
   height="128"
   id="svg2">
  <defs
     id="defs4" />
  <g
     transform="translate(0,-924.36218)"
     id="layer1">
    <path
       d="M 49.375,2.09375 C 45.511867,2.1011779 43.028041,5.0624088 39.65625,8.625 39.890724,9.7149271 40,10.839987 40,12 40,20.836556 32.836556,28 24,28 19.213532,28 14.932117,25.893489 12,22.5625 9.4934089,24.084472 8,26.662448 8,32 c 10e-8,14.18929 8,12 20,12 5.261578,0 12,0 12,12 0.409741,9.042098 -5.634754,8.267748 -12.21875,9.9375 C 12.991832,69.68821 3.2223641,65.501097 1.75,80.6875 0.80927241,90.390445 5.2879581,92.023845 11.875,94.25 14.260975,92.83599 17.02543,92 20,92 c 8.836556,0 16,7.163444 16,16 0,1.34246 -0.188586,2.62902 -0.5,3.875 3.608516,4.48241 6.849256,7.03181 14.75,3.4375 C 64.137993,108.9944 54.527636,103.1864 56,88 c 0.632931,-6.528242 3.625,-10.53125 8,-12 7.625,-2.53125 12,0 17.625,2 15.040526,5.347743 14.550679,21.168975 28.375,13.1875 8.36603,-4.830129 7.60817,-9.395738 5.71875,-15.78125 C 108.96787,73.529688 104,67.348826 104,60 104,52.651174 108.96787,46.470312 115.71875,44.59375 117.60817,38.208238 118.36603,33.642629 110,28.8125 96.175678,20.831024 95.449322,34.018525 81.625,42 73.812819,46.510365 72,48 64,44 56,36 59.832114,35.168038 60,28 60.332243,13.814601 68.288285,11.375895 56,4.28125 53.311937,2.7292964 51.193296,2.0902538 49.375,2.09375 z"
       transform="translate(0,924.36218)"
       id="path3794"
       style="opacity:0.65999989;fill:#000000;fill-opacity:1;fill-rule:nonzero;stroke:none" />
    <path
       d="m 128,60 a 8,8 0 1 1 -16,0 8,8 0 1 1 16,0 z"
       transform="translate(0,924.36218)"
       id="path3855"
       style="opacity:0.65999989;fill:#000000;fill-opacity:1;fill-rule:nonzero;stroke:none" />
    <path
       d="m 28,108 a 8,8 0 1 1 -16,0 8,8 0 1 1 16,0 z"
       transform="translate(0,924.36218)"
       id="path3860"
       style="opacity:0.65999989;fill:#000000;fill-opacity:1;fill-rule:nonzero;stroke:none" />
    <path
       d="m 32,12 a 8,8 0 1 1 -16,0 8,8 0 1 1 16,0 z"
       transform="translate(0,924.36218)"
       id="path3865"
       style="opacity:0.65999989;fill:#000000;fill-opacity:1;fill-rule:nonzero;stroke:none" />
  </g>
</svg>
