<?xml version="1.0" encoding="UTF-8" standalone="no"?>
<!-- Created with Inkscape (http://www.inkscape.org/) -->

<svg
   xmlns:svg="http://www.w3.org/2000/svg"
   xmlns="http://www.w3.org/2000/svg"
   version="1.1"
   width="128"
   height="128"
   id="svg2">
  <defs
     id="defs4" />
  <g
     transform="translate(0,-924.36218)"
     id="layer1">
    <path
       d="m 57.21875,0.15625 c -0.312471,-0.002071 -0.659343,0.0135479 -1.0625,0.0625 -6.450513,0.7832342 0.763133,5.3208168 -5.3125,7.625 -6.075631,2.304182 -3.683593,-5.8787211 -9.03125,-2.1875 -5.347658,3.6912223 3.152648,4.35501 -1.15625,9.21875 -4.308897,4.863739 -5.980281,-3.503594 -9,2.25 -3.01972,5.753596 4.836297,2.378427 3.28125,8.6875 C 33.382453,32.121571 28,25.502112 28,32 c 0,6.49789 5.382453,-0.121573 6.9375,6.1875 1.555046,6.309071 -6.300969,2.933906 -3.28125,8.6875 3.01972,5.753596 4.691102,-2.613741 9,2.25 4.308896,4.863739 -4.191407,5.527529 1.15625,9.21875 5.347659,3.691222 2.955618,-4.491684 9.03125,-2.1875 6.07563,2.304183 -1.138011,6.841766 5.3125,7.625 6.450513,0.783234 0.518237,-5.373016 6.96875,-6.15625 6.450511,-0.783234 2.14312,6.585433 8.21875,4.28125 6.075633,-2.304184 -2.035159,-4.965028 3.3125,-8.65625 5.347657,-3.691221 4.972354,4.832489 9.28125,-0.03125 C 88.246398,48.355009 79.85528,49.753596 82.875,44 c 3.019719,-5.753594 6.632454,1.965321 8.1875,-4.34375 1.555047,-6.309073 -5.25,-1.15836 -5.25,-7.65625 0,-6.497888 6.805046,-1.347179 5.25,-7.65625 C 89.507453,18.034677 85.89472,25.753596 82.875,20 79.855281,14.246406 88.246397,15.644989 83.9375,10.78125 79.628602,5.9175097 80.003908,14.441222 74.65625,10.75 69.308593,7.0587788 77.419381,4.3979326 71.34375,2.09375 65.268117,-0.21043334 69.575513,7.1582344 63.125,6.375 57.077646,5.640718 61.905818,0.18732192 57.21875,0.15625 z M 60,12 C 71.045695,12 80,20.954305 80,32 80,43.045695 71.045695,52 60,52 48.954305,52 40,43.045695 40,32 40,20.954305 48.954305,12 60,12 z"
       transform="translate(0,924.36218)"
       id="path3748"
       style="opacity:0.65999989;fill:#000000;fill-opacity:1;fill-rule:nonzero;stroke:none" />
    <path
       d="m 90.625,52.125 c -4.951254,0.08538 0.720845,5.601137 -5.75,6.28125 -6.902234,0.725454 -1.399426,-6.800906 -8,-4.65625 -6.600574,2.144656 2.260437,4.998623 -3.75,8.46875 -6.010436,3.470127 -4.061136,-5.612686 -9.21875,-0.96875 -5.157614,4.643936 4.079379,3.635217 0,9.25 -4.079379,5.614783 -5.958394,-3.496487 -8.78125,2.84375 -2.822856,6.340238 5.19296,1.680157 3.75,8.46875 C 57.43204,88.601093 52,81.059746 52,88 c 0,6.940254 5.43204,-0.601093 6.875,6.1875 1.44296,6.78859 -6.572855,2.128513 -3.75,8.46875 2.822855,6.34024 4.701871,-2.771034 8.78125,2.84375 4.079379,5.61478 -5.157614,4.60606 0,9.25 5.157614,4.64394 3.208314,-4.43888 9.21875,-0.96875 6.010436,3.47013 -2.850573,6.32409 3.75,8.46875 6.600574,2.14466 1.097765,-5.3817 8,-4.65625 6.902234,0.72545 -0.02723,6.9442 6.875,6.21875 6.902235,-0.72545 -1.163074,-5.35534 5.4375,-7.5 6.60057,-2.14466 2.802064,6.34513 8.8125,2.875 6.01044,-3.47013 -3.25136,-4.41856 1.90625,-9.0625 5.15761,-4.64394 5.13937,4.64603 9.21875,-0.96875 4.07938,-5.61478 -4.76036,-2.72226 -1.9375,-9.0625 2.82286,-6.340237 6.58829,2.19484 8.03125,-4.59375 1.44296,-6.788593 -5.4375,-0.559746 -5.4375,-7.5 0,-6.940254 6.88046,-0.711407 5.4375,-7.5 -1.44296,-6.788593 -5.20839,1.746488 -8.03125,-4.59375 -2.82286,-6.340237 6.01688,-3.447717 1.9375,-9.0625 -4.07938,-5.614784 -4.06114,3.675187 -9.21875,-0.96875 -5.15761,-4.643936 4.10419,-5.592373 -1.90625,-9.0625 -6.010436,-3.470127 -2.21193,5.019657 -8.8125,2.875 -6.600573,-2.144657 1.464734,-6.774546 -5.4375,-7.5 -0.43139,-0.04534 -0.794916,-0.06819 -1.125,-0.0625 z M 88.09375,64 c 13.30681,0 24.09375,10.974933 24.09375,24.53125 0,13.55632 -10.78694,24.5625 -24.09375,24.5625 C 74.786936,113.09375 64,102.08757 64,88.53125 64,74.974933 74.786936,64 88.09375,64 z"
       transform="translate(0,924.36218)"
       id="path3752"
       style="opacity:0.65999989;fill:#000000;fill-opacity:1;fill-rule:nonzero;stroke:none" />
    <path
       d="m 25.4375,47.84375 c -0.304763,0.006 -0.66678,0.03434 -1.0625,0.09375 -6.331526,0.95051 1.352915,5.170712 -4.375,8.03125 -5.727916,2.860538 -4.498883,-5.803057 -9.0625,-1.3125 -4.5636163,4.490556 4.108849,3.381492 1.15625,9.0625 C 9.141151,69.399758 5.0525606,61.684637 4,68 c -1.0525605,6.315363 5.3307399,0.324724 6.28125,6.65625 0.95051,6.331526 -6.923038,2.490834 -4.0625,8.21875 2.8605376,5.727915 4.509444,-2.876116 9,1.6875 4.490557,4.563617 -4.118508,6.078651 1.5625,9.03125 5.681008,2.952599 1.965887,-4.95881 8.28125,-3.90625 6.315363,1.05256 0.230974,7.32551 6.5625,6.375 6.331526,-0.95051 -1.352915,-5.170712 4.375,-8.03125 5.727916,-2.860538 4.498883,5.803057 9.0625,1.3125 4.563616,-4.490556 -4.108849,-3.381492 -1.15625,-9.0625 C 46.858849,74.600242 50.947439,82.315363 52,76 c 1.05256,-6.315363 -5.33074,-0.324724 -6.28125,-6.65625 -0.95051,-6.331526 6.923038,-2.490834 4.0625,-8.21875 -2.860538,-5.727915 -4.509444,2.876116 -9,-1.6875 -4.490557,-4.563617 4.118508,-6.078651 -1.5625,-9.03125 -5.681008,-2.952599 -1.965887,4.95881 -8.28125,3.90625 -5.920653,-0.986775 -0.928561,-6.559098 -5.5,-6.46875 z M 28,60 c 6.627417,0 12,5.372583 12,12 0,6.627417 -5.372583,12 -12,12 -6.627417,0 -12,-5.372583 -12,-12 0,-6.627417 5.372583,-12 12,-12 z"
       transform="translate(0,924.36218)"
       id="path3754"
       style="opacity:0.65999989;fill:#000000;fill-opacity:1;fill-rule:nonzero;stroke:none" />
    <path
       d="m 32,72 a 4,4 0 1 1 -8,0 4,4 0 1 1 8,0 z"
       transform="translate(0,924.36218)"
       id="path3765"
       style="opacity:0.65999989;fill:#000000;fill-opacity:1;fill-rule:nonzero;stroke:none" />
    <path
       d="m 72,32 a 12,12 0 1 1 -24,0 12,12 0 1 1 24,0 z"
       transform="translate(0,924.36218)"
       id="path3767"
       style="opacity:0.65999989;fill:#000000;fill-opacity:1;fill-rule:nonzero;stroke:none" />
    <path
       d="m 96,88 a 8,8 0 1 1 -16,0 8,8 0 1 1 16,0 z"
       transform="translate(0,924.36218)"
       id="path3769"
       style="opacity:0.65999989;fill:#000000;fill-opacity:1;fill-rule:nonzero;stroke:none" />
  </g>
</svg>
