<?xml version="1.0" encoding="UTF-8" standalone="no"?>
<!-- Created with Inkscape (http://www.inkscape.org/) -->

<svg
   xmlns:svg="http://www.w3.org/2000/svg"
   xmlns="http://www.w3.org/2000/svg"
   version="1.1"
   width="128"
   height="128"
   id="svg2">
  <defs
     id="defs4" />
  <g
     transform="translate(0,-924.36218)"
     id="layer1">
    <path
       d="M 64,0 C 28.653776,0 0,28.65378 0,64 0,99.34622 28.653776,128 64,128 99.346224,128 128,99.34622 128,64 128,28.65378 99.346224,0 64,0 z M 44,16 c 6.627417,1e-6 12,5.372582 12,12 0,6.627416 -5.372582,12 -12,12 -6.627416,0 -11.999999,-5.372583 -12,-12 10e-7,-6.627417 5.372583,-11.999999 12,-12 z m 40,0 c 6.627417,0 12.000001,5.372583 12,12 10e-7,6.627417 -5.372582,12 -12,12 -6.627416,0 -11.999999,-5.372583 -12,-12 10e-7,-6.627417 5.372584,-12 12,-12 z M 64,48 c 8.836556,0 16,7.16344 16,16 0,8.83656 -7.163444,16 -16,16 -8.836556,0 -16,-7.16344 -16,-16 0,-8.83656 7.163444,-16 16,-16 z m -40.84375,3.3125 c 1.934354,0.05024 3.862653,0.589466 5.65625,1.625 5.739511,3.313709 7.719958,10.635489 4.40625,16.375 -3.313709,5.739511 -10.666739,7.719959 -16.40625,4.40625 -5.739511,-3.313709 -7.6887085,-10.666739 -4.375,-16.40625 2.278175,-3.945914 6.463171,-6.110526 10.71875,-6 z M 105.5,52.6875 c 1.93435,0.05024 3.8939,0.558216 5.6875,1.59375 5.73951,3.31371 7.68871,10.666739 4.375,16.40625 -3.31371,5.739511 -10.63549,7.68871 -16.375,4.375 -5.739511,-3.313708 -7.719958,-10.635489 -4.40625,-16.375 2.278175,-3.945914 6.46317,-6.110526 10.71875,-6 z M 44,88 c 6.627418,0 12,5.372584 12,12 2e-6,6.62741 -5.372582,12 -12,12 -6.627417,0 -11.999999,-5.37258 -12,-12 0,-6.627415 5.372584,-12 12,-12 z m 40,0 c 6.627416,0 11.999998,5.372583 12,12 10e-7,6.62742 -5.372576,12 -12,12 -6.627414,0 -12.000001,-5.37258 -12,-12 -10e-7,-6.627417 5.372582,-12 12,-12 z"
       transform="translate(0,924.36218)"
       id="path3047"
       style="opacity:0.33000004;fill:#000000;fill-opacity:1;fill-rule:nonzero;stroke:none" />
    <path
       d="m 72,64 a 8,8 0 1 1 -16,0 8,8 0 1 1 16,0 z"
       transform="translate(0,924.36218)"
       id="path3174"
       style="opacity:0.33000004;fill:#000000;fill-opacity:1;fill-rule:nonzero;stroke:none" />
    <g
       transform="translate(8,0)"
       id="g4008">
      <path
         d="m 80,76 a 32,24 0 1 1 -64,0 32,24 0 1 1 64,0 z"
         transform="translate(4,952.36218)"
         id="path3983"
         style="opacity:0.73000004;fill:#000000;fill-opacity:1;fill-rule:nonzero;stroke:none" />
      <path
         d="m 64,4 6.71875,80.53125 C 77.400807,88.148539 82.110129,93.650063 83.53125,100 L 84,100 68,4 C 68,2 64,2 64,4 z"
         transform="translate(0,924.36218)"
         id="rect3985"
         style="opacity:0.73000004;fill:#000000;fill-opacity:1;fill-rule:nonzero;stroke:none" />
      <path
         d="m 68,4 1.59375,9.46875 C 81.126599,24.383323 84.685455,32 100,32 l 0,-8 C 84,24 82.666667,15.35919 68,4 z"
         transform="translate(0,924.36218)"
         id="rect3991"
         style="opacity:0.73000004;fill:#000000;fill-opacity:1;fill-rule:nonzero;stroke:none" />
      <path
         d="m 100,948.36218 c 8,0 14.62652,8.47121 16,20 -4.76422,-8.42481 -8,-12 -16,-12 l 0,-8 z"
         id="rect3994"
         style="opacity:0.73000004;fill:#000000;fill-opacity:1;fill-rule:nonzero;stroke:none" />
    </g>
  </g>
</svg>
