<?xml version="1.0" encoding="UTF-8" standalone="no"?>
<!-- Created with Inkscape (http://www.inkscape.org/) -->
<svg
   xmlns:dc="http://purl.org/dc/elements/1.1/"
   xmlns:cc="http://creativecommons.org/ns#"
   xmlns:rdf="http://www.w3.org/1999/02/22-rdf-syntax-ns#"
   xmlns:svg="http://www.w3.org/2000/svg"
   xmlns="http://www.w3.org/2000/svg"
   xmlns:sodipodi="http://sodipodi.sourceforge.net/DTD/sodipodi-0.dtd"
   xmlns:inkscape="http://www.inkscape.org/namespaces/inkscape"
   width="128"
   height="128"
   id="svg2"
   sodipodi:version="0.32"
   inkscape:version="0.46"
   version="1.0"
   sodipodi:docname="applications-internet-alt.svg"
   inkscape:output_extension="org.inkscape.output.svg.inkscape">
  <defs
     id="defs4">
    <inkscape:perspective
       sodipodi:type="inkscape:persp3d"
       inkscape:vp_x="0 : 526.18109 : 1"
       inkscape:vp_y="0 : 1000 : 0"
       inkscape:vp_z="744.09448 : 526.18109 : 1"
       inkscape:persp3d-origin="372.04724 : 350.78739 : 1"
       id="perspective10" />
    <inkscape:perspective
       id="perspective2571"
       inkscape:persp3d-origin="372.04724 : 350.78739 : 1"
       inkscape:vp_z="744.09448 : 526.18109 : 1"
       inkscape:vp_y="0 : 1000 : 0"
       inkscape:vp_x="0 : 526.18109 : 1"
       sodipodi:type="inkscape:persp3d" />
    <inkscape:perspective
       id="perspective2639"
       inkscape:persp3d-origin="372.04724 : 350.78739 : 1"
       inkscape:vp_z="744.09448 : 526.18109 : 1"
       inkscape:vp_y="0 : 1000 : 0"
       inkscape:vp_x="0 : 526.18109 : 1"
       sodipodi:type="inkscape:persp3d" />
    <inkscape:perspective
       id="perspective3136"
       inkscape:persp3d-origin="372.04724 : 350.78739 : 1"
       inkscape:vp_z="744.09448 : 526.18109 : 1"
       inkscape:vp_y="0 : 1000 : 0"
       inkscape:vp_x="0 : 526.18109 : 1"
       sodipodi:type="inkscape:persp3d" />
    <inkscape:perspective
       id="perspective4037"
       inkscape:persp3d-origin="372.04724 : 350.78739 : 1"
       inkscape:vp_z="744.09448 : 526.18109 : 1"
       inkscape:vp_y="0 : 1000 : 0"
       inkscape:vp_x="0 : 526.18109 : 1"
       sodipodi:type="inkscape:persp3d" />
  </defs>
  <sodipodi:namedview
     id="base"
     pagecolor="#ffffff"
     bordercolor="#666666"
     borderopacity="1.0"
     inkscape:pageopacity="0.0"
     inkscape:pageshadow="2"
     inkscape:zoom="2.6554413"
     inkscape:cx="97.395777"
     inkscape:cy="68.016006"
     inkscape:document-units="px"
     inkscape:current-layer="layer1"
     showgrid="false"
     borderlayer="true"
     inkscape:window-width="1440"
     inkscape:window-height="846"
     inkscape:window-x="-4"
     inkscape:window-y="-1" />
  <metadata
     id="metadata7">
    <rdf:RDF>
      <cc:Work
         rdf:about="">
        <dc:format>image/svg+xml</dc:format>
        <dc:type
           rdf:resource="http://purl.org/dc/dcmitype/StillImage" />
      </cc:Work>
    </rdf:RDF>
  </metadata>
  <g
     inkscape:label="Capa 1"
     inkscape:groupmode="layer"
     id="layer1">
    <g
       style="opacity:0.9"
       id="g3976"
       transform="matrix(1.4663084,0,0,1.4419517,-25.234623,-34.562585)">
      <path
         transform="translate(-2.6360966,5.2721929)"
         d="M 92.263388,63.039047 A 28.055601,28.055601 0 1 1 36.152185,63.039047 A 28.055601,28.055601 0 1 1 92.263388,63.039047 z"
         sodipodi:ry="28.055601"
         sodipodi:rx="28.055601"
         sodipodi:cy="63.039047"
         sodipodi:cx="64.207787"
         id="path3182"
         style="opacity:1;fill:#4d4d4d;fill-opacity:1;stroke:#333333;stroke-width:3;stroke-miterlimit:4;stroke-dasharray:none"
         sodipodi:type="arc" />
      <path
         id="path3196"
         d="M 47.261448,68.028801 C 47.373859,67.432326 46.991841,67.100169 46.414131,66.52246 C 45.795254,65.903582 45.755107,65.707999 45.755107,64.827826 C 45.755107,64.423378 45.008459,63.844182 44.813644,63.69807 C 44.441529,63.418984 43.918445,62.941663 43.778035,62.380022 C 43.625954,61.771699 43.360356,61.274186 43.213157,60.685388 C 43.083304,60.165977 42.930718,59.846407 42.930718,59.273194 C 42.930718,58.729874 42.532989,58.232299 42.177547,58.143438 C 42.003732,58.099984 42.459986,56.307259 42.459986,56.072219 C 42.459986,55.323674 43.589066,55.507341 44.15462,55.507341 C 45.212397,55.507341 44.937659,54.927529 45.660961,54.565878 C 46.359556,54.216581 47.332891,54.889714 47.920472,55.03661 C 48.634267,55.215058 49.272792,55.319049 50.085837,55.319049 C 50.211366,55.319049 50.336894,55.319049 50.462423,55.319049 C 51.714015,55.319049 52.534119,55.742588 53.85169,55.413195 C 54.609299,55.223793 55.321806,55.224902 56.111201,55.224902 C 56.547226,55.224902 57.373218,55.563943 57.899981,55.695634 C 58.641146,55.880925 59.277271,56.140555 59.877054,56.260512 C 60.545728,56.394247 62.209934,56.772798 61.854126,57.484414 C 60.873613,59.44544 60.60899,57.284096 61.006809,59.273194 C 61.078363,59.630964 60.008633,60.930394 59.688761,61.250266 C 58.980889,61.958138 58.33704,62.319548 57.617542,63.039046 C 56.787087,63.869502 56.028974,64.481748 54.981446,65.110265 C 53.904333,65.756533 52.631346,66.518902 51.968764,67.181484 C 51.598632,67.551616 50.39124,67.73488 49.991691,67.934654 C 49.225722,68.317639 50.143435,69.187355 50.462423,69.346849 C 51.261489,69.746382 52.037402,69.133049 52.627788,69.723434 C 53.373104,70.468751 54.445851,71.303833 55.263885,71.794653 C 55.420795,71.888799 55.577706,71.982946 55.734616,72.077092 C 55.998849,72.235632 55.828762,73.819273 55.828762,74.148311 C 55.828762,74.870099 55.828762,75.591888 55.828762,76.313676 C 55.828762,77.229818 53.609635,77.624973 53.098519,78.00831 C 52.548209,78.421043 52.21329,79.478009 52.06291,80.079528 C 51.768156,81.258546 50.343444,81.681744 49.709252,82.527332 C 49.195511,83.212321 48.298437,83.749396 47.73218,84.504405 C 47.367557,84.990569 46.023721,85.376081 45.378522,85.634161 C 45.322619,85.656522 44.383627,87.00564 44.248766,87.140502 C 43.477368,87.9119 43.781314,85.343523 43.966327,84.88099 C 44.255922,84.157002 44.813644,83.548941 44.813644,82.715625 C 44.813644,81.790079 44.719498,80.976545 44.719498,80.079528 C 44.719498,79.042935 45.190229,78.148699 45.190229,77.160993 C 45.190229,76.523184 45.378522,75.862792 45.378522,75.18392 C 45.378522,74.241737 45.77544,73.575915 45.9434,72.736116 C 46.077324,72.066494 46.299203,71.553779 46.602424,70.947336 C 46.788791,70.574602 46.848597,69.984259 47.073156,69.535142 C 47.258273,69.164906 47.089259,68.459273 47.261448,68.028801 z"
         style="fill:#808080;fill-rule:evenodd;stroke:#808080;stroke-width:1px;stroke-linecap:butt;stroke-linejoin:miter;stroke-opacity:1" />
      <path
         id="path3198"
         d="M 76.635097,46.657588 C 76.928146,46.07149 76.463385,48.016292 76.070219,48.540514 C 75.510986,49.286158 74.805836,49.737583 73.999,50.141001 C 73.341155,50.469924 74.10526,51.785533 72.775098,52.118074 C 72.130394,52.27925 71.439487,52.813807 70.986318,53.153683 C 70.182397,53.756624 70.113595,54.125035 69.103392,54.377585 C 68.572403,54.510332 68.848226,55.594669 68.067782,55.78978 C 67.487528,55.934843 67.07016,57.088013 67.032173,57.201975 C 66.849185,57.750937 68.135313,57.79446 68.350221,58.33173 C 68.605692,58.970407 68.279781,60.02704 68.444368,60.685388 C 68.571435,61.193656 68.726176,61.906767 68.820953,62.285875 C 69.014396,63.059649 69.994046,61.351883 70.044855,61.250266 C 70.29871,60.742555 70.61656,60.338807 70.892172,59.649779 C 70.951506,59.501444 71.858891,59.027037 72.021927,58.896608 C 72.481657,58.528825 71.968317,60.039439 72.775098,58.425877 C 73.005854,57.964364 74.093146,57.757358 74.093146,58.425877 C 74.093146,59.182428 74.059118,59.941292 74.281439,60.497095 C 74.458201,60.939 73.453637,61.610763 73.528268,61.90929 C 73.684578,62.534529 74.145246,63.247445 74.281439,63.792216 C 74.404633,64.284992 75.254687,64.106441 75.599487,64.45124 C 76.023436,64.875189 75.642367,63.244114 75.78778,62.662461 C 75.970455,61.931762 76.070219,61.349652 76.070219,60.497095 C 76.070219,59.977629 76.417563,59.500474 76.729243,59.084901 C 77.268854,58.36542 78.216707,59.442847 78.518023,58.237584 C 78.617973,57.837785 79.632227,57.773073 80.11851,57.57856 C 80.212322,57.541035 80.35679,59.284848 80.400949,59.461486 C 80.619864,60.337146 80.731435,58.468083 80.777534,58.237584 C 80.833944,57.955535 81.679026,58.020883 81.813144,57.484414 C 81.917148,57.068394 82.493607,56.937712 82.942899,56.825389 C 83.561295,56.67079 84.126515,56.616953 84.731679,56.919536 C 85.595168,57.35128 84.958304,56.148883 84.825826,55.883926 C 84.615938,55.464151 84.310784,55.3301 84.166801,54.754171 C 84.021794,54.17414 83.599097,53.717148 83.225338,53.530268 C 82.789688,53.312443 82.494687,52.822135 82.283875,52.400513 C 82.024741,51.882245 81.599437,51.527782 81.248266,51.176611 C 80.738788,50.667133 80.085306,50.077326 79.459486,49.764416 C 79.198092,49.633719 78.787446,48.550204 78.612169,48.258075 C 78.35241,47.825142 78.103211,47.535339 77.858999,47.128319 C 77.736911,46.92484 76.897282,46.762462 76.635097,46.657588 z"
         style="fill:#808080;fill-rule:evenodd;stroke:#808080;stroke-width:1px;stroke-linecap:butt;stroke-linejoin:miter;stroke-opacity:1" />
      <path
         id="path3200"
         d="M 80.683388,60.497095 C 80.452925,60.112991 80.683388,61.791288 80.683388,62.850753 C 80.683388,63.247535 79.741925,63.574589 79.741925,64.45124 C 79.741925,65.637442 78.533779,65.737776 78.141438,66.522459 C 77.87188,67.061574 77.077855,67.689513 76.823389,68.0288 C 76.28058,68.752546 76.864989,69.335903 77.105828,69.81758 C 77.322319,70.250563 78.374412,70.181799 78.800462,70.288312 C 79.666487,70.504818 80.35813,71.079978 81.059973,71.60636 C 81.959894,72.2813 82.126835,73.425614 82.283875,74.524896 C 82.3959,75.309069 83.175669,75.604982 83.69607,76.125383 C 84.260831,76.690144 84.776985,77.112152 85.202411,77.537578 C 85.753416,78.088583 86.143874,77.408407 86.143874,76.9727 C 86.143874,76.219529 86.143874,75.466359 86.143874,74.713188 C 86.143874,73.998715 85.899353,73.770427 86.049728,73.018555 C 86.184432,72.345032 86.207655,71.664042 86.332167,71.041482 C 86.440894,70.497848 86.672103,69.964175 86.802898,69.440995 C 86.942465,68.882729 87.032953,68.478288 86.897044,67.934654 C 86.71029,67.187637 86.346336,66.768452 85.767289,66.334167 C 85.00735,65.764213 84.870453,65.288773 84.637533,64.357094 C 84.470539,63.689119 84.108424,63.11812 83.69607,62.568314 C 83.381595,62.149015 82.677645,61.640599 82.189729,61.250266 C 81.497377,60.696385 81.653001,59.721405 80.683388,60.497095 z"
         style="fill:#808080;fill-rule:evenodd;stroke:#808080;stroke-width:1px;stroke-linecap:butt;stroke-linejoin:miter;stroke-opacity:1" />
      <path
         id="path3202"
         d="M 52.345349,43.456613 C 51.730759,42.964941 54.038478,43.768429 54.510714,44.398076 C 55.346131,45.511967 55.709697,45.433686 57.14681,45.433686 C 58.120695,45.433686 58.132169,46.433196 59.029737,46.657588 C 60.308843,46.977364 61.282021,46.281003 62.51315,46.281003 C 63.706063,46.281003 63.702645,45.865946 64.678515,45.621978 C 65.561268,45.40129 65.704896,44.7762 66.84388,44.586369 C 67.317557,44.507423 67.667145,43.609859 68.161929,43.362467 C 69.496334,42.695264 68.177903,42.744296 67.502905,42.609296 C 66.832005,42.475117 66.098098,42.648433 65.431686,42.51515 C 64.887585,42.40633 64.360475,42.176738 63.831198,42.044419 C 63.315158,41.915409 62.834442,41.856126 62.324857,41.856126 C 61.477541,41.856126 60.630224,41.856126 59.782907,41.856126 C 58.370712,41.856126 56.958518,41.856126 55.546323,41.856126 C 54.6631,41.856126 54.117615,42.298765 53.945836,42.985882 C 53.742057,43.800997 53.359044,43.625562 52.345349,43.456613 z"
         style="fill:#808080;fill-rule:evenodd;stroke:#808080;stroke-width:1px;stroke-linecap:butt;stroke-linejoin:miter;stroke-opacity:1" />
      <path
         sodipodi:type="arc"
         style="opacity:1;fill:none;fill-opacity:1;stroke:#333333;stroke-width:3;stroke-miterlimit:4;stroke-dasharray:none"
         id="path3204"
         sodipodi:cx="64.207787"
         sodipodi:cy="63.039047"
         sodipodi:rx="28.055601"
         sodipodi:ry="28.055601"
         d="M 92.263388,63.039047 A 28.055601,28.055601 0 1 1 36.152185,63.039047 A 28.055601,28.055601 0 1 1 92.263388,63.039047 z"
         transform="translate(-2.6360966,5.2721929)" />
    </g>
    <g
       id="g7048"
       transform="matrix(1.2166423,0,0,1.2166423,-13.634078,-15.846199)">
      <path
         id="rect7035"
         d="M 24.46875,30.78125 C 23.930467,32.560701 22.298122,33.84375 20.34375,33.84375 C 18.707944,33.843751 17.299199,32.933331 16.5625,31.59375 L 16.5625,106.90625 C 16.212533,107.4623 16,108.10425 16,108.8125 L 16,109.53125 C 15.999999,111.52907 17.595926,113.125 19.59375,113.125 L 98.25,113.125 C 100.24782,113.125 101.84375,111.52907 101.84375,109.53125 L 101.84375,108.8125 C 101.84375,106.81468 100.24782,105.21875 98.25,105.21875 L 24.46875,105.21875 L 24.46875,30.78125 z"
         style="opacity:0.8;fill:#808080;fill-opacity:0.8;stroke:none;stroke-width:4.47200012;stroke-miterlimit:4;stroke-dasharray:none;stroke-opacity:0" />
      <path
         id="path7040"
         d="M 31.09375,18.03125 C 29.095931,18.03125 27.5,19.62718 27.5,21.625 L 27.5,22.34375 C 27.500001,24.34157 29.09593,25.9375 31.09375,25.9375 L 104.875,25.9375 L 104.875,99.90625 C 105.54738,98.385844 107.07529,97.3125 108.84375,97.3125 C 110.61177,97.312501 112.10862,98.386443 112.78125,99.90625 L 112.78125,24.25 C 113.13122,23.69395 113.34375,23.052 113.34375,22.34375 L 113.34375,21.625 C 113.34375,19.62718 111.74782,18.03125 109.75,18.03125 L 31.09375,18.03125 z"
         style="opacity:0.8;fill:#808080;fill-opacity:0.8;stroke:none;stroke-width:4.47200012;stroke-miterlimit:4;stroke-dasharray:none;stroke-opacity:0" />
    </g>
  </g>
</svg>
