<?xml version="1.0" encoding="UTF-8" standalone="no"?>
<!-- Created with Inkscape (http://www.inkscape.org/) -->

<svg
   xmlns:dc="http://purl.org/dc/elements/1.1/"
   xmlns:cc="http://creativecommons.org/ns#"
   xmlns:rdf="http://www.w3.org/1999/02/22-rdf-syntax-ns#"
   xmlns:svg="http://www.w3.org/2000/svg"
   xmlns="http://www.w3.org/2000/svg"
   xmlns:sodipodi="http://sodipodi.sourceforge.net/DTD/sodipodi-0.dtd"
   xmlns:inkscape="http://www.inkscape.org/namespaces/inkscape"
   version="1.1"
   width="128"
   height="128"
   id="svg2"
   inkscape:version="0.47 r22583"
   sodipodi:docname="applications-system.svg">
  <metadata
     id="metadata3658">
    <rdf:RDF>
      <cc:Work
         rdf:about="">
        <dc:format>image/svg+xml</dc:format>
        <dc:type
           rdf:resource="http://purl.org/dc/dcmitype/StillImage" />
      </cc:Work>
    </rdf:RDF>
  </metadata>
  <sodipodi:namedview
     pagecolor="#ffffff"
     bordercolor="#666666"
     borderopacity="1"
     objecttolerance="10"
     gridtolerance="10"
     guidetolerance="10"
     inkscape:pageopacity="0"
     inkscape:pageshadow="2"
     inkscape:window-width="1191"
     inkscape:window-height="883"
     id="namedview3656"
     showgrid="false"
     inkscape:zoom="1.90625"
     inkscape:cx="-10.491803"
     inkscape:cy="64.262295"
     inkscape:window-x="0"
     inkscape:window-y="15"
     inkscape:window-maximized="0"
     inkscape:current-layer="svg2" />
  <defs
     id="defs4">
    <inkscape:perspective
       sodipodi:type="inkscape:persp3d"
       inkscape:vp_x="0 : 64 : 1"
       inkscape:vp_y="0 : 1000 : 0"
       inkscape:vp_z="128 : 64 : 1"
       inkscape:persp3d-origin="64 : 42.666667 : 1"
       id="perspective3660" />
  </defs>
  <g
     transform="translate(0,-924.36218)"
     id="layer1"
     style="fill:#000000;fill-opacity:1">
    <path
       d="M 49.375,2.09375 C 45.511867,2.1011779 43.028041,5.0624088 39.65625,8.625 39.890724,9.7149271 40,10.839987 40,12 40,20.836556 32.836556,28 24,28 19.213532,28 14.932117,25.893489 12,22.5625 9.4934089,24.084472 8,26.662448 8,32 c 10e-8,14.18929 8,12 20,12 5.261578,0 12,0 12,12 0.409741,9.042098 -5.634754,8.267748 -12.21875,9.9375 C 12.991832,69.68821 3.2223641,65.501097 1.75,80.6875 0.80927241,90.390445 5.2879581,92.023845 11.875,94.25 14.260975,92.83599 17.02543,92 20,92 c 8.836556,0 16,7.163444 16,16 0,1.34246 -0.188586,2.62902 -0.5,3.875 3.608516,4.48241 6.849256,7.03181 14.75,3.4375 C 64.137993,108.9944 54.527636,103.1864 56,88 c 0.632931,-6.528242 3.625,-10.53125 8,-12 7.625,-2.53125 12,0 17.625,2 15.040526,5.347743 14.550679,21.168975 28.375,13.1875 8.36603,-4.830129 7.60817,-9.395738 5.71875,-15.78125 C 108.96787,73.529688 104,67.348826 104,60 104,52.651174 108.96787,46.470312 115.71875,44.59375 117.60817,38.208238 118.36603,33.642629 110,28.8125 96.175678,20.831024 95.449322,34.018525 81.625,42 73.812819,46.510365 72,48 64,44 56,36 59.832114,35.168038 60,28 60.332243,13.814601 68.288285,11.375895 56,4.28125 53.311937,2.7292964 51.193296,2.0902538 49.375,2.09375 z"
       transform="translate(0,924.36218)"
       id="path3794"
       style="opacity:1;fill:#000000;fill-opacity:1;fill-rule:nonzero;stroke:none" />
    <path
       d="m 128,60 a 8,8 0 1 1 -16,0 8,8 0 1 1 16,0 z"
       transform="translate(0,924.36218)"
       id="path3855"
       style="opacity:1;fill:#000000;fill-opacity:1;fill-rule:nonzero;stroke:none" />
    <path
       d="m 28,108 a 8,8 0 1 1 -16,0 8,8 0 1 1 16,0 z"
       transform="translate(0,924.36218)"
       id="path3860"
       style="opacity:1;fill:#000000;fill-opacity:1;fill-rule:nonzero;stroke:none" />
    <path
       d="m 32,12 a 8,8 0 1 1 -16,0 8,8 0 1 1 16,0 z"
       transform="translate(0,924.36218)"
       id="path3865"
       style="opacity:1;fill:#000000;fill-opacity:1;fill-rule:nonzero;stroke:none" />
  </g>
</svg>
