<?xml version="1.0" encoding="UTF-8" standalone="no"?>
<!-- Created with Inkscape (http://www.inkscape.org/) -->
<svg
   xmlns:dc="http://purl.org/dc/elements/1.1/"
   xmlns:cc="http://creativecommons.org/ns#"
   xmlns:rdf="http://www.w3.org/1999/02/22-rdf-syntax-ns#"
   xmlns:svg="http://www.w3.org/2000/svg"
   xmlns="http://www.w3.org/2000/svg"
   xmlns:sodipodi="http://sodipodi.sourceforge.net/DTD/sodipodi-0.dtd"
   xmlns:inkscape="http://www.inkscape.org/namespaces/inkscape"
   width="64"
   height="64"
   id="svg2"
   version="1.1"
   inkscape:version="0.46"
   sodipodi:docname="arora.alt.svg"
   sodipodi:version="0.32"
   inkscape:output_extension="org.inkscape.output.svg.inkscape">
  <defs
     id="defs4">
    <inkscape:perspective
       sodipodi:type="inkscape:persp3d"
       inkscape:vp_x="0 : 526.18109 : 1"
       inkscape:vp_y="0 : 1000 : 0"
       inkscape:vp_z="744.09448 : 526.18109 : 1"
       inkscape:persp3d-origin="372.04724 : 350.78739 : 1"
       id="perspective10" />
    <inkscape:perspective
       id="perspective2389"
       inkscape:persp3d-origin="372.04724 : 350.78739 : 1"
       inkscape:vp_z="744.09448 : 526.18109 : 1"
       inkscape:vp_y="0 : 1000 : 0"
       inkscape:vp_x="0 : 526.18109 : 1"
       sodipodi:type="inkscape:persp3d" />
    <inkscape:perspective
       id="perspective3812"
       inkscape:persp3d-origin="372.04724 : 350.78739 : 1"
       inkscape:vp_z="744.09448 : 526.18109 : 1"
       inkscape:vp_y="0 : 1000 : 0"
       inkscape:vp_x="0 : 526.18109 : 1"
       sodipodi:type="inkscape:persp3d" />
  </defs>
  <sodipodi:namedview
     id="base"
     pagecolor="#ffffff"
     bordercolor="#666666"
     borderopacity="1.0"
     inkscape:pageopacity="0.0"
     inkscape:pageshadow="2"
     inkscape:zoom="6.390625"
     inkscape:cx="27.750596"
     inkscape:cy="25.761673"
     inkscape:document-units="px"
     inkscape:current-layer="layer1"
     showgrid="true"
     inkscape:window-width="1440"
     inkscape:window-height="854"
     inkscape:window-x="-4"
     inkscape:window-y="-1"
     inkscape:window-maximized="0"
     showguides="true"
     inkscape:guide-bbox="true">
    <inkscape:grid
       type="xygrid"
       id="grid2816"
       empspacing="4"
       visible="true"
       enabled="true"
       snapvisiblegridlinesonly="true" />
  </sodipodi:namedview>
  <metadata
     id="metadata7">
    <rdf:RDF>
      <cc:Work
         rdf:about="">
        <dc:format>image/svg+xml</dc:format>
        <dc:type
           rdf:resource="http://purl.org/dc/dcmitype/StillImage" />
        <dc:title />
      </cc:Work>
    </rdf:RDF>
  </metadata>
  <g
     inkscape:label="Layer 1"
     inkscape:groupmode="layer"
     id="layer1"
     transform="translate(0,-988.36218)">
    <g
       id="g3870">
      <path
         id="path2427"
         d="M 51.088695,991.97322 C 48.801763,990.48632 45.954943,989.25813 42.718839,988.76476 C 25.485544,986.71967 25.694977,995.23128 20.503208,999.74815 C 17.234763,1003.1256 15.047211,1004.9393 12,1008.4743 C 11.423209,1002.8825 9.2943091,1011.5205 9.1408338,1012.0144 C 9.0670498,1012.1101 9.001553,1012.1801 8.9266208,1012.278 C 7.7854218,1015.6982 7.2257168,1016.47 6.673105,1018.646 C 5.4109699,1022.3615 4.4534721,1024.8853 4.3529759,1026.5893 C 5.3350606,1027.5397 5.4409641,1027.4362 8.2361564,1028.7435 C 10.185473,1027.0173 15.232192,1022.6456 18.689229,1020.0069 C 18.911455,1014.5677 28.485686,1010.4435 33.578912,1011.725 C 38.672137,1013.0064 36.477388,1026.9613 40.311386,1027.8604 C 44.145324,1028.7594 43.808438,1028.5533 45.156423,1025.7909 C 42.773566,1019.461 45.911566,1014.5244 44.789337,1011.4216 C 41.991896,1007.9413 40.513291,1006.1977 39.778979,1005.3266 C 41.127159,1006.9061 44.319742,1010.4547 45.903437,1011.1437 C 45.758611,1008.6143 45.609378,1006.9184 45.470806,1005.5963 C 45.757712,1006.9559 46.219094,1008.748 46.904647,1010.7916 C 47.98882,1013.3566 52.705369,1016.5176 52.975358,1018.8402 C 51.592252,1020.967 51.246359,1021.6645 50.286826,1022.7356 C 50.758207,1024.0995 52.554253,1024.2857 54.261056,1024.3831 C 55.967858,1024.4806 59.070659,1021.0376 59.549226,1021.027 C 60.199425,1017.1819 59.761777,1018.1764 59.448887,1016.2652 C 58.097012,1014.2477 57.111228,1011.6796 56.616018,1008.8931 C 56.022591,1006.0964 58.006203,1001.169 56.745583,998.0085 C 56.036487,996.23071 54.029037,993.88492 51.088695,991.97322 z M 45.109536,1002.8889 C 45.162045,1002.9924 45.275659,1003.9001 45.441934,1005.4558 C 45.085558,1003.7391 45.04001,1002.7519 45.109536,1002.8889 z"
         style="opacity:0.36000001;fill:#000000;fill-rule:evenodd;stroke:#000000;stroke-width:0.2163211;stroke-linecap:butt;stroke-linejoin:miter;stroke-miterlimit:4;stroke-dasharray:none;stroke-opacity:1" />
      <path
         id="path2435"
         d="M 10.645628,1018.9501 C 10.645628,1018.9501 11.89874,1020.1192 13.083198,1019.5541"
         style="opacity:0.66000001;fill:#000000;fill-rule:evenodd;stroke:#000000;stroke-width:1.08160555px;stroke-linecap:butt;stroke-linejoin:miter;stroke-opacity:1" />
      <path
         id="path2437"
         d="M 7.0966308,1018.1616 C 7.0966308,1018.1616 7.981492,1018.9198 8.9293143,1018.4797"
         style="opacity:0.66000001;fill:#000000;fill-rule:evenodd;stroke:#000000;stroke-width:1.08160555px;stroke-linecap:butt;stroke-linejoin:miter;stroke-opacity:1" />
      <path
         id="path2439"
         d="M 17.535356,1009.2886 C 16.412506,1008.6378 13.11247,1013.1744 13.112469,1013.1744 L 13.90909,1013.1327 C 14.731478,1012.0604 18.010179,1008.0099 16.964728,1013.0414 L 17.499016,1013.0292 C 18.067606,1010.6009 17.974733,1009.5433 17.535356,1009.2886 z"
         style="opacity:0.66000001;fill:#000000;fill-rule:evenodd;stroke:#000000;stroke-width:0;stroke-linecap:butt;stroke-linejoin:miter;stroke-miterlimit:4;stroke-dasharray:none;stroke-opacity:1" />
      <path
         id="path2443"
         d="M 7.849676,1028.5447 C 7.849676,1028.5447 11.182722,1025.0288 11.696457,1023.9098"
         style="opacity:0.66000001;fill:#000000;fill-rule:evenodd;stroke:#000000;stroke-width:0.8652845;stroke-linecap:butt;stroke-linejoin:miter;stroke-miterlimit:4;stroke-dasharray:none;stroke-opacity:1" />
      <rect
         transform="matrix(0.9834455,0.1812042,-0.1812042,0.9834455,0,0)"
         y="1006.2181"
         x="190.1331"
         height="2.7758069"
         width="2.6628125"
         id="rect2447"
         style="opacity:0.43560001;fill:#000000;fill-opacity:1;stroke:none;stroke-width:0.2;stroke-miterlimit:8.10000038;stroke-dasharray:0.1, 0.1;stroke-dashoffset:0;stroke-opacity:1" />
      <path
         id="path3909"
         d="M 39.79496,1005.3266 C 40.529271,1006.1976 41.999946,1007.9303 44.797385,1011.4106 C 45.083782,1012.2024 45.106145,1013.125 45.000186,1014.1484 C 47.118262,1015.9158 48.83192,1018.2035 49.935011,1020.7732 C 49.100752,1020.6508 48.151171,1020.6025 47.061997,1020.6042 C 46.384798,1019.3387 45.524922,1018.1717 44.526984,1017.1566 C 44.358459,1018.2868 44.243159,1019.5008 44.256582,1020.807 C 45.573028,1022.7968 46.318393,1025.1747 46.318393,1027.7361 C 46.318394,1034.6854 40.694166,1040.2759 33.744729,1040.2759 C 26.795294,1040.2759 21.137265,1034.6854 21.137265,1027.7361 C 21.137266,1020.7865 26.795291,1015.1286 33.744729,1015.1286 C 34.689236,1015.1286 35.597103,1015.2689 36.482543,1015.4666 C 36.042256,1014.014 35.450755,1012.838 34.522133,1012.188 C 34.427355,1012.3441 34.346293,1012.4969 34.251731,1012.6612 C 34.083768,1012.6557 33.914036,1012.5936 33.744729,1012.5936 C 30.811659,1012.5936 28.051075,1013.4448 25.734088,1014.892 C 24.93321,1014.4289 24.220705,1014.0686 23.537077,1013.7766 C 21.928771,1014.7027 20.554552,1015.8716 19.683857,1017.1904 C 19.992475,1017.957 20.403894,1018.8436 20.934464,1019.7592 C 19.491801,1022.0738 18.636052,1024.8078 18.636052,1027.7361 C 18.636052,1027.8949 18.631181,1028.0516 18.636052,1028.2093 C 17.715042,1028.7395 16.927988,1029.2556 16.27004,1029.7641 C 16.191937,1029.0928 16.101039,1028.428 16.101039,1027.7361 C 16.101038,1025.3248 16.600132,1023.0364 17.486846,1020.9422 C 14.30376,1023.4584 10.507376,1026.7581 8.6312012,1028.4121 C 8.9930834,1041.994 20.074597,1052.8834 33.744729,1052.8834 C 38.921927,1052.8834 43.737385,1051.305 47.738,1048.6246 L 44.087582,1044.9742 C 45.407728,1044.1755 46.635831,1043.2022 47.738,1042.135 C 47.838873,1042.0774 47.893837,1042.0129 47.974601,1041.9321 C 48.055365,1041.8512 48.119693,1041.7964 48.177402,1041.6955 C 49.309587,1040.5261 50.327701,1039.258 51.151817,1037.8423 L 54.836036,1041.4589 C 57.421349,1037.5054 58.925857,1032.8124 58.925857,1027.7361 C 58.925857,1025.7574 58.682476,1023.838 58.249854,1021.99 C 57.062991,1023.0055 55.387669,1024.4542 54.261433,1024.3899 C 52.554631,1024.2924 50.744393,1024.0976 50.273013,1022.7337 C 51.232546,1021.6625 51.593918,1020.9734 52.977027,1018.8466 C 52.707037,1016.524 47.977168,1013.3672 46.892996,1010.8022 C 46.207443,1008.7586 45.760295,1006.9565 45.473389,1005.597 C 45.611961,1006.9191 45.767965,1008.6108 45.912791,1011.1402 C 44.329095,1010.4512 41.143139,1006.906 39.79496,1005.3266 z M 33.744729,1022.6661 C 30.966388,1022.6661 28.708503,1024.9576 28.708503,1027.7361 C 28.708502,1030.5143 30.966389,1032.7723 33.744729,1032.7723 C 36.523072,1032.7723 38.747155,1030.5143 38.747154,1027.7361 C 38.747157,1024.9576 36.523073,1022.6661 33.744729,1022.6661 z M 51.219418,1025.6067 C 51.29991,1026.29 51.354618,1027.0311 51.354618,1027.7361 C 51.354621,1031.6983 50.047401,1035.3049 47.839401,1038.2479 C 47.528924,1037.4681 47.096321,1036.6147 46.554994,1035.6791 C 47.997656,1033.3646 48.819606,1030.6642 48.819606,1027.7361 C 48.819604,1027.5671 48.82511,1027.3967 48.819606,1027.2291 C 49.764074,1026.6846 50.556637,1026.1312 51.219418,1025.6067 z M 17.554447,1034.6651 C 18.388632,1034.7878 19.341324,1034.8357 20.427461,1034.8341 C 21.836339,1037.4671 24.01379,1039.6444 26.646693,1041.0533 C 26.647221,1042.133 26.694794,1043.0966 26.815694,1043.9264 C 22.660263,1042.1511 19.33789,1038.819 17.554447,1034.6651 z M 41.721569,1040.5463 C 42.665093,1041.0922 43.505208,1041.4859 44.290383,1041.7969 C 41.347459,1044.0049 37.707061,1045.3122 33.744729,1045.3122 C 33.032777,1045.3122 32.305174,1045.2591 31.615318,1045.177 C 32.141869,1044.5128 32.726408,1043.7247 33.271527,1042.7772 C 33.429904,1042.782 33.585159,1042.811 33.744729,1042.811 C 36.677803,1042.811 39.404582,1041.9935 41.721569,1040.5463 z M 28.742303,1047.1712 C 28.838912,1047.1809 28.945803,1047.1824 29.046505,1047.1712 C 28.986208,1047.1791 28.936411,1047.2048 28.877504,1047.205 C 28.833774,1047.1942 28.785919,1047.1823 28.742303,1047.1712 z"
         style="opacity:0.66000001;fill:#000000;fill-opacity:1;fill-rule:nonzero;stroke:none" />
    </g>
  </g>
</svg>
