<?xml version="1.0" encoding="UTF-8" standalone="no"?>
<!-- Created with Inkscape (http://www.inkscape.org/) -->

<svg
   xmlns:dc="http://purl.org/dc/elements/1.1/"
   xmlns:cc="http://creativecommons.org/ns#"
   xmlns:rdf="http://www.w3.org/1999/02/22-rdf-syntax-ns#"
   xmlns:svg="http://www.w3.org/2000/svg"
   xmlns="http://www.w3.org/2000/svg"
   xmlns:sodipodi="http://sodipodi.sourceforge.net/DTD/sodipodi-0.dtd"
   xmlns:inkscape="http://www.inkscape.org/namespaces/inkscape"
   width="64"
   height="64"
   id="svg2"
   version="1.1"
   inkscape:version="0.47pre2 r22153"
   sodipodi:docname="dialog-close.svg">
  <defs
     id="defs4">
    <inkscape:perspective
       sodipodi:type="inkscape:persp3d"
       inkscape:vp_x="0 : 526.18109 : 1"
       inkscape:vp_y="0 : 1000 : 0"
       inkscape:vp_z="744.09448 : 526.18109 : 1"
       inkscape:persp3d-origin="372.04724 : 350.78739 : 1"
       id="perspective10" />
  </defs>
  <sodipodi:namedview
     id="base"
     pagecolor="#ffffff"
     bordercolor="#666666"
     borderopacity="1.0"
     inkscape:pageopacity="0.0"
     inkscape:pageshadow="2"
     inkscape:zoom="12.15625"
     inkscape:cx="32"
     inkscape:cy="33.165175"
     inkscape:document-units="px"
     inkscape:current-layer="layer1"
     showgrid="true"
     inkscape:window-width="1475"
     inkscape:window-height="1052"
     inkscape:window-x="282"
     inkscape:window-y="19"
     inkscape:window-maximized="0">
    <inkscape:grid
       type="xygrid"
       id="grid2816"
       empspacing="4"
       visible="true"
       enabled="true"
       snapvisiblegridlinesonly="true" />
  </sodipodi:namedview>
  <metadata
     id="metadata7">
    <rdf:RDF>
      <cc:Work
         rdf:about="">
        <dc:format>image/svg+xml</dc:format>
        <dc:type
           rdf:resource="http://purl.org/dc/dcmitype/StillImage" />
        <dc:title></dc:title>
      </cc:Work>
    </rdf:RDF>
  </metadata>
  <g
     inkscape:label="Layer 1"
     inkscape:groupmode="layer"
     id="layer1"
     transform="translate(0,-988.36218)">
    <path
       style="opacity:0.66000001;fill:#000000;fill-opacity:1;fill-rule:nonzero;stroke:none"
       d="M 32 0 C 29.978522 4.0636486e-16 28.011237 0.20405097 26.09375 0.5625 C 26.49461 2.9768636 26.795322 5.7159862 27.125 8.5 C 28.696708 8.176263 30.332451 8 32 8 C 33.970188 8 35.886502 8.239746 37.71875 8.6875 C 38.146035 5.915752 38.545716 3.1806327 39.03125 0.78125 C 36.766142 0.27275676 34.41859 -9.9802676e-16 32 0 z M 22.46875 1.4375 C 18.246321 2.7508118 14.428236 4.9353633 11.15625 7.75 C 12.713033 9.6437941 14.351238 11.844231 16.03125 14.09375 C 18.658432 11.749528 21.809902 9.980546 25.28125 8.96875 C 24.261412 6.3443935 23.249548 3.7655658 22.46875 1.4375 z M 42.59375 1.8125 C 41.733276 4.1047679 40.638122 6.6420086 39.53125 9.21875 C 42.961532 10.352831 46.044412 12.24352 48.59375 14.6875 C 50.360026 12.487844 52.08993 10.31231 53.71875 8.46875 C 50.546122 5.5407666 46.752821 3.2719257 42.59375 1.8125 z M 8.46875 10.28125 C 5.5407666 13.453878 3.2719257 17.247179 1.8125 21.40625 C 4.1047679 22.266724 6.6420086 23.361878 9.21875 24.46875 C 10.352831 21.038468 12.24352 17.955588 14.6875 15.40625 C 12.487844 13.639974 10.31231 11.91007 8.46875 10.28125 z M 56.25 11.15625 C 54.356206 12.713033 52.155769 14.351238 49.90625 16.03125 C 52.250472 18.658432 54.019454 21.809902 55.03125 25.28125 C 57.655606 24.261412 60.234434 23.249548 62.5625 22.46875 C 61.249188 18.246321 59.064637 14.428236 56.25 11.15625 z M 0.78125 24.96875 C 0.27275676 27.233858 -8.5463756e-18 29.58141 0 32 C 0 34.021478 0.20405097 35.988763 0.5625 37.90625 C 2.9768636 37.50539 5.7159862 37.204678 8.5 36.875 C 8.176263 35.303292 8 33.667549 8 32 C 8 30.029812 8.239746 28.113498 8.6875 26.28125 C 5.915752 25.853965 3.1806327 25.454284 0.78125 24.96875 z M 63.4375 26.09375 C 61.023136 26.49461 58.284014 26.795322 55.5 27.125 C 55.823737 28.696708 56 30.332451 56 32 C 56 33.970188 55.760254 35.886502 55.3125 37.71875 C 58.084248 38.146035 60.819367 38.545716 63.21875 39.03125 C 63.727243 36.766142 64 34.41859 64 32 C 64 29.978522 63.795949 28.011237 63.4375 26.09375 z M 8.96875 38.71875 C 6.3443935 39.738588 3.7655658 40.750452 1.4375 41.53125 C 2.7508118 45.753679 4.9353633 49.571764 7.75 52.84375 C 9.6437941 51.286967 11.844231 49.648762 14.09375 47.96875 C 11.749528 45.341568 9.980546 42.190098 8.96875 38.71875 z M 54.78125 39.53125 C 53.647169 42.961532 51.75648 46.044412 49.3125 48.59375 C 51.512156 50.360026 53.68769 52.08993 55.53125 53.71875 C 58.459233 50.546122 60.728074 46.752821 62.1875 42.59375 C 59.895232 41.733276 57.357991 40.638122 54.78125 39.53125 z M 15.40625 49.3125 C 13.639974 51.512156 11.91007 53.68769 10.28125 55.53125 C 13.453878 58.459233 17.247179 60.728074 21.40625 62.1875 C 22.266724 59.895232 23.361878 57.357991 24.46875 54.78125 C 21.038468 53.647169 17.955588 51.75648 15.40625 49.3125 z M 47.96875 49.90625 C 45.341568 52.250472 42.190098 54.019454 38.71875 55.03125 C 39.738588 57.655606 40.750452 60.234434 41.53125 62.5625 C 45.753679 61.249188 49.571764 59.064637 52.84375 56.25 C 51.286967 54.356206 49.648762 52.155769 47.96875 49.90625 z M 26.28125 55.3125 C 25.853965 58.084248 25.454284 60.819367 24.96875 63.21875 C 27.233858 63.727243 29.58141 64 32 64 C 34.021478 64 35.988763 63.795949 37.90625 63.4375 C 37.50539 61.023136 37.204678 58.284014 36.875 55.5 C 35.303292 55.823737 33.667549 56 32 56 C 30.029812 56 28.113498 55.760254 26.28125 55.3125 z "
       transform="translate(0,988.36218)"
       id="path4172" />
    <path
       style="opacity:0.66000001;fill:#000000;fill-opacity:1;fill-rule:nonzero;stroke:none"
       d="M 32 12 C 29.089609 12 26.33821 12.632233 23.84375 13.75 C 24.520793 14.734815 25.202721 15.957654 25.875 17.21875 C 27.764849 16.433195 29.825793 16 32 16 C 33.985395 16 35.870797 16.370286 37.625 17.03125 C 38.259234 15.738727 38.883056 14.482686 39.53125 13.46875 C 37.204527 12.521133 34.667252 12 32 12 z M 43.75 15.8125 C 43.234078 16.897267 42.510824 18.091955 41.75 19.3125 C 44.890301 21.729217 47.105099 25.297799 47.78125 29.375 C 49.215336 29.278118 50.613127 29.19492 51.8125 29.25 C 51.050719 23.744204 48.043477 18.935429 43.75 15.8125 z M 19.71875 16.21875 C 15.537795 19.478641 12.667211 24.376697 12.09375 29.9375 C 13.297758 29.841486 14.710681 29.85742 16.15625 29.90625 C 16.698959 25.783027 18.781098 22.138779 21.84375 19.625 C 21.04685 18.437594 20.268198 17.279821 19.71875 16.21875 z M 51.90625 34.0625 C 50.702242 34.158514 49.289319 34.14258 47.84375 34.09375 C 47.301041 38.216973 45.218902 41.861221 42.15625 44.375 C 42.95315 45.562406 43.731802 46.720179 44.28125 47.78125 C 48.462205 44.521359 51.332789 39.623303 51.90625 34.0625 z M 16.21875 34.625 C 14.784664 34.721882 13.386873 34.80508 12.1875 34.75 C 12.949281 40.255796 15.956523 45.064571 20.25 48.1875 C 20.765922 47.102733 21.489176 45.908045 22.25 44.6875 C 19.109699 42.270783 16.894901 38.702201 16.21875 34.625 z M 38.125 46.78125 C 36.235151 47.566805 34.174207 48 32 48 C 30.014605 48 28.129203 47.629714 26.375 46.96875 C 25.740766 48.261273 25.116944 49.517314 24.46875 50.53125 C 26.795473 51.478867 29.332748 52 32 52 C 34.910391 52 37.66179 51.367767 40.15625 50.25 C 39.479207 49.265185 38.797279 48.042346 38.125 46.78125 z "
       transform="translate(0,988.36218)"
       id="path4189" />
    <path
       sodipodi:type="star"
       style="opacity:0.66000001;fill:#000000;fill-opacity:1;fill-rule:nonzero;stroke:none"
       id="path4208"
       sodipodi:sides="6"
       sodipodi:cx="32"
       sodipodi:cy="32"
       sodipodi:r1="23.323809"
       sodipodi:r2="1.8892285"
       sodipodi:arg1="-2.1112158"
       sodipodi:arg2="-1.5876171"
       inkscape:flatsided="false"
       inkscape:rounded="0.02"
       inkscape:randomized="0"
       d="m 20,11.999999 c 0.372293,-0.223376 11.53412,18.118342 11.968223,18.11104 0.434104,-0.0073 10.97269,-18.714072 11.352286,-18.503344 C 43.700105,11.818422 33.396624,30.655706 33.62,31.028 c 0.223376,0.372293 21.693207,0.145592 21.700509,0.579696 0.0073,0.434103 -21.458005,0.929669 -21.668732,1.309265 C 33.441049,33.296557 44.372293,51.776625 44,52.000001 43.627707,52.223377 32.46588,33.881659 32.031777,33.888961 31.597673,33.896264 21.059087,52.603033 20.679491,52.392305 20.299895,52.181578 30.603376,33.344294 30.38,32.972 30.156624,32.599707 8.6867935,32.826408 8.6794908,32.392304 8.6721882,31.958201 30.137496,31.462635 30.348223,31.083039 30.558951,30.703443 19.627707,12.223375 20,11.999999 z"
       transform="translate(0,988.36218)" />
  </g>
</svg>
