<?xml version="1.0" encoding="UTF-8" standalone="no"?>
<!-- Created with Inkscape (http://www.inkscape.org/) -->

<svg
   xmlns:dc="http://purl.org/dc/elements/1.1/"
   xmlns:cc="http://creativecommons.org/ns#"
   xmlns:rdf="http://www.w3.org/1999/02/22-rdf-syntax-ns#"
   xmlns:svg="http://www.w3.org/2000/svg"
   xmlns="http://www.w3.org/2000/svg"
   xmlns:sodipodi="http://sodipodi.sourceforge.net/DTD/sodipodi-0.dtd"
   xmlns:inkscape="http://www.inkscape.org/namespaces/inkscape"
   width="64px"
   height="64px"
   id="svg2816"
   version="1.1"
   inkscape:version="0.47pre2 r22153"
   sodipodi:docname="wireless.svg">
  <defs
     id="defs2818">
    <inkscape:perspective
       sodipodi:type="inkscape:persp3d"
       inkscape:vp_x="0 : 32 : 1"
       inkscape:vp_y="0 : 1000 : 0"
       inkscape:vp_z="64 : 32 : 1"
       inkscape:persp3d-origin="32 : 21.333333 : 1"
       id="perspective2824" />
  </defs>
  <sodipodi:namedview
     id="base"
     pagecolor="#ffffff"
     bordercolor="#666666"
     borderopacity="1.0"
     inkscape:pageopacity="0.0"
     inkscape:pageshadow="2"
     inkscape:zoom="12.203125"
     inkscape:cx="32"
     inkscape:cy="31.959027"
     inkscape:current-layer="layer1"
     showgrid="true"
     inkscape:document-units="px"
     inkscape:grid-bbox="true"
     inkscape:window-width="1337"
     inkscape:window-height="1020"
     inkscape:window-x="451"
     inkscape:window-y="69"
     inkscape:window-maximized="0">
    <inkscape:grid
       type="xygrid"
       id="grid2826"
       empspacing="4"
       visible="true"
       enabled="true"
       snapvisiblegridlinesonly="true" />
  </sodipodi:namedview>
  <metadata
     id="metadata2821">
    <rdf:RDF>
      <cc:Work
         rdf:about="">
        <dc:format>image/svg+xml</dc:format>
        <dc:type
           rdf:resource="http://purl.org/dc/dcmitype/StillImage" />
        <dc:title></dc:title>
      </cc:Work>
    </rdf:RDF>
  </metadata>
  <g
     id="layer1"
     inkscape:label="Layer 1"
     inkscape:groupmode="layer">
    <path
       id="path4312"
       style="opacity:0.65999995;fill:none;stroke:#000000;stroke-width:4;stroke-miterlimit:4;stroke-opacity:1"
       d="m 49.677687,15.736551 -1.414214,-1.414213 c -0.783474,-0.783475 -2.748839,-1.493829 -3.528295,-0.714373 l -0.0145,0.0145 c -0.779456,0.779456 -0.776222,2.037701 0.0073,2.821175 l 2.82844,2.828441 c 0.783474,0.783475 2.041719,0.786709 2.821175,0.0073 l 0.0145,-0.0145 c 0.779458,-0.779458 0.06912,-2.744809 -0.714358,-3.528283 z M 15.736561,49.677677 14.322347,48.263464 c -0.783474,-0.783475 -1.493829,-2.748839 -0.714372,-3.528295 l 0.0145,-0.0145 c 0.779456,-0.779456 2.037701,-0.776222 2.821175,0.0073 l 2.828441,2.828439 c 0.783474,0.783475 0.786709,2.041719 0.0073,2.821175 l -0.0145,0.0145 c -0.779457,0.779456 -2.744807,0.06912 -3.528282,-0.714359 z m 32.526898,0 1.414214,-1.414214 c 0.783474,-0.783474 1.493828,-2.748839 0.714372,-3.528295 l -0.0145,-0.0145 c -0.779456,-0.779456 -2.037701,-0.776222 -2.821175,0.0073 l -2.828442,2.828439 c -0.783474,0.783475 -0.786709,2.041719 -0.0073,2.821175 l 0.0145,0.0145 c 0.779458,0.779458 2.744809,0.06912 3.528283,-0.714357 z M 14.322333,15.736551 15.736547,14.322338 c 0.783474,-0.783475 2.748838,-1.493829 3.528295,-0.714373 l 0.0145,0.0145 c 0.779457,0.779457 0.776222,2.037701 -0.0073,2.821175 l -2.82844,2.828441 c -0.783474,0.783475 -2.041719,0.786709 -2.821175,0.0073 l -0.0145,-0.0145 c -0.779457,-0.779457 -0.06912,-2.744807 0.714358,-3.528282 z m 41.677677,17.263459 0,-2 c 0,-1.108 -0.887426,-3.000019 -1.989744,-3.000019 l -0.02051,0 c -1.102317,0 -1.989744,0.892 -1.989744,2 l -10e-7,4.000019 c 0,1.108 0.887426,2 1.989744,2 l 0.02051,0 c 1.10232,0 1.989746,-1.892 1.989746,-3 z m -48.0000005,0 0,-2 c 0,-1.108 0.8874256,-3.000019 1.9897436,-3.000019 l 0.020512,0 c 1.102318,0 1.989744,0.892 1.989744,2 l 10e-7,4.000019 c 0,1.108 -0.887426,2 -1.989744,2 l -0.020512,0 c -1.1023184,0 -1.989744,-1.892 -1.989744,-3 z M 31,56 l 2,0 c 1.108,0 3.000019,-0.887426 3.000019,-1.989744 l 0,-0.02051 c 0,-1.102318 -0.892,-1.989744 -2,-1.989744 L 30,52 c -1.108,0 -2,0.887426 -2,1.989744 l 0,0.02051 C 28,55.112574 29.892,56 31,56 z m 0,-48 2,0 c 1.108,0 3.000019,0.8874256 3.000019,1.9897436 l 0,0.020512 c 0,1.102318 -0.892,1.989744 -2,1.989744 L 30,12 c -1.108,0 -2,-0.887426 -2,-1.989744 L 28,9.989744 C 28,8.8874256 29.892,8 31,8 z M 52,32 C 52,43.045695 43.045695,52 32,52 20.954305,52 12,43.045695 12,32 12,20.954305 20.954305,12 32,12 c 11.045695,0 20,8.954305 20,20 z" />
  </g>
</svg>
