<?xml version="1.0" encoding="UTF-8" standalone="no"?>
<!-- Created with Inkscape (http://www.inkscape.org/) -->

<svg
   xmlns:dc="http://purl.org/dc/elements/1.1/"
   xmlns:cc="http://creativecommons.org/ns#"
   xmlns:rdf="http://www.w3.org/1999/02/22-rdf-syntax-ns#"
   xmlns:svg="http://www.w3.org/2000/svg"
   xmlns="http://www.w3.org/2000/svg"
   xmlns:sodipodi="http://sodipodi.sourceforge.net/DTD/sodipodi-0.dtd"
   xmlns:inkscape="http://www.inkscape.org/namespaces/inkscape"
   width="128"
   height="128"
   id="svg4318"
   version="1.1"
   inkscape:version="0.47 r22583"
   sodipodi:docname="applications-system.svg">
  <defs
     id="defs4320">
    <inkscape:perspective
       sodipodi:type="inkscape:persp3d"
       inkscape:vp_x="0 : 526.18109 : 1"
       inkscape:vp_y="0 : 1000 : 0"
       inkscape:vp_z="744.09448 : 526.18109 : 1"
       inkscape:persp3d-origin="372.04724 : 350.78739 : 1"
       id="perspective4326" />
  </defs>
  <sodipodi:namedview
     id="base"
     pagecolor="#ffffff"
     bordercolor="#666666"
     borderopacity="1.0"
     inkscape:pageopacity="0.0"
     inkscape:pageshadow="2"
     inkscape:zoom="5.6"
     inkscape:cx="52.536481"
     inkscape:cy="62.179829"
     inkscape:document-units="px"
     inkscape:current-layer="layer1"
     showgrid="true"
     inkscape:window-width="1569"
     inkscape:window-height="1022"
     inkscape:window-x="229"
     inkscape:window-y="33"
     inkscape:window-maximized="0">
    <inkscape:grid
       type="xygrid"
       id="grid4328"
       empspacing="8"
       visible="true"
       enabled="true"
       snapvisiblegridlinesonly="true" />
  </sodipodi:namedview>
  <metadata
     id="metadata4323">
    <rdf:RDF>
      <cc:Work
         rdf:about="">
        <dc:format>image/svg+xml</dc:format>
        <dc:type
           rdf:resource="http://purl.org/dc/dcmitype/StillImage" />
        <dc:title></dc:title>
      </cc:Work>
    </rdf:RDF>
  </metadata>
  <g
     inkscape:label="Layer 1"
     inkscape:groupmode="layer"
     id="layer1"
     transform="translate(0,-924.36218)">
    <path
       style="fill:#000000;fill-opacity:1;fill-rule:nonzero;stroke:none"
       d="M 64 8 C 46.968691 7.9999992 63.141128 17.451151 47.40625 23.96875 C 31.671371 30.48635 36.449205 12.363296 24.40625 24.40625 C 12.363296 36.449203 30.48635 31.671373 23.96875 47.40625 C 17.451149 63.141128 8.0000008 46.96869 8 64 C 7.9999992 81.031309 17.451151 64.858872 23.96875 80.59375 C 30.48635 96.328629 12.363296 91.550795 24.40625 103.59375 C 36.449203 115.6367 31.671373 97.51365 47.40625 104.03125 C 63.141128 110.54885 46.96869 120 64 120 C 81.031309 120 64.858872 110.54885 80.59375 104.03125 C 96.328629 97.51365 91.550795 115.6367 103.59375 103.59375 C 115.6367 91.550797 97.51365 96.328627 104.03125 80.59375 C 110.54885 64.858872 120 81.03131 120 64 C 120 46.968691 110.54885 63.141128 104.03125 47.40625 C 97.51365 31.671371 115.6367 36.449205 103.59375 24.40625 C 91.550797 12.363296 96.328627 30.48635 80.59375 23.96875 C 64.858872 17.451149 81.03131 8.0000008 64 8 z M 64 40 C 77.254834 40 88 50.745166 88 64 C 88 77.254834 77.254834 88 64 88 C 50.745166 88 40 77.254834 40 64 C 40 50.745166 50.745166 40 64 40 z "
       transform="translate(0,924.36218)"
       id="path3992" />
  </g>
</svg>
