<?xml version="1.0" encoding="UTF-8" standalone="no"?>
<!-- Created with Inkscape (http://www.inkscape.org/) -->

<svg
   xmlns:dc="http://purl.org/dc/elements/1.1/"
   xmlns:cc="http://creativecommons.org/ns#"
   xmlns:rdf="http://www.w3.org/1999/02/22-rdf-syntax-ns#"
   xmlns:svg="http://www.w3.org/2000/svg"
   xmlns="http://www.w3.org/2000/svg"
   xmlns:sodipodi="http://sodipodi.sourceforge.net/DTD/sodipodi-0.dtd"
   xmlns:inkscape="http://www.inkscape.org/namespaces/inkscape"
   width="64px"
   height="64px"
   id="svg2383"
   sodipodi:version="0.32"
   inkscape:version="0.47pre1 r21720"
   sodipodi:docname="configure.svg"
   inkscape:output_extension="org.inkscape.output.svg.inkscape"
   inkscape:export-filename="/home/rob/.kde4/share/icons/nmfnms/48x48/actions/configure.png"
   inkscape:export-xdpi="67.5"
   inkscape:export-ydpi="67.5"
   version="1.1">
  <defs
     id="defs2385">
    <inkscape:perspective
       sodipodi:type="inkscape:persp3d"
       inkscape:vp_x="0 : 32 : 1"
       inkscape:vp_y="0 : 1000 : 0"
       inkscape:vp_z="64 : 32 : 1"
       inkscape:persp3d-origin="32 : 21.333333 : 1"
       id="perspective2391" />
  </defs>
  <sodipodi:namedview
     id="base"
     pagecolor="#ffffff"
     bordercolor="#666666"
     borderopacity="1.0"
     inkscape:pageopacity="0.0"
     inkscape:pageshadow="2"
     inkscape:zoom="13.25"
     inkscape:cx="31.433962"
     inkscape:cy="30.793148"
     inkscape:current-layer="layer1"
     showgrid="true"
     inkscape:document-units="px"
     inkscape:grid-bbox="true"
     inkscape:window-width="1407"
     inkscape:window-height="1086"
     inkscape:window-x="228"
     inkscape:window-y="18"
     objecttolerance="4"
     guidetolerance="4"
     inkscape:window-maximized="0"
     gridtolerance="4">
    <inkscape:grid
       type="xygrid"
       id="grid3165"
       empspacing="2"
       visible="true"
       enabled="true"
       snapvisiblegridlinesonly="true"
       spacingx="1px"
       spacingy="1px" />
  </sodipodi:namedview>
  <metadata
     id="metadata2388">
    <rdf:RDF>
      <cc:Work
         rdf:about="">
        <dc:format>image/svg+xml</dc:format>
        <dc:type
           rdf:resource="http://purl.org/dc/dcmitype/StillImage" />
        <dc:title></dc:title>
      </cc:Work>
    </rdf:RDF>
  </metadata>
  <g
     id="layer1"
     inkscape:label="Layer 1"
     inkscape:groupmode="layer"
     style="opacity:0.66">
    <g
       id="g4096"
       style="stroke:#000000;stroke-opacity:1">
      <g
         style="stroke:#000000;stroke-opacity:1;opacity:1"
         id="g3781">
        <g
           style="stroke:#000000;stroke-opacity:1"
           id="g3678"
           transform="matrix(0.70710678,-0.70710678,0.70710678,0.70710678,-13.254834,32)">
          <path
             style="fill:none;stroke:#000000;stroke-width:8;stroke-miterlimit:4;stroke-opacity:1;stroke-dasharray:none"
             d="M 52,32 C 52,43.045695 43.045695,52 32,52 20.954305,52 12,43.045695 12,32 12,20.954305 20.954305,12 32,12 c 11.045695,0 20,8.954305 20,20 z"
             sodipodi:ry="20"
             sodipodi:rx="20"
             sodipodi:cy="32"
             sodipodi:cx="32"
             id="path2814"
             sodipodi:type="arc" />
          <g
             style="stroke:#000000;stroke-opacity:1"
             id="g3605">
            <g
               style="stroke:#000000;stroke-opacity:1"
               id="g3594"
               transform="translate(0,4)">
              <path
                 inkscape:connector-type="polyline"
                 id="path3588"
                 d="M 26,6 28,2"
                 style="fill:none;stroke:#000000;stroke-width:1px;stroke-linecap:round;stroke-linejoin:miter;stroke-opacity:1" />
              <path
                 sodipodi:nodetypes="cc"
                 inkscape:connector-type="polyline"
                 id="path3590"
                 d="M 36,2 C 33.333333,1.3962264 30.666667,1.3962264 28,2"
                 style="fill:none;stroke:#000000;stroke-width:1px;stroke-linecap:butt;stroke-linejoin:miter;stroke-opacity:1" />
              <path
                 inkscape:connector-type="polyline"
                 id="path3592"
                 d="M 38,6 36,2"
                 style="fill:none;stroke:#000000;stroke-width:1px;stroke-linecap:round;stroke-linejoin:miter;stroke-opacity:1" />
            </g>
            <path
               style="fill:none;stroke:#000000;stroke-width:0.60377358999999997;stroke-linecap:round;stroke-miterlimit:4;stroke-opacity:1;stroke-dasharray:none"
               d="m 27.862287,7.4602897 0.492512,-0.9828589 0.666385,-0.1224647 c 1.666681,-0.3062937 3.818177,-0.3380312 5.488232,-0.080959 1.169971,0.1800943 1.05163,0.095927 1.559575,1.1092138 0.249365,0.4974525 0.436549,0.9213012 0.415964,0.941886 -0.02058,0.020585 -0.421705,-0.017912 -0.891379,-0.085549 -2.488877,-0.3584183 -4.797398,-0.358522 -7.21554,-3.24e-4 -0.427174,0.063277 -0.828786,0.1350439 -0.89247,0.1594819 -0.07103,0.027258 0.07458,-0.3354732 0.376721,-0.9384261 z"
               id="path3599" />
            <path
               style="fill:none;stroke:#000000;stroke-width:0.60377358999999997;stroke-linecap:round;stroke-miterlimit:4;stroke-opacity:1;stroke-dasharray:none"
               d="m 28.060377,7.8773612 c 0,-0.021791 0.117235,-0.2724161 0.260521,-0.5569448 0.294474,-0.5847467 0.228985,-0.5518594 1.444571,-0.7254436 1.492101,-0.2130704 4.464545,-0.1244599 5.485507,0.1635265 0.133466,0.037647 0.702519,1.064106 0.630083,1.1365427 -0.02094,0.020935 -0.54104,-0.02078 -1.155788,-0.092699 -1.453813,-0.1700816 -4.130077,-0.1732776 -5.495082,-0.00656 -1.088117,0.1328975 -1.169812,0.1385947 -1.169812,0.081581 z"
               id="path3601" />
            <path
               style="fill:none;stroke:#000000;stroke-width:0.60377358999999997;stroke-linecap:round;stroke-miterlimit:4;stroke-opacity:1;stroke-dasharray:none"
               d="m 28.692048,7.332233 c 0.190508,-0.3684011 0.722583,-0.4352573 3.406065,-0.4279782 1.245283,0.00338 2.412804,0.037567 2.59449,0.075976 0.239853,0.050705 0.384327,0.1398415 0.527434,0.325412 0.176195,0.2284761 0.181181,0.2508212 0.04702,0.2107195 -0.08254,-0.024672 -0.881624,-0.083202 -1.775738,-0.1300655 -1.535461,-0.080479 -4.185682,-0.00815 -4.739918,0.1293581 -0.17422,0.043225 -0.17512,0.040447 -0.05935,-0.1834215 z"
               id="path3603" />
          </g>
          <g
             style="stroke:#000000;stroke-opacity:1"
             transform="matrix(0,1,-1,0,64,0)"
             id="g3614">
            <g
               style="stroke:#000000;stroke-opacity:1"
               transform="translate(0,4)"
               id="g3616">
              <path
                 style="fill:none;stroke:#000000;stroke-width:1px;stroke-linecap:round;stroke-linejoin:miter;stroke-opacity:1"
                 d="M 26,6 28,2"
                 id="path3618"
                 inkscape:connector-type="polyline" />
              <path
                 style="fill:none;stroke:#000000;stroke-width:1px;stroke-linecap:butt;stroke-linejoin:miter;stroke-opacity:1"
                 d="M 36,2 C 33.333333,1.3962264 30.666667,1.3962264 28,2"
                 id="path3620"
                 inkscape:connector-type="polyline"
                 sodipodi:nodetypes="cc" />
              <path
                 style="fill:none;stroke:#000000;stroke-width:1px;stroke-linecap:round;stroke-linejoin:miter;stroke-opacity:1"
                 d="M 38,6 36,2"
                 id="path3622"
                 inkscape:connector-type="polyline" />
            </g>
            <path
               id="path3624"
               d="m 27.862287,7.4602897 0.492512,-0.9828589 0.666385,-0.1224647 c 1.666681,-0.3062937 3.818177,-0.3380312 5.488232,-0.080959 1.169971,0.1800943 1.05163,0.095927 1.559575,1.1092138 0.249365,0.4974525 0.436549,0.9213012 0.415964,0.941886 -0.02058,0.020585 -0.421705,-0.017912 -0.891379,-0.085549 -2.488877,-0.3584183 -4.797398,-0.358522 -7.21554,-3.24e-4 -0.427174,0.063277 -0.828786,0.1350439 -0.89247,0.1594819 -0.07103,0.027258 0.07458,-0.3354732 0.376721,-0.9384261 z"
               style="fill:none;stroke:#000000;stroke-width:0.60377358999999997;stroke-linecap:round;stroke-miterlimit:4;stroke-opacity:1;stroke-dasharray:none" />
            <path
               id="path3626"
               d="m 28.060377,7.8773612 c 0,-0.021791 0.117235,-0.2724161 0.260521,-0.5569448 0.294474,-0.5847467 0.228985,-0.5518594 1.444571,-0.7254436 1.492101,-0.2130704 4.464545,-0.1244599 5.485507,0.1635265 0.133466,0.037647 0.702519,1.064106 0.630083,1.1365427 -0.02094,0.020935 -0.54104,-0.02078 -1.155788,-0.092699 -1.453813,-0.1700816 -4.130077,-0.1732776 -5.495082,-0.00656 -1.088117,0.1328975 -1.169812,0.1385947 -1.169812,0.081581 z"
               style="fill:none;stroke:#000000;stroke-width:0.60377358999999997;stroke-linecap:round;stroke-miterlimit:4;stroke-opacity:1;stroke-dasharray:none" />
            <path
               id="path3628"
               d="m 28.692048,7.332233 c 0.190508,-0.3684011 0.722583,-0.4352573 3.406065,-0.4279782 1.245283,0.00338 2.412804,0.037567 2.59449,0.075976 0.239853,0.050705 0.384327,0.1398415 0.527434,0.325412 0.176195,0.2284761 0.181181,0.2508212 0.04702,0.2107195 -0.08254,-0.024672 -0.881624,-0.083202 -1.775738,-0.1300655 -1.535461,-0.080479 -4.185682,-0.00815 -4.739918,0.1293581 -0.17422,0.043225 -0.17512,0.040447 -0.05935,-0.1834215 z"
               style="fill:none;stroke:#000000;stroke-width:0.60377358999999997;stroke-linecap:round;stroke-miterlimit:4;stroke-opacity:1;stroke-dasharray:none" />
          </g>
          <g
             style="stroke:#000000;stroke-opacity:1"
             transform="matrix(1,0,0,-1,0,64)"
             id="g3630">
            <g
               style="stroke:#000000;stroke-opacity:1"
               id="g3632"
               transform="translate(0,4)">
              <path
                 inkscape:connector-type="polyline"
                 id="path3634"
                 d="M 26,6 28,2"
                 style="fill:none;stroke:#000000;stroke-width:1px;stroke-linecap:round;stroke-linejoin:miter;stroke-opacity:1" />
              <path
                 sodipodi:nodetypes="cc"
                 inkscape:connector-type="polyline"
                 id="path3636"
                 d="M 36,2 C 33.333333,1.3962264 30.666667,1.3962264 28,2"
                 style="fill:none;stroke:#000000;stroke-width:1px;stroke-linecap:butt;stroke-linejoin:miter;stroke-opacity:1" />
              <path
                 inkscape:connector-type="polyline"
                 id="path3638"
                 d="M 38,6 36,2"
                 style="fill:none;stroke:#000000;stroke-width:1px;stroke-linecap:round;stroke-linejoin:miter;stroke-opacity:1" />
            </g>
            <path
               style="fill:none;stroke:#000000;stroke-width:0.60377358999999997;stroke-linecap:round;stroke-miterlimit:4;stroke-opacity:1;stroke-dasharray:none"
               d="m 27.862287,7.4602897 0.492512,-0.9828589 0.666385,-0.1224647 c 1.666681,-0.3062937 3.818177,-0.3380312 5.488232,-0.080959 1.169971,0.1800943 1.05163,0.095927 1.559575,1.1092138 0.249365,0.4974525 0.436549,0.9213012 0.415964,0.941886 -0.02058,0.020585 -0.421705,-0.017912 -0.891379,-0.085549 -2.488877,-0.3584183 -4.797398,-0.358522 -7.21554,-3.24e-4 -0.427174,0.063277 -0.828786,0.1350439 -0.89247,0.1594819 -0.07103,0.027258 0.07458,-0.3354732 0.376721,-0.9384261 z"
               id="path3640" />
            <path
               style="fill:none;stroke:#000000;stroke-width:0.60377358999999997;stroke-linecap:round;stroke-miterlimit:4;stroke-opacity:1;stroke-dasharray:none"
               d="m 28.060377,7.8773612 c 0,-0.021791 0.117235,-0.2724161 0.260521,-0.5569448 0.294474,-0.5847467 0.228985,-0.5518594 1.444571,-0.7254436 1.492101,-0.2130704 4.464545,-0.1244599 5.485507,0.1635265 0.133466,0.037647 0.702519,1.064106 0.630083,1.1365427 -0.02094,0.020935 -0.54104,-0.02078 -1.155788,-0.092699 -1.453813,-0.1700816 -4.130077,-0.1732776 -5.495082,-0.00656 -1.088117,0.1328975 -1.169812,0.1385947 -1.169812,0.081581 z"
               id="path3642" />
            <path
               style="fill:none;stroke:#000000;stroke-width:0.60377358999999997;stroke-linecap:round;stroke-miterlimit:4;stroke-opacity:1;stroke-dasharray:none"
               d="m 28.692048,7.332233 c 0.190508,-0.3684011 0.722583,-0.4352573 3.406065,-0.4279782 1.245283,0.00338 2.412804,0.037567 2.59449,0.075976 0.239853,0.050705 0.384327,0.1398415 0.527434,0.325412 0.176195,0.2284761 0.181181,0.2508212 0.04702,0.2107195 -0.08254,-0.024672 -0.881624,-0.083202 -1.775738,-0.1300655 -1.535461,-0.080479 -4.185682,-0.00815 -4.739918,0.1293581 -0.17422,0.043225 -0.17512,0.040447 -0.05935,-0.1834215 z"
               id="path3644" />
          </g>
          <g
             style="stroke:#000000;stroke-opacity:1"
             transform="matrix(0,1,1,0,0,0)"
             id="g3662">
            <g
               style="stroke:#000000;stroke-opacity:1"
               transform="translate(0,4)"
               id="g3664">
              <path
                 style="fill:none;stroke:#000000;stroke-width:1px;stroke-linecap:round;stroke-linejoin:miter;stroke-opacity:1"
                 d="M 26,6 28,2"
                 id="path3666"
                 inkscape:connector-type="polyline" />
              <path
                 style="fill:none;stroke:#000000;stroke-width:1px;stroke-linecap:butt;stroke-linejoin:miter;stroke-opacity:1"
                 d="M 36,2 C 33.333333,1.3962264 30.666667,1.3962264 28,2"
                 id="path3668"
                 inkscape:connector-type="polyline"
                 sodipodi:nodetypes="cc" />
              <path
                 style="fill:none;stroke:#000000;stroke-width:1px;stroke-linecap:round;stroke-linejoin:miter;stroke-opacity:1"
                 d="M 38,6 36,2"
                 id="path3670"
                 inkscape:connector-type="polyline" />
            </g>
            <path
               id="path3672"
               d="m 27.862287,7.4602897 0.492512,-0.9828589 0.666385,-0.1224647 c 1.666681,-0.3062937 3.818177,-0.3380312 5.488232,-0.080959 1.169971,0.1800943 1.05163,0.095927 1.559575,1.1092138 0.249365,0.4974525 0.436549,0.9213012 0.415964,0.941886 -0.02058,0.020585 -0.421705,-0.017912 -0.891379,-0.085549 -2.488877,-0.3584183 -4.797398,-0.358522 -7.21554,-3.24e-4 -0.427174,0.063277 -0.828786,0.1350439 -0.89247,0.1594819 -0.07103,0.027258 0.07458,-0.3354732 0.376721,-0.9384261 z"
               style="fill:none;stroke:#000000;stroke-width:0.60377358999999997;stroke-linecap:round;stroke-miterlimit:4;stroke-opacity:1;stroke-dasharray:none" />
            <path
               id="path3674"
               d="m 28.060377,7.8773612 c 0,-0.021791 0.117235,-0.2724161 0.260521,-0.5569448 0.294474,-0.5847467 0.228985,-0.5518594 1.444571,-0.7254436 1.492101,-0.2130704 4.464545,-0.1244599 5.485507,0.1635265 0.133466,0.037647 0.702519,1.064106 0.630083,1.1365427 -0.02094,0.020935 -0.54104,-0.02078 -1.155788,-0.092699 -1.453813,-0.1700816 -4.130077,-0.1732776 -5.495082,-0.00656 -1.088117,0.1328975 -1.169812,0.1385947 -1.169812,0.081581 z"
               style="fill:none;stroke:#000000;stroke-width:0.60377358999999997;stroke-linecap:round;stroke-miterlimit:4;stroke-opacity:1;stroke-dasharray:none" />
            <path
               id="path3676"
               d="m 28.692048,7.332233 c 0.190508,-0.3684011 0.722583,-0.4352573 3.406065,-0.4279782 1.245283,0.00338 2.412804,0.037567 2.59449,0.075976 0.239853,0.050705 0.384327,0.1398415 0.527434,0.325412 0.176195,0.2284761 0.181181,0.2508212 0.04702,0.2107195 -0.08254,-0.024672 -0.881624,-0.083202 -1.775738,-0.1300655 -1.535461,-0.080479 -4.185682,-0.00815 -4.739918,0.1293581 -0.17422,0.043225 -0.17512,0.040447 -0.05935,-0.1834215 z"
               style="fill:none;stroke:#000000;stroke-width:0.60377358999999997;stroke-linecap:round;stroke-miterlimit:4;stroke-opacity:1;stroke-dasharray:none" />
          </g>
        </g>
        <g
           style="stroke:#000000;stroke-opacity:1"
           transform="matrix(0,-1,1,0,-2.6302992e-8,64)"
           id="g3713">
          <path
             sodipodi:type="arc"
             id="path3715"
             sodipodi:cx="32"
             sodipodi:cy="32"
             sodipodi:rx="20"
             sodipodi:ry="20"
             d="M 52,32 C 52,43.045695 43.045695,52 32,52 20.954305,52 12,43.045695 12,32 12,20.954305 20.954305,12 32,12 c 11.045695,0 20,8.954305 20,20 z"
             style="fill:none;stroke:#000000;stroke-width:8;stroke-miterlimit:4;stroke-opacity:1;stroke-dasharray:none" />
          <g
             style="stroke:#000000;stroke-opacity:1"
             id="g3717">
            <g
               style="stroke:#000000;stroke-opacity:1"
               transform="translate(0,4)"
               id="g3719">
              <path
                 style="fill:none;stroke:#000000;stroke-width:1px;stroke-linecap:round;stroke-linejoin:miter;stroke-opacity:1"
                 d="M 26,6 28,2"
                 id="path3721"
                 inkscape:connector-type="polyline" />
              <path
                 style="fill:none;stroke:#000000;stroke-width:1px;stroke-linecap:butt;stroke-linejoin:miter;stroke-opacity:1"
                 d="M 36,2 C 33.333333,1.3962264 30.666667,1.3962264 28,2"
                 id="path3723"
                 inkscape:connector-type="polyline"
                 sodipodi:nodetypes="cc" />
              <path
                 style="fill:none;stroke:#000000;stroke-width:1px;stroke-linecap:round;stroke-linejoin:miter;stroke-opacity:1"
                 d="M 38,6 36,2"
                 id="path3725"
                 inkscape:connector-type="polyline" />
            </g>
            <path
               id="path3727"
               d="m 27.862287,7.4602897 0.492512,-0.9828589 0.666385,-0.1224647 c 1.666681,-0.3062937 3.818177,-0.3380312 5.488232,-0.080959 1.169971,0.1800943 1.05163,0.095927 1.559575,1.1092138 0.249365,0.4974525 0.436549,0.9213012 0.415964,0.941886 -0.02058,0.020585 -0.421705,-0.017912 -0.891379,-0.085549 -2.488877,-0.3584183 -4.797398,-0.358522 -7.21554,-3.24e-4 -0.427174,0.063277 -0.828786,0.1350439 -0.89247,0.1594819 -0.07103,0.027258 0.07458,-0.3354732 0.376721,-0.9384261 z"
               style="fill:none;stroke:#000000;stroke-width:0.60377358999999997;stroke-linecap:round;stroke-miterlimit:4;stroke-opacity:1;stroke-dasharray:none" />
            <path
               id="path3729"
               d="m 28.060377,7.8773612 c 0,-0.021791 0.117235,-0.2724161 0.260521,-0.5569448 0.294474,-0.5847467 0.228985,-0.5518594 1.444571,-0.7254436 1.492101,-0.2130704 4.464545,-0.1244599 5.485507,0.1635265 0.133466,0.037647 0.702519,1.064106 0.630083,1.1365427 -0.02094,0.020935 -0.54104,-0.02078 -1.155788,-0.092699 -1.453813,-0.1700816 -4.130077,-0.1732776 -5.495082,-0.00656 -1.088117,0.1328975 -1.169812,0.1385947 -1.169812,0.081581 z"
               style="fill:none;stroke:#000000;stroke-width:0.60377358999999997;stroke-linecap:round;stroke-miterlimit:4;stroke-opacity:1;stroke-dasharray:none" />
            <path
               id="path3731"
               d="m 28.692048,7.332233 c 0.190508,-0.3684011 0.722583,-0.4352573 3.406065,-0.4279782 1.245283,0.00338 2.412804,0.037567 2.59449,0.075976 0.239853,0.050705 0.384327,0.1398415 0.527434,0.325412 0.176195,0.2284761 0.181181,0.2508212 0.04702,0.2107195 -0.08254,-0.024672 -0.881624,-0.083202 -1.775738,-0.1300655 -1.535461,-0.080479 -4.185682,-0.00815 -4.739918,0.1293581 -0.17422,0.043225 -0.17512,0.040447 -0.05935,-0.1834215 z"
               style="fill:none;stroke:#000000;stroke-width:0.60377358999999997;stroke-linecap:round;stroke-miterlimit:4;stroke-opacity:1;stroke-dasharray:none" />
          </g>
          <g
             style="stroke:#000000;stroke-opacity:1"
             id="g3733"
             transform="matrix(0,1,-1,0,64,0)">
            <g
               style="stroke:#000000;stroke-opacity:1"
               id="g3735"
               transform="translate(0,4)">
              <path
                 inkscape:connector-type="polyline"
                 id="path3737"
                 d="M 26,6 28,2"
                 style="fill:none;stroke:#000000;stroke-width:1px;stroke-linecap:round;stroke-linejoin:miter;stroke-opacity:1" />
              <path
                 sodipodi:nodetypes="cc"
                 inkscape:connector-type="polyline"
                 id="path3739"
                 d="M 36,2 C 33.333333,1.3962264 30.666667,1.3962264 28,2"
                 style="fill:none;stroke:#000000;stroke-width:1px;stroke-linecap:butt;stroke-linejoin:miter;stroke-opacity:1" />
              <path
                 inkscape:connector-type="polyline"
                 id="path3741"
                 d="M 38,6 36,2"
                 style="fill:none;stroke:#000000;stroke-width:1px;stroke-linecap:round;stroke-linejoin:miter;stroke-opacity:1" />
            </g>
            <path
               style="fill:none;stroke:#000000;stroke-width:0.60377358999999997;stroke-linecap:round;stroke-miterlimit:4;stroke-opacity:1;stroke-dasharray:none"
               d="m 27.862287,7.4602897 0.492512,-0.9828589 0.666385,-0.1224647 c 1.666681,-0.3062937 3.818177,-0.3380312 5.488232,-0.080959 1.169971,0.1800943 1.05163,0.095927 1.559575,1.1092138 0.249365,0.4974525 0.436549,0.9213012 0.415964,0.941886 -0.02058,0.020585 -0.421705,-0.017912 -0.891379,-0.085549 -2.488877,-0.3584183 -4.797398,-0.358522 -7.21554,-3.24e-4 -0.427174,0.063277 -0.828786,0.1350439 -0.89247,0.1594819 -0.07103,0.027258 0.07458,-0.3354732 0.376721,-0.9384261 z"
               id="path3743" />
            <path
               style="fill:none;stroke:#000000;stroke-width:0.60377358999999997;stroke-linecap:round;stroke-miterlimit:4;stroke-opacity:1;stroke-dasharray:none"
               d="m 28.060377,7.8773612 c 0,-0.021791 0.117235,-0.2724161 0.260521,-0.5569448 0.294474,-0.5847467 0.228985,-0.5518594 1.444571,-0.7254436 1.492101,-0.2130704 4.464545,-0.1244599 5.485507,0.1635265 0.133466,0.037647 0.702519,1.064106 0.630083,1.1365427 -0.02094,0.020935 -0.54104,-0.02078 -1.155788,-0.092699 -1.453813,-0.1700816 -4.130077,-0.1732776 -5.495082,-0.00656 -1.088117,0.1328975 -1.169812,0.1385947 -1.169812,0.081581 z"
               id="path3745" />
            <path
               style="fill:none;stroke:#000000;stroke-width:0.60377358999999997;stroke-linecap:round;stroke-miterlimit:4;stroke-opacity:1;stroke-dasharray:none"
               d="m 28.692048,7.332233 c 0.190508,-0.3684011 0.722583,-0.4352573 3.406065,-0.4279782 1.245283,0.00338 2.412804,0.037567 2.59449,0.075976 0.239853,0.050705 0.384327,0.1398415 0.527434,0.325412 0.176195,0.2284761 0.181181,0.2508212 0.04702,0.2107195 -0.08254,-0.024672 -0.881624,-0.083202 -1.775738,-0.1300655 -1.535461,-0.080479 -4.185682,-0.00815 -4.739918,0.1293581 -0.17422,0.043225 -0.17512,0.040447 -0.05935,-0.1834215 z"
               id="path3747" />
          </g>
          <g
             style="stroke:#000000;stroke-opacity:1"
             id="g3749"
             transform="matrix(1,0,0,-1,0,64)">
            <g
               style="stroke:#000000;stroke-opacity:1"
               transform="translate(0,4)"
               id="g3751">
              <path
                 style="fill:none;stroke:#000000;stroke-width:1px;stroke-linecap:round;stroke-linejoin:miter;stroke-opacity:1"
                 d="M 26,6 28,2"
                 id="path3753"
                 inkscape:connector-type="polyline" />
              <path
                 style="fill:none;stroke:#000000;stroke-width:1px;stroke-linecap:butt;stroke-linejoin:miter;stroke-opacity:1"
                 d="M 36,2 C 33.333333,1.3962264 30.666667,1.3962264 28,2"
                 id="path3755"
                 inkscape:connector-type="polyline"
                 sodipodi:nodetypes="cc" />
              <path
                 style="fill:none;stroke:#000000;stroke-width:1px;stroke-linecap:round;stroke-linejoin:miter;stroke-opacity:1"
                 d="M 38,6 36,2"
                 id="path3757"
                 inkscape:connector-type="polyline" />
            </g>
            <path
               id="path3759"
               d="m 27.862287,7.4602897 0.492512,-0.9828589 0.666385,-0.1224647 c 1.666681,-0.3062937 3.818177,-0.3380312 5.488232,-0.080959 1.169971,0.1800943 1.05163,0.095927 1.559575,1.1092138 0.249365,0.4974525 0.436549,0.9213012 0.415964,0.941886 -0.02058,0.020585 -0.421705,-0.017912 -0.891379,-0.085549 -2.488877,-0.3584183 -4.797398,-0.358522 -7.21554,-3.24e-4 -0.427174,0.063277 -0.828786,0.1350439 -0.89247,0.1594819 -0.07103,0.027258 0.07458,-0.3354732 0.376721,-0.9384261 z"
               style="fill:none;stroke:#000000;stroke-width:0.60377358999999997;stroke-linecap:round;stroke-miterlimit:4;stroke-opacity:1;stroke-dasharray:none" />
            <path
               id="path3761"
               d="m 28.060377,7.8773612 c 0,-0.021791 0.117235,-0.2724161 0.260521,-0.5569448 0.294474,-0.5847467 0.228985,-0.5518594 1.444571,-0.7254436 1.492101,-0.2130704 4.464545,-0.1244599 5.485507,0.1635265 0.133466,0.037647 0.702519,1.064106 0.630083,1.1365427 -0.02094,0.020935 -0.54104,-0.02078 -1.155788,-0.092699 -1.453813,-0.1700816 -4.130077,-0.1732776 -5.495082,-0.00656 -1.088117,0.1328975 -1.169812,0.1385947 -1.169812,0.081581 z"
               style="fill:none;stroke:#000000;stroke-width:0.60377358999999997;stroke-linecap:round;stroke-miterlimit:4;stroke-opacity:1;stroke-dasharray:none" />
            <path
               id="path3763"
               d="m 28.692048,7.332233 c 0.190508,-0.3684011 0.722583,-0.4352573 3.406065,-0.4279782 1.245283,0.00338 2.412804,0.037567 2.59449,0.075976 0.239853,0.050705 0.384327,0.1398415 0.527434,0.325412 0.176195,0.2284761 0.181181,0.2508212 0.04702,0.2107195 -0.08254,-0.024672 -0.881624,-0.083202 -1.775738,-0.1300655 -1.535461,-0.080479 -4.185682,-0.00815 -4.739918,0.1293581 -0.17422,0.043225 -0.17512,0.040447 -0.05935,-0.1834215 z"
               style="fill:none;stroke:#000000;stroke-width:0.60377358999999997;stroke-linecap:round;stroke-miterlimit:4;stroke-opacity:1;stroke-dasharray:none" />
          </g>
          <g
             style="stroke:#000000;stroke-opacity:1"
             id="g3765"
             transform="matrix(0,1,1,0,0,0)">
            <g
               style="stroke:#000000;stroke-opacity:1"
               id="g3767"
               transform="translate(0,4)">
              <path
                 inkscape:connector-type="polyline"
                 id="path3769"
                 d="M 26,6 28,2"
                 style="fill:none;stroke:#000000;stroke-width:1px;stroke-linecap:round;stroke-linejoin:miter;stroke-opacity:1" />
              <path
                 sodipodi:nodetypes="cc"
                 inkscape:connector-type="polyline"
                 id="path3771"
                 d="M 36,2 C 33.333333,1.3962264 30.666667,1.3962264 28,2"
                 style="fill:none;stroke:#000000;stroke-width:1px;stroke-linecap:butt;stroke-linejoin:miter;stroke-opacity:1" />
              <path
                 inkscape:connector-type="polyline"
                 id="path3773"
                 d="M 38,6 36,2"
                 style="fill:none;stroke:#000000;stroke-width:1px;stroke-linecap:round;stroke-linejoin:miter;stroke-opacity:1" />
            </g>
            <path
               style="fill:none;stroke:#000000;stroke-width:0.60377358999999997;stroke-linecap:round;stroke-miterlimit:4;stroke-opacity:1;stroke-dasharray:none"
               d="m 27.862287,7.4602897 0.492512,-0.9828589 0.666385,-0.1224647 c 1.666681,-0.3062937 3.818177,-0.3380312 5.488232,-0.080959 1.169971,0.1800943 1.05163,0.095927 1.559575,1.1092138 0.249365,0.4974525 0.436549,0.9213012 0.415964,0.941886 -0.02058,0.020585 -0.421705,-0.017912 -0.891379,-0.085549 -2.488877,-0.3584183 -4.797398,-0.358522 -7.21554,-3.24e-4 -0.427174,0.063277 -0.828786,0.1350439 -0.89247,0.1594819 -0.07103,0.027258 0.07458,-0.3354732 0.376721,-0.9384261 z"
               id="path3775" />
            <path
               style="fill:none;stroke:#000000;stroke-width:0.60377358999999997;stroke-linecap:round;stroke-miterlimit:4;stroke-opacity:1;stroke-dasharray:none"
               d="m 28.060377,7.8773612 c 0,-0.021791 0.117235,-0.2724161 0.260521,-0.5569448 0.294474,-0.5847467 0.228985,-0.5518594 1.444571,-0.7254436 1.492101,-0.2130704 4.464545,-0.1244599 5.485507,0.1635265 0.133466,0.037647 0.702519,1.064106 0.630083,1.1365427 -0.02094,0.020935 -0.54104,-0.02078 -1.155788,-0.092699 -1.453813,-0.1700816 -4.130077,-0.1732776 -5.495082,-0.00656 -1.088117,0.1328975 -1.169812,0.1385947 -1.169812,0.081581 z"
               id="path3777" />
            <path
               style="fill:none;stroke:#000000;stroke-width:0.60377358999999997;stroke-linecap:round;stroke-miterlimit:4;stroke-opacity:1;stroke-dasharray:none"
               d="m 28.692048,7.332233 c 0.190508,-0.3684011 0.722583,-0.4352573 3.406065,-0.4279782 1.245283,0.00338 2.412804,0.037567 2.59449,0.075976 0.239853,0.050705 0.384327,0.1398415 0.527434,0.325412 0.176195,0.2284761 0.181181,0.2508212 0.04702,0.2107195 -0.08254,-0.024672 -0.881624,-0.083202 -1.775738,-0.1300655 -1.535461,-0.080479 -4.185682,-0.00815 -4.739918,0.1293581 -0.17422,0.043225 -0.17512,0.040447 -0.05935,-0.1834215 z"
               id="path3779" />
          </g>
        </g>
      </g>
      <g
         id="g3958"
         style="stroke:#000000;stroke-opacity:1;opacity:1">
        <g
           transform="matrix(0.70710678,-0.70710678,0.70710678,0.70710678,-13.254834,32)"
           id="g3960"
           style="stroke:#000000;stroke-opacity:1">
          <path
             sodipodi:type="arc"
             id="path3962"
             sodipodi:cx="32"
             sodipodi:cy="32"
             sodipodi:rx="20"
             sodipodi:ry="20"
             d="M 52,32 C 52,43.045695 43.045695,52 32,52 20.954305,52 12,43.045695 12,32 12,20.954305 20.954305,12 32,12 c 11.045695,0 20,8.954305 20,20 z"
             style="fill:none;stroke:#000000;stroke-width:8;stroke-miterlimit:4;stroke-opacity:1;stroke-dasharray:none" />
          <g
             id="g3964"
             style="stroke:#000000;stroke-opacity:1">
            <g
               transform="translate(0,4)"
               id="g3966"
               style="stroke:#000000;stroke-opacity:1">
              <path
                 style="fill:none;stroke:#000000;stroke-width:1px;stroke-linecap:round;stroke-linejoin:miter;stroke-opacity:1"
                 d="M 26,6 28,2"
                 id="path3968"
                 inkscape:connector-type="polyline" />
              <path
                 style="fill:none;stroke:#000000;stroke-width:1px;stroke-linecap:butt;stroke-linejoin:miter;stroke-opacity:1"
                 d="M 36,2 C 33.333333,1.3962264 30.666667,1.3962264 28,2"
                 id="path3970"
                 inkscape:connector-type="polyline"
                 sodipodi:nodetypes="cc" />
              <path
                 style="fill:none;stroke:#000000;stroke-width:1px;stroke-linecap:round;stroke-linejoin:miter;stroke-opacity:1"
                 d="M 38,6 36,2"
                 id="path3972"
                 inkscape:connector-type="polyline" />
            </g>
            <path
               id="path3974"
               d="m 27.862287,7.4602897 0.492512,-0.9828589 0.666385,-0.1224647 c 1.666681,-0.3062937 3.818177,-0.3380312 5.488232,-0.080959 1.169971,0.1800943 1.05163,0.095927 1.559575,1.1092138 0.249365,0.4974525 0.436549,0.9213012 0.415964,0.941886 -0.02058,0.020585 -0.421705,-0.017912 -0.891379,-0.085549 -2.488877,-0.3584183 -4.797398,-0.358522 -7.21554,-3.24e-4 -0.427174,0.063277 -0.828786,0.1350439 -0.89247,0.1594819 -0.07103,0.027258 0.07458,-0.3354732 0.376721,-0.9384261 z"
               style="fill:none;stroke:#000000;stroke-width:0.60377358999999997;stroke-linecap:round;stroke-miterlimit:4;stroke-opacity:1;stroke-dasharray:none" />
            <path
               id="path3976"
               d="m 28.060377,7.8773612 c 0,-0.021791 0.117235,-0.2724161 0.260521,-0.5569448 0.294474,-0.5847467 0.228985,-0.5518594 1.444571,-0.7254436 1.492101,-0.2130704 4.464545,-0.1244599 5.485507,0.1635265 0.133466,0.037647 0.702519,1.064106 0.630083,1.1365427 -0.02094,0.020935 -0.54104,-0.02078 -1.155788,-0.092699 -1.453813,-0.1700816 -4.130077,-0.1732776 -5.495082,-0.00656 -1.088117,0.1328975 -1.169812,0.1385947 -1.169812,0.081581 z"
               style="fill:none;stroke:#000000;stroke-width:0.60377358999999997;stroke-linecap:round;stroke-miterlimit:4;stroke-opacity:1;stroke-dasharray:none" />
            <path
               id="path3978"
               d="m 28.692048,7.332233 c 0.190508,-0.3684011 0.722583,-0.4352573 3.406065,-0.4279782 1.245283,0.00338 2.412804,0.037567 2.59449,0.075976 0.239853,0.050705 0.384327,0.1398415 0.527434,0.325412 0.176195,0.2284761 0.181181,0.2508212 0.04702,0.2107195 -0.08254,-0.024672 -0.881624,-0.083202 -1.775738,-0.1300655 -1.535461,-0.080479 -4.185682,-0.00815 -4.739918,0.1293581 -0.17422,0.043225 -0.17512,0.040447 -0.05935,-0.1834215 z"
               style="fill:none;stroke:#000000;stroke-width:0.60377358999999997;stroke-linecap:round;stroke-miterlimit:4;stroke-opacity:1;stroke-dasharray:none" />
          </g>
          <g
             id="g3980"
             transform="matrix(0,1,-1,0,64,0)"
             style="stroke:#000000;stroke-opacity:1">
            <g
               id="g3982"
               transform="translate(0,4)"
               style="stroke:#000000;stroke-opacity:1">
              <path
                 inkscape:connector-type="polyline"
                 id="path3984"
                 d="M 26,6 28,2"
                 style="fill:none;stroke:#000000;stroke-width:1px;stroke-linecap:round;stroke-linejoin:miter;stroke-opacity:1" />
              <path
                 sodipodi:nodetypes="cc"
                 inkscape:connector-type="polyline"
                 id="path3986"
                 d="M 36,2 C 33.333333,1.3962264 30.666667,1.3962264 28,2"
                 style="fill:none;stroke:#000000;stroke-width:1px;stroke-linecap:butt;stroke-linejoin:miter;stroke-opacity:1" />
              <path
                 inkscape:connector-type="polyline"
                 id="path3988"
                 d="M 38,6 36,2"
                 style="fill:none;stroke:#000000;stroke-width:1px;stroke-linecap:round;stroke-linejoin:miter;stroke-opacity:1" />
            </g>
            <path
               style="fill:none;stroke:#000000;stroke-width:0.60377358999999997;stroke-linecap:round;stroke-miterlimit:4;stroke-opacity:1;stroke-dasharray:none"
               d="m 27.862287,7.4602897 0.492512,-0.9828589 0.666385,-0.1224647 c 1.666681,-0.3062937 3.818177,-0.3380312 5.488232,-0.080959 1.169971,0.1800943 1.05163,0.095927 1.559575,1.1092138 0.249365,0.4974525 0.436549,0.9213012 0.415964,0.941886 -0.02058,0.020585 -0.421705,-0.017912 -0.891379,-0.085549 -2.488877,-0.3584183 -4.797398,-0.358522 -7.21554,-3.24e-4 -0.427174,0.063277 -0.828786,0.1350439 -0.89247,0.1594819 -0.07103,0.027258 0.07458,-0.3354732 0.376721,-0.9384261 z"
               id="path3990" />
            <path
               style="fill:none;stroke:#000000;stroke-width:0.60377358999999997;stroke-linecap:round;stroke-miterlimit:4;stroke-opacity:1;stroke-dasharray:none"
               d="m 28.060377,7.8773612 c 0,-0.021791 0.117235,-0.2724161 0.260521,-0.5569448 0.294474,-0.5847467 0.228985,-0.5518594 1.444571,-0.7254436 1.492101,-0.2130704 4.464545,-0.1244599 5.485507,0.1635265 0.133466,0.037647 0.702519,1.064106 0.630083,1.1365427 -0.02094,0.020935 -0.54104,-0.02078 -1.155788,-0.092699 -1.453813,-0.1700816 -4.130077,-0.1732776 -5.495082,-0.00656 -1.088117,0.1328975 -1.169812,0.1385947 -1.169812,0.081581 z"
               id="path3992" />
            <path
               style="fill:none;stroke:#000000;stroke-width:0.60377358999999997;stroke-linecap:round;stroke-miterlimit:4;stroke-opacity:1;stroke-dasharray:none"
               d="m 28.692048,7.332233 c 0.190508,-0.3684011 0.722583,-0.4352573 3.406065,-0.4279782 1.245283,0.00338 2.412804,0.037567 2.59449,0.075976 0.239853,0.050705 0.384327,0.1398415 0.527434,0.325412 0.176195,0.2284761 0.181181,0.2508212 0.04702,0.2107195 -0.08254,-0.024672 -0.881624,-0.083202 -1.775738,-0.1300655 -1.535461,-0.080479 -4.185682,-0.00815 -4.739918,0.1293581 -0.17422,0.043225 -0.17512,0.040447 -0.05935,-0.1834215 z"
               id="path3994" />
          </g>
          <g
             id="g3996"
             transform="matrix(1,0,0,-1,0,64)"
             style="stroke:#000000;stroke-opacity:1">
            <g
               transform="translate(0,4)"
               id="g3998"
               style="stroke:#000000;stroke-opacity:1">
              <path
                 style="fill:none;stroke:#000000;stroke-width:1px;stroke-linecap:round;stroke-linejoin:miter;stroke-opacity:1"
                 d="M 26,6 28,2"
                 id="path4000"
                 inkscape:connector-type="polyline" />
              <path
                 style="fill:none;stroke:#000000;stroke-width:1px;stroke-linecap:butt;stroke-linejoin:miter;stroke-opacity:1"
                 d="M 36,2 C 33.333333,1.3962264 30.666667,1.3962264 28,2"
                 id="path4002"
                 inkscape:connector-type="polyline"
                 sodipodi:nodetypes="cc" />
              <path
                 style="fill:none;stroke:#000000;stroke-width:1px;stroke-linecap:round;stroke-linejoin:miter;stroke-opacity:1"
                 d="M 38,6 36,2"
                 id="path4004"
                 inkscape:connector-type="polyline" />
            </g>
            <path
               id="path4006"
               d="m 27.862287,7.4602897 0.492512,-0.9828589 0.666385,-0.1224647 c 1.666681,-0.3062937 3.818177,-0.3380312 5.488232,-0.080959 1.169971,0.1800943 1.05163,0.095927 1.559575,1.1092138 0.249365,0.4974525 0.436549,0.9213012 0.415964,0.941886 -0.02058,0.020585 -0.421705,-0.017912 -0.891379,-0.085549 -2.488877,-0.3584183 -4.797398,-0.358522 -7.21554,-3.24e-4 -0.427174,0.063277 -0.828786,0.1350439 -0.89247,0.1594819 -0.07103,0.027258 0.07458,-0.3354732 0.376721,-0.9384261 z"
               style="fill:none;stroke:#000000;stroke-width:0.60377358999999997;stroke-linecap:round;stroke-miterlimit:4;stroke-opacity:1;stroke-dasharray:none" />
            <path
               id="path4008"
               d="m 28.060377,7.8773612 c 0,-0.021791 0.117235,-0.2724161 0.260521,-0.5569448 0.294474,-0.5847467 0.228985,-0.5518594 1.444571,-0.7254436 1.492101,-0.2130704 4.464545,-0.1244599 5.485507,0.1635265 0.133466,0.037647 0.702519,1.064106 0.630083,1.1365427 -0.02094,0.020935 -0.54104,-0.02078 -1.155788,-0.092699 -1.453813,-0.1700816 -4.130077,-0.1732776 -5.495082,-0.00656 -1.088117,0.1328975 -1.169812,0.1385947 -1.169812,0.081581 z"
               style="fill:none;stroke:#000000;stroke-width:0.60377358999999997;stroke-linecap:round;stroke-miterlimit:4;stroke-opacity:1;stroke-dasharray:none" />
            <path
               id="path4010"
               d="m 28.692048,7.332233 c 0.190508,-0.3684011 0.722583,-0.4352573 3.406065,-0.4279782 1.245283,0.00338 2.412804,0.037567 2.59449,0.075976 0.239853,0.050705 0.384327,0.1398415 0.527434,0.325412 0.176195,0.2284761 0.181181,0.2508212 0.04702,0.2107195 -0.08254,-0.024672 -0.881624,-0.083202 -1.775738,-0.1300655 -1.535461,-0.080479 -4.185682,-0.00815 -4.739918,0.1293581 -0.17422,0.043225 -0.17512,0.040447 -0.05935,-0.1834215 z"
               style="fill:none;stroke:#000000;stroke-width:0.60377358999999997;stroke-linecap:round;stroke-miterlimit:4;stroke-opacity:1;stroke-dasharray:none" />
          </g>
          <g
             id="g4012"
             transform="matrix(0,1,1,0,0,0)"
             style="stroke:#000000;stroke-opacity:1">
            <g
               id="g4014"
               transform="translate(0,4)"
               style="stroke:#000000;stroke-opacity:1">
              <path
                 inkscape:connector-type="polyline"
                 id="path4016"
                 d="M 26,6 28,2"
                 style="fill:none;stroke:#000000;stroke-width:1px;stroke-linecap:round;stroke-linejoin:miter;stroke-opacity:1" />
              <path
                 sodipodi:nodetypes="cc"
                 inkscape:connector-type="polyline"
                 id="path4018"
                 d="M 36,2 C 33.333333,1.3962264 30.666667,1.3962264 28,2"
                 style="fill:none;stroke:#000000;stroke-width:1px;stroke-linecap:butt;stroke-linejoin:miter;stroke-opacity:1" />
              <path
                 inkscape:connector-type="polyline"
                 id="path4020"
                 d="M 38,6 36,2"
                 style="fill:none;stroke:#000000;stroke-width:1px;stroke-linecap:round;stroke-linejoin:miter;stroke-opacity:1" />
            </g>
            <path
               style="fill:none;stroke:#000000;stroke-width:0.60377358999999997;stroke-linecap:round;stroke-miterlimit:4;stroke-opacity:1;stroke-dasharray:none"
               d="m 27.862287,7.4602897 0.492512,-0.9828589 0.666385,-0.1224647 c 1.666681,-0.3062937 3.818177,-0.3380312 5.488232,-0.080959 1.169971,0.1800943 1.05163,0.095927 1.559575,1.1092138 0.249365,0.4974525 0.436549,0.9213012 0.415964,0.941886 -0.02058,0.020585 -0.421705,-0.017912 -0.891379,-0.085549 -2.488877,-0.3584183 -4.797398,-0.358522 -7.21554,-3.24e-4 -0.427174,0.063277 -0.828786,0.1350439 -0.89247,0.1594819 -0.07103,0.027258 0.07458,-0.3354732 0.376721,-0.9384261 z"
               id="path4022" />
            <path
               style="fill:none;stroke:#000000;stroke-width:0.60377358999999997;stroke-linecap:round;stroke-miterlimit:4;stroke-opacity:1;stroke-dasharray:none"
               d="m 28.060377,7.8773612 c 0,-0.021791 0.117235,-0.2724161 0.260521,-0.5569448 0.294474,-0.5847467 0.228985,-0.5518594 1.444571,-0.7254436 1.492101,-0.2130704 4.464545,-0.1244599 5.485507,0.1635265 0.133466,0.037647 0.702519,1.064106 0.630083,1.1365427 -0.02094,0.020935 -0.54104,-0.02078 -1.155788,-0.092699 -1.453813,-0.1700816 -4.130077,-0.1732776 -5.495082,-0.00656 -1.088117,0.1328975 -1.169812,0.1385947 -1.169812,0.081581 z"
               id="path4024" />
            <path
               style="fill:none;stroke:#000000;stroke-width:0.60377358999999997;stroke-linecap:round;stroke-miterlimit:4;stroke-opacity:1;stroke-dasharray:none"
               d="m 28.692048,7.332233 c 0.190508,-0.3684011 0.722583,-0.4352573 3.406065,-0.4279782 1.245283,0.00338 2.412804,0.037567 2.59449,0.075976 0.239853,0.050705 0.384327,0.1398415 0.527434,0.325412 0.176195,0.2284761 0.181181,0.2508212 0.04702,0.2107195 -0.08254,-0.024672 -0.881624,-0.083202 -1.775738,-0.1300655 -1.535461,-0.080479 -4.185682,-0.00815 -4.739918,0.1293581 -0.17422,0.043225 -0.17512,0.040447 -0.05935,-0.1834215 z"
               id="path4026" />
          </g>
        </g>
        <g
           id="g4028"
           transform="matrix(0,-1,1,0,-2.6302992e-8,64)"
           style="stroke:#000000;stroke-opacity:1">
          <path
             style="fill:none;stroke:#000000;stroke-width:8;stroke-miterlimit:4;stroke-opacity:1;stroke-dasharray:none"
             d="M 52,32 C 52,43.045695 43.045695,52 32,52 20.954305,52 12,43.045695 12,32 12,20.954305 20.954305,12 32,12 c 11.045695,0 20,8.954305 20,20 z"
             sodipodi:ry="20"
             sodipodi:rx="20"
             sodipodi:cy="32"
             sodipodi:cx="32"
             id="path4030"
             sodipodi:type="arc" />
          <g
             id="g4032"
             style="stroke:#000000;stroke-opacity:1">
            <g
               id="g4034"
               transform="translate(0,4)"
               style="stroke:#000000;stroke-opacity:1">
              <path
                 inkscape:connector-type="polyline"
                 id="path4036"
                 d="M 26,6 28,2"
                 style="fill:none;stroke:#000000;stroke-width:1px;stroke-linecap:round;stroke-linejoin:miter;stroke-opacity:1" />
              <path
                 sodipodi:nodetypes="cc"
                 inkscape:connector-type="polyline"
                 id="path4038"
                 d="M 36,2 C 33.333333,1.3962264 30.666667,1.3962264 28,2"
                 style="fill:none;stroke:#000000;stroke-width:1px;stroke-linecap:butt;stroke-linejoin:miter;stroke-opacity:1" />
              <path
                 inkscape:connector-type="polyline"
                 id="path4040"
                 d="M 38,6 36,2"
                 style="fill:none;stroke:#000000;stroke-width:1px;stroke-linecap:round;stroke-linejoin:miter;stroke-opacity:1" />
            </g>
            <path
               style="fill:none;stroke:#000000;stroke-width:0.60377358999999997;stroke-linecap:round;stroke-miterlimit:4;stroke-opacity:1;stroke-dasharray:none"
               d="m 27.862287,7.4602897 0.492512,-0.9828589 0.666385,-0.1224647 c 1.666681,-0.3062937 3.818177,-0.3380312 5.488232,-0.080959 1.169971,0.1800943 1.05163,0.095927 1.559575,1.1092138 0.249365,0.4974525 0.436549,0.9213012 0.415964,0.941886 -0.02058,0.020585 -0.421705,-0.017912 -0.891379,-0.085549 -2.488877,-0.3584183 -4.797398,-0.358522 -7.21554,-3.24e-4 -0.427174,0.063277 -0.828786,0.1350439 -0.89247,0.1594819 -0.07103,0.027258 0.07458,-0.3354732 0.376721,-0.9384261 z"
               id="path4042" />
            <path
               style="fill:none;stroke:#000000;stroke-width:0.60377358999999997;stroke-linecap:round;stroke-miterlimit:4;stroke-opacity:1;stroke-dasharray:none"
               d="m 28.060377,7.8773612 c 0,-0.021791 0.117235,-0.2724161 0.260521,-0.5569448 0.294474,-0.5847467 0.228985,-0.5518594 1.444571,-0.7254436 1.492101,-0.2130704 4.464545,-0.1244599 5.485507,0.1635265 0.133466,0.037647 0.702519,1.064106 0.630083,1.1365427 -0.02094,0.020935 -0.54104,-0.02078 -1.155788,-0.092699 -1.453813,-0.1700816 -4.130077,-0.1732776 -5.495082,-0.00656 -1.088117,0.1328975 -1.169812,0.1385947 -1.169812,0.081581 z"
               id="path4044" />
            <path
               style="fill:none;stroke:#000000;stroke-width:0.60377358999999997;stroke-linecap:round;stroke-miterlimit:4;stroke-opacity:1;stroke-dasharray:none"
               d="m 28.692048,7.332233 c 0.190508,-0.3684011 0.722583,-0.4352573 3.406065,-0.4279782 1.245283,0.00338 2.412804,0.037567 2.59449,0.075976 0.239853,0.050705 0.384327,0.1398415 0.527434,0.325412 0.176195,0.2284761 0.181181,0.2508212 0.04702,0.2107195 -0.08254,-0.024672 -0.881624,-0.083202 -1.775738,-0.1300655 -1.535461,-0.080479 -4.185682,-0.00815 -4.739918,0.1293581 -0.17422,0.043225 -0.17512,0.040447 -0.05935,-0.1834215 z"
               id="path4046" />
          </g>
          <g
             transform="matrix(0,1,-1,0,64,0)"
             id="g4048"
             style="stroke:#000000;stroke-opacity:1">
            <g
               transform="translate(0,4)"
               id="g4050"
               style="stroke:#000000;stroke-opacity:1">
              <path
                 style="fill:none;stroke:#000000;stroke-width:1px;stroke-linecap:round;stroke-linejoin:miter;stroke-opacity:1"
                 d="M 26,6 28,2"
                 id="path4052"
                 inkscape:connector-type="polyline" />
              <path
                 style="fill:none;stroke:#000000;stroke-width:1px;stroke-linecap:butt;stroke-linejoin:miter;stroke-opacity:1"
                 d="M 36,2 C 33.333333,1.3962264 30.666667,1.3962264 28,2"
                 id="path4054"
                 inkscape:connector-type="polyline"
                 sodipodi:nodetypes="cc" />
              <path
                 style="fill:none;stroke:#000000;stroke-width:1px;stroke-linecap:round;stroke-linejoin:miter;stroke-opacity:1"
                 d="M 38,6 36,2"
                 id="path4056"
                 inkscape:connector-type="polyline" />
            </g>
            <path
               id="path4058"
               d="m 27.862287,7.4602897 0.492512,-0.9828589 0.666385,-0.1224647 c 1.666681,-0.3062937 3.818177,-0.3380312 5.488232,-0.080959 1.169971,0.1800943 1.05163,0.095927 1.559575,1.1092138 0.249365,0.4974525 0.436549,0.9213012 0.415964,0.941886 -0.02058,0.020585 -0.421705,-0.017912 -0.891379,-0.085549 -2.488877,-0.3584183 -4.797398,-0.358522 -7.21554,-3.24e-4 -0.427174,0.063277 -0.828786,0.1350439 -0.89247,0.1594819 -0.07103,0.027258 0.07458,-0.3354732 0.376721,-0.9384261 z"
               style="fill:none;stroke:#000000;stroke-width:0.60377358999999997;stroke-linecap:round;stroke-miterlimit:4;stroke-opacity:1;stroke-dasharray:none" />
            <path
               id="path4060"
               d="m 28.060377,7.8773612 c 0,-0.021791 0.117235,-0.2724161 0.260521,-0.5569448 0.294474,-0.5847467 0.228985,-0.5518594 1.444571,-0.7254436 1.492101,-0.2130704 4.464545,-0.1244599 5.485507,0.1635265 0.133466,0.037647 0.702519,1.064106 0.630083,1.1365427 -0.02094,0.020935 -0.54104,-0.02078 -1.155788,-0.092699 -1.453813,-0.1700816 -4.130077,-0.1732776 -5.495082,-0.00656 -1.088117,0.1328975 -1.169812,0.1385947 -1.169812,0.081581 z"
               style="fill:none;stroke:#000000;stroke-width:0.60377358999999997;stroke-linecap:round;stroke-miterlimit:4;stroke-opacity:1;stroke-dasharray:none" />
            <path
               id="path4062"
               d="m 28.692048,7.332233 c 0.190508,-0.3684011 0.722583,-0.4352573 3.406065,-0.4279782 1.245283,0.00338 2.412804,0.037567 2.59449,0.075976 0.239853,0.050705 0.384327,0.1398415 0.527434,0.325412 0.176195,0.2284761 0.181181,0.2508212 0.04702,0.2107195 -0.08254,-0.024672 -0.881624,-0.083202 -1.775738,-0.1300655 -1.535461,-0.080479 -4.185682,-0.00815 -4.739918,0.1293581 -0.17422,0.043225 -0.17512,0.040447 -0.05935,-0.1834215 z"
               style="fill:none;stroke:#000000;stroke-width:0.60377358999999997;stroke-linecap:round;stroke-miterlimit:4;stroke-opacity:1;stroke-dasharray:none" />
          </g>
          <g
             transform="matrix(1,0,0,-1,0,64)"
             id="g4064"
             style="stroke:#000000;stroke-opacity:1">
            <g
               id="g4066"
               transform="translate(0,4)"
               style="stroke:#000000;stroke-opacity:1">
              <path
                 inkscape:connector-type="polyline"
                 id="path4068"
                 d="M 26,6 28,2"
                 style="fill:none;stroke:#000000;stroke-width:1px;stroke-linecap:round;stroke-linejoin:miter;stroke-opacity:1" />
              <path
                 sodipodi:nodetypes="cc"
                 inkscape:connector-type="polyline"
                 id="path4070"
                 d="M 36,2 C 33.333333,1.3962264 30.666667,1.3962264 28,2"
                 style="fill:none;stroke:#000000;stroke-width:1px;stroke-linecap:butt;stroke-linejoin:miter;stroke-opacity:1" />
              <path
                 inkscape:connector-type="polyline"
                 id="path4072"
                 d="M 38,6 36,2"
                 style="fill:none;stroke:#000000;stroke-width:1px;stroke-linecap:round;stroke-linejoin:miter;stroke-opacity:1" />
            </g>
            <path
               style="fill:none;stroke:#000000;stroke-width:0.60377358999999997;stroke-linecap:round;stroke-miterlimit:4;stroke-opacity:1;stroke-dasharray:none"
               d="m 27.862287,7.4602897 0.492512,-0.9828589 0.666385,-0.1224647 c 1.666681,-0.3062937 3.818177,-0.3380312 5.488232,-0.080959 1.169971,0.1800943 1.05163,0.095927 1.559575,1.1092138 0.249365,0.4974525 0.436549,0.9213012 0.415964,0.941886 -0.02058,0.020585 -0.421705,-0.017912 -0.891379,-0.085549 -2.488877,-0.3584183 -4.797398,-0.358522 -7.21554,-3.24e-4 -0.427174,0.063277 -0.828786,0.1350439 -0.89247,0.1594819 -0.07103,0.027258 0.07458,-0.3354732 0.376721,-0.9384261 z"
               id="path4074" />
            <path
               style="fill:none;stroke:#000000;stroke-width:0.60377358999999997;stroke-linecap:round;stroke-miterlimit:4;stroke-opacity:1;stroke-dasharray:none"
               d="m 28.060377,7.8773612 c 0,-0.021791 0.117235,-0.2724161 0.260521,-0.5569448 0.294474,-0.5847467 0.228985,-0.5518594 1.444571,-0.7254436 1.492101,-0.2130704 4.464545,-0.1244599 5.485507,0.1635265 0.133466,0.037647 0.702519,1.064106 0.630083,1.1365427 -0.02094,0.020935 -0.54104,-0.02078 -1.155788,-0.092699 -1.453813,-0.1700816 -4.130077,-0.1732776 -5.495082,-0.00656 -1.088117,0.1328975 -1.169812,0.1385947 -1.169812,0.081581 z"
               id="path4076" />
            <path
               style="fill:none;stroke:#000000;stroke-width:0.60377358999999997;stroke-linecap:round;stroke-miterlimit:4;stroke-opacity:1;stroke-dasharray:none"
               d="m 28.692048,7.332233 c 0.190508,-0.3684011 0.722583,-0.4352573 3.406065,-0.4279782 1.245283,0.00338 2.412804,0.037567 2.59449,0.075976 0.239853,0.050705 0.384327,0.1398415 0.527434,0.325412 0.176195,0.2284761 0.181181,0.2508212 0.04702,0.2107195 -0.08254,-0.024672 -0.881624,-0.083202 -1.775738,-0.1300655 -1.535461,-0.080479 -4.185682,-0.00815 -4.739918,0.1293581 -0.17422,0.043225 -0.17512,0.040447 -0.05935,-0.1834215 z"
               id="path4078" />
          </g>
          <g
             transform="matrix(0,1,1,0,0,0)"
             id="g4080"
             style="stroke:#000000;stroke-opacity:1">
            <g
               transform="translate(0,4)"
               id="g4082"
               style="stroke:#000000;stroke-opacity:1">
              <path
                 style="fill:none;stroke:#000000;stroke-width:1px;stroke-linecap:round;stroke-linejoin:miter;stroke-opacity:1"
                 d="M 26,6 28,2"
                 id="path4084"
                 inkscape:connector-type="polyline" />
              <path
                 style="fill:none;stroke:#000000;stroke-width:1px;stroke-linecap:butt;stroke-linejoin:miter;stroke-opacity:1"
                 d="M 36,2 C 33.333333,1.3962264 30.666667,1.3962264 28,2"
                 id="path4086"
                 inkscape:connector-type="polyline"
                 sodipodi:nodetypes="cc" />
              <path
                 style="fill:none;stroke:#000000;stroke-width:1px;stroke-linecap:round;stroke-linejoin:miter;stroke-opacity:1"
                 d="M 38,6 36,2"
                 id="path4088"
                 inkscape:connector-type="polyline" />
            </g>
            <path
               id="path4090"
               d="m 27.862287,7.4602897 0.492512,-0.9828589 0.666385,-0.1224647 c 1.666681,-0.3062937 3.818177,-0.3380312 5.488232,-0.080959 1.169971,0.1800943 1.05163,0.095927 1.559575,1.1092138 0.249365,0.4974525 0.436549,0.9213012 0.415964,0.941886 -0.02058,0.020585 -0.421705,-0.017912 -0.891379,-0.085549 -2.488877,-0.3584183 -4.797398,-0.358522 -7.21554,-3.24e-4 -0.427174,0.063277 -0.828786,0.1350439 -0.89247,0.1594819 -0.07103,0.027258 0.07458,-0.3354732 0.376721,-0.9384261 z"
               style="fill:none;stroke:#000000;stroke-width:0.60377358999999997;stroke-linecap:round;stroke-miterlimit:4;stroke-opacity:1;stroke-dasharray:none" />
            <path
               id="path4092"
               d="m 28.060377,7.8773612 c 0,-0.021791 0.117235,-0.2724161 0.260521,-0.5569448 0.294474,-0.5847467 0.228985,-0.5518594 1.444571,-0.7254436 1.492101,-0.2130704 4.464545,-0.1244599 5.485507,0.1635265 0.133466,0.037647 0.702519,1.064106 0.630083,1.1365427 -0.02094,0.020935 -0.54104,-0.02078 -1.155788,-0.092699 -1.453813,-0.1700816 -4.130077,-0.1732776 -5.495082,-0.00656 -1.088117,0.1328975 -1.169812,0.1385947 -1.169812,0.081581 z"
               style="fill:none;stroke:#000000;stroke-width:0.60377358999999997;stroke-linecap:round;stroke-miterlimit:4;stroke-opacity:1;stroke-dasharray:none" />
            <path
               id="path4094"
               d="m 28.692048,7.332233 c 0.190508,-0.3684011 0.722583,-0.4352573 3.406065,-0.4279782 1.245283,0.00338 2.412804,0.037567 2.59449,0.075976 0.239853,0.050705 0.384327,0.1398415 0.527434,0.325412 0.176195,0.2284761 0.181181,0.2508212 0.04702,0.2107195 -0.08254,-0.024672 -0.881624,-0.083202 -1.775738,-0.1300655 -1.535461,-0.080479 -4.185682,-0.00815 -4.739918,0.1293581 -0.17422,0.043225 -0.17512,0.040447 -0.05935,-0.1834215 z"
               style="fill:none;stroke:#000000;stroke-width:0.60377358999999997;stroke-linecap:round;stroke-miterlimit:4;stroke-opacity:1;stroke-dasharray:none" />
          </g>
        </g>
      </g>
    </g>
  </g>
</svg>
