<?xml version="1.0" encoding="UTF-8" standalone="no"?>
<!-- Created with Inkscape (http://www.inkscape.org/) -->

<svg
   xmlns:dc="http://purl.org/dc/elements/1.1/"
   xmlns:cc="http://creativecommons.org/ns#"
   xmlns:rdf="http://www.w3.org/1999/02/22-rdf-syntax-ns#"
   xmlns:svg="http://www.w3.org/2000/svg"
   xmlns="http://www.w3.org/2000/svg"
   xmlns:sodipodi="http://sodipodi.sourceforge.net/DTD/sodipodi-0.dtd"
   xmlns:inkscape="http://www.inkscape.org/namespaces/inkscape"
   width="64px"
   height="64px"
   id="svg2816"
   version="1.1"
   inkscape:version="0.47 r22583"
   sodipodi:docname="document-open.svg"
   inkscape:export-filename="/home/rob/.kde4/share/icons/nmfnms/48x48/actions/document-open.png"
   inkscape:export-xdpi="67.5"
   inkscape:export-ydpi="67.5"
   sodipodi:version="0.32"
   inkscape:output_extension="org.inkscape.output.svg.inkscape">
  <defs
     id="defs2818">
    <inkscape:perspective
       sodipodi:type="inkscape:persp3d"
       inkscape:vp_x="0 : 32 : 1"
       inkscape:vp_y="0 : 1000 : 0"
       inkscape:vp_z="64 : 32 : 1"
       inkscape:persp3d-origin="32 : 21.333333 : 1"
       id="perspective2824" />
  </defs>
  <sodipodi:namedview
     id="base"
     pagecolor="#ffffff"
     bordercolor="#666666"
     borderopacity="1.0"
     inkscape:pageopacity="0.0"
     inkscape:pageshadow="2"
     inkscape:zoom="11.046875"
     inkscape:cx="19.145686"
     inkscape:cy="32.135785"
     inkscape:current-layer="layer1"
     showgrid="true"
     inkscape:document-units="px"
     inkscape:grid-bbox="true"
     inkscape:window-width="1627"
     inkscape:window-height="943"
     inkscape:window-x="36"
     inkscape:window-y="124"
     inkscape:window-maximized="0">
    <inkscape:grid
       type="xygrid"
       id="grid2826"
       empspacing="4"
       visible="true"
       enabled="true"
       snapvisiblegridlinesonly="true" />
  </sodipodi:namedview>
  <metadata
     id="metadata2821">
    <rdf:RDF>
      <cc:Work
         rdf:about="">
        <dc:format>image/svg+xml</dc:format>
        <dc:type
           rdf:resource="http://purl.org/dc/dcmitype/StillImage" />
        <dc:title />
      </cc:Work>
    </rdf:RDF>
  </metadata>
  <g
     id="layer1"
     inkscape:label="Layer 1"
     inkscape:groupmode="layer"
     style="opacity:1">
    <path
       style="opacity:1;fill:#000000;fill-opacity:1;fill-rule:evenodd;stroke:#000000;stroke-width:1.37280011000000002;stroke-linecap:round;stroke-linejoin:round;stroke-miterlimit:4;stroke-opacity:1;stroke-dasharray:none"
       d="m 22.8816,3.9348 c -4.258339,0 -8.182918,1.3883167 -11.3685,3.7323 l 26.8554,26.8554 c 2.343983,-3.185582 3.7323,-7.110161 3.7323,-11.3685 0,-10.61447 -8.604729,-19.2192 -19.2192,-19.2192 z M 7.6092,11.5281 c -2.4653983,3.23163 -3.9468,7.247431 -3.9468,11.6259 0,10.614471 8.60473,19.2192 19.2192,19.2192 4.378469,0 8.39427,-1.481402 11.6259,-3.9468 L 7.6092,11.5281 z M 27,12 c 0.744401,0 1.488802,0.255575 2.0592,0.8151 l 4.1184,4.0326 c 1.140797,1.11905 1.140797,2.91355 0,4.0326 -1.140797,1.11905 -2.977603,1.11905 -4.1184,0 l -4.1184,-4.0326 c -1.140797,-1.11905 -1.140797,-2.913551 0,-4.0326 C 25.511198,12.255575 26.255599,12 27,12 z M 14.6448,24.3981 c 0.744401,0 1.488802,0.298476 2.0592,0.858 l 4.1184,4.0326 c 1.140797,1.11905 1.140797,2.91355 0,4.0326 -1.140797,1.11905 -2.977603,1.11905 -4.1184,0 l -4.1184,-4.0326 c -1.140797,-1.11905 -1.140797,-2.91355 0,-4.0326 0.570398,-0.559524 1.314799,-0.858 2.0592,-0.858 z"
       id="path4872" />
    <path
       style="opacity:0.8;fill:#000000;fill-opacity:1;fill-rule:evenodd;stroke:#000000;stroke-width:1.39999998000000003;stroke-linecap:round;stroke-linejoin:round;stroke-miterlimit:4;stroke-opacity:1"
       d="M 59,59 C 55.944662,62.055338 31.169356,46.243053 35.2,47.8 37.238804,48.587545 48.907673,42.380919 47.8,35.2 47.141282,30.929605 62.055337,55.944662 59,59 z"
       id="path4948"
       sodipodi:nodetypes="cssc" />
  </g>
</svg>
