<?xml version="1.0" encoding="UTF-8" standalone="no"?>
<!-- Created with Inkscape (http://www.inkscape.org/) -->

<svg
   xmlns:dc="http://purl.org/dc/elements/1.1/"
   xmlns:cc="http://creativecommons.org/ns#"
   xmlns:rdf="http://www.w3.org/1999/02/22-rdf-syntax-ns#"
   xmlns:svg="http://www.w3.org/2000/svg"
   xmlns="http://www.w3.org/2000/svg"
   xmlns:sodipodi="http://sodipodi.sourceforge.net/DTD/sodipodi-0.dtd"
   xmlns:inkscape="http://www.inkscape.org/namespaces/inkscape"
   width="64px"
   height="64px"
   id="svg2816"
   version="1.1"
   inkscape:version="0.47 r22583"
   sodipodi:docname="document-new.svg"
   inkscape:export-filename="/home/rob/.kde4/share/icons/nmfnms/48x48/actions/document-new.png"
   inkscape:export-xdpi="67.5"
   inkscape:export-ydpi="67.5"
   sodipodi:version="0.32"
   inkscape:output_extension="org.inkscape.output.svg.inkscape">
  <defs
     id="defs2818">
    <inkscape:perspective
       sodipodi:type="inkscape:persp3d"
       inkscape:vp_x="0 : 32 : 1"
       inkscape:vp_y="0 : 1000 : 0"
       inkscape:vp_z="64 : 32 : 1"
       inkscape:persp3d-origin="32 : 21.333333 : 1"
       id="perspective2824" />
    <inkscape:perspective
       id="perspective2453"
       inkscape:persp3d-origin="32 : 21.333333 : 1"
       inkscape:vp_z="64 : 32 : 1"
       inkscape:vp_y="0 : 1000 : 0"
       inkscape:vp_x="0 : 32 : 1"
       sodipodi:type="inkscape:persp3d" />
  </defs>
  <sodipodi:namedview
     id="base"
     pagecolor="#ffffff"
     bordercolor="#666666"
     borderopacity="1.0"
     inkscape:pageopacity="0.0"
     inkscape:pageshadow="2"
     inkscape:zoom="4.3199805"
     inkscape:cx="-14.150889"
     inkscape:cy="50.159298"
     inkscape:current-layer="layer1"
     showgrid="true"
     inkscape:document-units="px"
     inkscape:grid-bbox="true"
     inkscape:window-width="1337"
     inkscape:window-height="841"
     inkscape:window-x="124"
     inkscape:window-y="74"
     inkscape:window-maximized="0">
    <inkscape:grid
       type="xygrid"
       id="grid2826"
       empspacing="4"
       visible="true"
       enabled="true"
       snapvisiblegridlinesonly="true" />
  </sodipodi:namedview>
  <metadata
     id="metadata2821">
    <rdf:RDF>
      <cc:Work
         rdf:about="">
        <dc:format>image/svg+xml</dc:format>
        <dc:type
           rdf:resource="http://purl.org/dc/dcmitype/StillImage" />
        <dc:title />
      </cc:Work>
    </rdf:RDF>
  </metadata>
  <g
     id="layer1"
     inkscape:label="Layer 1"
     inkscape:groupmode="layer"
     style="opacity:1">
    <path
       id="path4897"
       style="opacity:0.8;fill:none;stroke:#000000;stroke-width:6.42857122000000025;stroke-linecap:round;stroke-linejoin:miter;stroke-miterlimit:4;stroke-dasharray:none;stroke-opacity:1"
       d="M 31,46 L 61,46 M 46,31 L 46,61" />
    <path
       style="opacity:1;fill:#000000;fill-opacity:1;fill-rule:evenodd;stroke:#000000;stroke-width:1.37280011000000002;stroke-linecap:round;stroke-linejoin:round;stroke-miterlimit:4;stroke-dasharray:none;stroke-opacity:1"
       d="M 20,1.0363505 C 15.741661,1.0363505 11.817082,2.4246672 8.6314999,4.7686505 L 35.4869,31.624051 C 37.830883,28.438469 39.2192,24.51389 39.2192,20.255551 C 39.2192,9.6410805 30.614471,1.0363505 20,1.0363505 L 20,1.0363505 z M 4.7275999,8.6296505 C 2.2622016,11.861281 0.7807999,15.877082 0.7807999,20.255551 C 0.7807999,30.870022 9.3855299,39.474751 20,39.474751 C 24.378469,39.474751 28.39427,37.993349 31.6259,35.527951 L 4.7275999,8.6296505 z M 24.1184,9.1015505 C 24.862801,9.1015505 25.607202,9.3571255 26.1776,9.9166505 L 30.296,13.949251 C 31.436797,15.068301 31.436797,16.862801 30.296,17.981851 C 29.155203,19.100901 27.318397,19.100901 26.1776,17.981851 L 22.0592,13.949251 C 20.918403,12.830201 20.918403,11.0357 22.0592,9.9166505 C 22.629598,9.3571255 23.373999,9.1015505 24.1184,9.1015505 z M 11.7632,21.499651 C 12.507601,21.499651 13.252002,21.798127 13.8224,22.357651 L 17.9408,26.390251 C 19.081597,27.509301 19.081597,29.303801 17.9408,30.422851 C 16.800003,31.541901 14.963197,31.541901 13.8224,30.422851 L 9.7039999,26.390251 C 8.5632029,25.271201 8.5632029,23.476701 9.7039999,22.357651 C 10.274398,21.798127 11.018799,21.499651 11.7632,21.499651 L 11.7632,21.499651 z"
       id="path4872" />
  </g>
</svg>
