<?xml version="1.0" encoding="UTF-8" standalone="no"?>
<!-- Created with Inkscape (http://www.inkscape.org/) -->

<svg
   xmlns:dc="http://purl.org/dc/elements/1.1/"
   xmlns:cc="http://creativecommons.org/ns#"
   xmlns:rdf="http://www.w3.org/1999/02/22-rdf-syntax-ns#"
   xmlns:svg="http://www.w3.org/2000/svg"
   xmlns="http://www.w3.org/2000/svg"
   xmlns:sodipodi="http://sodipodi.sourceforge.net/DTD/sodipodi-0.dtd"
   xmlns:inkscape="http://www.inkscape.org/namespaces/inkscape"
   width="64"
   height="64"
   id="svg2"
   version="1.1"
   inkscape:version="0.47pre2 r22153"
   sodipodi:docname="new-mail.svg">
  <defs
     id="defs4">
    <inkscape:perspective
       sodipodi:type="inkscape:persp3d"
       inkscape:vp_x="0 : 526.18109 : 1"
       inkscape:vp_y="0 : 1000 : 0"
       inkscape:vp_z="744.09448 : 526.18109 : 1"
       inkscape:persp3d-origin="372.04724 : 350.78739 : 1"
       id="perspective10" />
  </defs>
  <sodipodi:namedview
     id="base"
     pagecolor="#ffffff"
     bordercolor="#666666"
     borderopacity="1.0"
     inkscape:pageopacity="0.0"
     inkscape:pageshadow="2"
     inkscape:zoom="11.40625"
     inkscape:cx="32"
     inkscape:cy="28.449315"
     inkscape:document-units="px"
     inkscape:current-layer="layer1"
     showgrid="true"
     inkscape:window-width="1425"
     inkscape:window-height="969"
     inkscape:window-x="406"
     inkscape:window-y="116"
     inkscape:window-maximized="0">
    <inkscape:grid
       type="xygrid"
       id="grid2816"
       empspacing="4"
       visible="true"
       enabled="true"
       snapvisiblegridlinesonly="true" />
  </sodipodi:namedview>
  <metadata
     id="metadata7">
    <rdf:RDF>
      <cc:Work
         rdf:about="">
        <dc:format>image/svg+xml</dc:format>
        <dc:type
           rdf:resource="http://purl.org/dc/dcmitype/StillImage" />
        <dc:title></dc:title>
      </cc:Work>
    </rdf:RDF>
  </metadata>
  <g
     inkscape:label="Layer 1"
     inkscape:groupmode="layer"
     id="layer1"
     transform="translate(0,-988.36218)">
    <path
       style="opacity:0.66000001;fill:#000000;fill-opacity:1;fill-rule:nonzero;stroke:none"
       d="M 8 4 C 5.784 4 4 5.784 4 8 L 4 36 C 4 38.216 5.784 40 8 40 L 24 40 L 24 36 L 10 36 C 8.892 36 8 35.108 8 34 L 8 10 C 8 9.73339 8.062374 9.48218 8.15625 9.25 C 8.0653305 9.1449109 8 9.0505118 8 9 C 8 9.05051 8.0653305 9.14486 8.15625 9.25 C 10.059693 11.450092 30.942512 25 32 25 C 33.057488 25 53.940307 11.450092 55.84375 9.25 C 55.93467 9.14491 56 9.0505 56 9 C 56 9.0505118 55.934669 9.1449109 55.84375 9.25 C 55.93763 9.48218 56 9.73339 56 10 L 56 34 C 56 35.108 55.108 36 54 36 L 40 36 L 40 40 L 56 40 C 58.216 40 60 38.216 60 36 L 60 8 C 60 5.784 58.216 4 56 4 L 8 4 z M 11.84375 7.25 C 12.190915 7.4278317 12.669569 7.6910022 13.1875 8 L 50.8125 8 C 51.330431 7.6910022 51.809085 7.4278317 52.15625 7.25 C 51.791999 7.4339212 51.376456 7.6635424 50.8125 8 C 45.627541 11.09335 32.881451 20 32 20 C 31.118549 20 18.372459 11.09335 13.1875 8 C 12.647519 7.6778493 12.201478 7.4346895 11.84375 7.25 z M 9.3125 8.125 L 8.59375 8.59375 C 8.7970938 8.39041 9.0365509 8.22566 9.3125 8.125 z M 54.6875 8.125 C 54.963449 8.22566 55.202906 8.39041 55.40625 8.59375 L 54.6875 8.125 z "
       transform="translate(0,988.36218)"
       id="rect3738" />
    <path
       id="path3814"
       style="opacity:0.66000001;fill:#000000;fill-opacity:1;fill-rule:nonzero;stroke:none"
       d="m 20,1036.3622 c 8,3 16,3 24,0 l -12,16 -12,-16 z m 10,-16 c -1.108,0 -2,0.892 -2,2 l 0,16 c 2.666667,0.3333 5.333333,0.3333 8,0 l 0,-16 c 0,-1.108 -0.892,-2 -2,-2 l -4,0 z" />
  </g>
</svg>
