<?xml version="1.0" encoding="UTF-8" standalone="no"?>
<!-- Created with Inkscape (http://www.inkscape.org/) -->

<svg
   xmlns:dc="http://purl.org/dc/elements/1.1/"
   xmlns:cc="http://creativecommons.org/ns#"
   xmlns:rdf="http://www.w3.org/1999/02/22-rdf-syntax-ns#"
   xmlns:svg="http://www.w3.org/2000/svg"
   xmlns="http://www.w3.org/2000/svg"
   xmlns:sodipodi="http://sodipodi.sourceforge.net/DTD/sodipodi-0.dtd"
   xmlns:inkscape="http://www.inkscape.org/namespaces/inkscape"
   width="64"
   height="64"
   id="svg2"
   version="1.1"
   inkscape:version="0.47pre2 r22153"
   sodipodi:docname="antivirus.svg">
  <defs
     id="defs4">
    <inkscape:perspective
       sodipodi:type="inkscape:persp3d"
       inkscape:vp_x="0 : 526.18109 : 1"
       inkscape:vp_y="0 : 1000 : 0"
       inkscape:vp_z="744.09448 : 526.18109 : 1"
       inkscape:persp3d-origin="372.04724 : 350.78739 : 1"
       id="perspective10" />
  </defs>
  <sodipodi:namedview
     id="base"
     pagecolor="#ffffff"
     bordercolor="#666666"
     borderopacity="1.0"
     inkscape:pageopacity="0.0"
     inkscape:pageshadow="2"
     inkscape:zoom="6.21875"
     inkscape:cx="1.0720508"
     inkscape:cy="29.754864"
     inkscape:document-units="px"
     inkscape:current-layer="layer1"
     showgrid="true"
     inkscape:window-width="2048"
     inkscape:window-height="1095"
     inkscape:window-x="-4"
     inkscape:window-y="17"
     inkscape:window-maximized="1">
    <inkscape:grid
       type="xygrid"
       id="grid2816"
       empspacing="4"
       visible="true"
       enabled="true"
       snapvisiblegridlinesonly="true" />
  </sodipodi:namedview>
  <metadata
     id="metadata7">
    <rdf:RDF>
      <cc:Work
         rdf:about="">
        <dc:format>image/svg+xml</dc:format>
        <dc:type
           rdf:resource="http://purl.org/dc/dcmitype/StillImage" />
        <dc:title></dc:title>
      </cc:Work>
    </rdf:RDF>
  </metadata>
  <g
     inkscape:label="Layer 1"
     inkscape:groupmode="layer"
     id="layer1"
     transform="translate(0,-988.36218)">
    <path
       style="opacity:0.66000001;fill:#000000;fill-opacity:1;fill-rule:nonzero;stroke:none"
       d="M 20 4 C 17.784002 4 16 5.784 16 8 L 12 56 C 12 58.216 13.784002 60 16 60 L 48 60 C 50.215998 60 52 58.216 52 56 L 48 8 C 48 5.784 46.215998 4 44 4 L 20 4 z M 22 8 L 42 8 C 43.108 8 44 8.892 44 10 L 46 29 C 46 30.108 45.108 31 44 31 C 36 26 28 26 20 31 C 18.892 31 18 30.108 18 29 L 20 10 C 20 8.892 20.892 8 22 8 z M 22.78125 10 C 22.233718 10 21.8125 10.452468 21.8125 11 C 21.8125 11.547532 22.233718 12 22.78125 12 L 32 12 C 32.547532 12 33 11.547532 33 11 C 33 10.452468 32.547532 10 32 10 L 22.78125 10 z M 22.40625 13 C 21.852251 13 21.40625 13.446001 21.40625 14 C 21.40625 14.553999 21.852251 15 22.40625 15 L 31 15 C 31.553999 15 32 14.553999 32 14 C 32 13.446001 31.553999 13 31 13 L 22.40625 13 z M 21.875 16 C 21.383993 16 21 16.383993 21 16.875 L 21 17.125 C 21 17.616007 21.383993 18 21.875 18 L 30.125 18 C 30.616007 18 31 17.616007 31 17.125 L 31 16.875 C 31 16.383993 30.616007 16 30.125 16 L 21.875 16 z M 32 32 C 38.273336 32 43.635725 35.095139 45.875 39.46875 L 47 39 L 48 42 L 46.78125 42.125 C 46.903499 42.741882 47 43.355607 47 44 C 47 50.627417 40.284271 56 32 56 C 23.715729 56 17 50.627417 17 44 C 17 37.372583 23.715729 32 32 32 z "
       transform="translate(0,988.36218)"
       id="rect3735" />
    <path
       style="opacity:0.44000002;fill:#000000;fill-opacity:1;fill-rule:nonzero;stroke:none"
       d="M 31.40625 35 C 26.735554 35.173101 22.426743 37.405328 20.71875 40.90625 L 27.96875 42.90625 C 28.571972 41.662156 30.132706 40.75 32 40.75 C 33.628815 40.75 35.045188 41.439095 35.78125 42.4375 L 42.53125 39.65625 C 41.133859 37.749806 38.849075 36.310058 36.125 35.5625 C 34.569035 35.135502 32.963149 34.9423 31.40625 35 z M 36.3125 44 C 36.3125 45.246039 35.375163 46.33293 34 46.875 L 37.59375 51.96875 C 41.525238 50.40972 44 47.335402 44 44 L 36.3125 44 z M 27.75 44.46875 L 20.125 45.3125 C 20.385191 46.629334 21.045134 47.893138 22.03125 49 L 28.40625 45.8125 C 28.051206 45.418349 27.845221 44.960424 27.75 44.46875 z M 30 46.875 L 26.40625 51.96875 C 28.594069 52.834682 31.077706 53.174341 33.53125 52.9375 L 32.5625 47.21875 C 32.377582 47.236867 32.191505 47.25 32 47.25 C 31.275515 47.25 30.599672 47.111382 30 46.875 z "
       transform="translate(0,988.36218)"
       id="path3743" />
    <path
       sodipodi:type="arc"
       style="opacity:0.22000002;fill:#000000;fill-opacity:1;fill-rule:nonzero;stroke:none"
       id="path3754"
       sodipodi:cx="32"
       sodipodi:cy="44"
       sodipodi:rx="12"
       sodipodi:ry="9"
       d="m 44,44 a 12,9 0 1 1 -24,0 12,9 0 1 1 24,0 z"
       transform="translate(0,988.36218)" />
    <path
       transform="matrix(0.216,0,0,0.216,25.088,1022.8582)"
       d="m 44,44 a 12,9 0 1 1 -24,0 12,9 0 1 1 24,0 z"
       sodipodi:ry="9"
       sodipodi:rx="12"
       sodipodi:cy="44"
       sodipodi:cx="32"
       id="path3759"
       style="opacity:0.66000001;fill:#000000;fill-opacity:1;fill-rule:nonzero;stroke:none"
       sodipodi:type="arc" />
    <path
       style="opacity:0.67999988;fill:#000000;fill-opacity:1;fill-rule:nonzero;stroke:none"
       d="m 47,1027.3622 1,3 -11,1 10,-4 z"
       id="rect3779"
       sodipodi:nodetypes="cccc" />
    <path
       style="opacity:0.33;fill:#000000;fill-opacity:1;fill-rule:nonzero;stroke:none"
       d="M 22 8 C 20.892 8 20 8.892 20 10 L 18 29 C 18 30.108 18.892 31 20 31 C 28 26 36 26 44 31 C 45.108 31 46 30.108 46 29 L 44 10 C 44 8.892 43.108 8 42 8 L 22 8 z M 22.78125 10 L 32 10 C 32.547532 10 33 10.452468 33 11 C 33 11.547532 32.547532 12 32 12 L 22.78125 12 C 22.233718 12 21.8125 11.547532 21.8125 11 C 21.8125 10.452468 22.233718 10 22.78125 10 z M 22.40625 13 L 31 13 C 31.553999 13 32 13.446001 32 14 C 32 14.553999 31.553999 15 31 15 L 22.40625 15 C 21.852251 15 21.40625 14.553999 21.40625 14 C 21.40625 13.446001 21.852251 13 22.40625 13 z M 21.875 16 L 30.125 16 C 30.616007 16 31 16.383993 31 16.875 L 31 17.125 C 31 17.616007 30.616007 18 30.125 18 L 21.875 18 C 21.383993 18 21 17.616007 21 17.125 L 21 16.875 C 21 16.383993 21.383993 16 21.875 16 z "
       id="rect3791"
       transform="translate(0,988.36218)" />
  </g>
</svg>
