<?xml version="1.0" encoding="UTF-8" standalone="no"?>
<!-- Created with Inkscape (http://www.inkscape.org/) -->

<svg
   xmlns:dc="http://purl.org/dc/elements/1.1/"
   xmlns:cc="http://creativecommons.org/ns#"
   xmlns:rdf="http://www.w3.org/1999/02/22-rdf-syntax-ns#"
   xmlns:svg="http://www.w3.org/2000/svg"
   xmlns="http://www.w3.org/2000/svg"
   xmlns:sodipodi="http://sodipodi.sourceforge.net/DTD/sodipodi-0.dtd"
   xmlns:inkscape="http://www.inkscape.org/namespaces/inkscape"
   width="128"
   height="128"
   id="svg2"
   version="1.1"
   inkscape:version="0.47pre2 r22153"
   sodipodi:docname="media-skip-forward.svg"
   inkscape:export-filename="/home/rob/.kde4/share/icons/nmfnms/48x48/actions/media-skip-backward.png"
   inkscape:export-xdpi="33.75"
   inkscape:export-ydpi="33.75">
  <defs
     id="defs4">
    <inkscape:perspective
       sodipodi:type="inkscape:persp3d"
       inkscape:vp_x="0 : 526.18109 : 1"
       inkscape:vp_y="0 : 1000 : 0"
       inkscape:vp_z="744.09448 : 526.18109 : 1"
       inkscape:persp3d-origin="372.04724 : 350.78739 : 1"
       id="perspective10" />
  </defs>
  <sodipodi:namedview
     id="base"
     pagecolor="#ffffff"
     bordercolor="#666666"
     borderopacity="1.0"
     inkscape:pageopacity="0.0"
     inkscape:pageshadow="2"
     inkscape:zoom="1.5117188"
     inkscape:cx="144.42437"
     inkscape:cy="38.40088"
     inkscape:document-units="px"
     inkscape:current-layer="layer1"
     showgrid="true"
     inkscape:window-width="1162"
     inkscape:window-height="1084"
     inkscape:window-x="228"
     inkscape:window-y="20"
     inkscape:window-maximized="0">
    <inkscape:grid
       type="xygrid"
       id="grid2816"
       empspacing="4"
       visible="true"
       enabled="true"
       snapvisiblegridlinesonly="true" />
  </sodipodi:namedview>
  <metadata
     id="metadata7">
    <rdf:RDF>
      <cc:Work
         rdf:about="">
        <dc:format>image/svg+xml</dc:format>
        <dc:type
           rdf:resource="http://purl.org/dc/dcmitype/StillImage" />
        <dc:title></dc:title>
      </cc:Work>
    </rdf:RDF>
  </metadata>
  <g
     inkscape:label="Layer 1"
     inkscape:groupmode="layer"
     id="layer1"
     transform="translate(0,-924.36218)">
    <path
       style="opacity:0.66000001;fill:#000000;fill-opacity:1;fill-rule:nonzero;stroke:none"
       d="M 15.25 4 C 9.0175 4 4 9.0175005 4 15.25 L 4 112.75 C 4 118.9825 9.0175 124 15.25 124 L 112.75 124 C 118.9825 124 124 118.9825 124 112.75 L 124 15.25 C 124 9.0175005 118.9825 4 112.75 4 L 15.25 4 z M 24 16 L 104 16 C 108.432 16 112 19.568 112 24 L 112 28 L 112 104 C 112 108.432 108.432 112 104 112 L 28 112 L 24 112 C 19.568 112 16 108.432 16 104 L 16 24 C 16 19.568 19.568 16 24 16 z "
       transform="translate(0,924.36218)"
       id="rect2873" />
    <rect
       style="opacity:0.3;fill:#000000;fill-opacity:1;fill-rule:nonzero;stroke:none"
       id="rect2878"
       width="76"
       height="16"
       x="26"
       y="952.36218"
       rx="8"
       ry="6.3782506" />
    <rect
       style="opacity:0.3;fill:#000000;fill-opacity:1;fill-rule:nonzero;stroke:none"
       id="rect2880"
       width="76"
       height="16"
       x="26"
       y="976.36218"
       rx="8"
       ry="5.9999986" />
    <rect
       style="opacity:0.3;fill:#000000;fill-opacity:1;fill-rule:nonzero;stroke:none"
       id="rect2882"
       width="76"
       height="16"
       x="26"
       y="1000.3622"
       rx="8"
       ry="5.9999986" />
    <path
       id="rect3658"
       style="opacity:0.66000007;fill:#000000;fill-opacity:1;fill-rule:nonzero;stroke:none"
       d="m 85.71875,957.92468 c -1.285669,0.0682 -2.462342,0.55609 -3.34375,1.4375 l -18.375,18.375 11.3125,11.3125 18.375,-18.375 c 2.35042,-2.35042 1.727647,-6.77235 -1.40625,-9.90625 -1.958686,-1.95869 -4.419718,-2.95736 -6.5625,-2.84375 z m -33.03125,31.125 -18.375,18.37502 c -2.350422,2.3504 -1.727647,6.7723 1.40625,9.9062 3.133897,3.1339 7.555828,3.7567 9.90625,1.4063 L 64,1000.3622 52.6875,989.04968 z M 35.715762,960.7654 c 3.133898,-3.13389 7.549072,-3.76463 9.899495,-1.41421 l 48.083261,48.08331 c 2.350422,2.3504 1.719684,6.7656 -1.414213,9.8994 -3.133897,3.1339 -7.549072,3.7647 -9.899495,1.4143 L 34.301549,970.6649 c -2.350423,-2.35042 -1.719684,-6.7656 1.414213,-9.8995 z" />
  </g>
</svg>
