<?xml version="1.0" encoding="UTF-8" standalone="no"?>
<!-- Created with Inkscape (http://www.inkscape.org/) -->

<svg
   xmlns:dc="http://purl.org/dc/elements/1.1/"
   xmlns:cc="http://creativecommons.org/ns#"
   xmlns:rdf="http://www.w3.org/1999/02/22-rdf-syntax-ns#"
   xmlns:svg="http://www.w3.org/2000/svg"
   xmlns="http://www.w3.org/2000/svg"
   xmlns:sodipodi="http://sodipodi.sourceforge.net/DTD/sodipodi-0.dtd"
   xmlns:inkscape="http://www.inkscape.org/namespaces/inkscape"
   width="128"
   height="128"
   id="svg2"
   version="1.1"
   inkscape:version="0.47pre2 r22153"
   sodipodi:docname="system-search.svg">
  <defs
     id="defs4">
    <inkscape:perspective
       sodipodi:type="inkscape:persp3d"
       inkscape:vp_x="0 : 526.18109 : 1"
       inkscape:vp_y="0 : 1000 : 0"
       inkscape:vp_z="744.09448 : 526.18109 : 1"
       inkscape:persp3d-origin="372.04724 : 350.78739 : 1"
       id="perspective10" />
  </defs>
  <sodipodi:namedview
     id="base"
     pagecolor="#ffffff"
     bordercolor="#666666"
     borderopacity="1.0"
     inkscape:pageopacity="0.0"
     inkscape:pageshadow="2"
     inkscape:zoom="5.5078125"
     inkscape:cx="64"
     inkscape:cy="92.958865"
     inkscape:document-units="px"
     inkscape:current-layer="layer1"
     showgrid="true"
     inkscape:window-width="1186"
     inkscape:window-height="944"
     inkscape:window-x="197"
     inkscape:window-y="54"
     inkscape:window-maximized="0">
    <inkscape:grid
       type="xygrid"
       id="grid2816"
       empspacing="4"
       visible="true"
       enabled="true"
       snapvisiblegridlinesonly="true" />
  </sodipodi:namedview>
  <metadata
     id="metadata7">
    <rdf:RDF>
      <cc:Work
         rdf:about="">
        <dc:format>image/svg+xml</dc:format>
        <dc:type
           rdf:resource="http://purl.org/dc/dcmitype/StillImage" />
        <dc:title></dc:title>
      </cc:Work>
    </rdf:RDF>
  </metadata>
  <g
     inkscape:label="Layer 1"
     inkscape:groupmode="layer"
     id="layer1"
     transform="translate(0,-924.36218)">
    <g
       id="g4008">
      <path
         transform="translate(4,952.36218)"
         d="m 80,76 a 32,24 0 1 1 -64,0 32,24 0 1 1 64,0 z"
         sodipodi:ry="24"
         sodipodi:rx="32"
         sodipodi:cy="76"
         sodipodi:cx="48"
         id="path3983"
         style="opacity:0.73000004;fill:#000000;fill-opacity:1;fill-rule:nonzero;stroke:none"
         sodipodi:type="arc" />
      <path
         sodipodi:nodetypes="cccccc"
         id="rect3985"
         transform="translate(0,924.36218)"
         d="m 64,4 6.71875,80.53125 C 77.400807,88.148539 82.110129,93.650063 83.53125,100 L 84,100 68,4 C 68,2 64,2 64,4 z"
         style="opacity:0.73000004;fill:#000000;fill-opacity:1;fill-rule:nonzero;stroke:none" />
      <path
         id="rect3991"
         transform="translate(0,924.36218)"
         d="M 68 4 L 69.59375 13.46875 C 81.126599 24.383323 84.685455 32 100 32 L 100 24 C 84 24 82.666667 15.35919 68 4 z "
         style="opacity:0.73000004;fill:#000000;fill-opacity:1;fill-rule:nonzero;stroke:none" />
      <path
         sodipodi:nodetypes="cccc"
         id="rect3994"
         d="m 100,948.36218 c 8,0 14.62652,8.47121 16,20 -4.76422,-8.42481 -8,-12 -16,-12 l 0,-8 z"
         style="opacity:0.73000004;fill:#000000;fill-opacity:1;fill-rule:nonzero;stroke:none" />
    </g>
    <g
       id="g4014"
       transform="matrix(2,0,0,2,-49.4375,-1021.4247)"
       style="opacity:0.22000001">
      <path
         sodipodi:type="arc"
         style="opacity:0.73000003999999985;fill:#000000;fill-opacity:1;fill-rule:nonzero;stroke:none"
         id="path4016"
         sodipodi:cx="48"
         sodipodi:cy="76"
         sodipodi:rx="32"
         sodipodi:ry="24"
         d="M 80,76 C 80,89.254834 65.673112,100 48,100 30.326888,100 16,89.254834 16,76 16,62.745166 30.326888,52 48,52 65.673112,52 80,62.745166 80,76 z"
         transform="translate(4,952.36218)" />
      <path
         style="opacity:0.73000003999999985;fill:#000000;fill-opacity:1;fill-rule:nonzero;stroke:none"
         d="m 64,4 6.71875,80.53125 C 77.400807,88.148539 82.110129,93.650063 83.53125,100 L 84,100 68,4 C 68,2 64,2 64,4 z"
         transform="translate(0,924.36218)"
         id="path4018"
         sodipodi:nodetypes="cccccc" />
      <path
         style="opacity:0.73000003999999985;fill:#000000;fill-opacity:1;fill-rule:nonzero;stroke:none"
         d="m 68,4 1.59375,9.46875 C 81.126599,24.383323 84.685455,32 100,32 l 0,-8 C 84,24 82.666667,15.35919 68,4 z"
         transform="translate(0,924.36218)"
         id="path4020" />
      <path
         style="opacity:0.73000003999999985;fill:#000000;fill-opacity:1;fill-rule:nonzero;stroke:none"
         d="m 100,948.36218 c 8,0 14.62652,8.47121 16,20 -4.76422,-8.42481 -8,-12 -16,-12 l 0,-8 z"
         id="path4022"
         sodipodi:nodetypes="cccc" />
    </g>
  </g>
</svg>
