<?xml version="1.0" encoding="UTF-8" standalone="no"?>
<!-- Created with Inkscape (http://www.inkscape.org/) -->

<svg
   xmlns:dc="http://purl.org/dc/elements/1.1/"
   xmlns:cc="http://creativecommons.org/ns#"
   xmlns:rdf="http://www.w3.org/1999/02/22-rdf-syntax-ns#"
   xmlns:svg="http://www.w3.org/2000/svg"
   xmlns="http://www.w3.org/2000/svg"
   xmlns:sodipodi="http://sodipodi.sourceforge.net/DTD/sodipodi-0.dtd"
   xmlns:inkscape="http://www.inkscape.org/namespaces/inkscape"
   width="128"
   height="128"
   id="svg2"
   version="1.1"
   inkscape:version="0.47pre2 r22153"
   sodipodi:docname="dialog-cancel.svg">
  <defs
     id="defs4">
    <inkscape:perspective
       sodipodi:type="inkscape:persp3d"
       inkscape:vp_x="0 : 526.18109 : 1"
       inkscape:vp_y="0 : 1000 : 0"
       inkscape:vp_z="744.09448 : 526.18109 : 1"
       inkscape:persp3d-origin="372.04724 : 350.78739 : 1"
       id="perspective10" />
  </defs>
  <sodipodi:namedview
     id="base"
     pagecolor="#ffffff"
     bordercolor="#666666"
     borderopacity="1.0"
     inkscape:pageopacity="0.0"
     inkscape:pageshadow="2"
     inkscape:zoom="6.6328125"
     inkscape:cx="64"
     inkscape:cy="63.924617"
     inkscape:document-units="px"
     inkscape:current-layer="layer1"
     showgrid="true"
     inkscape:window-width="1285"
     inkscape:window-height="1088"
     inkscape:window-x="113"
     inkscape:window-y="19"
     inkscape:window-maximized="0">
    <inkscape:grid
       type="xygrid"
       id="grid2816"
       empspacing="4"
       visible="true"
       enabled="true"
       snapvisiblegridlinesonly="true" />
  </sodipodi:namedview>
  <metadata
     id="metadata7">
    <rdf:RDF>
      <cc:Work
         rdf:about="">
        <dc:format>image/svg+xml</dc:format>
        <dc:type
           rdf:resource="http://purl.org/dc/dcmitype/StillImage" />
        <dc:title></dc:title>
      </cc:Work>
    </rdf:RDF>
  </metadata>
  <g
     inkscape:label="Layer 1"
     inkscape:groupmode="layer"
     id="layer1"
     transform="translate(0,-924.36218)">
    <path
       style="opacity:0.66000007;fill:#000000;fill-opacity:1;fill-rule:nonzero;stroke:none"
       d="M 64 0 C 28.653776 0 0 28.65378 0 64 C 0 99.34622 28.653776 128 64 128 C 99.346224 128 128 99.34622 128 64 C 128 28.65378 99.346224 0 64 0 z M 44 16 C 50.627417 16.000001 56 21.372582 56 28 C 56 34.627416 50.627418 40 44 40 C 37.372584 40 32.000001 34.627417 32 28 C 32.000001 21.372583 37.372583 16.000001 44 16 z M 84 16 C 90.627417 16 96.000001 21.372583 96 28 C 96.000001 34.627417 90.627418 40 84 40 C 77.372584 40 72.000001 34.627417 72 28 C 72.000001 21.372583 77.372584 16 84 16 z M 64 48 C 72.836556 48 80 55.16344 80 64 C 80 72.83656 72.836556 80 64 80 C 55.163444 80 48 72.83656 48 64 C 48 55.16344 55.163444 48 64 48 z M 23.15625 51.3125 C 25.090604 51.362739 27.018903 51.901966 28.8125 52.9375 C 34.552011 56.251209 36.532458 63.572989 33.21875 69.3125 C 29.905041 75.052011 22.552011 77.032459 16.8125 73.71875 C 11.072989 70.405041 9.1237915 63.052011 12.4375 57.3125 C 14.715675 53.366586 18.900671 51.201974 23.15625 51.3125 z M 105.5 52.6875 C 107.43435 52.737739 109.3939 53.245716 111.1875 54.28125 C 116.92701 57.59496 118.87621 64.947989 115.5625 70.6875 C 112.24879 76.427011 104.92701 78.37621 99.1875 75.0625 C 93.447989 71.748792 91.467542 64.427011 94.78125 58.6875 C 97.059425 54.741586 101.24442 52.576974 105.5 52.6875 z M 44 88 C 50.627418 88 56 93.372584 56 100 C 56.000002 106.62741 50.627418 112 44 112 C 37.372583 112 32.000001 106.62742 32 100 C 32 93.372585 37.372584 88 44 88 z M 84 88 C 90.627416 88 95.999998 93.372583 96 100 C 96.000001 106.62742 90.627424 112 84 112 C 77.372586 112 71.999999 106.62742 72 100 C 71.999999 93.372583 77.372582 88 84 88 z "
       transform="translate(0,924.36218)"
       id="path3047" />
    <path
       sodipodi:type="arc"
       style="opacity:0.66000007;fill:#000000;fill-opacity:1;fill-rule:nonzero;stroke:none"
       id="path3174"
       sodipodi:cx="64"
       sodipodi:cy="64"
       sodipodi:rx="8"
       sodipodi:ry="8"
       d="m 72,64 a 8,8 0 1 1 -16,0 8,8 0 1 1 16,0 z"
       transform="translate(0,924.36218)" />
  </g>
</svg>
