<?xml version="1.0" encoding="UTF-8" standalone="no"?>
<!-- Created with Inkscape (http://www.inkscape.org/) -->
<svg
   xmlns:dc="http://purl.org/dc/elements/1.1/"
   xmlns:cc="http://creativecommons.org/ns#"
   xmlns:rdf="http://www.w3.org/1999/02/22-rdf-syntax-ns#"
   xmlns:svg="http://www.w3.org/2000/svg"
   xmlns="http://www.w3.org/2000/svg"
   xmlns:sodipodi="http://sodipodi.sourceforge.net/DTD/sodipodi-0.dtd"
   xmlns:inkscape="http://www.inkscape.org/namespaces/inkscape"
   width="64"
   height="64"
   id="svg2"
   version="1.1"
   inkscape:version="0.46+devel"
   inkscape:export-filename="/home/rob/.kde4/share/icons/nmfnms/48x48/actions/go-up.png"
   inkscape:export-xdpi="67.5"
   inkscape:export-ydpi="67.5"
   sodipodi:docname="go-up.svg"
   sodipodi:version="0.32"
   inkscape:output_extension="org.inkscape.output.svg.inkscape">
  <defs
     id="defs4">
    <inkscape:perspective
       sodipodi:type="inkscape:persp3d"
       inkscape:vp_x="0 : 526.18109 : 1"
       inkscape:vp_y="0 : 1000 : 0"
       inkscape:vp_z="744.09448 : 526.18109 : 1"
       inkscape:persp3d-origin="372.04724 : 350.78739 : 1"
       id="perspective10" />
  </defs>
  <sodipodi:namedview
     id="base"
     pagecolor="#ffffff"
     bordercolor="#666666"
     borderopacity="1.0"
     inkscape:pageopacity="0.0"
     inkscape:pageshadow="2"
     inkscape:zoom="6.609375"
     inkscape:cx="20.294582"
     inkscape:cy="30.0239"
     inkscape:document-units="px"
     inkscape:current-layer="layer1"
     showgrid="true"
     inkscape:window-width="1346"
     inkscape:window-height="841"
     inkscape:window-x="357"
     inkscape:window-y="346"
     inkscape:window-maximized="0">
    <inkscape:grid
       type="xygrid"
       id="grid2816"
       empspacing="4"
       visible="true"
       enabled="true"
       snapvisiblegridlinesonly="true" />
  </sodipodi:namedview>
  <metadata
     id="metadata7">
    <rdf:RDF>
      <cc:Work
         rdf:about="">
        <dc:format>image/svg+xml</dc:format>
        <dc:type
           rdf:resource="http://purl.org/dc/dcmitype/StillImage" />
        <dc:title />
      </cc:Work>
    </rdf:RDF>
  </metadata>
  <g
     inkscape:label="Layer 1"
     inkscape:groupmode="layer"
     id="layer1"
     transform="translate(0,-988.36218)">
    <g
       id="g2567">
      <path
         id="rect2867"
         d="M 63.88975,1047.4679 C 57.05319,1025.5753 47.6735,1007.1946 35.4041,988.31452 l 0,31.79588 c 8.4304,1.636584 14.8125,9.173351 14.8125,18.262622 0,4.014536 -1.2327,7.727001 -3.347,10.768399 4.0806,0.763976 8.16817,1.818611 12.2488,3.201415 2.64764,0 4.77135,-2.169791 4.77135,-4.874883 z M 28.5676,988.31452 C 16.0339,1006.9409 6.9185,1025.5753 0.0819,1047.4679 c 0,2.705092 2.1237,4.874883 4.7714,4.874883 4.0806,-1.400413 8.1681,-2.474671 12.2488,-3.237795 -2.1045,-3.03706 -3.3471,-6.727771 -3.3471,-10.732019 0,-9.089271 6.3821,-16.626038 14.8126,-18.262622 z"
         style="opacity:1;fill:#000000;fill-opacity:1;fill-rule:nonzero;stroke:none" />
      <path
         transform="matrix(0,1.506656,-1.4746559,0,79.17481,965.55534)"
         d="M 56,32 A 8,8 0 1 1 40,32 8,8 0 1 1 56,32 z"
         sodipodi:ry="8"
         sodipodi:rx="8"
         sodipodi:cy="32"
         sodipodi:cx="48"
         id="path2915"
         style="opacity:1;fill:#000000;fill-opacity:1;fill-rule:nonzero;stroke:none"
         sodipodi:type="arc" />
    </g>
  </g>
</svg>
