<?xml version="1.0" encoding="UTF-8" standalone="no"?>
<!-- Created with Inkscape (http://www.inkscape.org/) -->
<svg
   xmlns:dc="http://purl.org/dc/elements/1.1/"
   xmlns:cc="http://creativecommons.org/ns#"
   xmlns:rdf="http://www.w3.org/1999/02/22-rdf-syntax-ns#"
   xmlns:svg="http://www.w3.org/2000/svg"
   xmlns="http://www.w3.org/2000/svg"
   xmlns:sodipodi="http://sodipodi.sourceforge.net/DTD/sodipodi-0.dtd"
   xmlns:inkscape="http://www.inkscape.org/namespaces/inkscape"
   width="64px"
   height="64px"
   id="svg2383"
   sodipodi:version="0.32"
   inkscape:version="0.46+devel"
   sodipodi:docname="help.svg"
   inkscape:output_extension="org.inkscape.output.svg.inkscape"
   version="1.1">
  <defs
     id="defs2385">
    <inkscape:perspective
       sodipodi:type="inkscape:persp3d"
       inkscape:vp_x="0 : 32 : 1"
       inkscape:vp_y="0 : 1000 : 0"
       inkscape:vp_z="64 : 32 : 1"
       inkscape:persp3d-origin="32 : 21.333333 : 1"
       id="perspective2391" />
  </defs>
  <sodipodi:namedview
     id="base"
     pagecolor="#ffffff"
     bordercolor="#666666"
     borderopacity="1.0"
     inkscape:pageopacity="0.0"
     inkscape:pageshadow="2"
     inkscape:zoom="11.90625"
     inkscape:cx="32"
     inkscape:cy="32"
     inkscape:current-layer="layer1"
     showgrid="true"
     inkscape:document-units="px"
     inkscape:grid-bbox="true"
     inkscape:window-width="1580"
     inkscape:window-height="1009"
     inkscape:window-x="0"
     inkscape:window-y="26"
     inkscape:window-maximized="0">
    <inkscape:grid
       type="xygrid"
       id="grid3165"
       empspacing="4"
       visible="true"
       enabled="true"
       snapvisiblegridlinesonly="true" />
  </sodipodi:namedview>
  <metadata
     id="metadata2388">
    <rdf:RDF>
      <cc:Work
         rdf:about="">
        <dc:format>image/svg+xml</dc:format>
        <dc:type
           rdf:resource="http://purl.org/dc/dcmitype/StillImage" />
        <dc:title />
      </cc:Work>
    </rdf:RDF>
  </metadata>
  <g
     id="layer1"
     inkscape:label="Layer 1"
     inkscape:groupmode="layer">
    <g
       id="g2690">
      <path
         id="path3622"
         d="M 32 0 C 14.326888 3.5527137e-15 -6.3297966e-17 14.326888 0 32 C 0 49.673112 14.326888 64 32 64 C 49.673112 64 64 49.673112 64 32 C 64 14.326888 49.673112 -7.1687253e-15 32 0 z M 32 8 C 45.254834 8 56 18.745166 56 32 C 56 45.254834 45.254834 56 32 56 C 18.745166 56 8 45.254834 8 32 C 8 18.745166 18.745166 8 32 8 z "
         style="opacity:1;fill:#000000;fill-opacity:1;fill-rule:nonzero;stroke:none" />
      <path
         id="path3725"
         d="M 32.09375 12 C 26.978245 11.961358 22.200561 15.214172 20.5625 20.34375 L 24.40625 21.5625 C 25.43933 18.339864 28.434312 16 32 16 C 36.418278 16 40 19.581722 40 24 C 40 28.407673 36.434901 31.982863 32.03125 32 L 34 32 L 34 35.84375 C 38.371657 35.106923 42.056215 31.981735 43.4375 27.65625 C 45.453576 21.342923 41.969577 14.578576 35.65625 12.5625 C 34.472501 12.184486 33.274251 12.008917 32.09375 12 z "
         style="opacity:1;fill:#000000;fill-opacity:1;fill-rule:nonzero;stroke:none" />
      <path
         id="rect3730"
         d="M 30 32 L 30 40.5625 C 30.589088 40.220984 31.27007 40 32 40 C 32.72993 40 33.410912 40.220984 34 40.5625 L 34 32 L 30 32 z "
         style="opacity:1;fill:#000000;fill-opacity:1;fill-rule:nonzero;stroke:none" />
      <path
         transform="translate(0,4)"
         d="m 36,44 a 4,4 0 1 1 -8,0 4,4 0 1 1 8,0 z"
         sodipodi:ry="4"
         sodipodi:rx="4"
         sodipodi:cy="44"
         sodipodi:cx="32"
         id="path3740"
         style="opacity:1;fill:#000000;fill-opacity:1;fill-rule:nonzero;stroke:none"
         sodipodi:type="arc" />
    </g>
  </g>
</svg>
