<?xml version="1.0" encoding="UTF-8" standalone="no"?>
<!-- Created with Inkscape (http://www.inkscape.org/) -->
<svg
   xmlns:dc="http://purl.org/dc/elements/1.1/"
   xmlns:cc="http://creativecommons.org/ns#"
   xmlns:rdf="http://www.w3.org/1999/02/22-rdf-syntax-ns#"
   xmlns:svg="http://www.w3.org/2000/svg"
   xmlns="http://www.w3.org/2000/svg"
   xmlns:sodipodi="http://sodipodi.sourceforge.net/DTD/sodipodi-0.dtd"
   xmlns:inkscape="http://www.inkscape.org/namespaces/inkscape"
   width="128"
   height="128"
   id="svg2"
   sodipodi:version="0.32"
   inkscape:version="0.46+devel"
   version="1.0"
   sodipodi:docname="home.svg"
   inkscape:output_extension="org.inkscape.output.svg.inkscape">
  <defs
     id="defs4">
    <inkscape:perspective
       sodipodi:type="inkscape:persp3d"
       inkscape:vp_x="0 : 526.18109 : 1"
       inkscape:vp_y="0 : 1000 : 0"
       inkscape:vp_z="744.09448 : 526.18109 : 1"
       inkscape:persp3d-origin="372.04724 : 350.78739 : 1"
       id="perspective10" />
  </defs>
  <sodipodi:namedview
     id="base"
     pagecolor="#ffffff"
     bordercolor="#666666"
     borderopacity="1.0"
     inkscape:pageopacity="0.0"
     inkscape:pageshadow="2"
     inkscape:zoom="2.8"
     inkscape:cx="12.015357"
     inkscape:cy="31.146971"
     inkscape:document-units="px"
     inkscape:current-layer="layer1"
     showgrid="true"
     showguides="true"
     inkscape:guide-bbox="true"
     inkscape:window-width="1600"
     inkscape:window-height="1155"
     inkscape:window-x="0"
     inkscape:window-y="24"
     inkscape:snap-global="false">
    <inkscape:grid
       type="xygrid"
       id="grid3227"
       empspacing="5"
       visible="true"
       enabled="true" />
  </sodipodi:namedview>
  <metadata
     id="metadata7">
    <rdf:RDF>
      <cc:Work
         rdf:about="">
        <dc:format>image/svg+xml</dc:format>
        <dc:type
           rdf:resource="http://purl.org/dc/dcmitype/StillImage" />
      </cc:Work>
    </rdf:RDF>
  </metadata>
  <g
     inkscape:label="Ebene 1"
     inkscape:groupmode="layer"
     id="layer1">
    <path
       transform="scale(1.0006562,0.9993442)"
       style="font-size:141.26359558px;font-style:normal;font-variant:normal;font-weight:normal;font-stretch:normal;text-align:end;line-height:100%;writing-mode:lr-tb;text-anchor:end;opacity:0.66000001;fill:#000000;fill-opacity:1;stroke:#000000;stroke-width:8;stroke-miterlimit:4;stroke-opacity:1;font-family:Luxi Sans;-inkscape-font-specification:Luxi Sans"
       d="M 45.659099,61.731291 60.489017,49.281057 C 62.098406,48.338447 63.420452,47.867109 64.455158,47.867042 65.972575,47.867109 67.271628,48.407423 68.352323,49.487986 69.432886,50.568681 69.9732,51.867734 69.973267,53.385151 69.9732,54.787731 69.409893,55.914344 68.283346,56.764993 L 48.625082,72.457116 C 48.441099,72.595111 48.084722,72.779048 47.555949,73.008927 47.050077,73.23889 46.325826,73.434323 45.383193,73.595226 44.141577,73.135426 43.290869,72.756056 42.831068,72.457116 L 28.863354,61.144992 13.309183,73.284832 C 11.975631,74.365503 10.515633,75.032274 8.9291842,75.285147 7.7565808,75.285187 6.6759522,74.687392 5.687295,73.491761 4.6986317,72.296214 4.1353252,71.054641 3.9973741,69.767038 4.2962699,67.950707 4.9055606,66.628662 5.8252477,65.800897 L 24.897213,50.970978 C 25.127111,50.741121 25.540969,50.45372 26.138787,50.108774 26.75955,49.740965 27.57577,49.557028 28.587448,49.556963 29.668051,49.557028 30.656711,49.84443 31.553432,50.419167 L 45.659099,61.731291 M 61.633025,106.359 113.46876,16.241378 C 114.87123,13.96526 116.52666,12.827151 118.43506,12.827048 119.97547,12.827151 121.27453,13.401953 122.33223,14.551457 123.3898,15.678171 123.91862,16.942736 123.91868,18.345158 123.91862,19.28793 123.55075,20.518008 122.81506,22.035393 L 70.668929,111.15286 C 68.990495,113.88892 66.96719,115.25695 64.599008,115.25695 63.541367,115.119 62.621684,114.67065 61.839954,113.91191 61.081213,113.13018 60.632867,112.2105 60.494915,111.15286 60.494914,110.78499 60.402946,110.50908 60.219009,110.32514 60.586883,108.43979 61.058221,107.11775 61.633025,106.359 M 107.96452,103.11711 C 109.48199,103.11712 110.82703,103.72641 111.99964,104.94498 113.17222,106.14058 113.75852,107.5546 113.75853,109.18703 113.75852,110.93444 113.17222,112.38294 111.99964,113.53254 110.82703,114.68215 109.48199,115.25695 107.96452,115.25695 106.33207,115.25695 104.90656,114.68215 103.68799,113.53254 102.49239,112.35995 101.8946,110.91144 101.8946,109.18703 101.8946,107.57759 102.49239,106.16358 103.68799,104.94498 104.88357,103.72641 106.30908,103.11712 107.96452,103.11711"
       id="text2481" />
  </g>
</svg>
