<?xml version="1.0" encoding="UTF-8" standalone="no"?>
<!-- Created with Inkscape (http://www.inkscape.org/) -->
<svg
   xmlns:dc="http://purl.org/dc/elements/1.1/"
   xmlns:cc="http://creativecommons.org/ns#"
   xmlns:rdf="http://www.w3.org/1999/02/22-rdf-syntax-ns#"
   xmlns:svg="http://www.w3.org/2000/svg"
   xmlns="http://www.w3.org/2000/svg"
   xmlns:sodipodi="http://sodipodi.sourceforge.net/DTD/sodipodi-0.dtd"
   xmlns:inkscape="http://www.inkscape.org/namespaces/inkscape"
   width="128"
   height="128"
   id="svg2"
   sodipodi:version="0.32"
   inkscape:version="0.46+devel"
   version="1.0"
   sodipodi:docname="home.svg"
   inkscape:output_extension="org.inkscape.output.svg.inkscape">
  <defs
     id="defs4">
    <inkscape:perspective
       sodipodi:type="inkscape:persp3d"
       inkscape:vp_x="0 : 526.18109 : 1"
       inkscape:vp_y="0 : 1000 : 0"
       inkscape:vp_z="744.09448 : 526.18109 : 1"
       inkscape:persp3d-origin="372.04724 : 350.78739 : 1"
       id="perspective10" />
  </defs>
  <sodipodi:namedview
     id="base"
     pagecolor="#ffffff"
     bordercolor="#666666"
     borderopacity="1.0"
     inkscape:pageopacity="0.0"
     inkscape:pageshadow="2"
     inkscape:zoom="1.4"
     inkscape:cx="-31.818374"
     inkscape:cy="31.146971"
     inkscape:document-units="px"
     inkscape:current-layer="layer1"
     showgrid="true"
     showguides="true"
     inkscape:guide-bbox="true"
     inkscape:window-width="1600"
     inkscape:window-height="1155"
     inkscape:window-x="0"
     inkscape:window-y="24"
     inkscape:snap-global="false">
    <inkscape:grid
       type="xygrid"
       id="grid3227"
       empspacing="5"
       visible="true"
       enabled="true" />
  </sodipodi:namedview>
  <metadata
     id="metadata7">
    <rdf:RDF>
      <cc:Work
         rdf:about="">
        <dc:format>image/svg+xml</dc:format>
        <dc:type
           rdf:resource="http://purl.org/dc/dcmitype/StillImage" />
      </cc:Work>
    </rdf:RDF>
  </metadata>
  <g
     inkscape:label="Ebene 1"
     inkscape:groupmode="layer"
     id="layer1">
    <path
       transform="scale(1.0032337,0.9967767)"
       style="font-size:128.1857605px;font-style:normal;font-variant:normal;font-weight:normal;font-stretch:normal;text-align:end;line-height:110.00000238%;writing-mode:lr-tb;text-anchor:end;opacity:0.66000001;fill:#000000;fill-opacity:1;stroke:#000000;stroke-width:4;stroke-miterlimit:4;font-family:Caslon Bd BT;-inkscape-font-specification:Caslon Bd BT"
       d="M 86.616169,67.868521 C 82.318182,70.831182 78.1872,73.042718 74.223209,74.503136 70.300779,75.963615 66.48275,76.693839 62.769111,76.69381 60.933047,76.693839 58.992737,76.526931 56.948175,76.193085 54.945209,75.81757 52.900581,75.254254 50.814286,74.503136 49.771049,74.16935 48.185419,73.626898 46.057393,72.875777 37.211194,69.788005 30.555722,68.244102 26.090958,68.244065 22.669301,68.244102 19.039044,69.036917 15.200176,70.622512 11.361259,72.208176 6.9590507,74.753529 1.9935376,78.258578 l 0,-11.704462 C 6.4165984,63.549804 10.631035,61.317405 14.63686,59.856911 18.642637,58.354781 22.502393,57.603694 26.21614,57.603646 28.803184,57.603694 31.411128,57.854056 34.039978,58.354734 36.710469,58.855506 40.236408,59.856957 44.617807,61.359088 45.160205,61.52604 46.036474,61.838994 47.246616,62.297948 54.089803,64.718163 59.30569,65.928249 62.894292,65.928209 66.441023,65.928249 70.133871,65.156298 73.972847,63.612353 77.811656,62.068493 82.026093,59.648321 86.616169,56.351832 l 0,11.516689 m 3.528967,49.446656 -7.1979309,0 31.295352,-106.21642 7.2605216,0 -31.357942,106.21642 M 106.62888,97.724287 C 106.62887,95.05376 107.52601,92.821361 109.32028,91.027081 111.15626,89.191104 113.40953,88.273108 116.08008,88.27309 118.7506,88.273108 121.00386,89.191104 122.83987,91.027081 124.67584,92.821361 125.59384,95.05376 125.59387,97.724287 125.59384,100.3531 124.65498,102.60636 122.77728,104.48408 120.94127,106.32008 118.70887,107.23807 116.08008,107.23807 113.40953,107.23807 111.15626,106.34094 109.32028,104.54667 107.52601,102.71068 106.62887,100.43656 106.62888,97.724287"
       id="text3408" />
  </g>
</svg>
