<?xml version="1.0" encoding="UTF-8" standalone="no"?>
<!-- Created with Inkscape (http://www.inkscape.org/) -->

<svg
   xmlns:dc="http://purl.org/dc/elements/1.1/"
   xmlns:cc="http://creativecommons.org/ns#"
   xmlns:rdf="http://www.w3.org/1999/02/22-rdf-syntax-ns#"
   xmlns:svg="http://www.w3.org/2000/svg"
   xmlns="http://www.w3.org/2000/svg"
   xmlns:sodipodi="http://sodipodi.sourceforge.net/DTD/sodipodi-0.dtd"
   xmlns:inkscape="http://www.inkscape.org/namespaces/inkscape"
   width="64px"
   height="64px"
   id="svg2816"
   version="1.1"
   inkscape:version="0.47pre2 r22153"
   sodipodi:docname="go-down.svg">
  <defs
     id="defs2818">
    <inkscape:perspective
       sodipodi:type="inkscape:persp3d"
       inkscape:vp_x="0 : 32 : 1"
       inkscape:vp_y="0 : 1000 : 0"
       inkscape:vp_z="64 : 32 : 1"
       inkscape:persp3d-origin="32 : 21.333333 : 1"
       id="perspective2824" />
  </defs>
  <sodipodi:namedview
     id="base"
     pagecolor="#ffffff"
     bordercolor="#666666"
     borderopacity="1.0"
     inkscape:pageopacity="0.0"
     inkscape:pageshadow="2"
     inkscape:zoom="12.1875"
     inkscape:cx="32"
     inkscape:cy="28.966198"
     inkscape:current-layer="layer1"
     showgrid="true"
     inkscape:document-units="px"
     inkscape:grid-bbox="true"
     inkscape:window-width="1337"
     inkscape:window-height="1020"
     inkscape:window-x="451"
     inkscape:window-y="69"
     inkscape:window-maximized="0">
    <inkscape:grid
       type="xygrid"
       id="grid2826"
       empspacing="4"
       visible="true"
       enabled="true"
       snapvisiblegridlinesonly="true" />
  </sodipodi:namedview>
  <metadata
     id="metadata2821">
    <rdf:RDF>
      <cc:Work
         rdf:about="">
        <dc:format>image/svg+xml</dc:format>
        <dc:type
           rdf:resource="http://purl.org/dc/dcmitype/StillImage" />
        <dc:title></dc:title>
      </cc:Work>
    </rdf:RDF>
  </metadata>
  <g
     id="layer1"
     inkscape:label="Layer 1"
     inkscape:groupmode="layer">
    <path
       style="opacity:0.65999995;fill:#000000;fill-opacity:1"
       d="M 32 4 C 16.536027 4 4 16.536027 4 32 C 4 47.463973 16.536027 60 32 60 C 47.463973 60 60 47.463973 60 32 C 60 16.536027 47.463973 4 32 4 z M 32 8 C 36.412614 8 40 11.587386 40 16 C 40 20.412614 36.412614 23.96875 32 23.96875 C 27.587386 23.96875 24 20.412614 24 16 C 24 11.587386 27.587386 8 32 8 z M 26 28 L 38 28 C 39.108 28 40 28.892 40 30 L 40 54 C 40 55.108 39.108 56 38 56 L 26 56 C 24.892 56 24 55.108 24 54 L 24 30 C 24 28.892 24.892 28 26 28 z "
       id="path4190" />
  </g>
</svg>
