<?xml version="1.0" encoding="UTF-8" standalone="no"?>
<!-- Created with Inkscape (http://www.inkscape.org/) -->
<svg
   xmlns:dc="http://purl.org/dc/elements/1.1/"
   xmlns:cc="http://creativecommons.org/ns#"
   xmlns:rdf="http://www.w3.org/1999/02/22-rdf-syntax-ns#"
   xmlns:svg="http://www.w3.org/2000/svg"
   xmlns="http://www.w3.org/2000/svg"
   xmlns:sodipodi="http://sodipodi.sourceforge.net/DTD/sodipodi-0.dtd"
   xmlns:inkscape="http://www.inkscape.org/namespaces/inkscape"
   width="22"
   height="22"
   id="svg2"
   sodipodi:version="0.32"
   inkscape:version="0.46+devel"
   version="1.0"
   sodipodi:docname="kgpg.svg"
   inkscape:output_extension="org.inkscape.output.svg.inkscape"
   inkscape:export-filename="/home/loki/MyFiles/Code/Bespin/icons/apps/kgpg.png"
   inkscape:export-xdpi="90"
   inkscape:export-ydpi="90">
  <defs
     id="defs4">
    <inkscape:perspective
       sodipodi:type="inkscape:persp3d"
       inkscape:vp_x="0 : 526.18109 : 1"
       inkscape:vp_y="0 : 1000 : 0"
       inkscape:vp_z="744.09448 : 526.18109 : 1"
       inkscape:persp3d-origin="372.04724 : 350.78739 : 1"
       id="perspective10" />
  </defs>
  <sodipodi:namedview
     id="base"
     pagecolor="#ffffff"
     bordercolor="#666666"
     borderopacity="1.0"
     gridtolerance="10000"
     guidetolerance="10"
     objecttolerance="10"
     inkscape:pageopacity="0.0"
     inkscape:pageshadow="2"
     inkscape:zoom="10.5"
     inkscape:cx="11"
     inkscape:cy="12.115784"
     inkscape:document-units="px"
     inkscape:current-layer="layer1"
     showgrid="false"
     inkscape:window-width="640"
     inkscape:window-height="685"
     inkscape:window-x="295"
     inkscape:window-y="344" />
  <metadata
     id="metadata7">
    <rdf:RDF>
      <cc:Work
         rdf:about="">
        <dc:format>image/svg+xml</dc:format>
        <dc:type
           rdf:resource="http://purl.org/dc/dcmitype/StillImage" />
      </cc:Work>
    </rdf:RDF>
  </metadata>
  <g
     inkscape:label="Layer 1"
     inkscape:groupmode="layer"
     id="layer1">
    <path
       style="opacity:1;fill:#1a1a1a;fill-opacity:1;stroke:none"
       d="M 11.1875 0.1875 C 7.6922733 0.1875 4.84375 3.0360233 4.84375 6.53125 C 4.84375 7.1866051 4.9392271 7.8126655 5.125 8.40625 C 3.8415626 9.8456807 3.0625 11.73372 3.0625 13.8125 C 3.0625 18.307357 6.6926423 21.937501 11.1875 21.9375 C 15.682357 21.9375 19.34375 18.307357 19.34375 13.8125 C 19.34375 11.73372 18.533437 9.8456807 17.25 8.40625 C 17.435773 7.8126655 17.53125 7.1866051 17.53125 6.53125 C 17.53125 3.0360233 14.682727 0.18749999 11.1875 0.1875 z M 11.1875 1.75 C 13.211052 1.75 14.84375 3.382698 14.84375 5.40625 C 14.84375 5.7735646 14.787665 6.1346197 14.6875 6.46875 C 13.624329 5.9595516 12.444331 5.65625 11.1875 5.65625 C 9.9306687 5.65625 8.750671 5.9595516 7.6875 6.46875 C 7.5873346 6.1346197 7.53125 5.7735646 7.53125 5.40625 C 7.5312501 3.3826982 9.163948 1.75 11.1875 1.75 z M 11.1875 11.03125 C 12.028643 11.03125 12.71875 11.721358 12.71875 12.5625 C 12.71875 13.203871 12.311428 13.744042 11.75 13.96875 C 12.002992 15.117197 12.18764 16.556322 12.0625 17.21875 C 11.843721 18.376851 10.468779 18.376851 10.25 17.21875 C 10.123713 16.550252 10.27448 15.090179 10.53125 13.9375 C 10.018533 13.692056 9.65625 13.168548 9.65625 12.5625 C 9.65625 11.721358 10.346358 11.03125 11.1875 11.03125 z "
       id="path2435" />
  </g>
</svg>
