<?xml version="1.0" encoding="UTF-8" standalone="no"?>
<!-- Created with Inkscape (http://www.inkscape.org/) -->

<svg
   xmlns:dc="http://purl.org/dc/elements/1.1/"
   xmlns:cc="http://creativecommons.org/ns#"
   xmlns:rdf="http://www.w3.org/1999/02/22-rdf-syntax-ns#"
   xmlns:svg="http://www.w3.org/2000/svg"
   xmlns="http://www.w3.org/2000/svg"
   xmlns:sodipodi="http://sodipodi.sourceforge.net/DTD/sodipodi-0.dtd"
   xmlns:inkscape="http://www.inkscape.org/namespaces/inkscape"
   width="128"
   height="128"
   id="svg2"
   sodipodi:version="0.32"
   inkscape:version="0.47pre2 r22153"
   version="1.0"
   sodipodi:docname="klipper.svg"
   inkscape:output_extension="org.inkscape.output.svg.inkscape">
  <defs
     id="defs4">
    <inkscape:perspective
       sodipodi:type="inkscape:persp3d"
       inkscape:vp_x="0 : 526.18109 : 1"
       inkscape:vp_y="6.1230318e-14 : 1000 : 0"
       inkscape:vp_z="744.09448 : 526.18109 : 1"
       inkscape:persp3d-origin="372.04724 : 350.78739 : 1"
       id="perspective10" />
  </defs>
  <sodipodi:namedview
     id="base"
     pagecolor="#ffffff"
     bordercolor="#666666"
     borderopacity="1.0"
     inkscape:pageopacity="0.0"
     inkscape:pageshadow="2"
     inkscape:zoom="6.6484375"
     inkscape:cx="39.031728"
     inkscape:cy="64"
     inkscape:document-units="px"
     inkscape:current-layer="layer1"
     showgrid="true"
     showguides="true"
     inkscape:guide-bbox="true"
     inkscape:window-width="1600"
     inkscape:window-height="1089"
     inkscape:window-x="0"
     inkscape:window-y="25"
     inkscape:snap-global="false"
     inkscape:window-maximized="0">
    <inkscape:grid
       type="xygrid"
       id="grid3227"
       empspacing="4"
       visible="true"
       enabled="true"
       snapvisiblegridlinesonly="true" />
  </sodipodi:namedview>
  <metadata
     id="metadata7">
    <rdf:RDF>
      <cc:Work
         rdf:about="">
        <dc:format>image/svg+xml</dc:format>
        <dc:type
           rdf:resource="http://purl.org/dc/dcmitype/StillImage" />
        <dc:title />
      </cc:Work>
    </rdf:RDF>
  </metadata>
  <g
     inkscape:label="Ebene 1"
     inkscape:groupmode="layer"
     id="layer1">
    <path
       style="opacity:0.66000007;fill:#000000;fill-opacity:1;fill-rule:nonzero;stroke:none"
       d="M 111.60473,4.0141378 63.794302,66.264553 16.273049,4.3942285 C 13.34532,11.829937 37.18425,58.397317 54.492475,72.852792 48.708124,76.139809 41.717637,83.160087 35.792428,92.152955 26.343853,106.49334 23.249129,120.40128 28.852205,123.23594 c 5.603075,2.83465 17.782164,-6.48015 27.230737,-20.82053 3.706783,-5.625903 6.435053,-11.195152 8.048731,-16.048281 1.613248,4.856251 4.386768,10.417254 8.096928,16.048281 9.448574,14.34038 21.627665,23.65517 27.230735,20.82053 5.603084,-2.83466 2.508344,-16.7426 -6.940222,-31.082985 C 86.023219,82.29394 78.191827,74.805178 72.132208,72.008146 c 0.370551,0.171029 0.773763,0.344082 1.156704,0.54902 C 90.603922,58.199864 114.53819,11.464387 111.60473,4.0141378 z M 67.842765,70.783409 c 0.317521,0.01337 0.626285,0.06999 0.963919,0.126697 -0.633294,-0.102613 -1.271416,-0.135604 -1.831448,-0.08447 0.281398,-0.02743 0.566673,-0.05495 0.867529,-0.04222 z M 55.119022,81.637112 c 0.483715,-0.04607 0.892502,-0.0135 1.253096,0.168929 2.884752,1.459423 0.414867,10.005034 -5.54254,19.046769 -5.957407,9.04173 -13.164515,15.18492 -16.049266,13.7255 -2.884752,-1.45942 -0.366673,-10.00504 5.590735,-19.046772 5.212733,-7.911517 11.361971,-13.571997 14.747975,-13.894426 z m 17.639734,0 c 3.186277,-0.494123 9.83765,5.417801 15.422719,13.894426 5.957405,9.041732 8.427291,17.587352 5.542542,19.046772 -2.884754,1.45942 -10.043665,-4.68377 -16.001073,-13.7255 -5.957408,-9.041735 -8.475487,-17.587346 -5.590736,-19.046769 0.180296,-0.09122 0.41413,-0.135988 0.626548,-0.168929 z"
       id="path2819" />
  </g>
</svg>
