<?xml version="1.0" encoding="UTF-8" standalone="no"?>
<!-- Created with Inkscape (http://www.inkscape.org/) -->

<svg
   xmlns:dc="http://purl.org/dc/elements/1.1/"
   xmlns:cc="http://creativecommons.org/ns#"
   xmlns:rdf="http://www.w3.org/1999/02/22-rdf-syntax-ns#"
   xmlns:svg="http://www.w3.org/2000/svg"
   xmlns="http://www.w3.org/2000/svg"
   xmlns:sodipodi="http://sodipodi.sourceforge.net/DTD/sodipodi-0.dtd"
   xmlns:inkscape="http://www.inkscape.org/namespaces/inkscape"
   width="128"
   height="128"
   id="svg2"
   sodipodi:version="0.32"
   inkscape:version="0.47pre2 r22153"
   version="1.0"
   sodipodi:docname="bin.svg"
   inkscape:output_extension="org.inkscape.output.svg.inkscape">
  <defs
     id="defs4">
    <inkscape:perspective
       sodipodi:type="inkscape:persp3d"
       inkscape:vp_x="0 : 526.18109 : 1"
       inkscape:vp_y="6.1230318e-14 : 1000 : 0"
       inkscape:vp_z="744.09448 : 526.18109 : 1"
       inkscape:persp3d-origin="372.04724 : 350.78739 : 1"
       id="perspective10" />
  </defs>
  <sodipodi:namedview
     id="base"
     pagecolor="#ffffff"
     bordercolor="#666666"
     borderopacity="1.0"
     inkscape:pageopacity="0.0"
     inkscape:pageshadow="2"
     inkscape:zoom="6.6484375"
     inkscape:cx="63.849589"
     inkscape:cy="64"
     inkscape:document-units="px"
     inkscape:current-layer="layer1"
     showgrid="true"
     showguides="true"
     inkscape:guide-bbox="true"
     inkscape:window-width="1600"
     inkscape:window-height="1089"
     inkscape:window-x="0"
     inkscape:window-y="25"
     inkscape:snap-global="false"
     inkscape:window-maximized="0">
    <inkscape:grid
       type="xygrid"
       id="grid3227"
       empspacing="4"
       visible="true"
       enabled="true"
       snapvisiblegridlinesonly="true" />
  </sodipodi:namedview>
  <metadata
     id="metadata7">
    <rdf:RDF>
      <cc:Work
         rdf:about="">
        <dc:format>image/svg+xml</dc:format>
        <dc:type
           rdf:resource="http://purl.org/dc/dcmitype/StillImage" />
        <dc:title></dc:title>
      </cc:Work>
    </rdf:RDF>
  </metadata>
  <g
     inkscape:label="Ebene 1"
     inkscape:groupmode="layer"
     id="layer1">
    <path
       style="opacity:0.66000001;fill:#000000;fill-opacity:1;fill-rule:nonzero;stroke:none"
       d="M 16.21875 4.0625 C 9.2260459 4.0625 3.625 9.2155916 3.625 15.625 L 3.625 112.375 C 3.625 118.78441 9.2260459 123.9375 16.21875 123.9375 L 111.78125 123.9375 C 118.77395 123.9375 124.375 118.78441 124.375 112.375 L 124.375 15.625 C 124.375 9.2155916 118.77395 4.0625 111.78125 4.0625 L 16.21875 4.0625 z M 16.6875 15.65625 L 111.625 15.65625 C 114.118 15.65625 116.125 17.562656 116.125 19.9375 C 116.125 22.312344 114.118 24.21875 111.625 24.21875 L 16.6875 24.21875 C 14.1945 24.21875 12.1875 22.312344 12.1875 19.9375 C 12.1875 17.562656 14.1945 15.65625 16.6875 15.65625 z M 16.6875 32.1875 L 111.625 32.1875 C 114.118 32.1875 116.125 33.979312 116.125 36.1875 C 116.125 38.395688 114.118 40.15625 111.625 40.15625 L 16.6875 40.15625 C 14.1945 40.15625 12.1875 38.395688 12.1875 36.1875 C 12.1875 33.979312 14.1945 32.1875 16.6875 32.1875 z M 16.21875 47.6875 L 111.625 47.6875 C 114.118 47.6875 116.125 49.593906 116.125 51.96875 C 116.125 54.343594 114.118 56.25 111.625 56.25 L 16.21875 56.25 C 13.72575 56.25 11.71875 54.343594 11.71875 51.96875 C 11.71875 49.593906 13.72575 47.6875 16.21875 47.6875 z M 16.21875 63.9375 L 63.1875 63.9375 C 65.6805 63.9375 67.6875 65.750148 67.6875 68 C 67.6875 70.249852 65.6805 72.0625 63.1875 72.0625 L 16.21875 72.0625 C 13.72575 72.0625 11.71875 70.249852 11.71875 68 C 11.71875 65.750148 13.72575 63.9375 16.21875 63.9375 z M 92.625 69.78125 C 105.873 69.78125 116.625 80.533251 116.625 93.78125 C 116.625 107.02925 105.873 117.78125 92.625 117.78125 C 79.370166 117.78125 68.625 107.03608 68.625 93.78125 C 68.625 80.526417 79.370167 69.78125 92.625 69.78125 z M 92.625 71.15625 C 80.197009 71.338401 70.15625 81.466184 70.15625 93.9375 C 70.15625 106.40882 80.197009 116.5366 92.625 116.71875 L 92.625 71.15625 z M 101.4375 78.40625 C 98.944496 78.40625 96.9375 80.41325 96.9375 82.90625 L 96.9375 104.65625 C 96.9375 107.14925 98.944496 109.15625 101.4375 109.15625 C 103.9305 109.15625 105.9375 107.14925 105.9375 104.65625 L 105.9375 82.90625 C 105.9375 80.413251 103.9305 78.40625 101.4375 78.40625 z M 84.625 78.4375 C 87.118 78.4375 89.125 80.4445 89.125 82.9375 L 89.125 104.625 C 89.125 107.118 87.118 109.125 84.625 109.125 C 82.132 109.125 80.125 107.118 80.125 104.625 L 80.125 82.9375 C 80.125 80.4445 82.132 78.4375 84.625 78.4375 z M 16.53125 80.03125 L 55.65625 80.03125 C 58.14925 80.03125 60.15625 81.791814 60.15625 84 C 60.15625 86.208186 58.14925 88 55.65625 88 L 16.53125 88 C 14.03825 88 12.03125 86.208186 12.03125 84 C 12.03125 81.791814 14.03825 80.03125 16.53125 80.03125 z M 16.6875 95.96875 L 55.8125 95.96875 C 58.3055 95.96875 60.3125 97.708476 60.3125 99.875 C 60.3125 102.04152 58.3055 103.78125 55.8125 103.78125 L 16.6875 103.78125 C 14.1945 103.78125 12.1875 102.04152 12.1875 99.875 C 12.1875 97.708476 14.1945 95.96875 16.6875 95.96875 z M 17.125 112.34375 L 63.9375 112.34375 C 66.4305 112.34375 68.4375 114.0418 68.4375 116.125 C 68.4375 118.2082 66.4305 119.875 63.9375 119.875 L 17.125 119.875 C 14.632 119.875 12.625 118.2082 12.625 116.125 C 12.625 114.0418 14.632 112.34375 17.125 112.34375 z "
       id="rect2816" />
  </g>
</svg>
