<?xml version="1.0" encoding="UTF-8" standalone="no"?>
<!-- Created with Inkscape (http://www.inkscape.org/) -->
<svg
   xmlns:dc="http://purl.org/dc/elements/1.1/"
   xmlns:cc="http://creativecommons.org/ns#"
   xmlns:rdf="http://www.w3.org/1999/02/22-rdf-syntax-ns#"
   xmlns:svg="http://www.w3.org/2000/svg"
   xmlns="http://www.w3.org/2000/svg"
   xmlns:sodipodi="http://sodipodi.sourceforge.net/DTD/sodipodi-0.dtd"
   xmlns:inkscape="http://www.inkscape.org/namespaces/inkscape"
   width="128"
   height="128"
   id="svg2"
   sodipodi:version="0.32"
   inkscape:version="0.46+devel"
   version="1.0"
   sodipodi:docname="konversation.svg"
   inkscape:output_extension="org.inkscape.output.svg.inkscape">
  <defs
     id="defs4">
    <inkscape:perspective
       sodipodi:type="inkscape:persp3d"
       inkscape:vp_x="0 : 526.18109 : 1"
       inkscape:vp_y="0 : 1000 : 0"
       inkscape:vp_z="744.09448 : 526.18109 : 1"
       inkscape:persp3d-origin="372.04724 : 350.78739 : 1"
       id="perspective10" />
  </defs>
  <sodipodi:namedview
     id="base"
     pagecolor="#ffffff"
     bordercolor="#666666"
     borderopacity="1.0"
     inkscape:pageopacity="0.0"
     inkscape:pageshadow="2"
     inkscape:zoom="0.35"
     inkscape:cx="63.878963"
     inkscape:cy="31.146971"
     inkscape:document-units="px"
     inkscape:current-layer="layer1"
     showgrid="true"
     showguides="true"
     inkscape:guide-bbox="true"
     inkscape:window-width="1600"
     inkscape:window-height="1155"
     inkscape:window-x="0"
     inkscape:window-y="24"
     inkscape:snap-global="false">
    <inkscape:grid
       type="xygrid"
       id="grid3227"
       empspacing="5"
       visible="true"
       enabled="true" />
  </sodipodi:namedview>
  <metadata
     id="metadata7">
    <rdf:RDF>
      <cc:Work
         rdf:about="">
        <dc:format>image/svg+xml</dc:format>
        <dc:type
           rdf:resource="http://purl.org/dc/dcmitype/StillImage" />
      </cc:Work>
    </rdf:RDF>
  </metadata>
  <g
     inkscape:label="Ebene 1"
     inkscape:groupmode="layer"
     id="layer1">
    <g
       id="g3235">
      <path
         id="path3211"
         d="M 76.59375 0 C 48.220934 5.9603039e-15 25.1875 11.294513 25.1875 25.1875 C 25.187499 39.080487 48.220935 50.34375 76.59375 50.34375 C 86.312 50.343749 95.402814 49.016507 103.15625 46.71875 C 120.28079 60.641996 95.136954 111.07197 95.625 110.375 C 128.77521 63.034201 117.26155 58.288778 116.9375 39.78125 C 124.15174 35.447732 128 31.210114 128 25.1875 C 128 11.294514 104.96657 0 76.59375 0 z M 59.84375 12.28125 C 60.312497 12.281272 60.729163 12.385439 61.09375 12.59375 C 61.468746 12.791688 61.656246 13.114605 61.65625 13.53125 L 61.625 14.78125 C 61.552079 15.906269 61.499996 16.812518 61.5 17.5 C 61.499996 18.072933 61.718746 19.708348 62.125 22.40625 C 62.447912 24.552093 62.624995 25.895842 62.65625 26.4375 C 62.708328 27.333341 62.947911 28.770839 63.375 30.78125 C 63.63541 32.031253 63.749994 32.812502 63.75 33.09375 C 63.749994 33.552084 63.593744 33.895834 63.28125 34.15625 C 62.979161 34.416667 62.583328 34.5625 62.0625 34.5625 C 61.447913 34.5625 60.937496 34.447917 60.53125 34.25 C 60.135414 34.041667 59.906247 33.770834 59.875 33.40625 C 59.864581 33.145835 59.791664 32.489585 59.65625 31.4375 C 59.364581 29.239589 59.197915 27.562507 59.125 26.40625 C 59.062498 25.645842 58.843749 24.208344 58.5 22.125 C 57.958333 18.843766 57.6875 16.520851 57.6875 15.15625 C 57.6875 13.239605 58.406249 12.281272 59.84375 12.28125 z M 80.59375 12.28125 C 81.072913 12.281272 81.479163 12.406272 81.78125 12.625 C 82.093746 12.843772 82.249996 13.145855 82.25 13.53125 C 82.249996 13.802104 82.239579 14.25002 82.21875 14.90625 C 82.197912 15.781269 82.187496 16.479185 82.1875 16.96875 C 82.187496 17.406267 82.249996 18.1771 82.375 19.28125 C 82.458329 19.989598 82.510412 20.468764 82.53125 20.75 C 82.791662 20.489597 83.187495 20.250014 83.71875 20.03125 C 84.26041 19.812515 84.79166 19.718765 85.3125 19.71875 C 87.135407 19.718765 88.677072 20.343764 89.96875 21.59375 C 91.27082 22.843762 91.937486 24.25001 91.9375 25.84375 C 91.937486 26.989591 91.416653 28.197923 90.40625 29.46875 C 89.395822 30.739587 88.041656 31.927086 86.3125 33.03125 C 84.593743 34.125 83.374994 34.6875 82.65625 34.6875 C 82.374995 34.6875 82.020829 34.583333 81.625 34.40625 C 81.416663 34.322917 81.27083 34.28125 81.15625 34.25 C 80.406247 34.041667 80.031248 32.906252 80.03125 30.84375 C 80.031248 30.239588 79.895831 28.697923 79.625 26.25 C 79.406248 24.21876 79.281249 23.010428 79.28125 22.59375 C 79.281249 22.218762 79.197915 21.13543 79.03125 19.375 C 78.749999 16.520851 78.624999 14.604187 78.625 13.625 C 78.624999 13.208355 78.781249 12.895855 79.125 12.65625 C 79.479165 12.416689 79.968748 12.281272 80.59375 12.28125 z M 95.34375 12.28125 C 95.812497 12.281272 96.229163 12.385439 96.59375 12.59375 C 96.968746 12.791688 97.156246 13.114605 97.15625 13.53125 L 97.125 14.78125 C 97.052079 15.906269 96.999996 16.812518 97 17.5 C 96.999996 18.072933 97.218746 19.708348 97.625 22.40625 C 97.947912 24.552093 98.124995 25.895842 98.15625 26.4375 C 98.208328 27.333341 98.447911 28.770839 98.875 30.78125 C 99.13541 32.031253 99.249994 32.812502 99.25 33.09375 C 99.249994 33.552084 99.093744 33.895834 98.78125 34.15625 C 98.479161 34.416667 98.083328 34.5625 97.5625 34.5625 C 96.947913 34.5625 96.437496 34.447917 96.03125 34.25 C 95.635414 34.041667 95.406247 33.770834 95.375 33.40625 C 95.364581 33.145835 95.291664 32.489585 95.15625 31.4375 C 94.864581 29.239589 94.697915 27.562507 94.625 26.40625 C 94.562498 25.645842 94.343749 24.208344 94 22.125 C 93.458333 18.843766 93.1875 16.520851 93.1875 15.15625 C 93.1875 13.239605 93.906249 12.281272 95.34375 12.28125 z M 48.3125 14.1875 C 50.979152 14.18752 52.312484 14.833353 52.3125 16.09375 C 52.312484 16.916684 51.833318 17.854183 50.875 18.90625 C 49.92707 19.958348 48.812488 20.812514 47.5 21.46875 C 48.895821 21.093763 50.416653 20.906264 52.0625 20.90625 C 53.583316 20.906264 54.739565 21.145847 55.5625 21.65625 C 56.385397 22.166679 56.81248 22.895845 56.8125 23.8125 C 56.81248 25.500009 55.666647 27.197924 53.40625 28.9375 C 51.145819 30.677087 47.968738 32.333336 43.875 33.875 C 43.562493 33.989584 43.32291 34.135417 43.15625 34.3125 C 42.927077 34.5625 42.687494 34.6875 42.40625 34.6875 C 41.895828 34.6875 41.437495 34.552083 41.03125 34.3125 C 40.624996 34.072917 40.406246 33.770834 40.40625 33.375 C 40.406246 32.833335 40.20833 31.218753 39.8125 28.5625 C 39.604163 27.135424 39.468747 26.156258 39.40625 25.625 C 39.145831 25.625009 38.885414 25.541676 38.625 25.34375 C 38.364581 25.135426 38.249998 24.895843 38.25 24.65625 C 38.249998 24.270844 38.479165 23.833344 38.96875 23.34375 C 38.968747 22.968762 38.843748 22.114596 38.5625 20.78125 C 38.343748 19.760431 38.197915 19.083349 38.15625 18.71875 C 38.156248 18.687516 38.093748 18.635433 37.96875 18.5625 C 37.572916 18.322933 37.374999 18.062517 37.375 17.78125 C 37.374999 17.416684 37.552082 17.083351 37.875 16.78125 C 38.197915 16.468768 39.374997 16.010435 41.40625 15.40625 C 44.083326 14.604187 46.37499 14.18752 48.3125 14.1875 z M 46.65625 16.3125 C 46.135407 16.312518 45.260408 16.510435 44.03125 16.875 C 42.812494 17.239601 41.979161 17.5521 41.5625 17.84375 C 41.593745 19.229182 41.749995 20.750014 42.03125 22.375 C 42.739577 22.104179 43.677076 21.60418 44.8125 20.875 C 45.958324 20.145848 46.822906 19.458348 47.4375 18.8125 C 48.062488 18.156266 48.374988 17.58335 48.375 17.09375 C 48.374988 16.583351 47.812489 16.312518 46.65625 16.3125 z M 71.75 19.8125 C 72.760408 19.812515 73.593741 20.197931 74.25 21 C 74.916656 21.791679 75.458322 22.989595 75.875 24.59375 C 76.281238 25.895842 76.468738 27.697924 76.46875 30 C 76.468738 31.020837 76.364572 32.031253 76.15625 33 C 76.031239 33.593751 75.895822 33.947917 75.75 34.0625 C 75.614572 34.166667 75.427072 34.239584 75.15625 34.3125 C 74.895823 34.385417 74.666657 34.4375 74.46875 34.4375 C 73.989574 34.4375 73.583324 34.333334 73.28125 34.125 C 72.989575 33.906251 72.843742 33.604168 72.84375 33.21875 L 72.96875 32.21875 C 72.385409 32.895835 71.614576 33.427084 70.65625 33.84375 C 69.697912 34.25 68.770829 34.46875 67.875 34.46875 C 66.208332 34.46875 65.374999 33.843751 65.375 32.625 C 65.374999 30.802087 66.510415 29.000006 68.78125 27.1875 C 69.062496 26.958341 69.458328 26.625008 69.96875 26.21875 C 70.489577 25.812509 70.989577 25.416676 71.5 25.03125 C 72.010409 24.635427 72.395826 24.416677 72.65625 24.375 C 72.552075 23.718761 72.374992 23.197928 72.09375 22.8125 C 71.812493 22.427095 71.44791 22.250012 71.03125 22.25 C 70.624994 22.250012 70.145828 22.364596 69.59375 22.625 C 69.052079 22.875012 68.635413 23.145845 68.34375 23.4375 C 67.937497 23.843761 67.656247 24.062511 67.5 24.0625 C 67.177081 24.062511 66.854164 23.927094 66.53125 23.65625 C 66.218748 23.385428 66.062499 23.072928 66.0625 22.71875 C 66.062499 22.229179 66.427081 21.791679 67.125 21.40625 C 67.822913 21.020847 68.656246 20.645847 69.625 20.3125 C 70.593744 19.968765 71.302077 19.812515 71.75 19.8125 z M 107.25 19.8125 C 108.26041 19.812515 109.09374 20.197931 109.75 21 C 110.41666 21.791679 110.95832 22.989595 111.375 24.59375 C 111.78124 25.895842 111.96874 27.697924 111.96875 30 C 111.96874 31.020837 111.86457 32.031253 111.65625 33 C 111.53124 33.593751 111.39582 33.947917 111.25 34.0625 C 111.11457 34.166667 110.92707 34.239584 110.65625 34.3125 C 110.39582 34.385417 110.16666 34.4375 109.96875 34.4375 C 109.48957 34.4375 109.08332 34.333334 108.78125 34.125 C 108.48957 33.906251 108.34374 33.604168 108.34375 33.21875 L 108.46875 32.21875 C 107.88541 32.895835 107.11458 33.427084 106.15625 33.84375 C 105.19791 34.25 104.27083 34.46875 103.375 34.46875 C 101.70833 34.46875 100.875 33.843751 100.875 32.625 C 100.875 30.802087 102.01041 29.000006 104.28125 27.1875 C 104.5625 26.958341 104.95833 26.625008 105.46875 26.21875 C 105.98958 25.812509 106.48958 25.416676 107 25.03125 C 107.51041 24.635427 107.89583 24.416677 108.15625 24.375 C 108.05208 23.718761 107.87499 23.197928 107.59375 22.8125 C 107.31249 22.427095 106.94791 22.250012 106.53125 22.25 C 106.12499 22.250012 105.64583 22.364596 105.09375 22.625 C 104.55208 22.875012 104.13541 23.145845 103.84375 23.4375 C 103.4375 23.843761 103.15625 24.062511 103 24.0625 C 102.67708 24.062511 102.35416 23.927094 102.03125 23.65625 C 101.71875 23.385428 101.5625 23.072928 101.5625 22.71875 C 101.5625 22.229179 101.92708 21.791679 102.625 21.40625 C 103.32291 21.020847 104.15625 20.645847 105.125 20.3125 C 106.09374 19.968765 106.80208 19.812515 107.25 19.8125 z M 85.1875 21.96875 C 84.812493 21.968763 84.41666 22.104179 84.03125 22.34375 C 83.656244 22.583345 83.395828 22.895845 83.21875 23.28125 C 83.093745 23.541678 82.958328 23.760427 82.8125 23.9375 C 83.135411 27.947923 83.281245 30.562504 83.28125 31.78125 C 83.281245 31.989586 83.416661 32.093752 83.65625 32.09375 C 83.718744 32.093752 83.770827 32.031253 83.84375 31.9375 C 83.906244 31.854169 83.989577 31.781253 84.09375 31.71875 C 86.666658 30.062504 87.96874 28.197923 87.96875 26.125 C 87.96874 24.864593 87.666657 23.875011 87.09375 23.125 C 86.531241 22.364596 85.906242 21.968763 85.1875 21.96875 z M 50.6875 23.03125 C 48.531238 23.031262 45.822907 23.604178 42.5625 24.75 C 42.677077 25.427092 42.874994 26.729174 43.15625 28.65625 C 43.374993 30.125004 43.499993 30.937504 43.53125 31.09375 C 44.010409 30.697921 44.874992 30.354171 46.125 30.03125 C 47.812489 29.583338 49.39582 28.760422 50.875 27.59375 C 52.354151 26.427091 53.093733 25.427092 53.09375 24.59375 C 53.093733 24.052094 52.937484 23.656261 52.625 23.40625 C 52.312484 23.156261 51.666651 23.031262 50.6875 23.03125 z M 72.96875 26.59375 C 70.166661 28.385423 68.749996 29.958338 68.75 31.34375 C 68.749996 31.833336 69.031246 32.093752 69.5625 32.09375 C 70.312494 32.093752 71.093743 31.69792 71.90625 30.90625 C 72.083326 30.739587 72.312492 30.562504 72.59375 30.40625 C 72.874992 30.250004 73.031242 30.187504 73.0625 30.1875 C 73.062492 28.593756 73.031242 27.406257 72.96875 26.59375 z M 108.46875 26.59375 C 105.66666 28.385423 104.25 29.958338 104.25 31.34375 C 104.25 31.833336 104.53125 32.093752 105.0625 32.09375 C 105.81249 32.093752 106.59374 31.69792 107.40625 30.90625 C 107.58333 30.739587 107.81249 30.562504 108.09375 30.40625 C 108.37499 30.250004 108.53124 30.187504 108.5625 30.1875 C 108.56249 28.593756 108.53124 27.406257 108.46875 26.59375 z "
         style="opacity:0.66000001;fill:#000000;fill-opacity:1;stroke:none" />
      <path
         id="path3216"
         d="M 51.40625 51.46875 C 23.033434 51.46875 5.2725814e-17 62.732009 0 76.625 C -2e-06 82.647614 4.3482594 88.197736 11.5625 92.53125 C 7.9935832 98.418703 33.493666 120.50061 35.65625 121.15625 C 37.680495 121.76995 21.26731 106.28576 24.84375 98.1875 C 32.597186 100.48526 41.688 101.8125 51.40625 101.8125 C 79.779065 101.8125 102.8125 90.517983 102.8125 76.625 C 102.8125 62.732013 79.779066 51.46875 51.40625 51.46875 z M 69.84375 64.28125 C 70.322913 64.281272 70.697913 64.427105 71 64.6875 C 71.312496 64.937522 71.468745 65.239605 71.46875 65.625 C 71.468745 65.802104 71.468745 66.12502 71.4375 66.59375 C 71.364579 67.708352 71.312496 68.750018 71.3125 69.71875 C 71.312496 70.27085 71.385412 71.260432 71.53125 72.6875 C 71.656245 73.989596 71.729162 74.937512 71.75 75.53125 C 71.958328 74.708345 72.593744 73.937513 73.65625 73.1875 C 74.729159 72.437514 75.874991 72.062515 77.09375 72.0625 C 78.166655 72.062515 79.010405 72.677097 79.59375 73.90625 C 80.17707 75.125011 80.468736 76.87501 80.46875 79.1875 C 80.468736 79.48959 80.416653 80.281256 80.3125 81.5625 C 80.197903 83.031254 80.124987 84.000003 80.125 84.46875 C 80.11457 85.041668 79.937487 85.489584 79.59375 85.8125 C 79.249988 86.135417 78.760405 86.3125 78.125 86.3125 C 77.645823 86.270834 77.260406 86.104167 76.96875 85.84375 C 76.68749 85.583334 76.56249 85.250001 76.5625 84.84375 C 76.56249 84.531252 76.604157 83.927086 76.6875 83 C 76.833323 81.354172 76.90624 80.041673 76.90625 79.0625 C 76.90624 77.729176 76.78124 76.614593 76.53125 75.75 C 76.291657 74.885428 75.968741 74.468762 75.59375 74.46875 C 74.927075 74.468762 74.177076 75.010428 73.34375 76.125 C 72.520828 77.229176 72.124995 78.250008 72.125 79.1875 C 72.124995 80.927089 72.239578 82.395838 72.46875 83.5625 C 72.687494 84.718752 72.781244 85.385418 72.78125 85.5625 C 72.781244 86.34375 72.354161 86.71875 71.46875 86.71875 C 70.979163 86.71875 70.604163 86.677083 70.375 86.59375 C 70.14583 86.520833 69.968747 86.333334 69.8125 86.03125 C 69.510414 85.156251 69.104164 82.604171 68.625 78.34375 C 68.572915 77.572926 68.406249 76.062511 68.09375 73.84375 C 67.624999 70.489599 67.375 68.260435 67.375 67.15625 C 67.375 66.135437 67.562499 65.416688 67.9375 64.96875 C 68.312499 64.520855 68.958331 64.281272 69.84375 64.28125 z M 36.0625 64.3125 C 36.531247 64.312522 36.947913 64.416689 37.3125 64.625 C 37.687496 64.822938 37.874996 65.145855 37.875 65.5625 L 37.8125 66.8125 C 37.739579 67.937519 37.718746 68.843768 37.71875 69.53125 C 37.718746 70.104183 37.906246 71.739598 38.3125 74.4375 C 38.635412 76.583343 38.812495 77.927092 38.84375 78.46875 C 38.895828 79.364591 39.135411 80.802089 39.5625 82.8125 C 39.82291 84.062503 39.968744 84.843752 39.96875 85.125 C 39.968744 85.583334 39.812494 85.927084 39.5 86.1875 C 39.197911 86.447917 38.770828 86.59375 38.25 86.59375 C 37.635413 86.59375 37.124996 86.479167 36.71875 86.28125 C 36.322914 86.072917 36.124997 85.802084 36.09375 85.4375 C 36.083331 85.177085 36.010414 84.520835 35.875 83.46875 C 35.583331 81.270839 35.385415 79.593757 35.3125 78.4375 C 35.249998 77.677092 35.062499 76.239594 34.71875 74.15625 C 34.177083 70.875016 33.90625 68.552101 33.90625 67.1875 C 33.90625 65.270855 34.624999 64.312522 36.0625 64.3125 z M 24.53125 66.21875 C 27.197902 66.21877 28.531234 66.864603 28.53125 68.125 C 28.531234 68.947934 28.052068 69.885433 27.09375 70.9375 C 26.14582 71.989598 24.999988 72.843764 23.6875 73.5 C 25.083321 73.125013 26.604153 72.937514 28.25 72.9375 C 29.770816 72.937514 30.958315 73.177097 31.78125 73.6875 C 32.604147 74.197929 32.99998 74.927095 33 75.84375 C 32.99998 77.531259 31.885397 79.229174 29.625 80.96875 C 27.364569 82.708337 24.187488 84.364586 20.09375 85.90625 C 19.781243 86.020834 19.54166 86.166667 19.375 86.34375 C 19.145827 86.59375 18.874994 86.71875 18.59375 86.71875 C 18.083328 86.71875 17.624995 86.583333 17.21875 86.34375 C 16.812496 86.104167 16.624996 85.802084 16.625 85.40625 C 16.624996 84.864585 16.42708 83.250003 16.03125 80.59375 C 15.822914 79.166674 15.687497 78.187508 15.625 77.65625 C 15.364581 77.656259 15.104164 77.572926 14.84375 77.375 C 14.583331 77.166676 14.437498 76.927093 14.4375 76.6875 C 14.437498 76.302094 14.697915 75.864594 15.1875 75.375 C 15.187497 75.000012 15.031248 74.145846 14.75 72.8125 C 14.531248 71.791681 14.416665 71.114599 14.375 70.75 C 14.374998 70.718766 14.312498 70.666683 14.1875 70.59375 C 13.791666 70.354183 13.593749 70.093767 13.59375 69.8125 C 13.593749 69.447934 13.739582 69.114601 14.0625 68.8125 C 14.385415 68.500018 15.562497 68.041685 17.59375 67.4375 C 20.270826 66.635437 22.59374 66.21877 24.53125 66.21875 z M 22.84375 68.34375 C 22.322907 68.343768 21.447908 68.541685 20.21875 68.90625 C 18.999994 69.270851 18.197911 69.58335 17.78125 69.875 C 17.812495 71.260432 17.968745 72.781264 18.25 74.40625 C 18.958327 74.135429 19.864576 73.63543 21 72.90625 C 22.145824 72.177098 23.041656 71.489598 23.65625 70.84375 C 24.281238 70.187516 24.593738 69.6146 24.59375 69.125 C 24.593738 68.614601 23.999989 68.343768 22.84375 68.34375 z M 47.9375 71.84375 C 48.947908 71.843765 49.781241 72.229181 50.4375 73.03125 C 51.104156 73.822929 51.645822 75.020845 52.0625 76.625 C 52.468738 77.927092 52.687488 79.729174 52.6875 82.03125 C 52.687488 83.052087 52.583322 84.062503 52.375 85.03125 C 52.249989 85.625001 52.114572 85.979167 51.96875 86.09375 C 51.833322 86.197917 51.614572 86.270834 51.34375 86.34375 C 51.083323 86.416667 50.854157 86.46875 50.65625 86.46875 C 50.177074 86.46875 49.802074 86.364584 49.5 86.15625 C 49.208325 85.937501 49.062492 85.635418 49.0625 85.25 L 49.15625 84.25 C 48.572909 84.927085 47.802076 85.458334 46.84375 85.875 C 45.885412 86.28125 44.958329 86.5 44.0625 86.5 C 42.395832 86.5 41.562499 85.875001 41.5625 84.65625 C 41.562499 82.833337 42.697915 81.031256 44.96875 79.21875 C 45.249996 78.989591 45.645828 78.656258 46.15625 78.25 C 46.677077 77.843759 47.208327 77.447926 47.71875 77.0625 C 48.229159 76.666677 48.614576 76.447927 48.875 76.40625 C 48.770825 75.750011 48.562492 75.229178 48.28125 74.84375 C 47.999993 74.458345 47.66666 74.281262 47.25 74.28125 C 46.843744 74.281262 46.364578 74.395846 45.8125 74.65625 C 45.270829 74.906262 44.854163 75.177095 44.5625 75.46875 C 44.156247 75.875011 43.874997 76.093761 43.71875 76.09375 C 43.395831 76.093761 43.072914 75.958344 42.75 75.6875 C 42.437498 75.416678 42.281248 75.104178 42.28125 74.75 C 42.281248 74.260429 42.614581 73.822929 43.3125 73.4375 C 44.010413 73.052097 44.843746 72.677097 45.8125 72.34375 C 46.781244 72.000015 47.489577 71.843765 47.9375 71.84375 z M 61 71.84375 C 62.010408 71.843765 62.843741 72.229181 63.5 73.03125 C 64.166656 73.822929 64.708322 75.020845 65.125 76.625 C 65.531238 77.927092 65.749988 79.729174 65.75 82.03125 C 65.749988 83.052087 65.645822 84.062503 65.4375 85.03125 C 65.312489 85.625001 65.177072 85.979167 65.03125 86.09375 C 64.895822 86.197917 64.677072 86.270834 64.40625 86.34375 C 64.145823 86.416667 63.916657 86.46875 63.71875 86.46875 C 63.239574 86.46875 62.864574 86.364584 62.5625 86.15625 C 62.270825 85.937501 62.124992 85.635418 62.125 85.25 L 62.21875 84.25 C 61.635409 84.927085 60.864576 85.458334 59.90625 85.875 C 58.947912 86.28125 58.020829 86.5 57.125 86.5 C 55.458332 86.5 54.624999 85.875001 54.625 84.65625 C 54.624999 82.833337 55.760415 81.031256 58.03125 79.21875 C 58.312496 78.989591 58.708328 78.656258 59.21875 78.25 C 59.739577 77.843759 60.270827 77.447926 60.78125 77.0625 C 61.291659 76.666677 61.677076 76.447927 61.9375 76.40625 C 61.833325 75.750011 61.624992 75.229178 61.34375 74.84375 C 61.062493 74.458345 60.72916 74.281262 60.3125 74.28125 C 59.906244 74.281262 59.427078 74.395846 58.875 74.65625 C 58.333329 74.906262 57.916663 75.177095 57.625 75.46875 C 57.218747 75.875011 56.937497 76.093761 56.78125 76.09375 C 56.458331 76.093761 56.135414 75.958344 55.8125 75.6875 C 55.499998 75.416678 55.343748 75.104178 55.34375 74.75 C 55.343748 74.260429 55.677081 73.822929 56.375 73.4375 C 57.072913 73.052097 57.906246 72.677097 58.875 72.34375 C 59.843744 72.000015 60.552077 71.843765 61 71.84375 z M 26.875 75.0625 C 24.718738 75.062512 22.010407 75.635428 18.75 76.78125 C 18.864577 77.458342 19.062494 78.760424 19.34375 80.6875 C 19.562493 82.156254 19.687493 82.968754 19.71875 83.125 C 20.197909 82.729171 21.062492 82.385421 22.3125 82.0625 C 23.999989 81.614588 25.58332 80.791672 27.0625 79.625 C 28.541651 78.458341 29.281233 77.458342 29.28125 76.625 C 29.281233 76.083344 29.124984 75.687511 28.8125 75.4375 C 28.499984 75.187511 27.854151 75.062512 26.875 75.0625 z M 49.15625 78.625 C 46.354161 80.416673 44.968746 81.989588 44.96875 83.375 C 44.968746 83.864586 45.218746 84.125002 45.75 84.125 C 46.499994 84.125002 47.281243 83.72917 48.09375 82.9375 C 48.270826 82.770837 48.499992 82.593754 48.78125 82.4375 C 49.062492 82.281254 49.218742 82.218754 49.25 82.21875 C 49.249992 80.625006 49.218742 79.437507 49.15625 78.625 z M 62.21875 78.625 C 59.416661 80.416673 58.031246 81.989588 58.03125 83.375 C 58.031246 83.864586 58.281246 84.125002 58.8125 84.125 C 59.562494 84.125002 60.343743 83.72917 61.15625 82.9375 C 61.333326 82.770837 61.562492 82.593754 61.84375 82.4375 C 62.124992 82.281254 62.281242 82.218754 62.3125 82.21875 C 62.312492 80.625006 62.281242 79.437507 62.21875 78.625 z M 85.65625 83.71875 C 86.093745 83.718753 86.479162 83.958336 86.84375 84.46875 C 87.218744 84.968752 87.406244 85.437501 87.40625 85.875 C 87.406244 86.208334 87.229161 86.5 86.875 86.75 C 86.520828 87 86.124995 87.124999 85.65625 87.125 C 84.395831 87.124999 83.749998 86.5625 83.75 85.40625 C 83.749998 84.979168 83.958331 84.593752 84.34375 84.25 C 84.73958 83.895836 85.17708 83.718753 85.65625 83.71875 z "
         style="opacity:0.66000001;fill:#000000;fill-opacity:1;stroke:none" />
    </g>
  </g>
</svg>
