<?xml version="1.0" encoding="UTF-8" standalone="no"?>
<!-- Created with Inkscape (http://www.inkscape.org/) -->

<svg
   xmlns:dc="http://purl.org/dc/elements/1.1/"
   xmlns:cc="http://creativecommons.org/ns#"
   xmlns:rdf="http://www.w3.org/1999/02/22-rdf-syntax-ns#"
   xmlns:svg="http://www.w3.org/2000/svg"
   xmlns="http://www.w3.org/2000/svg"
   xmlns:sodipodi="http://sodipodi.sourceforge.net/DTD/sodipodi-0.dtd"
   xmlns:inkscape="http://www.inkscape.org/namespaces/inkscape"
   width="64px"
   height="64px"
   id="svg2816"
   version="1.1"
   inkscape:version="0.47pre2 r22153"
   sodipodi:docname="New document 2">
  <defs
     id="defs2818">
    <inkscape:perspective
       sodipodi:type="inkscape:persp3d"
       inkscape:vp_x="0 : 32 : 1"
       inkscape:vp_y="0 : 1000 : 0"
       inkscape:vp_z="64 : 32 : 1"
       inkscape:persp3d-origin="32 : 21.333333 : 1"
       id="perspective2824" />
    <inkscape:perspective
       id="perspective3212"
       inkscape:persp3d-origin="0.5 : 0.33333333 : 1"
       inkscape:vp_z="1 : 0.5 : 1"
       inkscape:vp_y="0 : 1000 : 0"
       inkscape:vp_x="0 : 0.5 : 1"
       sodipodi:type="inkscape:persp3d" />
    <pattern
       patternUnits="userSpaceOnUse"
       width="61.424216"
       height="60.46547"
       patternTransform="translate(1.5250875,-0.1737675)"
       id="pattern4812">
      <path
         id="path3218"
         d="m 22.609428,59.501733 c 0.353795,-0.66107 1.046912,-1 2.045027,-1 1.837558,0 6.416851,-3.005004 9.801784,-6.43209 1.87121,-1.89451 3.06728,-2.623983 5.403189,-3.295358 8.128798,-2.336336 15.689085,-8.433987 18.985545,-15.312537 2.013365,-4.201185 2.244875,-6.905454 1.00026,-11.683864 C 57.164323,11.485181 48.51511,3.114148 38.109428,0.741155 L 34.859428,0 37.533912,0.2746525 c 4.253402,0.436798 10.135727,2.536738 13.576081,4.846545 5.645845,3.790546 9.02716,9.1643295 10.036485,15.9505695 1.92374,12.934317 -6.26592,24.379839 -20.844919,29.131981 -1.579649,0.5149 -3.491826,1.70256 -5,3.105525 -2.66797,2.481855 -7.936619,6.358325 -9.301118,6.84341 -0.472443,0.16796 -0.992348,0.08959 -1.155344,-0.17414 -0.187753,-0.30379 -0.639655,-0.295785 -1.233142,0.02185 -1.372853,0.734715 -1.601693,0.620895 -1.002527,-0.49866 z m -2.5,-9.43934 c -2.687,-0.865271 -6.136837,-2.500819 -5.35894,-2.540641 0.215082,-0.01101 1.115082,0.281996 2,0.651126 0.884917,0.36913 2.790884,0.954238 4.235482,1.30024 1.444598,0.346005 2.751627,0.831485 2.904508,1.078855 0.403174,0.65235 -0.664062,0.51416 -3.78105,-0.48958 z m 1.260804,-11.43566 c 0.920602,-2.190168 0.876997,-3.125 -0.145765,-3.125 -1.489813,0 -1.840139,-2.821621 -0.398401,-3.208821 1.931482,-0.518726 2.189311,-0.292732 2.535199,2.222175 0.26381,1.91813 0.15378,2.806221 -0.464608,3.75 -0.932718,1.423508 -2.087792,1.697173 -1.526425,0.361646 z m 19.501803,-2.160732 c 2.212122,-6.269822 1.480661,-16.043606 -1.558276,-20.821676 -0.90599,-1.424473 -0.896869,-1.475611 0.319936,-1.793812 1.478234,-0.386567 3.735279,3.451709 4.793213,8.15122 0.710836,3.157652 0.755802,4.359373 0.284663,7.607771 -0.698376,4.815149 -2.368017,8.892229 -3.641535,8.892229 -0.855911,0 -0.86895,-0.134059 -0.198001,-2.035732 z M 1.5816947,34.305488 C -1.8551193,26.536 0.45812119,16.071519 7.0719507,9.469039 11.440725,5.107761 18.015712,1.6989365 23.859428,0.765514 c 1.570813,-0.2509075 1.30257,-0.0720695 -1.25,0.833379 -6.292795,2.232182 -11.770114,6.4431525 -15.3020458,11.764233 -3.728422,5.617105 -5.805999,14.512317 -4.791184,20.513607 0.244137,1.443751 0.3523365,2.625 0.240443,2.625 -0.1118935,0 -0.6406195,-0.988309 -1.1749465,-2.196244 z M 25.849208,26.469531 c -0.446496,-1.406784 0.03608,-1.678235 4.356029,-2.450252 2.939032,-0.525234 3.597447,-0.516716 3.957256,0.05119 0.875057,1.381164 0.381582,1.873094 -2.428065,2.420465 -1.58125,0.308056 -3.474271,0.675107 -4.206714,0.815669 -1.05225,0.201936 -1.40449,0.02627 -1.678506,-0.837076 z m -7.978029,-4.372713 c -0.6258,-0.6258 -0.178621,-2.054081 0.733775,-2.343665 1.261447,-0.400367 2.004474,0.05179 2.004474,1.2198 0,0.868213 -2.122683,1.73943 -2.738249,1.123865 z M 26.474912,0.1737655 c 0.338517,-0.1369615 1.013517,-0.1452985 1.5,-0.018525 0.486484,0.126772 0.209516,0.2388315 -0.615484,0.249021 -0.825,0.01019 -1.223032,-0.0935325 -0.884516,-0.230494 z"
         style="fill:#000000" />
    </pattern>
  </defs>
  <sodipodi:namedview
     id="base"
     pagecolor="#ffffff"
     bordercolor="#666666"
     borderopacity="1.0"
     inkscape:pageopacity="0.0"
     inkscape:pageshadow="2"
     inkscape:zoom="7.15625"
     inkscape:cx="31.860262"
     inkscape:cy="26.41048"
     inkscape:current-layer="layer1"
     showgrid="true"
     inkscape:document-units="px"
     inkscape:grid-bbox="true"
     inkscape:window-width="882"
     inkscape:window-height="813"
     inkscape:window-x="728"
     inkscape:window-y="254"
     inkscape:window-maximized="0">
    <inkscape:grid
       type="xygrid"
       id="grid3222"
       empspacing="4"
       visible="true"
       enabled="true"
       snapvisiblegridlinesonly="true" />
  </sodipodi:namedview>
  <metadata
     id="metadata2821">
    <rdf:RDF>
      <cc:Work
         rdf:about="">
        <dc:format>image/svg+xml</dc:format>
        <dc:type
           rdf:resource="http://purl.org/dc/dcmitype/StillImage" />
        <dc:title></dc:title>
      </cc:Work>
    </rdf:RDF>
  </metadata>
  <g
     id="layer1"
     inkscape:label="Layer 1"
     inkscape:groupmode="layer">
    <path
       style="opacity:0.66000001;fill:#000000;fill-opacity:1;fill-rule:nonzero;stroke:none"
       d="M 32 0 C 14.326888 0 4 10.058875 4 20 C 4 28.209273 11.031616 39.222986 23.4375 42.8125 L 20 60 L 36.28125 43.71875 C 51.327824 41.678045 60 29.108615 60 20 C 60 10.058875 49.673112 5.2041704e-17 32 0 z M 41.9375 6.875 C 42.449834 6.8996685 43.102618 7.2052355 44 8 C 55.235774 15.625474 55.122187 23.62926 44 32 C 42.666667 32.398116 41.333333 32.701452 40 32 C 44.803537 24.355818 45.253431 16.389143 40 8 C 40.612992 7.5593169 41.08361 6.8338858 41.9375 6.875 z M 20 7.59375 C 22.281491 7.59375 24.125 9.4924217 24.125 11.8125 C 24.125 14.132578 22.281491 16 20 16 C 17.718509 16 15.875 14.132578 15.875 11.8125 C 15.875 9.4924217 17.718509 7.59375 20 7.59375 z M 36 16 C 36.176165 16.800069 38.77022 17.086101 36 20 C 34.808903 19.857764 32.535049 20.798284 28 24 C 27.224366 23.152255 26.247601 22.628311 28 20 C 30.068569 17.265729 32.814821 16.129218 36 16 z M 20.25 24.03125 C 22.324083 24.03125 24 25.831758 24 28.03125 C 24 30.230742 22.074083 36 20 36 C 22.387895 33.682149 23.560413 27.694965 17.875 24.9375 C 18.523053 24.373351 19.346131 24.03125 20.25 24.03125 z "
       id="path4819" />
  </g>
</svg>
