<?xml version="1.0" encoding="UTF-8" standalone="no"?>
<!-- Created with Inkscape (http://www.inkscape.org/) -->

<svg
   xmlns:dc="http://purl.org/dc/elements/1.1/"
   xmlns:cc="http://creativecommons.org/ns#"
   xmlns:rdf="http://www.w3.org/1999/02/22-rdf-syntax-ns#"
   xmlns:svg="http://www.w3.org/2000/svg"
   xmlns="http://www.w3.org/2000/svg"
   xmlns:sodipodi="http://sodipodi.sourceforge.net/DTD/sodipodi-0.dtd"
   xmlns:inkscape="http://www.inkscape.org/namespaces/inkscape"
   width="64"
   height="64"
   id="svg2"
   version="1.1"
   inkscape:version="0.47pre2 r22153"
   sodipodi:docname="download-mail.svg">
  <defs
     id="defs4">
    <inkscape:perspective
       sodipodi:type="inkscape:persp3d"
       inkscape:vp_x="0 : 526.18109 : 1"
       inkscape:vp_y="0 : 1000 : 0"
       inkscape:vp_z="744.09448 : 526.18109 : 1"
       inkscape:persp3d-origin="372.04724 : 350.78739 : 1"
       id="perspective10" />
  </defs>
  <sodipodi:namedview
     id="base"
     pagecolor="#ffffff"
     bordercolor="#666666"
     borderopacity="1.0"
     inkscape:pageopacity="0.0"
     inkscape:pageshadow="2"
     inkscape:zoom="11.40625"
     inkscape:cx="32"
     inkscape:cy="31.956164"
     inkscape:document-units="px"
     inkscape:current-layer="layer1"
     showgrid="true"
     inkscape:window-width="1425"
     inkscape:window-height="969"
     inkscape:window-x="263"
     inkscape:window-y="83"
     inkscape:window-maximized="0">
    <inkscape:grid
       type="xygrid"
       id="grid2816"
       empspacing="4"
       visible="true"
       enabled="true"
       snapvisiblegridlinesonly="true" />
  </sodipodi:namedview>
  <metadata
     id="metadata7">
    <rdf:RDF>
      <cc:Work
         rdf:about="">
        <dc:format>image/svg+xml</dc:format>
        <dc:type
           rdf:resource="http://purl.org/dc/dcmitype/StillImage" />
        <dc:title></dc:title>
      </cc:Work>
    </rdf:RDF>
  </metadata>
  <g
     inkscape:label="Layer 1"
     inkscape:groupmode="layer"
     id="layer1"
     transform="translate(0,-988.36218)">
    <path
       id="rect3738"
       style="opacity:0.66000001;fill:#000000;fill-opacity:1;fill-rule:nonzero;stroke:none"
       d="m 32,1016.3622 0,0 c 1.108,0 21,-14.108 21,-13 l 3,2 c 0,1.108 -22.892,16 -24,16 l 0,0 c -1.108,0 -24,-14.892 -24,-16 l 3,-2 c 0,-1.108 19.892,13 21,13 z m -24,-16 c -2.216,0 -4,1.784 -4,4 l 0,28 c 0,2.216 1.784,4 4,4 l 48,0 c 2.216,0 4,-1.784 4,-4 l 0,-28 c 0,-2.216 -1.784,-4 -4,-4 l -48,0 z m 3.0625,2.9375 c 0.208809,-0.032 0.996046,0.3889 2.125,1.0625 l 37.625,0 c 1.332629,-0.7951 2.1875,-1.2266 2.1875,-1 l 1.6875,1.125 c 0.275949,0.1006 0.515406,0.2654 0.71875,0.4687 l 0.03125,0.031 0.5625,0.375 c 0,0.05 -0.06533,0.1449 -0.15625,0.25 0.09388,0.2322 0.15625,0.4834 0.15625,0.75 l 0,24 c 0,1.108 -0.892,2 -2,2 l -44,0 c -1.108,0 -2,-0.892 -2,-2 l 0,-24 c 0,-0.2666 0.062374,-0.5178 0.15625,-0.75 C 8.0653305,1005.5071 8,1005.4127 8,1005.3622 l 0.5625,-0.375 c 0.010356,-0.011 0.020654,-0.021 0.03125,-0.031 0.2033438,-0.2034 0.4428009,-0.3681 0.71875,-0.4688 L 11,1003.3622 c 0,-0.035 0.02483,-0.057 0.0625,-0.063 z" />
  </g>
</svg>
