<?xml version="1.0" encoding="UTF-8" standalone="no"?>
<!-- Created with Inkscape (http://www.inkscape.org/) -->

<svg
   xmlns:dc="http://purl.org/dc/elements/1.1/"
   xmlns:cc="http://creativecommons.org/ns#"
   xmlns:rdf="http://www.w3.org/1999/02/22-rdf-syntax-ns#"
   xmlns:svg="http://www.w3.org/2000/svg"
   xmlns="http://www.w3.org/2000/svg"
   xmlns:sodipodi="http://sodipodi.sourceforge.net/DTD/sodipodi-0.dtd"
   xmlns:inkscape="http://www.inkscape.org/namespaces/inkscape"
   width="64"
   height="64"
   id="svg2"
   version="1.1"
   inkscape:version="0.47pre2 r22153"
   sodipodi:docname="media-playback-start-alt.svg">
  <defs
     id="defs4">
    <inkscape:perspective
       sodipodi:type="inkscape:persp3d"
       inkscape:vp_x="0 : 526.18109 : 1"
       inkscape:vp_y="0 : 1000 : 0"
       inkscape:vp_z="744.09448 : 526.18109 : 1"
       inkscape:persp3d-origin="372.04724 : 350.78739 : 1"
       id="perspective10" />
  </defs>
  <sodipodi:namedview
     id="base"
     pagecolor="#ffffff"
     bordercolor="#666666"
     borderopacity="1.0"
     inkscape:pageopacity="0.0"
     inkscape:pageshadow="2"
     inkscape:zoom="11.671875"
     inkscape:cx="19.062918"
     inkscape:cy="32"
     inkscape:document-units="px"
     inkscape:current-layer="layer1"
     showgrid="true"
     inkscape:window-width="1174"
     inkscape:window-height="963"
     inkscape:window-x="431"
     inkscape:window-y="40"
     inkscape:window-maximized="0">
    <inkscape:grid
       type="xygrid"
       id="grid2816"
       empspacing="4"
       visible="true"
       enabled="true"
       snapvisiblegridlinesonly="true" />
  </sodipodi:namedview>
  <metadata
     id="metadata7">
    <rdf:RDF>
      <cc:Work
         rdf:about="">
        <dc:format>image/svg+xml</dc:format>
        <dc:type
           rdf:resource="http://purl.org/dc/dcmitype/StillImage" />
        <dc:title></dc:title>
      </cc:Work>
    </rdf:RDF>
  </metadata>
  <g
     inkscape:label="Layer 1"
     inkscape:groupmode="layer"
     id="layer1"
     transform="translate(0,-988.36218)">
    <path
       style="opacity:0.66000001;fill:#000000;fill-opacity:1;fill-rule:nonzero;stroke:none"
       d="M 24.59375 7.4375 C 22.531304 7.4963264 21.107945 8.491946 20.125 10.46875 C 23.162978 11.953543 26.720746 13.935621 31 16.40625 C 41.466757 22.449236 47.510186 26.389123 49.15625 30 L 63.15625 30 C 61.510186 26.389123 55.466757 22.449235 45 16.40625 C 34.90875 10.580064 28.574635 7.3239547 24.59375 7.4375 z M 49.15625 34 C 47.510186 37.610877 41.466758 41.550765 31 47.59375 C 26.720745 50.064379 23.162978 52.046458 20.125 53.53125 C 23.005202 59.323635 29.680601 56.438409 45 47.59375 C 55.466757 41.550765 61.510186 37.610877 63.15625 34 L 49.15625 34 z "
       transform="translate(0,988.36218)"
       id="path2820" />
    <path
       style="opacity:0.66000001;fill:#000000;fill-opacity:1;fill-rule:nonzero;stroke:none"
       d="M 6.59375 7.4375 C 4.6430512 7.493139 3.2598973 8.3770691 2.28125 10.15625 C 5.451751 11.668086 9.2464015 13.751954 13.84375 16.40625 C 24.310507 22.44925 30.353936 26.3913 32 30 L 45.15625 30 C 43.510186 26.391298 37.466757 22.449236 27 16.40625 C 16.90875 10.580064 10.574635 7.3239549 6.59375 7.4375 z M 32 34 C 30.353936 37.6087 24.310507 41.55075 13.84375 47.59375 C 9.2699802 50.23442 5.4767492 52.338667 2.3125 53.84375 C 5.2890838 59.196623 11.991588 56.25886 27 47.59375 C 37.466757 41.550765 43.510186 37.608702 45.15625 34 L 32 34 z "
       transform="translate(0,988.36218)"
       id="path2868" />
  </g>
</svg>
