<?xml version="1.0" encoding="UTF-8" standalone="no"?>
<!-- Created with Inkscape (http://www.inkscape.org/) -->

<svg
   xmlns:dc="http://purl.org/dc/elements/1.1/"
   xmlns:cc="http://creativecommons.org/ns#"
   xmlns:rdf="http://www.w3.org/1999/02/22-rdf-syntax-ns#"
   xmlns:svg="http://www.w3.org/2000/svg"
   xmlns="http://www.w3.org/2000/svg"
   xmlns:sodipodi="http://sodipodi.sourceforge.net/DTD/sodipodi-0.dtd"
   xmlns:inkscape="http://www.inkscape.org/namespaces/inkscape"
   width="64"
   height="64"
   id="svg2"
   version="1.1"
   inkscape:version="0.47pre2 r22153"
   sodipodi:docname="media-playback-start-alt.svg">
  <defs
     id="defs4">
    <inkscape:perspective
       sodipodi:type="inkscape:persp3d"
       inkscape:vp_x="0 : 526.18109 : 1"
       inkscape:vp_y="0 : 1000 : 0"
       inkscape:vp_z="744.09448 : 526.18109 : 1"
       inkscape:persp3d-origin="372.04724 : 350.78739 : 1"
       id="perspective10" />
  </defs>
  <sodipodi:namedview
     id="base"
     pagecolor="#ffffff"
     bordercolor="#666666"
     borderopacity="1.0"
     inkscape:pageopacity="0.0"
     inkscape:pageshadow="2"
     inkscape:zoom="11.5625"
     inkscape:cx="32"
     inkscape:cy="32"
     inkscape:document-units="px"
     inkscape:current-layer="layer1"
     showgrid="true"
     inkscape:window-width="1174"
     inkscape:window-height="963"
     inkscape:window-x="436"
     inkscape:window-y="95"
     inkscape:window-maximized="0">
    <inkscape:grid
       type="xygrid"
       id="grid2816"
       empspacing="4"
       visible="true"
       enabled="true"
       snapvisiblegridlinesonly="true" />
  </sodipodi:namedview>
  <metadata
     id="metadata7">
    <rdf:RDF>
      <cc:Work
         rdf:about="">
        <dc:format>image/svg+xml</dc:format>
        <dc:type
           rdf:resource="http://purl.org/dc/dcmitype/StillImage" />
        <dc:title></dc:title>
      </cc:Work>
    </rdf:RDF>
  </metadata>
  <g
     inkscape:label="Layer 1"
     inkscape:groupmode="layer"
     id="layer1"
     transform="translate(0,-988.36218)">
    <path
       style="opacity:0.66000001;fill:#000000;fill-opacity:1;fill-rule:nonzero;stroke:none"
       d="m 18,996.36218 c -4.432,0 -8,3.568 -8,8.00002 l 0,14 6,0 0,-10 c 0,-1.108 0.892,-2 2,-2 1.108,0 2,0.892 2,2 l 0,10 6,0 0,-14 c 0,-4.43202 -3.568,-8.00002 -8,-8.00002 z m -8,26.00002 0,14 c 0,4.432 3.568,8 8,8 4.432,0 8,-3.568 8,-8 l 0,-14 -6,0 0,10 c 0,1.108 -0.892,2 -2,2 -1.108,0 -2,-0.892 -2,-2 l 0,-10 -6,0 z"
       id="rect3009" />
    <path
       style="opacity:0.66000001;fill:#000000;fill-opacity:1;fill-rule:nonzero;stroke:none"
       d="m 45.8125,996.36218 c -4.432,0 -8,3.568 -8,8.00002 l 0,14 6.1875,0 0,-10.0938 c 0,-1.0571 0.849158,-1.9062 1.90625,-1.9062 1.057092,0 1.90625,0.8491 1.90625,1.9062 l 0,10.0938 6,0 0,-14 c 0,-4.43202 -3.568,-8.00002 -8,-8.00002 z m -8,26.00002 0,14 c 0,4.432 3.568,8 8,8 4.432,0 8,-3.568 8,-8 l 0,-14 -6,0 0,10.0937 c 0,1.0571 -0.849158,1.9063 -1.90625,1.9063 -1.057092,0 -1.90625,-0.8492 -1.90625,-1.9063 l 0,-10.0937 -6.1875,0 z"
       id="rect3011" />
  </g>
</svg>
