<?xml version="1.0" encoding="UTF-8" standalone="no"?>
<!-- Created with Inkscape (http://www.inkscape.org/) -->

<svg
   xmlns:dc="http://purl.org/dc/elements/1.1/"
   xmlns:cc="http://creativecommons.org/ns#"
   xmlns:rdf="http://www.w3.org/1999/02/22-rdf-syntax-ns#"
   xmlns:svg="http://www.w3.org/2000/svg"
   xmlns="http://www.w3.org/2000/svg"
   xmlns:sodipodi="http://sodipodi.sourceforge.net/DTD/sodipodi-0.dtd"
   xmlns:inkscape="http://www.inkscape.org/namespaces/inkscape"
   width="64"
   height="64"
   id="svg2"
   version="1.1"
   inkscape:version="0.47pre2 r22153"
   sodipodi:docname="media-skip-backward-alt.svg">
  <defs
     id="defs4">
    <inkscape:perspective
       sodipodi:type="inkscape:persp3d"
       inkscape:vp_x="0 : 526.18109 : 1"
       inkscape:vp_y="0 : 1000 : 0"
       inkscape:vp_z="744.09448 : 526.18109 : 1"
       inkscape:persp3d-origin="372.04724 : 350.78739 : 1"
       id="perspective10" />
  </defs>
  <sodipodi:namedview
     id="base"
     pagecolor="#ffffff"
     bordercolor="#666666"
     borderopacity="1.0"
     inkscape:pageopacity="0.0"
     inkscape:pageshadow="2"
     inkscape:zoom="11.671875"
     inkscape:cx="28.776252"
     inkscape:cy="32"
     inkscape:document-units="px"
     inkscape:current-layer="layer1"
     showgrid="true"
     inkscape:window-width="1174"
     inkscape:window-height="963"
     inkscape:window-x="431"
     inkscape:window-y="40"
     inkscape:window-maximized="0">
    <inkscape:grid
       type="xygrid"
       id="grid2816"
       empspacing="4"
       visible="true"
       enabled="true"
       snapvisiblegridlinesonly="true" />
  </sodipodi:namedview>
  <metadata
     id="metadata7">
    <rdf:RDF>
      <cc:Work
         rdf:about="">
        <dc:format>image/svg+xml</dc:format>
        <dc:type
           rdf:resource="http://purl.org/dc/dcmitype/StillImage" />
        <dc:title></dc:title>
      </cc:Work>
    </rdf:RDF>
  </metadata>
  <g
     inkscape:label="Layer 1"
     inkscape:groupmode="layer"
     id="layer1"
     transform="translate(0,-988.36218)">
    <path
       style="opacity:0.66000001;fill:#000000;fill-opacity:1;fill-rule:nonzero;stroke:none"
       d="M 12.03125 2 C 5.1620434 2.1959275 4.0670482 10.66694 4 30 L 17.53125 30 C 17.603064 20.826726 18.231893 16.721766 21.625 16.625 C 24.11615 16.5539 28.09137 18.6041 34.40625 22.25 C 40.248281 25.622873 43.894562 27.933265 45.34375 30 L 59.375 30 C 57.668203 25.467403 50.220179 20.570175 37 12.9375 C 24.66625 5.8166055 16.896776 1.8612226 12.03125 2 z M 4 34 C 4.114536 67.026855 7.2533169 68.236754 37 51.0625 C 50.22018 43.429827 57.668203 38.532596 59.375 34 L 45.34375 34 C 43.894562 36.066735 40.248282 38.377127 34.40625 41.75 C 19.486532 50.363885 17.624227 49.916825 17.5 34 L 4 34 z "
       transform="translate(0,988.36218)"
       id="path2820" />
  </g>
</svg>
