<?xml version="1.0" encoding="UTF-8" standalone="no"?>
<!-- Created with Inkscape (http://www.inkscape.org/) -->

<svg
   xmlns:svg="http://www.w3.org/2000/svg"
   xmlns="http://www.w3.org/2000/svg"
   version="1.1"
   width="128"
   height="128"
   id="svg2">
  <defs
     id="defs4" />
  <path
     d="M 64,0 C 45.492863,6.5405739e-7 64.035865,15.698876 46.9375,22.78125 29.839139,29.863622 31.836518,5.6634806 18.75,18.75 5.6634788,31.836522 29.863625,29.839136 22.78125,46.9375 15.698876,64.035861 -6.540571e-7,45.492868 0,64 6.5405739e-7,82.507137 15.698876,63.964135 22.78125,81.0625 29.863622,98.160861 5.6634806,96.163484 18.75,109.25 31.836522,122.33652 29.839136,98.136375 46.9375,105.21875 64.035861,112.30112 45.492868,128 64,128 82.507137,128 63.964135,112.30112 81.0625,105.21875 98.160861,98.136377 96.163484,122.33652 109.25,109.25 122.33652,96.163474 98.136375,98.160864 105.21875,81.0625 112.30112,63.964141 128,82.507132 128,64 128,45.492863 112.30112,64.035865 105.21875,46.9375 98.136377,29.839139 122.33652,31.836518 109.25,18.75 96.163474,5.6634788 98.160864,29.863625 81.0625,22.78125 63.964139,15.698876 82.507132,-6.5405711e-7 64,0 z M 51.6875,37.25 C 56.158194,37.017261 63.153125,40.425053 74,46.6875 100.7,62.102753 100.7,65.897249 74,81.3125 47.299999,96.727751 43.999999,94.830504 44,64 c 10e-7,-18.305612 1.153409,-26.409843 7.6875,-26.75 z"
     id="path2823"
     style="opacity:0.59999988;fill:#000000;fill-opacity:1;fill-rule:nonzero;stroke:none" />
</svg>
