<?xml version="1.0" encoding="UTF-8" standalone="no"?>
<!-- Created with Inkscape (http://www.inkscape.org/) -->

<svg
   xmlns:dc="http://purl.org/dc/elements/1.1/"
   xmlns:cc="http://creativecommons.org/ns#"
   xmlns:rdf="http://www.w3.org/1999/02/22-rdf-syntax-ns#"
   xmlns:svg="http://www.w3.org/2000/svg"
   xmlns="http://www.w3.org/2000/svg"
   xmlns:sodipodi="http://sodipodi.sourceforge.net/DTD/sodipodi-0.dtd"
   xmlns:inkscape="http://www.inkscape.org/namespaces/inkscape"
   width="16"
   height="16"
   id="svg2"
   version="1.1"
   inkscape:version="0.48.0 r9654"
   sodipodi:docname="saveload.svg">
  <defs
     id="defs4" />
  <sodipodi:namedview
     id="base"
     pagecolor="#ffffff"
     bordercolor="#666666"
     borderopacity="1.0"
     inkscape:pageopacity="0.0"
     inkscape:pageshadow="2"
     inkscape:zoom="1.37"
     inkscape:cx="7.1428571"
     inkscape:cy="9.7608603"
     inkscape:document-units="px"
     inkscape:current-layer="layer1"
     showgrid="false"
     showguides="true"
     inkscape:guide-bbox="true"
     showborder="false"
     inkscape:showpageshadow="false"
     inkscape:window-width="1219"
     inkscape:window-height="900"
     inkscape:window-x="186"
     inkscape:window-y="85"
     inkscape:window-maximized="0">
    <inkscape:grid
       type="xygrid"
       id="grid3019"
       empspacing="4"
       visible="true"
       enabled="true"
       snapvisiblegridlinesonly="true" />
  </sodipodi:namedview>
  <metadata
     id="metadata7">
    <rdf:RDF>
      <cc:Work
         rdf:about="">
        <dc:format>image/svg+xml</dc:format>
        <dc:type
           rdf:resource="http://purl.org/dc/dcmitype/StillImage" />
        <dc:title></dc:title>
      </cc:Work>
    </rdf:RDF>
  </metadata>
  <g
     inkscape:label="Ebene 1"
     inkscape:groupmode="layer"
     id="layer1"
     transform="translate(0,-1036.3622)">
    <g
       id="g3025">
      <path
         sodipodi:type="arc"
         style="fill:#000000;fill-opacity:1;stroke:none"
         id="path2993"
         sodipodi:cx="274.28571"
         sodipodi:cy="592.36218"
         sodipodi:rx="208.57143"
         sodipodi:ry="208.57143"
         d="m 378.57143,411.73403 a 208.57143,208.57143 0 1 1 -208.57135,-5e-5 l 104.28563,180.6282 z"
         transform="matrix(0.0359529,0,0,0.0359529,-2.3613668,1023.5651)"
         sodipodi:start="5.2359878"
         sodipodi:end="10.471976" />
      <path
         sodipodi:end="5.1487213"
         sodipodi:start="4.2760567"
         transform="matrix(0.03355604,0,0,0.03355604,-1.7039425,1023.4837)"
         d="m 186.13962,403.33227 a 208.57143,208.57143 0 0 1 176.29218,1e-5 l -88.14609,189.0299 z"
         sodipodi:ry="208.57143"
         sodipodi:rx="208.57143"
         sodipodi:cy="592.36218"
         sodipodi:cx="274.28571"
         id="path2995"
         style="fill:#000000;fill-opacity:1;stroke:none"
         sodipodi:type="arc" />
    </g>
    <g
       id="g3029"
       transform="matrix(1,0,0,-1,20,2088.7244)">
      <path
         sodipodi:end="10.471976"
         sodipodi:start="5.2359878"
         transform="matrix(0.0359529,0,0,0.0359529,-2.3613668,1023.5651)"
         d="M 378.57143,411.73403 C 478.3296,469.32945 512.50927,596.88973 454.91385,696.6479 397.31844,796.40608 269.75816,830.58575 169.99998,772.99033 70.241812,715.39492 36.062143,587.83463 93.657556,488.07646 111.96354,456.36957 138.29318,430.03994 170.00008,411.73398 l 104.28563,180.6282 z"
         sodipodi:ry="208.57143"
         sodipodi:rx="208.57143"
         sodipodi:cy="592.36218"
         sodipodi:cx="274.28571"
         id="path3031"
         style="fill:#000000;fill-opacity:1;stroke:none"
         sodipodi:type="arc" />
      <path
         sodipodi:type="arc"
         style="fill:#000000;fill-opacity:1;stroke:none"
         id="path3033"
         sodipodi:cx="274.28571"
         sodipodi:cy="592.36218"
         sodipodi:rx="208.57143"
         sodipodi:ry="208.57143"
         d="m 186.13962,403.33227 c 55.87589,-26.05535 120.41629,-26.05535 176.29218,1e-5 l -88.14609,189.0299 z"
         transform="matrix(0.03355604,0,0,0.03355604,-1.7039425,1023.4837)"
         sodipodi:start="4.2760567"
         sodipodi:end="5.1487213" />
    </g>
    <g
       id="g3054"
       transform="matrix(0,-1,1,0,-1056.8622,1051.8622)">
      <path
         sodipodi:end="10.471976"
         sodipodi:start="5.2359878"
         transform="matrix(0.0359529,0,0,0.0359529,-2.3613668,1023.5651)"
         d="M 378.57143,411.73403 C 478.3296,469.32945 512.50927,596.88973 454.91385,696.6479 397.31844,796.40608 269.75816,830.58575 169.99998,772.99033 70.241812,715.39492 36.062143,587.83463 93.657556,488.07646 111.96354,456.36957 138.29318,430.03994 170.00008,411.73398 l 104.28563,180.6282 z"
         sodipodi:ry="208.57143"
         sodipodi:rx="208.57143"
         sodipodi:cy="592.36218"
         sodipodi:cx="274.28571"
         id="path3056"
         style="fill:#000000;fill-opacity:1;stroke:none"
         sodipodi:type="arc" />
      <path
         sodipodi:type="arc"
         style="fill:#000000;fill-opacity:1;stroke:none"
         id="path3058"
         sodipodi:cx="274.28571"
         sodipodi:cy="592.36218"
         sodipodi:rx="208.57143"
         sodipodi:ry="208.57143"
         d="m 186.13962,403.33227 c 55.87589,-26.05535 120.41629,-26.05535 176.29218,1e-5 l -88.14609,189.0299 z"
         transform="matrix(0.03355604,0,0,0.03355604,-1.7039425,1023.4837)"
         sodipodi:start="4.2760567"
         sodipodi:end="5.1487213" />
    </g>
  </g>
</svg>
