<?xml version="1.0" encoding="UTF-8" standalone="no"?>
<!-- Created with Inkscape (http://www.inkscape.org/) -->

<svg
   xmlns:dc="http://purl.org/dc/elements/1.1/"
   xmlns:cc="http://creativecommons.org/ns#"
   xmlns:rdf="http://www.w3.org/1999/02/22-rdf-syntax-ns#"
   xmlns:svg="http://www.w3.org/2000/svg"
   xmlns="http://www.w3.org/2000/svg"
   xmlns:sodipodi="http://sodipodi.sourceforge.net/DTD/sodipodi-0.dtd"
   xmlns:inkscape="http://www.inkscape.org/namespaces/inkscape"
   width="64"
   height="64"
   id="svg2"
   version="1.1"
   inkscape:version="0.47pre2 r22153"
   sodipodi:docname="New document 1">
  <defs
     id="defs4">
    <inkscape:perspective
       sodipodi:type="inkscape:persp3d"
       inkscape:vp_x="0 : 526.18109 : 1"
       inkscape:vp_y="0 : 1000 : 0"
       inkscape:vp_z="744.09448 : 526.18109 : 1"
       inkscape:persp3d-origin="372.04724 : 350.78739 : 1"
       id="perspective10" />
  </defs>
  <sodipodi:namedview
     id="base"
     pagecolor="#ffffff"
     bordercolor="#666666"
     borderopacity="1.0"
     inkscape:pageopacity="0.0"
     inkscape:pageshadow="2"
     inkscape:zoom="12.4375"
     inkscape:cx="29.708543"
     inkscape:cy="32"
     inkscape:document-units="px"
     inkscape:current-layer="layer1"
     showgrid="true"
     inkscape:window-width="1293"
     inkscape:window-height="1032"
     inkscape:window-x="330"
     inkscape:window-y="41"
     inkscape:window-maximized="0">
    <inkscape:grid
       type="xygrid"
       id="grid2816"
       empspacing="4"
       visible="true"
       enabled="true"
       snapvisiblegridlinesonly="true" />
  </sodipodi:namedview>
  <metadata
     id="metadata7">
    <rdf:RDF>
      <cc:Work
         rdf:about="">
        <dc:format>image/svg+xml</dc:format>
        <dc:type
           rdf:resource="http://purl.org/dc/dcmitype/StillImage" />
        <dc:title></dc:title>
      </cc:Work>
    </rdf:RDF>
  </metadata>
  <g
     inkscape:label="Layer 1"
     inkscape:groupmode="layer"
     id="layer1"
     transform="translate(0,-988.36218)">
    <path
       style="opacity:0.66000001;fill:#000000;fill-opacity:1;fill-rule:nonzero;stroke:none"
       d="M 32 0 C 14.326888 3.5527137e-15 -6.3297966e-17 14.326888 0 32 C 0 49.673112 14.326888 64 32 64 C 49.673112 64 64 49.673112 64 32 C 64 14.326888 49.673112 -7.1687253e-15 32 0 z M 31.84375 8 C 45.009774 8 55.6875 18.812606 55.6875 32.15625 C 55.6875 45.499894 45.009774 56.3125 31.84375 56.3125 C 18.677726 56.3125 8 45.499894 8 32.15625 C 8 18.812606 18.677726 8 31.84375 8 z "
       transform="translate(0,988.36218)"
       id="path3625" />
    <path
       sodipodi:type="star"
       style="opacity:0.66000001;fill:#000000;fill-opacity:1;fill-rule:nonzero;stroke:none"
       id="path3630"
       sodipodi:sides="3"
       sodipodi:cx="32"
       sodipodi:cy="32"
       sodipodi:r1="19.849433"
       sodipodi:r2="15.859697"
       sodipodi:arg1="-2.284887"
       sodipodi:arg2="-1.2376895"
       inkscape:flatsided="false"
       inkscape:rounded="0.8"
       inkscape:randomized="0"
       d="m 19,16.999999 c 10.994259,-9.5283583 4.436884,-4.745034 18.185814,0.0121 C 50.934745,21.769223 48.735711,13.956182 51.490382,28.24167 54.245053,42.527157 53.38126,34.456642 42.387,43.985 31.39274,53.513359 39.258549,55.51546 25.509618,50.758331 11.760688,46.001202 19.181856,49.288393 16.427185,35.002906 13.672515,20.717418 8.0057398,26.528358 19,16.999999 z"
       transform="translate(0,988.36218)" />
  </g>
</svg>
