<?xml version="1.0" encoding="UTF-8" standalone="no"?>
<!-- Created with Inkscape (http://www.inkscape.org/) -->

<svg
   xmlns:dc="http://purl.org/dc/elements/1.1/"
   xmlns:cc="http://creativecommons.org/ns#"
   xmlns:rdf="http://www.w3.org/1999/02/22-rdf-syntax-ns#"
   xmlns:svg="http://www.w3.org/2000/svg"
   xmlns="http://www.w3.org/2000/svg"
   xmlns:sodipodi="http://sodipodi.sourceforge.net/DTD/sodipodi-0.dtd"
   xmlns:inkscape="http://www.inkscape.org/namespaces/inkscape"
   width="128"
   height="128"
   id="svg2"
   version="1.1"
   inkscape:version="0.47pre2 r22153"
   sodipodi:docname="system-search.svg">
  <defs
     id="defs4">
    <inkscape:perspective
       sodipodi:type="inkscape:persp3d"
       inkscape:vp_x="0 : 526.18109 : 1"
       inkscape:vp_y="0 : 1000 : 0"
       inkscape:vp_z="744.09448 : 526.18109 : 1"
       inkscape:persp3d-origin="372.04724 : 350.78739 : 1"
       id="perspective10" />
  </defs>
  <sodipodi:namedview
     id="base"
     pagecolor="#ffffff"
     bordercolor="#666666"
     borderopacity="1.0"
     inkscape:pageopacity="0.0"
     inkscape:pageshadow="2"
     inkscape:zoom="5.515625"
     inkscape:cx="64"
     inkscape:cy="64.090652"
     inkscape:document-units="px"
     inkscape:current-layer="layer1"
     showgrid="true"
     inkscape:window-width="1186"
     inkscape:window-height="944"
     inkscape:window-x="345"
     inkscape:window-y="91"
     inkscape:window-maximized="0">
    <inkscape:grid
       type="xygrid"
       id="grid2816"
       empspacing="4"
       visible="true"
       enabled="true"
       snapvisiblegridlinesonly="true" />
  </sodipodi:namedview>
  <metadata
     id="metadata7">
    <rdf:RDF>
      <cc:Work
         rdf:about="">
        <dc:format>image/svg+xml</dc:format>
        <dc:type
           rdf:resource="http://purl.org/dc/dcmitype/StillImage" />
        <dc:title></dc:title>
      </cc:Work>
    </rdf:RDF>
  </metadata>
  <g
     inkscape:label="Layer 1"
     inkscape:groupmode="layer"
     id="layer1"
     transform="translate(0,-924.36218)">
    <path
       style="opacity:0.66000007;fill:#000000;fill-opacity:1;fill-rule:nonzero;stroke:none"
       d="M 64 0 C 28.653776 7.1054274e-15 -1.1242185e-16 28.653776 0 64 C 0 99.346224 28.653776 128 64 128 C 99.346224 128 128 99.346224 128 64 C 128 28.653776 99.346224 -1.4323277e-14 64 0 z M 64 8 C 94.927946 8 120 33.072054 120 64 C 120 94.927946 94.927946 120 64 120 C 33.072054 120 8 94.927946 8 64 C 8 33.072054 33.072054 8 64 8 z "
       transform="translate(0,924.36218)"
       id="path3698" />
    <path
       sodipodi:type="arc"
       style="opacity:0.66000007;fill:#000000;fill-opacity:1;fill-rule:nonzero;stroke:none"
       id="path3703"
       sodipodi:cx="64"
       sodipodi:cy="64"
       sodipodi:rx="20"
       sodipodi:ry="20"
       d="m 84,64 a 20,20 0 1 1 -40,0 20,20 0 1 1 40,0 z"
       transform="translate(0,924.36218)" />
    <path
       style="opacity:0.66000007;fill:#000000;fill-opacity:1;fill-rule:nonzero;stroke:none"
       d="M 64.1875 8 C 60.23144 8 56.91645 20.51396 56.15625 37.125 C 58.649081 36.397609 61.272226 36 64 36 C 66.853905 36 69.593437 36.425205 72.1875 37.21875 C 71.435359 20.56152 68.150919 8 64.1875 8 z "
       id="path3707"
       transform="translate(0,924.36218)" />
    <path
       id="path3716"
       d="m 64,1044.5809 c -3.95606,0 -7.27105,-12.5139 -8.03125,-29.125 2.492831,0.7274 5.115976,1.125 7.84375,1.125 2.853905,0 5.593437,-0.4252 8.1875,-1.2187 -0.752141,16.6572 -4.036581,29.2187 -8,29.2187 z"
       style="opacity:0.66000007;fill:#000000;fill-opacity:1;fill-rule:nonzero;stroke:none" />
  </g>
</svg>
