<?xml version="1.0" encoding="UTF-8" standalone="no"?>
<!-- Created with Inkscape (http://www.inkscape.org/) -->

<svg
   xmlns:dc="http://purl.org/dc/elements/1.1/"
   xmlns:cc="http://creativecommons.org/ns#"
   xmlns:rdf="http://www.w3.org/1999/02/22-rdf-syntax-ns#"
   xmlns:svg="http://www.w3.org/2000/svg"
   xmlns="http://www.w3.org/2000/svg"
   xmlns:sodipodi="http://sodipodi.sourceforge.net/DTD/sodipodi-0.dtd"
   xmlns:inkscape="http://www.inkscape.org/namespaces/inkscape"
   width="64"
   height="64"
   id="svg2"
   version="1.1"
   inkscape:version="0.47 r22583"
   inkscape:export-filename="/home/rob/.kde4/share/icons/nmfnms/48x48/actions/go-up.png"
   inkscape:export-xdpi="67.5"
   inkscape:export-ydpi="67.5"
   sodipodi:docname="view-list-details.svg"
   sodipodi:version="0.32"
   inkscape:output_extension="org.inkscape.output.svg.inkscape">
  <defs
     id="defs4">
    <inkscape:perspective
       sodipodi:type="inkscape:persp3d"
       inkscape:vp_x="0 : 526.18109 : 1"
       inkscape:vp_y="0 : 1000 : 0"
       inkscape:vp_z="744.09448 : 526.18109 : 1"
       inkscape:persp3d-origin="372.04724 : 350.78739 : 1"
       id="perspective10" />
  </defs>
  <sodipodi:namedview
     id="base"
     pagecolor="#ffffff"
     bordercolor="#666666"
     borderopacity="1.0"
     inkscape:pageopacity="0.0"
     inkscape:pageshadow="2"
     inkscape:zoom="9.3470678"
     inkscape:cx="31.258542"
     inkscape:cy="28.513209"
     inkscape:document-units="px"
     inkscape:current-layer="layer1"
     showgrid="true"
     inkscape:window-width="1647"
     inkscape:window-height="951"
     inkscape:window-x="184"
     inkscape:window-y="228"
     inkscape:window-maximized="0">
    <inkscape:grid
       type="xygrid"
       id="grid2816"
       empspacing="4"
       visible="true"
       enabled="true"
       snapvisiblegridlinesonly="true" />
  </sodipodi:namedview>
  <metadata
     id="metadata7">
    <rdf:RDF>
      <cc:Work
         rdf:about="">
        <dc:format>image/svg+xml</dc:format>
        <dc:type
           rdf:resource="http://purl.org/dc/dcmitype/StillImage" />
        <dc:title></dc:title>
      </cc:Work>
    </rdf:RDF>
  </metadata>
  <g
     inkscape:label="Layer 1"
     inkscape:groupmode="layer"
     id="layer1"
     transform="translate(0,-988.36218)">
    <path
       transform="translate(4.0000009,988.36218)"
       style="fill:#000000;fill-opacity:1;fill-rule:nonzero;stroke:none"
       d="M 3.9999991,7.9999993 C 6.2061724,5.793826 17.793825,5.7938248 19.999999,7.9999981 c 2.206173,2.2061729 2.206173,13.7938279 0,16.0000019 -2.206173,2.206173 -13.7938264,2.206174 -15.9999997,1e-6 -2.2061733,-2.206173 -2.2061735,-13.793828 -2e-7,-16.0000017 z"
       id="path2817"
       sodipodi:nodetypes="csssc" />
    <path
       sodipodi:nodetypes="csssc"
       id="path2826"
       d="m 40,996.36218 c 2.206173,-2.20617 13.793826,-2.20617 16,0 2.206173,2.20617 2.206173,13.79382 0,16.00002 -2.206173,2.2062 -13.793826,2.2062 -16,0 -2.206173,-2.2062 -2.206173,-13.79385 0,-16.00002 z"
       style="fill:#000000;fill-opacity:1;fill-rule:nonzero;stroke:none" />
    <path
       style="fill:#000000;fill-opacity:1;fill-rule:nonzero;stroke:none"
       d="m 40,1028.3622 c 2.206173,-2.2062 13.793826,-2.2062 16,0 2.206173,2.2062 2.206173,13.7938 0,16 -2.206173,2.2062 -13.793826,2.2062 -16,0 -2.206173,-2.2062 -2.206173,-13.7938 0,-16 z"
       id="path2828"
       sodipodi:nodetypes="csssc" />
    <path
       sodipodi:nodetypes="csssc"
       id="path2830"
       d="m 8,1028.3622 c 2.206173,-2.2062 13.793826,-2.2062 16,0 2.206173,2.2062 2.206173,13.7938 0,16 -2.206173,2.2062 -13.793826,2.2062 -16,0 -2.206173,-2.2062 -2.206173,-13.7938 0,-16 z"
       style="fill:#000000;fill-opacity:1;fill-rule:nonzero;stroke:none" />
  </g>
</svg>
