<?xml version="1.0" encoding="UTF-8" standalone="no"?>
<!-- Created with Inkscape (http://www.inkscape.org/) -->

<svg
   xmlns:dc="http://purl.org/dc/elements/1.1/"
   xmlns:cc="http://creativecommons.org/ns#"
   xmlns:rdf="http://www.w3.org/1999/02/22-rdf-syntax-ns#"
   xmlns:svg="http://www.w3.org/2000/svg"
   xmlns="http://www.w3.org/2000/svg"
   xmlns:sodipodi="http://sodipodi.sourceforge.net/DTD/sodipodi-0.dtd"
   xmlns:inkscape="http://www.inkscape.org/namespaces/inkscape"
   width="64"
   height="64"
   id="svg2"
   version="1.1"
   inkscape:version="0.47 r22583"
   inkscape:export-filename="/home/rob/.kde4/share/icons/nmfnms/48x48/actions/go-up.png"
   inkscape:export-xdpi="67.5"
   inkscape:export-ydpi="67.5"
   sodipodi:docname="view-icons.svg"
   sodipodi:version="0.32"
   inkscape:output_extension="org.inkscape.output.svg.inkscape">
  <defs
     id="defs4">
    <inkscape:perspective
       sodipodi:type="inkscape:persp3d"
       inkscape:vp_x="0 : 526.18109 : 1"
       inkscape:vp_y="0 : 1000 : 0"
       inkscape:vp_z="744.09448 : 526.18109 : 1"
       inkscape:persp3d-origin="372.04724 : 350.78739 : 1"
       id="perspective10" />
  </defs>
  <sodipodi:namedview
     id="base"
     pagecolor="#ffffff"
     bordercolor="#666666"
     borderopacity="1.0"
     inkscape:pageopacity="0.0"
     inkscape:pageshadow="2"
     inkscape:zoom="9.3470678"
     inkscape:cx="7.8439397"
     inkscape:cy="30.171483"
     inkscape:document-units="px"
     inkscape:current-layer="layer1"
     showgrid="true"
     inkscape:window-width="1546"
     inkscape:window-height="932"
     inkscape:window-x="73"
     inkscape:window-y="57"
     inkscape:window-maximized="0">
    <inkscape:grid
       type="xygrid"
       id="grid2816"
       empspacing="4"
       visible="true"
       enabled="true"
       snapvisiblegridlinesonly="true" />
  </sodipodi:namedview>
  <metadata
     id="metadata7">
    <rdf:RDF>
      <cc:Work
         rdf:about="">
        <dc:format>image/svg+xml</dc:format>
        <dc:type
           rdf:resource="http://purl.org/dc/dcmitype/StillImage" />
        <dc:title></dc:title>
      </cc:Work>
    </rdf:RDF>
  </metadata>
  <g
     inkscape:label="Layer 1"
     inkscape:groupmode="layer"
     id="layer1"
     transform="translate(0,-988.36218)">
    <path
       style="fill:#000000;fill-opacity:1;fill-rule:nonzero;stroke:none"
       d="m 12,1000.3622 c 1.470782,-1.47082 38.529218,-1.47082 40,0 1.470782,1.4708 1.470782,2.5292 0,4 -1.470782,1.4708 -38.529218,1.4708 -40,0 -1.470782,-1.4708 -1.470782,-2.5292 0,-4 z"
       id="path3020"
       sodipodi:nodetypes="csssc" />
    <path
       sodipodi:nodetypes="csssc"
       id="path3106"
       d="m 12,1012.3622 c 1.470782,-1.4708 38.529218,-1.4708 40,0 1.470782,1.4708 1.470782,2.5292 0,4 -1.470782,1.4708 -38.529218,1.4708 -40,0 -1.470782,-1.4708 -1.470782,-2.5292 0,-4 z"
       style="fill:#000000;fill-opacity:1;fill-rule:nonzero;stroke:none" />
    <path
       style="fill:#000000;fill-opacity:1;fill-rule:nonzero;stroke:none"
       d="m 12,1024.3622 c 1.470782,-1.4708 38.529218,-1.4708 40,0 1.470782,1.4708 1.470782,2.5292 0,4 -1.470782,1.4708 -38.529218,1.4708 -40,0 -1.470782,-1.4708 -1.470782,-2.5292 0,-4 z"
       id="path3108"
       sodipodi:nodetypes="csssc" />
    <path
       sodipodi:nodetypes="csssc"
       id="path3110"
       d="m 12,1036.3622 c 1.470782,-1.4708 38.529218,-1.4708 40,0 1.470782,1.4708 1.470782,2.5292 0,4 -1.470782,1.4708 -38.529218,1.4708 -40,0 -1.470782,-1.4708 -1.470782,-2.5292 0,-4 z"
       style="fill:#000000;fill-opacity:1;fill-rule:nonzero;stroke:none" />
  </g>
</svg>
