<?xml version="1.0" encoding="UTF-8" standalone="no"?>
<!-- Created with Inkscape (http://www.inkscape.org/) -->

<svg
   xmlns:dc="http://purl.org/dc/elements/1.1/"
   xmlns:cc="http://creativecommons.org/ns#"
   xmlns:rdf="http://www.w3.org/1999/02/22-rdf-syntax-ns#"
   xmlns:svg="http://www.w3.org/2000/svg"
   xmlns="http://www.w3.org/2000/svg"
   xmlns:sodipodi="http://sodipodi.sourceforge.net/DTD/sodipodi-0.dtd"
   xmlns:inkscape="http://www.inkscape.org/namespaces/inkscape"
   width="64"
   height="64"
   id="svg2"
   version="1.1"
   inkscape:version="0.47 r22583"
   inkscape:export-filename="/home/rob/.kde4/share/icons/nmfnms/48x48/actions/go-up.png"
   inkscape:export-xdpi="67.5"
   inkscape:export-ydpi="67.5"
   sodipodi:docname="view-right-new.svg"
   sodipodi:version="0.32"
   inkscape:output_extension="org.inkscape.output.svg.inkscape">
  <defs
     id="defs4">
    <inkscape:perspective
       sodipodi:type="inkscape:persp3d"
       inkscape:vp_x="0 : 526.18109 : 1"
       inkscape:vp_y="0 : 1000 : 0"
       inkscape:vp_z="744.09448 : 526.18109 : 1"
       inkscape:persp3d-origin="372.04724 : 350.78739 : 1"
       id="perspective10" />
  </defs>
  <sodipodi:namedview
     id="base"
     pagecolor="#ffffff"
     bordercolor="#666666"
     borderopacity="1.0"
     inkscape:pageopacity="0.0"
     inkscape:pageshadow="2"
     inkscape:zoom="9.3470678"
     inkscape:cx="31.41902"
     inkscape:cy="31.29483"
     inkscape:document-units="px"
     inkscape:current-layer="layer1"
     showgrid="true"
     inkscape:window-width="1628"
     inkscape:window-height="875"
     inkscape:window-x="186"
     inkscape:window-y="154"
     inkscape:window-maximized="0">
    <inkscape:grid
       type="xygrid"
       id="grid2816"
       empspacing="4"
       visible="true"
       enabled="true"
       snapvisiblegridlinesonly="true" />
  </sodipodi:namedview>
  <metadata
     id="metadata7">
    <rdf:RDF>
      <cc:Work
         rdf:about="">
        <dc:format>image/svg+xml</dc:format>
        <dc:type
           rdf:resource="http://purl.org/dc/dcmitype/StillImage" />
        <dc:title></dc:title>
      </cc:Work>
    </rdf:RDF>
  </metadata>
  <g
     inkscape:label="Layer 1"
     inkscape:groupmode="layer"
     id="layer1"
     transform="translate(0,-988.36218)">
    <path
       transform="translate(-5.845293e-8,972.36218)"
       style="fill:#000000;fill-opacity:1;fill-rule:nonzero;stroke:none"
       d="M 4.0000001,20 C 5.4707821,18.529218 18.529218,18.529218 20,20 c 1.470782,1.470782 1.470782,54.529218 0,56 -1.470782,1.470782 -14.5292178,1.470782 -15.9999999,0 -1.4707821,-1.470782 -1.4707821,-54.529218 0,-56 z"
       id="path3364"
       sodipodi:nodetypes="csssc" />
    <path
       style="fill:#000000;fill-opacity:1;fill-rule:nonzero;stroke:none"
       d="M 44 2.90625 C 36.367695 2.90625 28.735391 3.26461 28 4 C 26.529218 5.47078 26.529218 58.5292 28 60 C 29.470782 61.4708 58.529218 61.4708 60 60 C 61.470782 58.5292 61.470782 5.47078 60 4 C 59.264609 3.26461 51.632305 2.90625 44 2.90625 z M 44 29.71875 C 49.908076 29.71875 55.816152 29.81615 56 30 C 56.367695 30.3677 56.367696 33.6323 56 34 C 55.632304 34.3677 32.367696 34.3677 32 34 C 31.632305 33.6323 31.632304 30.3677 32 30 C 32.183848 29.81615 38.091924 29.71875 44 29.71875 z "
       transform="translate(0,988.36218)"
       id="path3367" />
  </g>
</svg>
