<?xml version="1.0" encoding="UTF-8" standalone="no"?>
<!-- Created with Inkscape (http://www.inkscape.org/) -->

<svg
   xmlns:dc="http://purl.org/dc/elements/1.1/"
   xmlns:cc="http://creativecommons.org/ns#"
   xmlns:rdf="http://www.w3.org/1999/02/22-rdf-syntax-ns#"
   xmlns:svg="http://www.w3.org/2000/svg"
   xmlns="http://www.w3.org/2000/svg"
   xmlns:sodipodi="http://sodipodi.sourceforge.net/DTD/sodipodi-0.dtd"
   xmlns:inkscape="http://www.inkscape.org/namespaces/inkscape"
   width="64"
   height="64"
   id="svg2"
   version="1.1"
   inkscape:version="0.47 r22583"
   inkscape:export-filename="/home/rob/.kde4/share/icons/nmfnms/48x48/actions/go-up.png"
   inkscape:export-xdpi="67.5"
   inkscape:export-ydpi="67.5"
   sodipodi:docname="view-file-columns.svg"
   sodipodi:version="0.32"
   inkscape:output_extension="org.inkscape.output.svg.inkscape">
  <defs
     id="defs4">
    <inkscape:perspective
       sodipodi:type="inkscape:persp3d"
       inkscape:vp_x="0 : 526.18109 : 1"
       inkscape:vp_y="0 : 1000 : 0"
       inkscape:vp_z="744.09448 : 526.18109 : 1"
       inkscape:persp3d-origin="372.04724 : 350.78739 : 1"
       id="perspective10" />
  </defs>
  <sodipodi:namedview
     id="base"
     pagecolor="#ffffff"
     bordercolor="#666666"
     borderopacity="1.0"
     inkscape:pageopacity="0.0"
     inkscape:pageshadow="2"
     inkscape:zoom="9.3470678"
     inkscape:cx="31.258542"
     inkscape:cy="32.792626"
     inkscape:document-units="px"
     inkscape:current-layer="layer1"
     showgrid="true"
     inkscape:window-width="1628"
     inkscape:window-height="875"
     inkscape:window-x="174"
     inkscape:window-y="151"
     inkscape:window-maximized="0">
    <inkscape:grid
       type="xygrid"
       id="grid2816"
       empspacing="4"
       visible="true"
       enabled="true"
       snapvisiblegridlinesonly="true" />
  </sodipodi:namedview>
  <metadata
     id="metadata7">
    <rdf:RDF>
      <cc:Work
         rdf:about="">
        <dc:format>image/svg+xml</dc:format>
        <dc:type
           rdf:resource="http://purl.org/dc/dcmitype/StillImage" />
        <dc:title></dc:title>
      </cc:Work>
    </rdf:RDF>
  </metadata>
  <g
     inkscape:label="Layer 1"
     inkscape:groupmode="layer"
     id="layer1"
     transform="translate(0,-988.36218)">
    <path
       transform="translate(0,988.36218)"
       style="fill:#000000;fill-opacity:1;fill-rule:nonzero;stroke:none"
       d="M 4.0000001,4.0000002 C 5.4707821,2.5292181 22.529218,2.529218 24,4.0000001 25.470782,5.4707821 25.470782,22.529218 24,24 22.529218,25.470782 5.4707823,25.470782 4.0000002,24 2.5292181,22.529218 2.529218,5.4707823 4.0000001,4.0000002 z"
       id="path3133"
       sodipodi:nodetypes="csssc" />
    <path
       sodipodi:nodetypes="csssc"
       id="path3136"
       d="m 40,992.36218 c 1.470782,-1.47078 18.529218,-1.47078 20,0 1.470782,1.47078 1.470782,18.52922 0,20.00002 -1.470782,1.4708 -18.529218,1.4708 -20,0 -1.470782,-1.4708 -1.470782,-18.52924 0,-20.00002 z"
       style="fill:#000000;fill-opacity:1;fill-rule:nonzero;stroke:none" />
    <path
       style="fill:#000000;fill-opacity:1;fill-rule:nonzero;stroke:none"
       d="m 40,1028.3622 c 1.470782,-1.4708 18.529218,-1.4708 20,0 1.470782,1.4708 1.470782,18.5292 0,20 -1.470782,1.4708 -18.529218,1.4708 -20,0 -1.470782,-1.4708 -1.470782,-18.5292 0,-20 z"
       id="path3138"
       sodipodi:nodetypes="csssc" />
    <path
       sodipodi:nodetypes="csssc"
       id="path3140"
       d="m 4,1028.3622 c 1.470782,-1.4708 18.529218,-1.4708 20,0 1.470782,1.4708 1.470782,18.5292 0,20 -1.470782,1.4708 -18.529218,1.4708 -20,0 -1.470782,-1.4708 -1.470782,-18.5292 0,-20 z"
       style="fill:#000000;fill-opacity:1;fill-rule:nonzero;stroke:none" />
  </g>
</svg>
