<?xml version="1.0" encoding="UTF-8" standalone="no"?>
<!-- Created with Inkscape (http://www.inkscape.org/) -->

<svg
   xmlns:dc="http://purl.org/dc/elements/1.1/"
   xmlns:cc="http://creativecommons.org/ns#"
   xmlns:rdf="http://www.w3.org/1999/02/22-rdf-syntax-ns#"
   xmlns:svg="http://www.w3.org/2000/svg"
   xmlns="http://www.w3.org/2000/svg"
   xmlns:sodipodi="http://sodipodi.sourceforge.net/DTD/sodipodi-0.dtd"
   xmlns:inkscape="http://www.inkscape.org/namespaces/inkscape"
   width="64"
   height="64"
   id="svg2"
   version="1.1"
   inkscape:version="0.47 r22583"
   inkscape:export-filename="/home/rob/.kde4/share/icons/nmfnms/48x48/actions/go-up.png"
   inkscape:export-xdpi="67.5"
   inkscape:export-ydpi="67.5"
   sodipodi:docname="view-file-columns.svg"
   sodipodi:version="0.32"
   inkscape:output_extension="org.inkscape.output.svg.inkscape">
  <defs
     id="defs4">
    <inkscape:perspective
       sodipodi:type="inkscape:persp3d"
       inkscape:vp_x="0 : 526.18109 : 1"
       inkscape:vp_y="0 : 1000 : 0"
       inkscape:vp_z="744.09448 : 526.18109 : 1"
       inkscape:persp3d-origin="372.04724 : 350.78739 : 1"
       id="perspective10" />
  </defs>
  <sodipodi:namedview
     id="base"
     pagecolor="#ffffff"
     bordercolor="#666666"
     borderopacity="1.0"
     inkscape:pageopacity="0.0"
     inkscape:pageshadow="2"
     inkscape:zoom="9.3470678"
     inkscape:cx="7.8439397"
     inkscape:cy="30.171483"
     inkscape:document-units="px"
     inkscape:current-layer="layer1"
     showgrid="true"
     inkscape:window-width="1546"
     inkscape:window-height="932"
     inkscape:window-x="153"
     inkscape:window-y="94"
     inkscape:window-maximized="0">
    <inkscape:grid
       type="xygrid"
       id="grid2816"
       empspacing="4"
       visible="true"
       enabled="true"
       snapvisiblegridlinesonly="true" />
  </sodipodi:namedview>
  <metadata
     id="metadata7">
    <rdf:RDF>
      <cc:Work
         rdf:about="">
        <dc:format>image/svg+xml</dc:format>
        <dc:type
           rdf:resource="http://purl.org/dc/dcmitype/StillImage" />
        <dc:title></dc:title>
      </cc:Work>
    </rdf:RDF>
  </metadata>
  <g
     inkscape:label="Layer 1"
     inkscape:groupmode="layer"
     id="layer1"
     transform="translate(0,-988.36218)">
    <path
       transform="translate(1.9999998,974.36218)"
       style="fill:#000000;fill-opacity:1;fill-rule:nonzero;stroke:none"
       d="m 10,26 c 1.103087,-1.103086 6.896913,-1.103086 8,0 1.103086,1.103087 1.103086,38.896913 0,40 -1.103087,1.103086 -6.896913,1.103086 -8,0 C 8.896914,64.896913 8.8969137,27.103087 10,26 z"
       id="path3161"
       sodipodi:nodetypes="csssc" />
    <path
       style="fill:#000000;fill-opacity:1;fill-rule:nonzero;stroke:none"
       d="M 38 11.1875 C 31.275772 11.187497 24.551544 11.448425 24 12 C 22.896914 13.1031 22.896914 50.8969 24 52 C 25.103087 53.1031 50.896913 53.1031 52 52 C 53.103086 50.8969 53.103086 13.1031 52 12 C 51.448456 11.448435 44.724228 11.187503 38 11.1875 z M 38.21875 19.96875 C 38.942978 19.96875 39.667206 20.22975 40.21875 20.78125 C 40.659734 21.22225 40.9116 24.3568 41 28 C 44.643176 28.0884 47.777761 28.34025 48.21875 28.78125 C 49.32185 29.88435 49.32185 31.67815 48.21875 32.78125 C 47.777761 33.22225 44.643176 33.4745 41 33.5625 C 40.911603 37.2057 40.659734 40.34025 40.21875 40.78125 C 39.115663 41.88435 37.321837 41.88435 36.21875 40.78125 C 35.777766 40.34025 35.5259 37.2057 35.4375 33.5625 C 31.794324 33.4741 28.659739 33.22225 28.21875 32.78125 C 27.11565 31.67815 27.11565 29.88435 28.21875 28.78125 C 28.659739 28.34025 31.794324 28.088 35.4375 28 C 35.525897 24.3568 35.777766 21.22225 36.21875 20.78125 C 36.770294 20.22975 37.494522 19.96875 38.21875 19.96875 z "
       transform="translate(0,988.36218)"
       id="path3170" />
  </g>
</svg>
