<?xml version="1.0" encoding="UTF-8" standalone="no"?>
<!-- Created with Inkscape (http://www.inkscape.org/) -->

<svg
   xmlns:dc="http://purl.org/dc/elements/1.1/"
   xmlns:cc="http://creativecommons.org/ns#"
   xmlns:rdf="http://www.w3.org/1999/02/22-rdf-syntax-ns#"
   xmlns:svg="http://www.w3.org/2000/svg"
   xmlns="http://www.w3.org/2000/svg"
   xmlns:sodipodi="http://sodipodi.sourceforge.net/DTD/sodipodi-0.dtd"
   xmlns:inkscape="http://www.inkscape.org/namespaces/inkscape"
   width="128"
   height="128"
   id="svg2"
   version="1.1"
   inkscape:version="0.47pre2 r22153"
   sodipodi:docname="playlist-layouts.svg"
   inkscape:export-filename="/home/rob/.kde4/share/apps/amarok/images/playlist-layouts-22.png"
   inkscape:export-xdpi="15.46875"
   inkscape:export-ydpi="15.46875">
  <defs
     id="defs4">
    <inkscape:perspective
       sodipodi:type="inkscape:persp3d"
       inkscape:vp_x="0 : 526.18109 : 1"
       inkscape:vp_y="0 : 1000 : 0"
       inkscape:vp_z="744.09448 : 526.18109 : 1"
       inkscape:persp3d-origin="372.04724 : 350.78739 : 1"
       id="perspective10" />
  </defs>
  <sodipodi:namedview
     id="base"
     pagecolor="#ffffff"
     bordercolor="#666666"
     borderopacity="1.0"
     inkscape:pageopacity="0.0"
     inkscape:pageshadow="2"
     inkscape:zoom="6.6015625"
     inkscape:cx="64"
     inkscape:cy="63.92426"
     inkscape:document-units="px"
     inkscape:current-layer="layer1"
     showgrid="true"
     inkscape:window-width="1316"
     inkscape:window-height="1084"
     inkscape:window-x="358"
     inkscape:window-y="20"
     inkscape:window-maximized="0">
    <inkscape:grid
       type="xygrid"
       id="grid2816"
       empspacing="4"
       visible="true"
       enabled="true"
       snapvisiblegridlinesonly="true" />
  </sodipodi:namedview>
  <metadata
     id="metadata7">
    <rdf:RDF>
      <cc:Work
         rdf:about="">
        <dc:format>image/svg+xml</dc:format>
        <dc:type
           rdf:resource="http://purl.org/dc/dcmitype/StillImage" />
        <dc:title></dc:title>
      </cc:Work>
    </rdf:RDF>
  </metadata>
  <g
     inkscape:label="Layer 1"
     inkscape:groupmode="layer"
     id="layer1"
     transform="translate(0,-924.36218)">
    <path
       style="opacity:0.66000001;fill:#000000;fill-opacity:1;fill-rule:nonzero;stroke:none"
       d="M 117.6875 0 C 109.36467 3.5692479e-15 95.764065 7.2293706 80.53125 18.90625 C 81.506511 19.264013 82.461967 19.644252 83.40625 20.0625 C 92.196985 14.231331 99.815876 10.8125 104.9375 10.8125 C 113.96755 10.8125 112.90601 21.462775 103.8125 37.1875 C 105.55613 39.776683 107.06117 42.555773 108.28125 45.46875 C 126.62791 19.163317 131.23388 -1.0988895e-14 117.6875 0 z M 19.71875 82.53125 C 1.3720923 108.83668 -3.2338839 128 10.3125 128 C 18.635326 128 32.235935 120.77063 47.46875 109.09375 C 44.493368 108.00227 41.664837 106.60052 39 104.96875 C 30.882517 110.16632 23.872523 113.1875 19.0625 113.1875 C 9.7592295 113.1875 11.163243 101.88695 21.03125 85.375 C 20.568421 84.445184 20.121973 83.49396 19.71875 82.53125 z "
       transform="translate(0,924.36218)"
       id="path3817" />
    <path
       id="path3909"
       transform="translate(0,924.36218)"
       style="opacity:0.66000001;fill:#000000;fill-opacity:1;fill-rule:nonzero;stroke:none"
       d="M 64,40 C 50.745166,40 40,50.745166 40,64 40,77.254834 50.745166,88 64,88 77.254834,88 88,77.254834 88,64 88,50.745166 77.254834,40 64,40 z m 0,4 C 75.045695,44 84,52.954305 84,64 84,75.045695 75.045695,84 64,84 52.954305,84 44,75.045695 44,64 44,52.954305 52.954305,44 64,44 z m 7.71875,-10.96875 c -1.957177,0.03634 -4.399418,2.643246 -6.90625,7 3.802353,0.125286 7.375704,1.117385 10.53125,2.8125 0.003,-5.534341 -1.023675,-9.203697 -3.0625,-9.75 -0.1888,-0.05059 -0.362893,-0.06621 -0.5625,-0.0625 z M 43.5,40.65625 c -0.916908,-0.0132 -1.636845,0.23059 -2.125,0.71875 -1.491995,1.491994 -0.522406,5.152751 2.25,9.9375 1.939268,-3.104681 4.582819,-5.748232 7.6875,-7.6875 C 48.100205,41.767308 45.380417,40.683269 43.5,40.65625 z M 85.15625,52.6875 c 1.691756,3.158088 2.691978,6.727264 2.8125,10.53125 4.797207,-2.765504 7.483972,-5.460535 6.9375,-7.5 -0.546992,-2.0414 -4.204549,-3.040783 -9.75,-3.03125 z m -45.125,12.09375 c -3.22764,1.857804 -5.534013,3.662278 -6.5,5.28125 -0.469863,0.78748 -0.616178,1.55192 -0.4375,2.21875 0.546111,2.038116 4.220021,3.039864 9.75,3.03125 -1.691756,-3.158088 -2.691978,-6.727264 -2.8125,-10.53125 z M 84.375,76.6875 c -1.943923,3.112133 -4.60433,5.746899 -7.71875,7.6875 4.798944,2.776617 8.474625,3.744092 9.96875,2.25 1.49091,-1.490923 0.515996,-5.156238 -2.25,-9.9375 z m -31.6875,8.46875 c -0.0036,3.716083 0.426036,6.606396 1.34375,8.25 0.447046,0.8006 1.020669,1.3213 1.6875,1.5 2.038101,0.546135 4.74249,-2.144138 7.5,-6.9375 -3.803986,-0.120522 -7.373162,-1.120744 -10.53125,-2.8125 z M 64,32 c -8.836556,0 -16.834139,3.584139 -22.625,9.375 1.026956,-1.026956 3.1001,-0.864539 5.84375,0.21875 C 51.896342,38.084272 57.702123,36 64,36 c 1.120763,0 2.226154,0.09071 3.3125,0.21875 1.841488,-2.335046 3.559657,-3.502565 4.96875,-3.125 C 69.639619,32.387923 66.86414,32 64,32 z m 8.28125,1.09375 c 1.404051,0.376215 2.317685,2.23104 2.75,5.15625 6.592025,2.827905 11.857591,8.126302 14.6875,14.71875 2.91307,0.425433 4.79337,1.328569 5.1875,2.71875 C 91.953194,44.690603 83.286162,36.034194 72.28125,33.09375 z M 41.375,41.375 C 35.584139,47.165861 32,55.163444 32,64 c 0,2.856038 0.391732,5.615782 1.09375,8.25 -0.166724,-0.659395 -0.02555,-1.411442 0.4375,-2.1875 0.520577,-0.872475 1.464691,-1.783855 2.6875,-2.75 C 36.090614,66.224743 36,65.121896 36,64 36,57.702123 38.084272,51.896342 41.59375,47.21875 40.510461,44.4751 40.348044,42.401956 41.375,41.375 z M 94.90625,55.75 c 0.353871,1.403384 -0.80827,3.106247 -3.125,4.9375 C 91.909187,61.773653 92,62.879552 92,64 92,70.297877 89.915728,76.103658 86.40625,80.78125 87.489539,83.5249 87.651956,85.598044 86.625,86.625 92.415861,80.834139 96,72.836556 96,64 96,61.143962 95.608268,58.384218 94.90625,55.75 z M 86.625,86.625 C 85.598044,87.651956 83.5249,87.489539 80.78125,86.40625 76.103658,89.915728 70.297877,92 64,92 c -1.131606,0 -2.247266,-0.08826 -3.34375,-0.21875 -1.829968,2.313751 -3.534998,3.500818 -4.9375,3.125 C 58.360381,95.612077 61.13586,96 64,96 c 8.836556,0 16.834139,-3.584139 22.625,-9.375 z m -30.90625,8.28125 c -0.666831,-0.1787 -1.240454,-0.6994 -1.6875,-1.5 C 53.543594,92.532869 53.225898,91.290469 53,89.78125 46.376804,86.951834 41.110285,81.628061 38.28125,75 c -2.911791,-0.423908 -4.794303,-1.297099 -5.1875,-2.6875 2.953056,10.996897 11.620088,19.653306 22.625,22.59375 z M 64,24 c -8.06858,0 -15.591111,2.390813 -21.875,6.5 l 5.8125,5.8125 C 52.658142,33.567731 58.146009,32 64,32 c 17.673112,0 32,14.326888 32,32 0,5.853991 -1.567731,11.341858 -4.3125,16.0625 L 97.5,85.875 C 101.60919,79.591111 104,72.06858 104,64 104,41.90861 86.09139,24 64,24 z M 30.75,41.75 C 26.489783,48.108728 24,55.771172 24,64 c 0,22.09139 17.90861,40 40,40 8.228828,0 15.891272,-2.48978 22.25,-6.75 L 80.46875,91.46875 C 75.659488,94.359044 70.019562,96 64,96 46.326888,96 32,81.673112 32,64 32,57.980438 33.640956,52.340512 36.53125,47.53125 L 30.75,41.75 z" />
    <path
       sodipodi:type="arc"
       style="opacity:0.66000001;fill:#000000;fill-opacity:1;fill-rule:nonzero;stroke:none"
       id="path3936"
       sodipodi:cx="64"
       sodipodi:cy="64"
       sodipodi:rx="8"
       sodipodi:ry="8"
       d="m 72,64 a 8,8 0 1 1 -16,0 8,8 0 1 1 16,0 z"
       transform="translate(0,924.36218)" />
  </g>
</svg>
